<?xml version="1.0" encoding="UTF-8" standalone="no"?>
<!-- Created with Sodipodi ("http://www.sodipodi.com/") -->
<svg
   xmlns:dc="http://purl.org/dc/elements/1.1/"
   xmlns:cc="http://creativecommons.org/ns#"
   xmlns:rdf="http://www.w3.org/1999/02/22-rdf-syntax-ns#"
   xmlns:svg="http://www.w3.org/2000/svg"
   xmlns="http://www.w3.org/2000/svg"
   xmlns:xlink="http://www.w3.org/1999/xlink"
   xmlns:sodipodi="http://sodipodi.sourceforge.net/DTD/sodipodi-0.dtd"
   xmlns:inkscape="http://www.inkscape.org/namespaces/inkscape"
   id="svg704"
   sodipodi:version="0.32"
   width="72pt"
   height="72pt"
   sodipodi:docbase="/home/zeus/.icons/gartoon/scalable/apps"
   sodipodi:docname="receiving-low-signal.svg"
   inkscape:version="0.46"
   inkscape:output_extension="org.inkscape.output.svg.inkscape">
  <metadata
     id="metadata37">
    <rdf:RDF>
      <cc:Work
         rdf:about="">
        <dc:format>image/svg+xml</dc:format>
        <dc:type
           rdf:resource="http://purl.org/dc/dcmitype/StillImage" />
      </cc:Work>
    </rdf:RDF>
  </metadata>
  <defs
     id="defs706">
    <inkscape:perspective
       sodipodi:type="inkscape:persp3d"
       inkscape:vp_x="0 : 45 : 1"
       inkscape:vp_y="0 : 1000 : 0"
       inkscape:vp_z="90 : 45 : 1"
       inkscape:persp3d-origin="45 : 30 : 1"
       id="perspective2599" />
    <linearGradient
       id="linearGradient734">
      <stop
         style="stop-color:#2a2535;stop-opacity:1;"
         offset="0.000000"
         id="stop735" />
      <stop
         style="stop-color:#e3e1cf;stop-opacity:1;"
         offset="1.000000"
         id="stop736" />
    </linearGradient>
    <linearGradient
       id="linearGradient724">
      <stop
         style="stop-color:#ffffff;stop-opacity:0.490196;"
         offset="0.000000"
         id="stop725" />
      <stop
         style="stop-color:#ffffff;stop-opacity:0.176471;"
         offset="1.000000"
         id="stop726" />
    </linearGradient>
    <linearGradient
       id="linearGradient718">
      <stop
         style="stop-color:#e3e1cf;stop-opacity:1;"
         offset="0.000000"
         id="stop719" />
      <stop
         style="stop-color:#ffffff;stop-opacity:1;"
         offset="1.000000"
         id="stop720" />
    </linearGradient>
    <linearGradient
       xlink:href="#linearGradient718"
       id="linearGradient721"
       x1="45.4330635"
       y1="41.9262352"
       x2="24.0375099"
       y2="27.2048512"
       gradientUnits="userSpaceOnUse"
       spreadMethod="pad"
       gradientTransform="matrix(0.683697,0.000000,0.000000,0.639475,-3.677019e-2,24.86445)" />
    <linearGradient
       xlink:href="#linearGradient724"
       id="linearGradient723"
       x1="40.2607956"
       y1="39.8445053"
       x2="37.3197212"
       y2="68.6665039"
       gradientUnits="userSpaceOnUse"
       spreadMethod="pad"
       gradientTransform="matrix(0.783848,0.000000,0.000000,0.557770,-3.677019e-2,24.86445)" />
    <linearGradient
       xlink:href="#linearGradient724"
       id="linearGradient732" />
    <radialGradient
       xlink:href="#linearGradient734"
       id="radialGradient733"
       cx="33.2134209"
       cy="118.190964"
       fx="33.2134209"
       fy="118.190964"
       r="14.8945398"
       gradientUnits="userSpaceOnUse"
       spreadMethod="pad"
       gradientTransform="scale(1.559286,0.641319)" />
    <radialGradient
       xlink:href="#linearGradient734"
       id="radialGradient738" />
    <radialGradient
       inkscape:collect="always"
       xlink:href="#linearGradient734"
       id="radialGradient1129"
       gradientUnits="userSpaceOnUse"
       gradientTransform="scale(1.559286,0.641319)"
       spreadMethod="pad"
       cx="33.2134209"
       cy="118.190964"
       fx="33.2134209"
       fy="118.190964"
       r="14.8945398" />
    <linearGradient
       inkscape:collect="always"
       xlink:href="#linearGradient718"
       id="linearGradient1130"
       gradientUnits="userSpaceOnUse"
       gradientTransform="matrix(0.683697,0.000000,0.000000,0.639475,-3.677019e-2,24.86445)"
       spreadMethod="pad"
       x1="45.4330635"
       y1="41.9262352"
       x2="24.0375099"
       y2="27.2048512" />
    <linearGradient
       inkscape:collect="always"
       xlink:href="#linearGradient724"
       id="linearGradient1131"
       gradientUnits="userSpaceOnUse"
       gradientTransform="matrix(0.783848,0.000000,0.000000,0.557770,-3.677019e-2,24.86445)"
       spreadMethod="pad"
       x1="40.2607956"
       y1="39.8445053"
       x2="37.3197212"
       y2="68.6665039" />
    <linearGradient
       gradientTransform="matrix(0.7545313,0,0,2.1039429,-1.4472535,-14.04758)"
       gradientUnits="userSpaceOnUse"
       xlink:href="#linearGradient720"
       id="linearGradient2568"
       y2="19.408516"
       x2="74.974846"
       y1="47.466141"
       x1="75.506447" />
    <linearGradient
       gradientTransform="matrix(0.7545313,0,0,2.1039429,-1.4472535,-14.04758)"
       gradientUnits="userSpaceOnUse"
       xlink:href="#linearGradient720"
       id="linearGradient2566"
       y2="19.408516"
       x2="74.974846"
       y1="47.466141"
       x1="75.506447" />
    <linearGradient
       gradientTransform="matrix(0.7545313,0,0,2.1039429,-1.4472535,-14.04758)"
       gradientUnits="userSpaceOnUse"
       xlink:href="#linearGradient720"
       id="linearGradient2208"
       y2="19.408516"
       x2="74.974846"
       y1="47.466141"
       x1="75.506447" />
    <linearGradient
       id="linearGradient720">
      <stop
         offset="0"
         style="stop-color:#ff0000;stop-opacity:1"
         id="stop722" />
      <stop
         offset="0.5"
         style="stop-color:#ffed00;stop-opacity:1"
         id="stop1769" />
      <stop
         offset="1"
         style="stop-color:#36ff32;stop-opacity:1"
         id="stop721" />
    </linearGradient>
    <inkscape:perspective
       id="perspective2745"
       inkscape:persp3d-origin="45 : 30 : 1"
       inkscape:vp_z="90 : 45 : 1"
       inkscape:vp_y="0 : 1000 : 0"
       inkscape:vp_x="0 : 45 : 1"
       sodipodi:type="inkscape:persp3d" />
  </defs>
  <sodipodi:namedview
     id="base"
     inkscape:zoom="2.5208333"
     inkscape:cx="35.206612"
     inkscape:cy="36.198347"
     inkscape:window-width="640"
     inkscape:window-height="679"
     inkscape:window-x="11"
     inkscape:window-y="180"
     inkscape:current-layer="svg704"
     showgrid="false" />
  <path
     style="font-size:12.000000;fill:#211301;fill-rule:evenodd;stroke-width:1.0000000pt;"
     d="M 46.579470,80.534696 C 46.171551,84.714563 38.610586,87.188596 29.702310,86.057138 C 20.794035,84.925680 13.895192,80.615078 14.303111,76.435210 C 14.711030,72.255343 22.271995,69.781310 31.180271,70.912768 C 40.088546,72.044226 46.987390,76.354828 46.579470,80.534696 z "
     id="path739"
     transform="translate(29.75206,-24.29752)" />
  <path
     sodipodi:type="arc"
     style="fill:url(#radialGradient733);fill-opacity:1.0000000;fill-rule:evenodd;stroke:none;stroke-width:1.0000000pt;stroke-linecap:butt;stroke-linejoin:miter;stroke-opacity:1.0000000;"
     id="path731"
     d="M 67.656265 79.687500 A 19.375004 7.9687538 0 1 1  28.906258,79.687500 A 19.375004 7.9687538 0 1 1  67.656265 79.687500 z"
     sodipodi:cx="48.281261"
     sodipodi:cy="79.687500"
     sodipodi:rx="19.375004"
     sodipodi:ry="7.9687538"
     transform="matrix(0.689116,8.361215e-2,-7.672214e-2,0.750997,33.03567,-10.57266)" />
  <path
     style="font-size:12.000000;fill:#211301;fill-opacity:1.0000000;fill-rule:evenodd;stroke-width:1.0000000pt;"
     d="M 40.928739,76.183040 C 40.631603,78.436427 36.131733,79.884828 30.884330,79.416073 C 25.637002,78.947324 21.619440,76.738053 21.916576,74.484666 C 22.213712,72.231278 26.713582,70.782877 31.960910,71.251626 C 37.208313,71.720381 41.225875,73.929652 40.928739,76.183040 z "
     id="path730"
     transform="translate(29.75206,-24.29752)" />
  <path
     style="font-size:12.000000;fill:#bebdae;fill-opacity:1.0000000;fill-rule:evenodd;stroke-width:1.0000000pt;"
     d="M 39.690996,75.493761 C 39.432548,77.288871 35.518590,78.442706 30.954433,78.069281 C 26.390342,77.695862 22.895895,75.935896 23.154343,74.140786 C 23.412791,72.345676 27.326749,71.191841 31.890840,71.565260 C 36.454996,71.938685 39.949444,73.698652 39.690996,75.493761 z "
     id="path728"
     transform="translate(29.75206,-24.29752)" />
  <path
     style="fill:#211301;fill-opacity:1.0000000;fill-rule:evenodd;stroke:none;stroke-width:1.0000000pt;stroke-linecap:butt;stroke-linejoin:miter;stroke-opacity:1.0000000;"
     d="M 7.2702498,66.242532 C 6.0017366,64.431642 -0.15120524,49.557022 5.1236516,27.992888 C 26.816948,23.541724 45.617462,31.838475 55.377865,38.077609 C 57.369593,42.210233 53.968746,73.256392 46.685022,76.298486 C 41.800505,77.891297 16.241383,77.452218 7.2702498,66.242532 z "
     id="path715"
     sodipodi:nodetypes="ccccc"
     transform="translate(29.75206,-24.29752)" />
  <path
     style="fill:url(#linearGradient721);fill-opacity:1.0000000;fill-rule:evenodd;stroke:none;stroke-width:1.0000000pt;stroke-linecap:butt;stroke-linejoin:miter;stroke-opacity:1.0000000;"
     d="M 10.191457,65.053983 C 9.1582396,63.091030 3.3726277,52.036282 7.2986342,30.753394 C 29.511345,26.724105 44.285370,35.299238 53.480446,40.464992 C 54.513597,44.184402 51.104166,72.079409 45.525151,73.732451 C 40.772657,75.282210 17.010186,74.352341 10.191457,65.053983 z "
     id="path713"
     sodipodi:nodetypes="ccccc"
     transform="translate(29.75206,-24.29752)" />
  <path
     style="fill:#b5a794;fill-opacity:1.0000000;fill-rule:evenodd;stroke:none;stroke-width:1.0000000pt;stroke-linecap:butt;stroke-linejoin:miter;stroke-opacity:1.0000000;"
     d="M 12.567671,37.468888 L 10.914629,37.985430 C 10.707999,39.535190 8.1251549,52.139630 10.604717,57.718645 C 13.497539,62.574421 14.840603,63.504290 14.530690,62.987682 C 11.017911,57.098755 9.8814783,48.110309 12.567671,37.468888 z "
     id="path717"
     sodipodi:nodetypes="ccccc"
     transform="translate(29.75206,-24.29752)" />
  <path
     style="fill:#000000;fill-opacity:1.0000000;fill-rule:evenodd;stroke:none;stroke-width:1.0000000pt;stroke-linecap:butt;stroke-linejoin:miter;stroke-opacity:1.0000000;"
     d="M 12.416120,37.219596 C 12.416120,37.219596 8.2385315,52.430495 13.594458,61.642620 C 17.664962,67.319936 30.840506,71.818914 41.659512,68.605359 C 43.694798,66.034514 48.300792,52.109106 44.016119,44.396572 C 42.409307,41.718574 23.020888,33.470482 12.416120,37.219596 z "
     id="path711"
     sodipodi:nodetypes="ccccc"
     transform="translate(29.75206,-24.29752)" />
  <path
     style="fill:#437caf;fill-opacity:1.0000000;fill-rule:evenodd;stroke:none;stroke-width:1.0000000pt;stroke-linecap:butt;stroke-linejoin:miter;stroke-opacity:1.0000000;"
     d="M 12.980931,37.778800 C 12.980931,37.778800 8.9516756,52.449609 14.117430,61.334640 C 18.043403,66.810373 30.751126,71.149607 41.185983,68.050154 C 43.149003,65.570592 47.591453,52.139630 43.458915,44.700944 C 41.909156,42.118034 23.209158,34.162805 12.980931,37.778800 z "
     id="path710"
     sodipodi:nodetypes="ccccc"
     transform="translate(29.75206,-24.29752)" />
  <path
     style="fill:url(#linearGradient723);fill-opacity:1.0000000;fill-rule:evenodd;stroke:none;stroke-width:1.0000000pt;stroke-linecap:butt;stroke-linejoin:miter;stroke-opacity:1.0000000;"
     d="M 11.637868,52.552891 C 11.637868,52.552891 20.212987,40.878253 28.374846,48.316939 C 31.680995,59.371620 43.768827,61.954531 43.768827,61.954531 L 41.392613,67.843524 C 32.404168,71.046325 15.150581,64.434093 14.324060,61.954531 C 13.497539,59.474969 14.117430,63.297660 11.637868,52.552891 z "
     id="path722"
     sodipodi:nodetypes="cccccc"
     transform="translate(29.75206,-24.29752)" />
  <path
     style="fill:#000000;fill-opacity:1.0000000;fill-rule:evenodd;stroke:none;stroke-width:1.0000000pt;stroke-linecap:butt;stroke-linejoin:miter;stroke-opacity:1.0000000;"
     d="M 15.873784,57.808836 L 15.777141,63.117889 C 19.866449,68.363594 32.417540,70.809844 36.226846,69.076902 C 36.116900,68.196987 36.006884,66.230710 35.800226,65.404219 C 33.114025,64.784315 20.576237,62.951282 15.873784,57.808836 z "
     id="path709"
     sodipodi:nodetypes="ccccc"
     transform="translate(29.75206,-24.29752)" />
  <path
     style="fill:#b5a794;fill-opacity:1.0000000;fill-rule:evenodd;stroke:none;stroke-width:1.0000000pt;stroke-linecap:butt;stroke-linejoin:miter;stroke-opacity:1.0000000;"
     d="M 53.687076,40.671622 C 53.687076,40.671622 50.277711,40.774971 50.174429,40.774971 C 50.071015,40.774971 50.690971,49.556720 50.277711,52.759521 C 49.864451,55.962256 48.831300,63.504290 48.211409,65.467244 C 47.591519,67.430263 43.975458,73.732451 43.665545,74.145711 C 43.355567,74.558971 44.492066,74.042363 46.248389,73.525821 C 51.000884,68.050088 53.377164,54.929171 53.687076,40.671622 z "
     id="path716"
     sodipodi:nodetypes="ccccccc"
     transform="translate(29.75206,-24.29752)" />
  <path
     style="fill:#c7bda8;fill-opacity:1.0000000;fill-rule:evenodd;stroke:none;stroke-width:1.0000000pt;stroke-linecap:butt;stroke-linejoin:miter;stroke-opacity:1.0000000;"
     d="M 16.287013,58.855112 L 16.390362,62.677737 C 20.522965,67.120253 32.507515,69.806445 35.503620,68.566730 C 35.400338,67.740143 35.296990,66.087168 35.296990,66.087168 C 35.296990,66.087168 20.316269,63.297628 16.287013,58.855112 z "
     id="path708"
     sodipodi:nodetypes="ccccc"
     transform="translate(29.75206,-24.29752)" />
  <path
     style="fill:#211301;fill-opacity:1.0000000;fill-rule:evenodd;stroke:none;stroke-width:1.0000000pt;stroke-linecap:butt;stroke-linejoin:miter;stroke-opacity:1.0000000;"
     d="M 43.458915,73.939081 C 43.458915,73.939081 51.517492,67.636894 49.451190,41.188231 C 47.694801,39.431841 45.008608,37.468888 45.008608,37.468888 C 45.008608,37.468888 50.174363,39.948450 50.484341,40.774971 C 51.000884,41.911404 51.310796,69.289935 43.458915,73.939081 z "
     id="path712"
     sodipodi:nodetypes="ccccc"
     transform="translate(29.75206,-24.29752)" />
  <path
     style="fill:#fbfbfb;fill-opacity:1.0000000;fill-rule:evenodd;stroke:none;stroke-width:1.0000000pt;stroke-linecap:butt;stroke-linejoin:miter;stroke-opacity:1.0000000;"
     d="M 17.526795,76.831903 L 18.456664,76.108731 C 21.762747,81.894376 35.296990,82.514266 36.330141,82.307636 C 37.363292,82.101006 24.862133,86.026979 17.526795,76.831903 z "
     id="path740"
     sodipodi:nodetypes="cccc"
     transform="translate(29.75206,-24.29752)" />
  <path
     style="fill:none;fill-opacity:1.0000000;fill-rule:evenodd;stroke:#000000;stroke-width:0.57856452;stroke-linecap:round;stroke-linejoin:round;stroke-opacity:1.0000000;"
     d="M 18.146685,60.921380 C 18.146685,59.888229 18.146685,64.020899 18.146685,64.020899"
     id="path741"
     sodipodi:nodetypes="cc"
     transform="translate(29.75206,-24.29752)" />
  <path
     style="fill:none;fill-opacity:1.0000000;fill-rule:evenodd;stroke:#000000;stroke-width:0.57856452;stroke-linecap:round;stroke-linejoin:round;stroke-opacity:1.0000000;"
     d="M 31.371022,65.570563 C 31.371022,64.537412 31.371022,68.670082 31.371022,68.670082"
     id="path742"
     sodipodi:nodetypes="cc"
     transform="translate(29.75206,-24.29752)" />
  <path
     style="font-size:12.000000;fill:#211301;fill-rule:evenodd;stroke-width:1.0000000pt;"
     d="M 46.579470,80.534696 C 46.171551,84.714563 38.610586,87.188596 29.702310,86.057138 C 20.794035,84.925680 13.895192,80.615078 14.303111,76.435210 C 14.711030,72.255343 22.271995,69.781310 31.180271,70.912768 C 40.088546,72.044226 46.987390,76.354828 46.579470,80.534696 z "
     id="path1112" />
  <path
     sodipodi:type="arc"
     style="fill:url(#radialGradient1129);fill-opacity:1.0000000;fill-rule:evenodd;stroke:none;stroke-width:1.0000000pt;stroke-linecap:butt;stroke-linejoin:miter;stroke-opacity:1.0000000;"
     id="path1113"
     d="M 67.656265 79.687500 A 19.375004 7.9687538 0 1 1  28.906258,79.687500 A 19.375004 7.9687538 0 1 1  67.656265 79.687500 z"
     sodipodi:cx="48.281261"
     sodipodi:cy="79.687500"
     sodipodi:rx="19.375004"
     sodipodi:ry="7.9687538"
     transform="matrix(0.689116,8.361215e-2,-7.672214e-2,0.750997,3.283606,13.72486)" />
  <path
     style="font-size:12.000000;fill:#211301;fill-opacity:1.0000000;fill-rule:evenodd;stroke-width:1.0000000pt;"
     d="M 40.928739,76.183040 C 40.631603,78.436427 36.131733,79.884828 30.884330,79.416073 C 25.637002,78.947324 21.619440,76.738053 21.916576,74.484666 C 22.213712,72.231278 26.713582,70.782877 31.960910,71.251626 C 37.208313,71.720381 41.225875,73.929652 40.928739,76.183040 z "
     id="path1114" />
  <path
     style="font-size:12.000000;fill:#bebdae;fill-opacity:1.0000000;fill-rule:evenodd;stroke-width:1.0000000pt;"
     d="M 39.690996,75.493761 C 39.432548,77.288871 35.518590,78.442706 30.954433,78.069281 C 26.390342,77.695862 22.895895,75.935896 23.154343,74.140786 C 23.412791,72.345676 27.326749,71.191841 31.890840,71.565260 C 36.454996,71.938685 39.949444,73.698652 39.690996,75.493761 z "
     id="path1115" />
  <path
     style="fill:#211301;fill-opacity:1.0000000;fill-rule:evenodd;stroke:none;stroke-width:1.0000000pt;stroke-linecap:butt;stroke-linejoin:miter;stroke-opacity:1.0000000;"
     d="M 7.2702498,66.242532 C 6.0017366,64.431642 -0.15120524,49.557022 5.1236516,27.992888 C 26.816948,23.541724 45.617462,31.838475 55.377865,38.077609 C 57.369593,42.210233 53.968746,73.256392 46.685022,76.298486 C 41.800505,77.891297 16.241383,77.452218 7.2702498,66.242532 z "
     id="path1116"
     sodipodi:nodetypes="ccccc" />
  <path
     style="fill:url(#linearGradient1130);fill-opacity:1.0000000;fill-rule:evenodd;stroke:none;stroke-width:1.0000000pt;stroke-linecap:butt;stroke-linejoin:miter;stroke-opacity:1.0000000;"
     d="M 10.191457,65.053983 C 9.1582396,63.091030 3.3726277,52.036282 7.2986342,30.753394 C 29.511345,26.724105 44.285370,35.299238 53.480446,40.464992 C 54.513597,44.184402 51.104166,72.079409 45.525151,73.732451 C 40.772657,75.282210 17.010186,74.352341 10.191457,65.053983 z "
     id="path1117"
     sodipodi:nodetypes="ccccc" />
  <path
     style="fill:#b5a794;fill-opacity:1.0000000;fill-rule:evenodd;stroke:none;stroke-width:1.0000000pt;stroke-linecap:butt;stroke-linejoin:miter;stroke-opacity:1.0000000;"
     d="M 12.567671,37.468888 L 10.914629,37.985430 C 10.707999,39.535190 8.1251549,52.139630 10.604717,57.718645 C 13.497539,62.574421 14.840603,63.504290 14.530690,62.987682 C 11.017911,57.098755 9.8814783,48.110309 12.567671,37.468888 z "
     id="path1118"
     sodipodi:nodetypes="ccccc" />
  <path
     style="fill:#000000;fill-opacity:1.0000000;fill-rule:evenodd;stroke:none;stroke-width:1.0000000pt;stroke-linecap:butt;stroke-linejoin:miter;stroke-opacity:1.0000000;"
     d="M 12.416120,37.219596 C 12.416120,37.219596 8.2385315,52.430495 13.594458,61.642620 C 17.664962,67.319936 30.840506,71.818914 41.659512,68.605359 C 43.694798,66.034514 48.300792,52.109106 44.016119,44.396572 C 42.409307,41.718574 23.020888,33.470482 12.416120,37.219596 z "
     id="path1119"
     sodipodi:nodetypes="ccccc" />
  <path
     style="fill:#0f1d29;fill-opacity:1.0000000;fill-rule:evenodd;stroke:none;stroke-width:1.0000000pt;stroke-linecap:butt;stroke-linejoin:miter;stroke-opacity:1.0000000;"
     d="M 12.980931,37.778800 C 12.980931,37.778800 8.9516756,52.449609 14.117430,61.334640 C 18.043403,66.810373 30.751126,71.149607 41.185983,68.050154 C 43.149003,65.570592 47.591453,52.139630 43.458915,44.700944 C 41.909156,42.118034 23.209158,34.162805 12.980931,37.778800 z "
     id="path1120"
     sodipodi:nodetypes="ccccc" />
  <path
     style="fill:url(#linearGradient1131);fill-opacity:1.0000000;fill-rule:evenodd;stroke:none;stroke-width:1.0000000pt;stroke-linecap:butt;stroke-linejoin:miter;stroke-opacity:1.0000000;"
     d="M 11.637868,52.552891 C 11.637868,52.552891 20.212987,40.878253 28.374846,48.316939 C 31.680995,59.371620 43.768827,61.954531 43.768827,61.954531 L 41.392613,67.843524 C 32.404168,71.046325 15.150581,64.434093 14.324060,61.954531 C 13.497539,59.474969 14.117430,63.297660 11.637868,52.552891 z "
     id="path1121"
     sodipodi:nodetypes="cccccc" />
  <path
     style="fill:#000000;fill-opacity:1.0000000;fill-rule:evenodd;stroke:none;stroke-width:1.0000000pt;stroke-linecap:butt;stroke-linejoin:miter;stroke-opacity:1.0000000;"
     d="M 15.873784,57.808836 L 15.777141,63.117889 C 19.866449,68.363594 32.417540,70.809844 36.226846,69.076902 C 36.116900,68.196987 36.006884,66.230710 35.800226,65.404219 C 33.114025,64.784315 20.576237,62.951282 15.873784,57.808836 z "
     id="path1122"
     sodipodi:nodetypes="ccccc" />
  <path
     style="fill:#b5a794;fill-opacity:1.0000000;fill-rule:evenodd;stroke:none;stroke-width:1.0000000pt;stroke-linecap:butt;stroke-linejoin:miter;stroke-opacity:1.0000000;"
     d="M 53.687076,40.671622 C 53.687076,40.671622 50.277711,40.774971 50.174429,40.774971 C 50.071015,40.774971 50.690971,49.556720 50.277711,52.759521 C 49.864451,55.962256 48.831300,63.504290 48.211409,65.467244 C 47.591519,67.430263 43.975458,73.732451 43.665545,74.145711 C 43.355567,74.558971 44.492066,74.042363 46.248389,73.525821 C 51.000884,68.050088 53.377164,54.929171 53.687076,40.671622 z "
     id="path1123"
     sodipodi:nodetypes="ccccccc" />
  <path
     style="fill:#c7bda8;fill-opacity:1.0000000;fill-rule:evenodd;stroke:none;stroke-width:1.0000000pt;stroke-linecap:butt;stroke-linejoin:miter;stroke-opacity:1.0000000;"
     d="M 16.287013,58.855112 L 16.390362,62.677737 C 20.522965,67.120253 32.507515,69.806445 35.503620,68.566730 C 35.400338,67.740143 35.296990,66.087168 35.296990,66.087168 C 35.296990,66.087168 20.316269,63.297628 16.287013,58.855112 z "
     id="path1124"
     sodipodi:nodetypes="ccccc" />
  <path
     style="fill:#211301;fill-opacity:1.0000000;fill-rule:evenodd;stroke:none;stroke-width:1.0000000pt;stroke-linecap:butt;stroke-linejoin:miter;stroke-opacity:1.0000000;"
     d="M 43.458915,73.939081 C 43.458915,73.939081 51.517492,67.636894 49.451190,41.188231 C 47.694801,39.431841 45.008608,37.468888 45.008608,37.468888 C 45.008608,37.468888 50.174363,39.948450 50.484341,40.774971 C 51.000884,41.911404 51.310796,69.289935 43.458915,73.939081 z "
     id="path1125"
     sodipodi:nodetypes="ccccc" />
  <path
     style="fill:#fbfbfb;fill-opacity:1.0000000;fill-rule:evenodd;stroke:none;stroke-width:1.0000000pt;stroke-linecap:butt;stroke-linejoin:miter;stroke-opacity:1.0000000;"
     d="M 17.526795,76.831903 L 18.456664,76.108731 C 21.762747,81.894376 35.296990,82.514266 36.330141,82.307636 C 37.363292,82.101006 24.862133,86.026979 17.526795,76.831903 z "
     id="path1126"
     sodipodi:nodetypes="cccc" />
  <path
     style="fill:none;fill-opacity:1.0000000;fill-rule:evenodd;stroke:#000000;stroke-width:0.57856452;stroke-linecap:round;stroke-linejoin:round;stroke-opacity:1.0000000;"
     d="M 18.146685,60.921380 C 18.146685,59.888229 18.146685,64.020899 18.146685,64.020899"
     id="path1127"
     sodipodi:nodetypes="cc" />
  <path
     style="fill:none;fill-opacity:1.0000000;fill-rule:evenodd;stroke:#000000;stroke-width:0.57856452;stroke-linecap:round;stroke-linejoin:round;stroke-opacity:1.0000000;"
     d="M 31.371022,65.570563 C 31.371022,64.537412 31.371022,68.670082 31.371022,68.670082"
     id="path1128"
     sodipodi:nodetypes="cc" />
  <g
     id="g2560"
     transform="matrix(0.674121,0,0,0.674121,29.317658,28.408745)">
    <path
       style="opacity:0.99450546;fill:#c2c2c2;fill-opacity:1;fill-rule:nonzero;stroke:#34674b;stroke-width:3.77987003;stroke-linecap:square;stroke-linejoin:round;marker:none;marker-start:none;marker-mid:none;marker-end:none;stroke-miterlimit:4;stroke-dashoffset:0;stroke-opacity:1;visibility:visible;display:block"
       id="path3188"
       d="M 72.838302,7.2274194 C 70.201251,7.2274194 68.091509,9.3568816 68.091509,11.969594 L 68.091509,80.282932 C 68.091509,82.895644 70.201252,85.025107 72.838302,85.025107 L 78.890464,85.025107 C 81.527516,85.025107 83.676812,82.895648 83.676814,80.282932 L 83.676814,11.969594 C 83.676814,9.3568806 81.527517,7.2274194 78.890464,7.2274194 L 72.838302,7.2274194 z" />
    <path
       style="opacity:0.99450546;fill:url(#linearGradient2566);fill-opacity:1;fill-rule:nonzero;stroke:#34674b;stroke-width:3.77987003;stroke-linecap:square;stroke-linejoin:round;marker:none;marker-start:none;marker-mid:none;marker-end:none;stroke-miterlimit:4;stroke-dashoffset:0;stroke-opacity:1;visibility:visible;display:block"
       id="path3186"
       d="M 31.382972,39.829351 C 28.74592,39.829351 26.596622,41.919622 26.596622,44.532334 L 26.596622,80.282932 C 26.596622,82.895644 28.745919,85.025107 31.382972,85.025107 L 37.435134,85.025107 C 40.072185,85.025107 42.181931,82.895648 42.181927,80.282932 L 42.181927,44.532334 C 42.181927,41.919621 40.072187,39.829351 37.435134,39.829351 L 31.382972,39.829351 z" />
    <path
       style="opacity:0.99450546;fill:#c2c2c2;fill-opacity:1;fill-rule:nonzero;stroke:#34674b;stroke-width:3.77987003;stroke-linecap:square;stroke-linejoin:round;marker:none;marker-start:none;marker-mid:none;marker-end:none;stroke-miterlimit:4;stroke-dashoffset:0;stroke-opacity:1;visibility:visible;display:block"
       id="path3184"
       d="M 52.110637,23.476978 C 49.473586,23.476978 47.324287,25.606441 47.324287,28.219153 L 47.324287,80.282932 C 47.324287,82.895644 49.473587,85.025104 52.110637,85.025107 L 58.162799,85.025107 C 60.799851,85.025107 62.90959,82.895645 62.909592,80.282932 L 62.909592,28.219153 C 62.909592,25.60644 60.799852,23.476978 58.162799,23.476978 L 52.110637,23.476978 z" />
    <path
       style="opacity:0.99450546;fill:url(#linearGradient2568);fill-opacity:1;fill-rule:nonzero;stroke:#34674b;stroke-width:3.77987003;stroke-linecap:square;stroke-linejoin:round;marker:none;marker-start:none;marker-mid:none;marker-end:none;stroke-miterlimit:4;stroke-dashoffset:0;stroke-opacity:1;visibility:visible;display:block"
       id="path5147"
       d="M 10.615749,56.319047 C 7.9786987,56.319047 5.8689567,58.409319 5.8689567,61.02203 L 5.8689567,80.282932 C 5.8689567,82.895644 7.9786989,85.025107 10.615749,85.025107 L 16.707468,85.025107 C 19.34452,85.025107 21.454261,82.895648 21.454261,80.282932 L 21.454261,61.02203 C 21.454261,58.409318 19.34452,56.319047 16.707468,56.319047 L 10.615749,56.319047 z" />
  </g>
</svg>
