<?xml version="1.0" encoding="UTF-8" standalone="no"?>
<!-- Created with Sodipodi ("http://www.sodipodi.com/") -->
<svg
   xmlns:dc="http://purl.org/dc/elements/1.1/"
   xmlns:cc="http://creativecommons.org/ns#"
   xmlns:rdf="http://www.w3.org/1999/02/22-rdf-syntax-ns#"
   xmlns:svg="http://www.w3.org/2000/svg"
   xmlns="http://www.w3.org/2000/svg"
   xmlns:sodipodi="http://sodipodi.sourceforge.net/DTD/sodipodi-0.dtd"
   xmlns:inkscape="http://www.inkscape.org/namespaces/inkscape"
   version="1.0"
   x="0"
   y="0"
   width="90"
   height="90"
   id="svg1101"
   xml:space="preserve"
   sodipodi:version="0.32"
   inkscape:version="0.46+devel"
   sodipodi:docname="help-faq.svg"
   sodipodi:docbase="/home/tweenk/GNUtoon/actions"
   inkscape:output_extension="org.inkscape.output.svg.inkscape"><metadata
     id="metadata46"><rdf:RDF><cc:Work
         rdf:about=""><dc:format>image/svg+xml</dc:format><dc:type
           rdf:resource="http://purl.org/dc/dcmitype/StillImage" /></cc:Work></rdf:RDF></metadata><sodipodi:namedview
     inkscape:window-height="724"
     inkscape:window-width="795"
     inkscape:pageshadow="2"
     inkscape:pageopacity="0.0"
     guidetolerance="10.0"
     gridtolerance="10.0"
     objecttolerance="10.0"
     borderopacity="1.0"
     bordercolor="#666666"
     pagecolor="#ffffff"
     id="base"
     inkscape:zoom="4.5222222"
     inkscape:cx="64.348894"
     inkscape:cy="41.393631"
     inkscape:window-x="58"
     inkscape:window-y="9"
     inkscape:current-layer="svg1101"
     width="90px"
     height="90px"
     showgrid="false" /><defs
     id="defs1103" /><g
     id="g2317"
     transform="matrix(0.9197613,0,0,0.9197613,3.9242214,6.3809719)"><path
       id="path1145"
       style="font-size:12px;fill-rule:evenodd;stroke-width:1"
       d="M 22.90931,55.838713 L 12.384769,90.043435 L 61.060705,64.389886 L 22.90931,55.838713 z " /><path
       id="path1142"
       style="font-size:12px;fill-rule:evenodd"
       d="M 89.345324,36.434102 C 89.345324,56.233049 69.466649,69.652133 44.945019,69.652133 C 20.423391,69.652133 0.54467337,56.233049 0.54467337,36.434102 C 0.54467337,16.635154 20.423391,0.58494053 44.945019,0.58494053 C 69.466649,0.58494053 89.345324,16.635154 89.345324,36.434102 z " /><path
       id="path1143"
       style="font-size:12px;fill:#fffff9;fill-rule:evenodd"
       d="M 81.45193,36.434102 C 81.45193,53.326782 65.107249,67.021001 44.945019,67.021001 C 24.78279,67.021001 8.438064,53.326782 8.438064,36.434102 C 8.438064,19.541422 24.78279,5.8472034 44.945019,5.8472034 C 65.107249,5.8472034 81.45193,19.541422 81.45193,36.434102 z " /><path
       id="path1144"
       style="font-size:12px;fill:#fffff9;fill-rule:evenodd;stroke-width:1"
       d="M 28.829352,62.416533 L 18.962605,82.15001 L 48.562844,63.074312 L 44.616139,58.469829" /></g><g
     id="g2506"
     transform="matrix(0.8830168,0,0,0.8830168,7.2224348,0.4164696)"><path
       sodipodi:nodetypes="ccccccccccc"
       id="path2508"
       d="m 26.669595,63.314414 13.251234,7.390731 c 3.312894,-0.692874 12.541464,-4.157244 16.327578,-6.69786 -1.419783,-1.847736 -1.893,-5.311998 -2.83956,-7.852611 3.786117,-0.92376 25.319472,-14.550468 19.403799,-34.181946 -16.327458,-36.953337 -57.028062,-11.77881 -57.264729,-9.700188 -0.236556,2.078601 5.679234,12.009915 7.335678,14.550417 l 10.411677,4.619127 6.862338,-3.926253 c -5.679117,10.393113 -13.961238,13.395498 -15.854349,15.705114 -0.946443,0.46188 2.603007,20.78634 2.366334,20.093469 z"
       style="fill:#000000;fill-opacity:0.3;fill-rule:evenodd;stroke:none" /><path
       transform="matrix(1.262487,0,0,1.288848,-3.3515343,-13.515508)"
       sodipodi:ry="10.997026"
       sodipodi:rx="11.939625"
       sodipodi:cy="68.73909"
       sodipodi:cx="40.008221"
       d="m 51.947845,68.73909 a 11.939625,10.997026 0 1 1 -23.879249,0 11.939625,10.997026 0 1 1 23.879249,0 z"
       id="path2510"
       style="fill:#000000;fill-opacity:0.3;fill-rule:evenodd;stroke:none"
       sodipodi:type="arc" /><path
       transform="matrix(1.134807,0,0,1.205673,-0.2250363,-9.0177305)"
       sodipodi:ry="10.997026"
       sodipodi:rx="11.939625"
       sodipodi:cy="68.73909"
       sodipodi:cx="40.008221"
       d="m 51.947845,68.73909 a 11.939625,10.997026 0 1 1 -23.879249,0 11.939625,10.997026 0 1 1 23.879249,0 z"
       id="path2512"
       style="fill:#042800;fill-opacity:1;fill-rule:evenodd;stroke:none"
       sodipodi:type="arc" /><path
       sodipodi:nodetypes="ccccccccccc"
       id="path2514"
       d="m 25.375215,58.013243 12.073005,6.898947 c 3.01833,-0.646767 10.722705,-3.333348 14.172183,-5.704905 l -1.883448,-7.877364 c 3.449472,-0.862293 23.068197,-13.582272 17.678514,-31.907457 -14.87571,-34.494435 -51.957432,-10.9950385 -52.173057,-9.054729 -0.215517,1.940289 5.174268,11.210766 6.68343,13.582221 l 9.485928,4.311765 6.252174,-3.664995 c -5.174157,9.701553 -12.719877,12.50415 -14.444667,14.660088 -0.86229,0.431142 2.37156,19.403202 2.155938,18.756429 z"
       style="fill:#042800;fill-opacity:1;fill-rule:evenodd;stroke:none" /><path
       sodipodi:nodetypes="cccccccc"
       id="path2516"
       d="M 49.0625,6.96875 C 59.410927,26.156309 43.261657,42.063235 37.65625,46.375 37.345416,48.861882 37.922035,51.024736 38.460684,51.968863 L 29.312387,55.828407 37.65625,60.375 46.65625,57.3125 45,49.375 C 81.140941,26.207304 52.528494,7.873753 49.0625,6.96875 z"
       style="fill:#208c11;fill-opacity:1;fill-rule:evenodd;stroke:none" /><path
       sodipodi:nodetypes="cccc"
       id="path2518"
       d="m 25.311254,20.907909 c 2.549239,1.217861 7.17843,2.826422 7.17843,2.826422 3.723492,-2.557783 7.603346,-3.670605 11.326838,-4.352105 -2.58708,-4.506074 -9.881633,-3.390216 -18.505268,1.525683 z"
       style="fill:#208c11;fill-opacity:1;fill-rule:evenodd;stroke:none" /><path
       sodipodi:nodetypes="ccccc"
       id="path2520"
       d="m 55.241532,74.536586 c 0,5.128533 -4.118889,9.290811 -9.193917,9.290811 -5.075238,0 -9.194127,-4.162278 -9.194127,-9.290811 0,-5.12853 11.474169,-1.999221 9.194127,-9.290808 5.075028,0 9.193917,4.162278 9.193917,9.290808 z"
       style="font-size:12px;fill:#208c11;fill-opacity:1;fill-rule:evenodd;stroke-width:1pt" /><path
       id="path2522"
       d="m 51.757494,73.181693 c 0,4.807983 -3.772038,8.710161 -8.419755,8.710161 -4.647813,0 -8.419848,-3.902178 -8.419848,-8.710161 0,-4.807983 3.772035,-8.710161 8.419848,-8.710161 4.647717,0 8.419755,3.902178 8.419755,8.710161 z"
       style="font-size:12px;fill:#19db00;fill-opacity:1;fill-rule:evenodd;stroke-width:1pt" /><path
       sodipodi:nodetypes="ccccccccc"
       id="path2524"
       d="m 26.884377,41.197226 2.371455,14.660085 9.701553,-3.449475 -1.077915,-6.036453 c 0,0 24.792882,-15.091332 18.10956,-32.554224 -6.683226,-10.7795 -18.756333,-12.504219 -35.356833,-1.077918 2.155938,3.449475 4.115164,7.567039 4.743018,8.19249 7.32999,-4.096245 18.109557,-6.683325 18.756429,0.431145 0.646773,3.23385 -12.935499,19.4031 -17.247267,19.83435 z"
       style="fill:#19db00;fill-opacity:1;fill-rule:evenodd;stroke:none" /></g></svg>