<?xml version="1.0" encoding="UTF-8" standalone="no"?>
<!-- Created with Sodipodi ("http://www.sodipodi.com/") -->
<svg
   xmlns:dc="http://purl.org/dc/elements/1.1/"
   xmlns:cc="http://web.resource.org/cc/"
   xmlns:rdf="http://www.w3.org/1999/02/22-rdf-syntax-ns#"
   xmlns:svg="http://www.w3.org/2000/svg"
   xmlns="http://www.w3.org/2000/svg"
   xmlns:xlink="http://www.w3.org/1999/xlink"
   xmlns:sodipodi="http://sodipodi.sourceforge.net/DTD/sodipodi-0.dtd"
   xmlns:inkscape="http://www.inkscape.org/namespaces/inkscape"
   id="svg848"
   sodipodi:version="0.32"
   width="90"
   height="90"
   sodipodi:docbase="/home/tweenk/GNUtoon/actions"
   sodipodi:docname="mail-reply-group.svg"
   inkscape:version="0.45.1"
   inkscape:output_extension="org.inkscape.output.svg.inkscape"
   version="1.0">
  <metadata
     id="metadata46">
    <rdf:RDF>
      <cc:Work
         rdf:about="">
        <dc:format>image/svg+xml</dc:format>
        <dc:type
           rdf:resource="http://purl.org/dc/dcmitype/StillImage" />
      </cc:Work>
    </rdf:RDF>
  </metadata>
  <defs
     id="defs850">
    <linearGradient
       id="linearGradient867">
      <stop
         style="stop-color:#92b5d7;stop-opacity:0.780392;"
         offset="0.000000"
         id="stop868" />
      <stop
         style="stop-color:#ffffff;stop-opacity:0.321569;"
         offset="1.000000"
         id="stop869" />
    </linearGradient>
    <linearGradient
       id="linearGradient860">
      <stop
         style="stop-color:#92b5d7;stop-opacity:1;"
         offset="0.000000"
         id="stop861" />
      <stop
         style="stop-color:#ffffff;stop-opacity:1;"
         offset="1.000000"
         id="stop862" />
    </linearGradient>
    <linearGradient
       xlink:href="#linearGradient860"
       id="linearGradient863"
       x1="37.126305"
       y1="43.838791"
       x2="68.40992"
       y2="44.934666"
       gradientUnits="userSpaceOnUse"
       gradientTransform="scale(1.036866,0.964444)"
       spreadMethod="reflect" />
    <linearGradient
       xlink:href="#linearGradient867"
       id="linearGradient866"
       x1="38.646523"
       y1="64.399437"
       x2="39.494808"
       y2="29.977726"
       gradientUnits="userSpaceOnUse"
       spreadMethod="pad"
       gradientTransform="scale(1.261031,0.793002)" />
    <linearGradient
       xlink:href="#linearGradient867"
       id="linearGradient871"
       x1="28.197727"
       y1="108.28517"
       x2="33.435261"
       y2="93.438599"
       gradientUnits="userSpaceOnUse"
       spreadMethod="pad"
       gradientTransform="scale(1.52092,0.657497)" />
    <defs
       id="defs550">
      <linearGradient
         x1="0"
         y1="0"
         x2="1"
         y2="0"
         id="linearGradient556"
         gradientUnits="objectBoundingBox"
         spreadMethod="pad">
        <stop
           style="stop-color:#ff8700;stop-opacity:1;"
           offset="0.00000000"
           id="stop557" />
        <stop
           style="stop-color:#ffff8d;stop-opacity:0;"
           offset="1.00000000"
           id="stop558" />
      </linearGradient>
      <linearGradient
         x1="0"
         y1="0"
         x2="1"
         y2="0"
         id="linearGradient559"
         xlink:href="#linearGradient556"
         gradientUnits="objectBoundingBox"
         spreadMethod="pad" />
    </defs>
    <linearGradient
       inkscape:collect="always"
       xlink:href="#linearGradient867"
       id="linearGradient1102"
       gradientUnits="userSpaceOnUse"
       gradientTransform="matrix(1.072497,0,0,0.463644,3.06999,2.552128)"
       spreadMethod="pad"
       x1="28.197727"
       y1="108.28517"
       x2="33.435261"
       y2="93.438599" />
    <linearGradient
       inkscape:collect="always"
       xlink:href="#linearGradient867"
       id="linearGradient1103"
       gradientUnits="userSpaceOnUse"
       gradientTransform="matrix(0.925947,0,0,0.582282,3.168828,-2.774393)"
       spreadMethod="pad"
       x1="38.646523"
       y1="64.399437"
       x2="39.494808"
       y2="29.977726" />
    <linearGradient
       inkscape:collect="always"
       xlink:href="#linearGradient860"
       id="linearGradient1104"
       gradientUnits="userSpaceOnUse"
       gradientTransform="matrix(0.872841,0,0,0.811875,-1.29744,-6.130454)"
       spreadMethod="reflect"
       x1="37.126305"
       y1="43.838791"
       x2="68.40992"
       y2="44.934666" />
  </defs>
  <sodipodi:namedview
     id="base"
     inkscape:zoom="2.8645833"
     inkscape:cx="39.132508"
     inkscape:cy="24.000001"
     inkscape:window-width="1014"
     inkscape:window-height="686"
     inkscape:window-x="0"
     inkscape:window-y="1"
     inkscape:current-layer="svg848"
     width="90px"
     height="90px" />
  <g
     id="g859"
     transform="matrix(0.841806,0,0,0.841806,14.744433,11.539438)">
    <path
       style="font-size:12px;fill:#000000;fill-opacity:0.3;fill-rule:evenodd;stroke-width:1pt"
       d="M 11.2695,13.5441 C 10.8576,13.5441 9.2958,56.3824 12.3893,59.6969 C 21.0436,69.8079 74.9091,82.708 76.235,80.7192 C 77.5608,78.7305 87.0025,39.5285 83.4669,36.8769 C 72.929,23.7217 12.5953,10.2295 11.2695,13.5441 z "
       id="path860"
       transform="matrix(1.124488,0,0,1.124488,-6.54284,-1.6541)"
       sodipodi:nodetypes="ccccc" />
    <path
       style="font-size:12px;fill:#3d4e67;fill-rule:evenodd;stroke-width:1pt"
       d="M 11.2695,13.5441 C 10.8576,13.5441 9.2958,56.3824 12.3893,59.6969 C 21.0436,69.8079 74.9091,82.708 76.235,80.7192 C 77.5608,78.7305 87.0025,39.5285 83.4669,36.8769 C 72.929,23.7217 12.5953,10.2295 11.2695,13.5441 z "
       id="path861"
       transform="matrix(1.124488,0,0,1.124488,-10.96226,-8.946139)"
       sodipodi:nodetypes="ccccc" />
    <path
       style="font-size:12px;fill:url(#linearGradient863);stroke-width:1pt"
       d="M 11.2695,13.5441 C 11.2695,13.5441 9.50175,55.9705 12.5953,59.285 C 15.6889,62.5996 74.9091,82.708 76.235,80.7192 C 77.5608,78.7305 86.1787,38.2928 82.6431,35.6412 C 79.1076,32.9895 12.5953,10.2295 11.2695,13.5441 z "
       id="path862"
       transform="translate(-5.082326,-3.093586)" />
    <path
       style="font-size:12px;fill:#3d4e67;fill-rule:evenodd;stroke-width:1pt"
       d="M 13.9212,59.948 C 13.2582,60.169 27.6213,56.4124 32.4828,53.0978 C 32.9247,52.8769 42.8684,53.5398 45.962,56.6334 C 49.0555,59.727 68.28,76.0789 74.4672,80.7192 C 64.3026,80.0563 21.4341,72.9852 13.9212,59.948 z "
       id="path863"
       sodipodi:nodetypes="ccccc"
       transform="translate(-5.082326,-3.093586)" />
    <path
       style="font-size:12px;fill:#ffffff;fill-rule:evenodd;stroke-width:1pt"
       d="M 13.9212,59.948 C 14.1421,59.948 28.2842,57.9592 33.1457,54.6446 C 33.5876,54.4237 42.8684,54.2027 45.962,57.2963 C 49.0555,60.3899 72.6994,80.4983 74.4672,80.7192 C 76.235,80.9402 19.4454,68.7868 13.9212,59.948 z "
       id="path864"
       sodipodi:nodetypes="ccccc"
       transform="matrix(0.83768,0,0,0.83768,0.105843,7.220649)" />
    <path
       style="font-size:12px;fill:#3d4e67;fill-rule:evenodd;stroke-width:1pt"
       d="M 81.7593,35.4202 C 81.7593,35.4202 39.7747,60.169 36.0182,56.8544 C 27.6213,48.8994 11.0485,13.1021 11.7115,12.4392 C 14.1422,10.4505 64.9654,20.1732 81.7593,35.4202 z "
       id="path866"
       sodipodi:nodetypes="cccc"
       transform="translate(-5.082326,-3.093586)" />
    <path
       style="font-size:12px;fill:#ffffff;fill-rule:evenodd;stroke-width:1pt"
       d="M 84.0393,35.6735 C 81.7593,36.6869 39.7747,60.169 36.0182,56.8544 C 27.6213,48.8994 10.2885,12.0888 10.9515,11.4259 C 13.3822,9.43718 65.9787,20.9332 84.0393,35.6735 z "
       id="path867"
       sodipodi:nodetypes="cccc"
       transform="matrix(0.872265,0,0,0.872265,0.223256,0.893154)" />
    <path
       style="font-size:12px;fill:url(#linearGradient866);fill-rule:evenodd;stroke-width:1pt"
       d="M 84.0393,35.6735 C 81.7593,36.6869 39.7747,60.169 36.0182,56.8544 C 27.6213,48.8994 10.2885,12.0888 10.9515,11.4259 C 13.3822,9.43718 65.9787,20.9332 84.0393,35.6735 z "
       id="path868"
       sodipodi:nodetypes="cccc"
       transform="matrix(0.872265,0,0,0.872265,0.223256,0.893154)" />
    <path
       style="font-size:12px;fill:url(#linearGradient871);fill-rule:evenodd;stroke-width:1pt"
       d="M 13.9212,59.948 C 14.1421,59.948 28.2842,57.9592 33.1457,54.6446 C 33.5876,54.4237 42.8684,54.2027 45.962,57.2963 C 49.0555,60.3899 72.6994,80.4983 74.4672,80.7192 C 76.235,80.9402 19.4454,68.7868 13.9212,59.948 z "
       id="path869"
       sodipodi:nodetypes="ccccc"
       transform="matrix(0.83768,0,0,0.83768,0.105843,7.220649)" />
  </g>
  <path
     style="font-size:12px;fill:#3d4e67;fill-rule:evenodd;stroke-width:1pt"
     d="M 4.420513,1.763686 C 4.030608,1.763686 2.552208,42.314437 5.480516,45.451945 C 13.67268,55.023022 64.661784,67.234261 65.916882,65.351662 C 67.171884,63.469159 76.1094,26.36053 72.7626,23.850524 C 62.78742,11.397807 5.675515,-1.373915 4.420513,1.763686 z "
     id="path859"
     sodipodi:nodetypes="ccccc" />
  <path
     style="font-size:12px;fill:url(#linearGradient1104);stroke-width:1pt"
     d="M 8.189289,5.271047 C 8.189289,5.271047 6.701187,40.985827 9.305355,43.775992 C 11.909565,46.566241 61.761462,63.493606 62.877612,61.819423 C 63.993678,60.145324 71.248275,26.104641 68.271987,23.872509 C 65.295783,21.640293 9.305355,2.480798 8.189289,5.271047 z "
     id="path856" />
  <path
     style="font-size:12px;fill:#3d4e67;fill-rule:evenodd;stroke-width:1pt"
     d="M 10.421505,44.334109 C 9.863388,44.520148 21.954327,41.357821 26.046765,38.567572 C 26.418758,38.381617 34.78942,38.93965 37.39363,41.54386 C 39.997755,44.14807 56.181048,57.913192 61.389468,61.819423 C 52.83285,61.26139 16.745907,55.308898 10.421505,44.334109 z "
     id="path855"
     sodipodi:nodetypes="ccccc" />
  <path
     style="font-size:12px;fill:#ffffff;fill-rule:evenodd;stroke-width:1pt"
     d="M 12.886715,44.825278 C 13.042485,44.825278 23.01498,43.42285 26.443133,41.085514 C 26.754745,40.929745 33.299227,40.773904 35.480722,42.955396 C 37.662144,45.136891 54.334965,59.316604 55.581552,59.472376 C 56.828142,59.628217 16.78218,51.058081 12.886715,44.825278 z "
     id="path858"
     sodipodi:nodetypes="ccccc" />
  <path
     style="font-size:12px;fill:#3d4e67;fill-rule:evenodd;stroke-width:1pt"
     d="M 67.527999,23.68647 C 67.527999,23.68647 32.185125,44.520148 29.022884,41.729899 C 21.954327,35.033335 8.00325,4.898968 8.561367,4.340936 C 10.607544,2.666837 53.390799,10.85146 67.527999,23.68647 z "
     id="path854"
     sodipodi:nodetypes="cccc" />
  <path
     style="font-size:12px;fill:#ffffff;fill-rule:evenodd;stroke-width:1pt"
     d="M 64.876944,23.419835 C 63.202794,24.163951 32.374474,41.406313 29.616162,38.972479 C 23.450512,33.131308 10.723437,6.102134 11.210263,5.615382 C 12.99507,4.155111 51.615465,12.596373 64.876944,23.419835 z "
     id="path857"
     sodipodi:nodetypes="cccc" />
  <path
     style="font-size:12px;fill:url(#linearGradient1103);fill-rule:evenodd;stroke-width:1pt"
     d="M 64.876944,23.419835 C 63.202794,24.163951 32.374474,41.406313 29.616162,38.972479 C 23.450512,33.131308 10.723437,6.102134 11.210263,5.615382 C 12.99507,4.155111 51.615465,12.596373 64.876944,23.419835 z "
     id="path865"
     sodipodi:nodetypes="cccc" />
  <path
     style="font-size:12px;fill:url(#linearGradient1102);fill-rule:evenodd;stroke-width:1pt"
     d="M 12.886715,44.825278 C 13.042485,44.825278 23.01498,43.42285 26.443133,41.085514 C 26.754745,40.929745 33.299227,40.773904 35.480722,42.955396 C 37.662144,45.136891 54.334965,59.316604 55.581552,59.472376 C 56.828142,59.628217 16.78218,51.058081 12.886715,44.825278 z "
     id="path870"
     sodipodi:nodetypes="ccccc" />
  <path
     d="M 1.90895,67.588288 C 2.94653,72.352138 21.741295,90.53272 25.522351,88.566733 C 32.656227,86.461144 30.747708,79.46518 33.495184,78.07081 C 36.328761,77.189302 51.556425,79.65793 53.583279,76.647862 C 56.497146,70.113391 57.037773,57.891892 50.086926,54.6199 C 42.931647,52.648288 31.185858,56.404861 30.030012,52.909909 C 28.874162,49.414957 26.271154,47.475085 24.118893,47.860258 C 21.966631,48.245431 0.042296,62.640202 1.90895,67.588288 z "
     style="fill:#437caf;fill-opacity:1;fill-rule:evenodd;stroke-width:1pt"
     id="path582" />
  <path
     d="M 8.106619,67.579645 C 8.708267,71.171404 21.05174,83.768569 24.146454,82.089781 C 27.2413,80.410897 26.107992,74.903677 28.399455,74.097898 C 30.69105,73.292026 48.875322,74.149987 49.146684,71.361481 C 49.418277,68.573008 50.573808,59.095405 47.785434,58.823947 C 44.996829,58.55245 26.952267,61.047277 26.19745,58.430641 C 25.442633,55.814005 25.90214,52.888636 24.174823,53.283436 C 22.447506,53.678236 6.855117,63.885808 8.106619,67.579645 z "
     style="fill:#bae6ff;fill-opacity:1;fill-rule:evenodd;stroke-width:1pt"
     id="path581" />
  <path
     d="M 49.350912,70.061317 C 49.350912,70.061317 49.592637,72.763888 46.37688,73.091419 C 43.161351,73.418986 27.851486,73.345705 27.510268,74.45782 C 27.324746,77.759284 24.96854,83.217976 22.88117,82.723687 C 19.168727,81.974017 8.211354,70.094167 7.867514,68.041678 C 7.523902,65.989222 18.959257,76.94497 22.293209,74.804053 C 25.62716,72.663139 24.477639,68.319316 27.180211,68.077588 C 29.882652,67.835959 48.47541,66.093364 48.921363,67.495771 C 49.36722,68.898049 48.735708,70.797334 49.350912,70.061317 z "
     style="fill:#31baff;fill-opacity:1;fill-rule:evenodd;stroke-width:1pt"
     id="path583" />
  <path
     d="M 47.901663,61.617898 C 47.901663,61.617898 27.904165,60.641689 27.049735,61.839847 C 26.195437,63.037912 43.235154,65.880961 47.901663,61.617898 z "
     style="font-size:12px;fill:#ffffff;fill-rule:evenodd;stroke-width:1pt"
     id="path588" />
  <path
     d="M 11.229354,65.017042 C 11.229354,65.017042 18.920881,57.398824 20.836389,56.866948 C 22.751774,56.335183 21.677112,59.996635 21.677112,59.996635 C 21.677112,59.996635 11.94666,63.630928 11.229354,65.017042 z "
     style="font-size:12px;fill:#ffffff;fill-rule:evenodd;stroke-width:1pt"
     id="path589" />
</svg>
