<?xml version="1.0" encoding="UTF-8" standalone="no"?>
<!-- Created with Sodipodi ("http://www.sodipodi.com/") -->
<svg
   xmlns:dc="http://purl.org/dc/elements/1.1/"
   xmlns:cc="http://web.resource.org/cc/"
   xmlns:rdf="http://www.w3.org/1999/02/22-rdf-syntax-ns#"
   xmlns:svg="http://www.w3.org/2000/svg"
   xmlns="http://www.w3.org/2000/svg"
   xmlns:xlink="http://www.w3.org/1999/xlink"
   xmlns:sodipodi="http://sodipodi.sourceforge.net/DTD/sodipodi-0.dtd"
   xmlns:inkscape="http://www.inkscape.org/namespaces/inkscape"
   id="svg848"
   sodipodi:version="0.32"
   width="90"
   height="90"
   sodipodi:docbase="/home/tweenk/GNUtoon/actions"
   sodipodi:docname="mail-mark-important.svg"
   inkscape:version="0.45.1"
   inkscape:output_extension="org.inkscape.output.svg.inkscape"
   version="1.0">
  <metadata
     id="metadata33">
    <rdf:RDF>
      <cc:Work
         rdf:about="">
        <dc:format>image/svg+xml</dc:format>
        <dc:type
           rdf:resource="http://purl.org/dc/dcmitype/StillImage" />
      </cc:Work>
    </rdf:RDF>
  </metadata>
  <defs
     id="defs850">
    <linearGradient
       id="linearGradient867">
      <stop
         style="stop-color:#92b5d7;stop-opacity:0.780392;"
         offset="0.000000"
         id="stop868" />
      <stop
         style="stop-color:#ffffff;stop-opacity:0.321569;"
         offset="1.000000"
         id="stop869" />
    </linearGradient>
    <linearGradient
       id="linearGradient860">
      <stop
         style="stop-color:#92b5d7;stop-opacity:1;"
         offset="0.000000"
         id="stop861" />
      <stop
         style="stop-color:#ffffff;stop-opacity:1;"
         offset="1.000000"
         id="stop862" />
    </linearGradient>
    <linearGradient
       xlink:href="#linearGradient860"
       id="linearGradient863"
       x1="37.126305"
       y1="43.838791"
       x2="68.40992"
       y2="44.934666"
       gradientUnits="userSpaceOnUse"
       gradientTransform="scale(1.036866,0.964444)"
       spreadMethod="reflect" />
    <linearGradient
       xlink:href="#linearGradient867"
       id="linearGradient866"
       x1="38.646523"
       y1="64.399437"
       x2="39.494808"
       y2="29.977726"
       gradientUnits="userSpaceOnUse"
       spreadMethod="pad"
       gradientTransform="scale(1.261031,0.793002)" />
    <linearGradient
       xlink:href="#linearGradient867"
       id="linearGradient871"
       x1="28.197727"
       y1="108.28517"
       x2="33.435261"
       y2="93.438599"
       gradientUnits="userSpaceOnUse"
       spreadMethod="pad"
       gradientTransform="scale(1.52092,0.657497)" />
    <defs
       id="defs550">
      <linearGradient
         x1="0"
         y1="0"
         x2="1"
         y2="0"
         id="linearGradient556"
         gradientUnits="objectBoundingBox"
         spreadMethod="pad">
        <stop
           style="stop-color:#ff8700;stop-opacity:1;"
           offset="0.00000000"
           id="stop557" />
        <stop
           style="stop-color:#ffff8d;stop-opacity:0;"
           offset="1.00000000"
           id="stop558" />
      </linearGradient>
      <linearGradient
         x1="0"
         y1="0"
         x2="1"
         y2="0"
         id="linearGradient559"
         xlink:href="#linearGradient556"
         gradientUnits="objectBoundingBox"
         spreadMethod="pad" />
    </defs>
  </defs>
  <sodipodi:namedview
     id="base"
     inkscape:zoom="5.2666667"
     inkscape:cx="45"
     inkscape:cy="45"
     inkscape:window-width="1014"
     inkscape:window-height="686"
     inkscape:window-x="0"
     inkscape:window-y="41"
     inkscape:current-layer="svg848"
     width="90px"
     height="90px" />
  <g
     id="g852"
     transform="matrix(0.888426,0,0,0.888426,4.7645402,2.2112626)">
    <path
       style="font-size:12px;fill:#000000;fill-opacity:0.3;fill-rule:evenodd;stroke-width:1pt"
       d="M 11.2695,13.5441 C 10.8576,13.5441 9.2958,56.3824 12.3893,59.6969 C 21.0436,69.8079 74.9091,82.708 76.235,80.7192 C 77.5608,78.7305 87.0025,39.5285 83.4669,36.8769 C 72.929,23.7217 12.5953,10.2295 11.2695,13.5441 z "
       id="path914"
       transform="matrix(1.124488,0,0,1.124488,-6.54284,-1.6541)"
       sodipodi:nodetypes="ccccc" />
    <path
       style="font-size:12px;fill:#3d4e67;fill-rule:evenodd;stroke-width:1pt"
       d="M 11.2695,13.5441 C 10.8576,13.5441 9.2958,56.3824 12.3893,59.6969 C 21.0436,69.8079 74.9091,82.708 76.235,80.7192 C 77.5608,78.7305 87.0025,39.5285 83.4669,36.8769 C 72.929,23.7217 12.5953,10.2295 11.2695,13.5441 z "
       id="path859"
       transform="matrix(1.124488,0,0,1.124488,-10.96226,-8.946139)"
       sodipodi:nodetypes="ccccc" />
    <path
       style="font-size:12px;fill:url(#linearGradient863);stroke-width:1pt"
       d="M 11.2695,13.5441 C 11.2695,13.5441 9.50175,55.9705 12.5953,59.285 C 15.6889,62.5996 74.9091,82.708 76.235,80.7192 C 77.5608,78.7305 86.1787,38.2928 82.6431,35.6412 C 79.1076,32.9895 12.5953,10.2295 11.2695,13.5441 z "
       id="path856"
       transform="translate(-5.082326,-3.093586)" />
    <path
       style="font-size:12px;fill:#3d4e67;fill-rule:evenodd;stroke-width:1pt"
       d="M 13.9212,59.948 C 13.2582,60.169 27.6213,56.4124 32.4828,53.0978 C 32.9247,52.8769 42.8684,53.5398 45.962,56.6334 C 49.0555,59.727 68.28,76.0789 74.4672,80.7192 C 64.3026,80.0563 21.4341,72.9852 13.9212,59.948 z "
       id="path855"
       sodipodi:nodetypes="ccccc"
       transform="translate(-5.082326,-3.093586)" />
    <path
       style="font-size:12px;fill:#ffffff;fill-rule:evenodd;stroke-width:1pt"
       d="M 13.9212,59.948 C 14.1421,59.948 28.2842,57.9592 33.1457,54.6446 C 33.5876,54.4237 42.8684,54.2027 45.962,57.2963 C 49.0555,60.3899 72.6994,80.4983 74.4672,80.7192 C 76.235,80.9402 19.4454,68.7868 13.9212,59.948 z "
       id="path858"
       sodipodi:nodetypes="ccccc"
       transform="matrix(0.83768,0,0,0.83768,0.105843,7.220649)" />
    <path
       style="font-size:12px;fill:#3d4e67;fill-rule:evenodd;stroke-width:1pt"
       d="M 81.7593,35.4202 C 81.7593,35.4202 39.7747,60.169 36.0182,56.8544 C 27.6213,48.8994 11.0485,13.1021 11.7115,12.4392 C 14.1422,10.4505 64.9654,20.1732 81.7593,35.4202 z "
       id="path854"
       sodipodi:nodetypes="cccc"
       transform="translate(-5.082326,-3.093586)" />
    <path
       style="font-size:12px;fill:#ffffff;fill-rule:evenodd;stroke-width:1pt"
       d="M 84.0393,35.6735 C 81.7593,36.6869 39.7747,60.169 36.0182,56.8544 C 27.6213,48.8994 10.2885,12.0888 10.9515,11.4259 C 13.3822,9.43718 65.9787,20.9332 84.0393,35.6735 z "
       id="path857"
       sodipodi:nodetypes="cccc"
       transform="matrix(0.872265,0,0,0.872265,0.223256,0.893154)" />
    <path
       style="font-size:12px;fill:url(#linearGradient866);fill-rule:evenodd;stroke-width:1pt"
       d="M 84.0393,35.6735 C 81.7593,36.6869 39.7747,60.169 36.0182,56.8544 C 27.6213,48.8994 10.2885,12.0888 10.9515,11.4259 C 13.3822,9.43718 65.9787,20.9332 84.0393,35.6735 z "
       id="path865"
       sodipodi:nodetypes="cccc"
       transform="matrix(0.872265,0,0,0.872265,0.223256,0.893154)" />
    <path
       style="font-size:12px;fill:url(#linearGradient871);fill-rule:evenodd;stroke-width:1pt"
       d="M 13.9212,59.948 C 14.1421,59.948 28.2842,57.9592 33.1457,54.6446 C 33.5876,54.4237 42.8684,54.2027 45.962,57.2963 C 49.0555,60.3899 72.6994,80.4983 74.4672,80.7192 C 76.235,80.9402 19.4454,68.7868 13.9212,59.948 z "
       id="path870"
       sodipodi:nodetypes="ccccc"
       transform="matrix(0.83768,0,0,0.83768,0.105843,7.220649)" />
  </g>
  <g
     id="g2287"
     transform="matrix(3.2526252,0,0,3.2526252,-8.2148398,8.8534306)">
    <path
       transform="matrix(0.2846654,0,0,0.2906092,12.879594,-0.4437481)"
       sodipodi:ry="10.997026"
       sodipodi:rx="11.939625"
       sodipodi:cy="68.73909"
       sodipodi:cx="40.008221"
       d="M 51.947845 68.73909 A 11.939625 10.997026 0 1 1  28.068596,68.73909 A 11.939625 10.997026 0 1 1  51.947845 68.73909 z"
       id="path575"
       style="fill:#000000;fill-opacity:0.3;fill-rule:evenodd;stroke:none;stroke-width:1pt;stroke-linecap:butt;stroke-linejoin:miter;stroke-opacity:1"
       sodipodi:type="arc" />
    <path
       sodipodi:nodetypes="ccccccc"
       id="path574"
       d="M 22.123764,15.980223 L 24.154727,18.029905 L 27.254603,17.217089 L 28.786739,5.8025094 L 26.328201,2.9400094 L 20.021544,3.4700986 L 22.123764,15.980223 z "
       style="fill:#000000;fill-opacity:0.3;fill-rule:evenodd;stroke:none;stroke-width:1pt;stroke-linecap:butt;stroke-linejoin:miter;stroke-opacity:1" />
    <path
       sodipodi:nodetypes="ccccccc"
       id="path570"
       d="M 21.087119,15.520645 L 23.046402,17.514299 L 26.036871,16.723702 L 27.514932,5.621139 L 25.143165,2.8368861 L 19.059095,3.3524854 L 21.087119,15.520645 z "
       style="fill:#2c0000;fill-opacity:1;fill-rule:evenodd;stroke:none;stroke-width:1pt;stroke-linecap:butt;stroke-linejoin:miter;stroke-opacity:1" />
    <path
       id="path568"
       d="M 25.280667,4.1430737 L 26.518094,5.3805049 L 25.246298,16.105 L 23.424493,16.586223 L 22.255805,15.280034 L 24.52444,14.901943 L 25.280667,4.1430737 z "
       style="fill:none;fill-opacity:1;fill-rule:evenodd;stroke:none;stroke-width:1pt;stroke-linecap:butt;stroke-linejoin:miter;stroke-opacity:1" />
    <path
       sodipodi:nodetypes="ccccccc"
       id="path569"
       d="M 24.868185,3.7993369 L 24.18072,14.695678 L 22.015194,15.005076 L 23.321384,16.483113 L 25.246274,16.105 L 26.483724,5.7242255 L 24.868185,3.7993369 z "
       style="fill:#790000;fill-opacity:1;fill-rule:evenodd;stroke:none;stroke-width:1pt;stroke-linecap:butt;stroke-linejoin:miter;stroke-opacity:1" />
    <path
       id="path567"
       d="M 20.330892,4.3493193 L 22.083934,15.108186 L 24.283829,14.626939 L 24.936924,3.9368314 L 20.330892,4.3493193 z "
       style="fill:#ff0000;fill-opacity:1;fill-rule:evenodd;stroke:none;stroke-width:1pt;stroke-linecap:butt;stroke-linejoin:miter;stroke-opacity:1" />
    <path
       transform="matrix(0.2558759,0,0,0.2718548,13.687666,0.6391575)"
       sodipodi:ry="10.997026"
       sodipodi:rx="11.939625"
       sodipodi:cy="68.73909"
       sodipodi:cx="40.008221"
       d="M 51.947845 68.73909 A 11.939625 10.997026 0 1 1  28.068596,68.73909 A 11.939625 10.997026 0 1 1  51.947845 68.73909 z"
       id="path558"
       style="fill:#2c0000;fill-opacity:1;fill-rule:evenodd;stroke:none;stroke-width:1pt;stroke-linecap:butt;stroke-linejoin:miter;stroke-opacity:1"
       sodipodi:type="arc" />
    <path
       sodipodi:nodetypes="ccccc"
       id="path562"
       d="M 26.194267,19.478946 C 26.194267,20.635325 25.26554,21.573833 24.121224,21.573833 C 22.97686,21.573833 22.048133,20.635325 22.048133,19.478946 C 22.048133,18.322567 24.635328,19.028163 24.121224,17.384059 C 25.26554,17.384059 26.194267,18.322567 26.194267,19.478946 z "
       style="font-size:12px;fill:#790000;fill-opacity:1;fill-rule:evenodd;stroke-width:1pt" />
    <path
       id="path561"
       d="M 25.408672,19.173461 C 25.408672,20.257564 24.558155,21.137425 23.51019,21.137425 C 22.462203,21.137425 21.611687,20.257564 21.611687,19.173461 C 21.611687,18.089357 22.462203,17.209496 23.51019,17.209496 C 24.558155,17.209496 25.408672,18.089357 25.408672,19.173461 z "
       style="font-size:12px;fill:#ff0000;fill-rule:evenodd;stroke-width:1pt" />
  </g>
</svg>
