<?xml version="1.0" encoding="UTF-8" standalone="no"?>
<!-- Created with Sodipodi ("http://www.sodipodi.com/") -->
<svg
   xmlns:dc="http://purl.org/dc/elements/1.1/"
   xmlns:cc="http://web.resource.org/cc/"
   xmlns:rdf="http://www.w3.org/1999/02/22-rdf-syntax-ns#"
   xmlns:svg="http://www.w3.org/2000/svg"
   xmlns="http://www.w3.org/2000/svg"
   xmlns:xlink="http://www.w3.org/1999/xlink"
   xmlns:sodipodi="http://sodipodi.sourceforge.net/DTD/sodipodi-0.dtd"
   xmlns:inkscape="http://www.inkscape.org/namespaces/inkscape"
   id="svg848"
   sodipodi:version="0.32"
   width="90"
   height="90"
   sodipodi:docbase="/home/tweenk/GNUtoon/actions"
   sodipodi:docname="gnome-stock-mail-fwd.svg"
   inkscape:version="0.45.1"
   inkscape:output_extension="org.inkscape.output.svg.inkscape"
   version="1.0">
  <metadata
     id="metadata38">
    <rdf:RDF>
      <cc:Work
         rdf:about="">
        <dc:format>image/svg+xml</dc:format>
        <dc:type
           rdf:resource="http://purl.org/dc/dcmitype/StillImage" />
      </cc:Work>
    </rdf:RDF>
  </metadata>
  <defs
     id="defs850">
    <linearGradient
       id="linearGradient867">
      <stop
         style="stop-color:#92b5d7;stop-opacity:0.780392;"
         offset="0.000000"
         id="stop868" />
      <stop
         style="stop-color:#ffffff;stop-opacity:0.321569;"
         offset="1.000000"
         id="stop869" />
    </linearGradient>
    <linearGradient
       id="linearGradient860">
      <stop
         style="stop-color:#92b5d7;stop-opacity:1;"
         offset="0.000000"
         id="stop861" />
      <stop
         style="stop-color:#ffffff;stop-opacity:1;"
         offset="1.000000"
         id="stop862" />
    </linearGradient>
    <linearGradient
       xlink:href="#linearGradient860"
       id="linearGradient863"
       x1="37.126305"
       y1="43.838791"
       x2="68.40992"
       y2="44.934666"
       gradientUnits="userSpaceOnUse"
       gradientTransform="scale(1.036866,0.964444)"
       spreadMethod="reflect" />
    <linearGradient
       xlink:href="#linearGradient867"
       id="linearGradient866"
       x1="38.646523"
       y1="64.399437"
       x2="39.494808"
       y2="29.977726"
       gradientUnits="userSpaceOnUse"
       spreadMethod="pad"
       gradientTransform="scale(1.261031,0.793002)" />
    <linearGradient
       xlink:href="#linearGradient867"
       id="linearGradient871"
       x1="28.197727"
       y1="108.28517"
       x2="33.435261"
       y2="93.438599"
       gradientUnits="userSpaceOnUse"
       spreadMethod="pad"
       gradientTransform="scale(1.52092,0.657497)" />
    <defs
       id="defs550">
      <linearGradient
         x1="0"
         y1="0"
         x2="1"
         y2="0"
         id="linearGradient556"
         gradientUnits="objectBoundingBox"
         spreadMethod="pad">
        <stop
           style="stop-color:#ff8700;stop-opacity:1;"
           offset="0.00000000"
           id="stop557" />
        <stop
           style="stop-color:#ffff8d;stop-opacity:0;"
           offset="1.00000000"
           id="stop558" />
      </linearGradient>
      <linearGradient
         x1="0"
         y1="0"
         x2="1"
         y2="0"
         id="linearGradient559"
         xlink:href="#linearGradient556"
         gradientUnits="objectBoundingBox"
         spreadMethod="pad" />
    </defs>
  </defs>
  <sodipodi:namedview
     id="base"
     inkscape:zoom="5.2666667"
     inkscape:cx="45"
     inkscape:cy="45"
     inkscape:window-width="1014"
     inkscape:window-height="686"
     inkscape:window-x="0"
     inkscape:window-y="1"
     showguides="true"
     snaptoguides="true"
     inkscape:current-layer="svg848"
     width="90px"
     height="90px" />
  <g
     id="g852"
     transform="matrix(0.821934,0,0,0.821934,6.4352806,-1.5789778)">
    <path
       style="font-size:12px;fill:#000000;fill-opacity:0.3;fill-rule:evenodd;stroke-width:1pt"
       d="M 11.2695,13.5441 C 10.8576,13.5441 9.2958,56.3824 12.3893,59.6969 C 21.0436,69.8079 74.9091,82.708 76.235,80.7192 C 77.5608,78.7305 87.0025,39.5285 83.4669,36.8769 C 72.929,23.7217 12.5953,10.2295 11.2695,13.5441 z "
       id="path914"
       transform="matrix(1.124488,0,0,1.124488,-6.54284,-1.6541)"
       sodipodi:nodetypes="ccccc" />
    <path
       style="font-size:12px;fill:#3d4e67;fill-rule:evenodd;stroke-width:1pt"
       d="M 11.2695,13.5441 C 10.8576,13.5441 9.2958,56.3824 12.3893,59.6969 C 21.0436,69.8079 74.9091,82.708 76.235,80.7192 C 77.5608,78.7305 87.0025,39.5285 83.4669,36.8769 C 72.929,23.7217 12.5953,10.2295 11.2695,13.5441 z "
       id="path859"
       transform="matrix(1.124488,0,0,1.124488,-10.96226,-8.946139)"
       sodipodi:nodetypes="ccccc" />
    <path
       style="font-size:12px;fill:url(#linearGradient863);stroke-width:1pt"
       d="M 11.2695,13.5441 C 11.2695,13.5441 9.50175,55.9705 12.5953,59.285 C 15.6889,62.5996 74.9091,82.708 76.235,80.7192 C 77.5608,78.7305 86.1787,38.2928 82.6431,35.6412 C 79.1076,32.9895 12.5953,10.2295 11.2695,13.5441 z "
       id="path856"
       transform="translate(-5.082326,-3.093586)" />
    <path
       style="font-size:12px;fill:#3d4e67;fill-rule:evenodd;stroke-width:1pt"
       d="M 13.9212,59.948 C 13.2582,60.169 27.6213,56.4124 32.4828,53.0978 C 32.9247,52.8769 42.8684,53.5398 45.962,56.6334 C 49.0555,59.727 68.28,76.0789 74.4672,80.7192 C 64.3026,80.0563 21.4341,72.9852 13.9212,59.948 z "
       id="path855"
       sodipodi:nodetypes="ccccc"
       transform="translate(-5.082326,-3.093586)" />
    <path
       style="font-size:12px;fill:#ffffff;fill-rule:evenodd;stroke-width:1pt"
       d="M 13.9212,59.948 C 14.1421,59.948 28.2842,57.9592 33.1457,54.6446 C 33.5876,54.4237 42.8684,54.2027 45.962,57.2963 C 49.0555,60.3899 72.6994,80.4983 74.4672,80.7192 C 76.235,80.9402 19.4454,68.7868 13.9212,59.948 z "
       id="path858"
       sodipodi:nodetypes="ccccc"
       transform="matrix(0.83768,0,0,0.83768,0.105843,7.220649)" />
    <path
       style="font-size:12px;fill:#3d4e67;fill-rule:evenodd;stroke-width:1pt"
       d="M 81.7593,35.4202 C 81.7593,35.4202 39.7747,60.169 36.0182,56.8544 C 27.6213,48.8994 11.0485,13.1021 11.7115,12.4392 C 14.1422,10.4505 64.9654,20.1732 81.7593,35.4202 z "
       id="path854"
       sodipodi:nodetypes="cccc"
       transform="translate(-5.082326,-3.093586)" />
    <path
       style="font-size:12px;fill:#ffffff;fill-rule:evenodd;stroke-width:1pt"
       d="M 84.0393,35.6735 C 81.7593,36.6869 39.7747,60.169 36.0182,56.8544 C 27.6213,48.8994 10.2885,12.0888 10.9515,11.4259 C 13.3822,9.43718 65.9787,20.9332 84.0393,35.6735 z "
       id="path857"
       sodipodi:nodetypes="cccc"
       transform="matrix(0.872265,0,0,0.872265,0.223256,0.893154)" />
    <path
       style="font-size:12px;fill:url(#linearGradient866);fill-rule:evenodd;stroke-width:1pt"
       d="M 84.0393,35.6735 C 81.7593,36.6869 39.7747,60.169 36.0182,56.8544 C 27.6213,48.8994 10.2885,12.0888 10.9515,11.4259 C 13.3822,9.43718 65.9787,20.9332 84.0393,35.6735 z "
       id="path865"
       sodipodi:nodetypes="cccc"
       transform="matrix(0.872265,0,0,0.872265,0.223256,0.893154)" />
    <path
       style="font-size:12px;fill:url(#linearGradient871);fill-rule:evenodd;stroke-width:1pt"
       d="M 13.9212,59.948 C 14.1421,59.948 28.2842,57.9592 33.1457,54.6446 C 33.5876,54.4237 42.8684,54.2027 45.962,57.2963 C 49.0555,60.3899 72.6994,80.4983 74.4672,80.7192 C 76.235,80.9402 19.4454,68.7868 13.9212,59.948 z "
       id="path870"
       sodipodi:nodetypes="ccccc"
       transform="matrix(0.83768,0,0,0.83768,0.105843,7.220649)" />
  </g>
  <path
     d="M 81.617168,67.252635 C 80.60408,71.904033 62.252981,89.655447 58.561181,87.735867 C 51.595709,85.679985 53.459171,78.849165 50.776556,77.487708 C 48.009863,76.627008 33.141659,79.037361 31.162652,76.098351 C 28.317569,69.718131 27.789704,57.78513 34.576469,54.590379 C 41.562842,52.665306 53.031365,56.333205 54.159926,52.920753 C 55.288493,49.508298 57.830057,47.614221 59.931509,47.990301 C 62.032964,48.366381 83.439758,62.421354 81.617168,67.252635 z "
     style="fill:#437caf;fill-opacity:1;fill-rule:evenodd;stroke-width:1pt"
     id="path582" />
  <path
     d="M 75.565799,67.244196 C 74.978354,70.751169 62.926259,83.050968 59.904599,81.41181 C 56.88281,79.772556 57.989366,74.395338 55.751993,73.608585 C 53.514491,72.821733 35.759474,73.659444 35.494517,70.936758 C 35.229338,68.214111 34.101083,58.960233 36.823637,58.695183 C 39.546413,58.4301 57.16502,60.866028 57.902018,58.311162 C 58.639019,55.756293 58.190357,52.899981 59.876897,53.285463 C 61.563443,53.670942 76.787759,63.637557 75.565799,67.244196 z "
     style="fill:#bae6ff;fill-opacity:1;fill-rule:evenodd;stroke-width:1pt"
     id="path581" />
  <path
     d="M 35.295113,69.667284 C 35.295113,69.667284 35.059091,72.30606 38.198942,72.62586 C 41.338565,72.945696 56.287028,72.874146 56.620187,73.960008 C 56.801333,77.183538 59.101919,82.513374 61.140014,82.030752 C 64.764824,81.298779 75.463538,69.699363 75.799262,67.695324 C 76.134761,65.691321 64.969349,76.388445 61.714097,74.298066 C 58.458848,72.20769 59.581232,67.96641 56.942456,67.730385 C 54.303809,67.494459 36.149945,65.793 35.714522,67.162305 C 35.279192,68.531478 35.895794,70.385928 35.295113,69.667284 z "
     style="fill:#31baff;fill-opacity:1;fill-rule:evenodd;stroke-width:1pt"
     id="path583" />
  <path
     d="M 36.71015,61.423185 C 36.71015,61.423185 56.23559,60.470016 57.069851,61.639896 C 57.903983,62.809674 41.266505,65.58561 36.71015,61.423185 z "
     style="font-size:12px;fill:#ffffff;fill-rule:evenodd;stroke-width:1pt"
     id="path588" />
  <path
     d="M 72.516779,64.742088 C 72.516779,64.742088 65.006816,57.303702 63.136526,56.784381 C 61.266356,56.265171 62.315648,59.84019 62.315648,59.84019 C 62.315648,59.84019 71.816408,63.388695 72.516779,64.742088 z "
     style="font-size:12px;fill:#ffffff;fill-rule:evenodd;stroke-width:1pt"
     id="path589" />
</svg>
