<?xml version="1.0" encoding="UTF-8"?>
<svg xmlns="http://www.w3.org/2000/svg" xmlns:xlink="http://www.w3.org/1999/xlink" width="90pt" height="90pt" viewBox="0 0 90 90" version="1.1">
<g id="surface0">
<path style="stroke: none; fill-rule: evenodd; fill: rgb(5.098039%,23.529412%,2.745098%); opacity: 1;" d="M 72.513184 32.466995 C 71.185455 38.563049 47.134766 61.827805 42.296341 59.312042 C 33.167496 56.61763 35.609711 47.665253 32.093918 45.880951 C 28.467926 44.75293 8.981873 47.911911 6.388214 44.060089 C 2.65947 35.698273 1.967651 20.059052 10.862289 15.87204 C 20.018539 13.349075 35.049011 18.156158 36.528091 13.683853 C 38.007172 9.211533 41.338104 6.729187 44.092239 7.222061 C 46.84639 7.714951 74.90184 26.135178 72.513184 32.466995 Z M 72.513184 32.466995 "/>
<path style="stroke: none; fill-rule: evenodd; fill: rgb(16.470588%,68.627451%,9.411765%); opacity: 1;" d="M 64.582291 32.455994 C 63.812393 37.052185 48.01709 53.172134 44.056946 51.023865 C 40.096619 48.875488 41.54686 41.828186 38.614594 40.797073 C 35.682159 39.765839 12.412674 40.863739 12.06543 37.295425 C 11.71788 33.727158 10.239197 21.599167 13.807343 21.251785 C 17.375778 20.904373 40.466476 24.096863 41.432373 20.748489 C 42.39827 17.400116 41.810272 13.656662 44.02063 14.161865 C 46.230988 14.667068 66.183777 27.729172 64.582291 32.455994 Z M 64.582291 32.455994 "/>
<path style="stroke: none; fill-rule: evenodd; fill: rgb(12.54902%,54.901961%,6.666667%); opacity: 1;" d="M 11.804092 35.631668 C 11.804092 35.631668 11.494766 39.090012 15.609802 39.50914 C 19.724548 39.928314 39.315796 39.834534 39.752441 41.257645 C 39.989838 45.482361 43.004959 52.46756 45.676056 51.835052 C 50.426682 50.875732 64.448273 35.673691 64.88826 33.047226 C 65.327957 30.420807 50.694733 44.440323 46.428436 41.700699 C 42.162155 38.961075 43.633133 33.402512 40.174789 33.093185 C 36.716614 32.783981 12.924423 30.554092 12.35376 32.348679 C 11.783218 34.143097 12.591324 36.573517 11.804092 35.631668 Z M 11.804092 35.631668 "/>
<path style="stroke: none; fill-rule: evenodd; fill: rgb(100%,100%,100%); opacity: 1;" d="M 13.6586 24.827087 C 13.6586 24.827087 39.248367 23.577866 40.341736 25.111099 C 41.434937 26.644196 19.630096 30.282303 13.6586 24.827087 Z M 13.6586 24.827087 "/>
<path style="stroke: none; fill-rule: evenodd; fill: rgb(100%,100%,100%); opacity: 1;" d="M 60.586273 29.176788 C 60.586273 29.176788 50.74382 19.428146 48.292648 18.747528 C 45.841614 18.067062 47.216812 22.752426 47.216812 22.752426 C 47.216812 22.752426 59.668381 27.403046 60.586273 29.176788 Z M 60.586273 29.176788 "/>
<path style="stroke: none; fill-rule: evenodd; fill: rgb(5.098039%,23.529412%,2.745098%); opacity: 1;" d="M 85.706116 53.170105 C 84.378372 59.266159 60.327698 82.530914 55.489273 80.015137 C 46.360413 77.320724 48.802643 68.368362 45.286835 66.584061 C 41.660858 65.456039 22.174789 68.615021 19.581131 64.763199 C 15.852402 56.401367 15.160583 40.762146 24.055222 36.57515 C 33.211456 34.05217 48.241943 38.859268 49.721024 34.386948 C 51.200104 29.914642 54.531036 27.432281 57.285172 27.925171 C 60.039307 28.41806 88.094772 46.838287 85.706116 53.170105 Z M 85.706116 53.170105 "/>
<path style="stroke: none; fill-rule: evenodd; fill: rgb(16.470588%,68.627451%,9.411765%); opacity: 1;" d="M 77.775208 53.159088 C 77.005325 57.75528 61.210022 73.875229 57.249863 71.726974 C 53.289551 69.578598 54.739792 62.531296 51.80751 61.500183 C 48.875076 60.468948 25.605606 61.566849 25.258347 57.998535 C 24.910812 54.430267 23.432129 42.302261 27.000275 41.954895 C 30.56871 41.607468 53.659409 44.799957 54.625305 41.451584 C 55.591202 38.10321 55.003189 34.359772 57.213547 34.864975 C 59.42392 35.370178 79.376694 48.432281 77.775208 53.159088 Z M 77.775208 53.159088 "/>
<path style="stroke: none; fill-rule: evenodd; fill: rgb(12.54902%,54.901961%,6.666667%); opacity: 1;" d="M 24.997009 56.334778 C 24.997009 56.334778 24.687683 59.793121 28.802734 60.21225 C 32.91748 60.631409 52.508728 60.537628 52.945358 61.960754 C 53.18277 66.185471 56.197891 73.17067 58.868988 72.538147 C 63.619614 71.578842 77.64119 56.376801 78.081192 53.750336 C 78.520889 51.123917 63.88765 65.143417 59.621368 62.403809 C 55.355087 59.664185 56.826065 54.105621 53.367722 53.796295 C 49.909546 53.487091 26.11734 51.257187 25.546677 53.051788 C 24.976135 54.846207 25.784256 57.276627 24.997009 56.334778 Z M 24.997009 56.334778 "/>
<path style="stroke: none; fill-rule: evenodd; fill: rgb(100%,100%,100%); opacity: 1;" d="M 26.851532 45.530197 C 26.851532 45.530197 52.441299 44.280975 53.534668 45.814194 C 54.627869 47.347305 32.823013 50.985413 26.851532 45.530197 Z M 26.851532 45.530197 "/>
<path style="stroke: none; fill-rule: evenodd; fill: rgb(100%,100%,100%); opacity: 1;" d="M 73.779205 49.879883 C 73.779205 49.879883 63.936737 40.131241 61.485565 39.450638 C 59.034546 38.770157 60.409744 43.455536 60.409744 43.455536 C 60.409744 43.455536 72.861298 48.106155 73.779205 49.879883 Z M 73.779205 49.879883 "/>
</g>
</svg>
