<?xml version="1.0" encoding="UTF-8" standalone="no"?>
<!-- Created with Sodipodi ("http://www.sodipodi.com/") -->
<svg
   xmlns:dc="http://purl.org/dc/elements/1.1/"
   xmlns:cc="http://web.resource.org/cc/"
   xmlns:rdf="http://www.w3.org/1999/02/22-rdf-syntax-ns#"
   xmlns:svg="http://www.w3.org/2000/svg"
   xmlns="http://www.w3.org/2000/svg"
   xmlns:xlink="http://www.w3.org/1999/xlink"
   xmlns:sodipodi="http://sodipodi.sourceforge.net/DTD/sodipodi-0.dtd"
   xmlns:inkscape="http://www.inkscape.org/namespaces/inkscape"
   id="svg848"
   sodipodi:version="0.32"
   width="90"
   height="90"
   sodipodi:docbase="/home/tweenk/GNUtoon/actions"
   sodipodi:docname="mail_replyall.svg"
   inkscape:version="0.45.1"
   inkscape:output_extension="org.inkscape.output.svg.inkscape"
   version="1.0">
  <metadata
     id="metadata46">
    <rdf:RDF>
      <cc:Work
         rdf:about="">
        <dc:format>image/svg+xml</dc:format>
        <dc:type
           rdf:resource="http://purl.org/dc/dcmitype/StillImage" />
      </cc:Work>
    </rdf:RDF>
  </metadata>
  <defs
     id="defs850">
    <linearGradient
       id="linearGradient867">
      <stop
         style="stop-color:#92b5d7;stop-opacity:0.780392;"
         offset="0.000000"
         id="stop868" />
      <stop
         style="stop-color:#ffffff;stop-opacity:0.321569;"
         offset="1.000000"
         id="stop869" />
    </linearGradient>
    <linearGradient
       id="linearGradient860">
      <stop
         style="stop-color:#92b5d7;stop-opacity:1;"
         offset="0.000000"
         id="stop861" />
      <stop
         style="stop-color:#ffffff;stop-opacity:1;"
         offset="1.000000"
         id="stop862" />
    </linearGradient>
    <linearGradient
       xlink:href="#linearGradient860"
       id="linearGradient863"
       x1="37.126305"
       y1="43.838791"
       x2="68.40992"
       y2="44.934666"
       gradientUnits="userSpaceOnUse"
       gradientTransform="scale(1.036866,0.964444)"
       spreadMethod="reflect" />
    <linearGradient
       xlink:href="#linearGradient867"
       id="linearGradient866"
       x1="38.646523"
       y1="64.399437"
       x2="39.494808"
       y2="29.977726"
       gradientUnits="userSpaceOnUse"
       spreadMethod="pad"
       gradientTransform="scale(1.261031,0.793002)" />
    <linearGradient
       xlink:href="#linearGradient867"
       id="linearGradient871"
       x1="28.197727"
       y1="108.28517"
       x2="33.435261"
       y2="93.438599"
       gradientUnits="userSpaceOnUse"
       spreadMethod="pad"
       gradientTransform="scale(1.52092,0.657497)" />
    <defs
       id="defs550">
      <linearGradient
         x1="0"
         y1="0"
         x2="1"
         y2="0"
         id="linearGradient556"
         gradientUnits="objectBoundingBox"
         spreadMethod="pad">
        <stop
           style="stop-color:#ff8700;stop-opacity:1;"
           offset="0.00000000"
           id="stop557" />
        <stop
           style="stop-color:#ffff8d;stop-opacity:0;"
           offset="1.00000000"
           id="stop558" />
      </linearGradient>
      <linearGradient
         x1="0"
         y1="0"
         x2="1"
         y2="0"
         id="linearGradient559"
         xlink:href="#linearGradient556"
         gradientUnits="objectBoundingBox"
         spreadMethod="pad" />
    </defs>
    <linearGradient
       inkscape:collect="always"
       xlink:href="#linearGradient867"
       id="linearGradient1102"
       gradientUnits="userSpaceOnUse"
       gradientTransform="matrix(1.056396,0,0,0.456681,3.487253,2.9706202)"
       spreadMethod="pad"
       x1="28.197727"
       y1="108.28517"
       x2="33.435261"
       y2="93.438599" />
    <linearGradient
       inkscape:collect="always"
       xlink:href="#linearGradient867"
       id="linearGradient1103"
       gradientUnits="userSpaceOnUse"
       gradientTransform="matrix(0.912045,0,0,0.57354,3.584609,-2.2759328)"
       spreadMethod="pad"
       x1="38.646523"
       y1="64.399437"
       x2="39.494808"
       y2="29.977726" />
    <linearGradient
       inkscape:collect="always"
       xlink:href="#linearGradient860"
       id="linearGradient1104"
       gradientUnits="userSpaceOnUse"
       gradientTransform="matrix(0.859734,0,0,0.799686,-0.814606,-5.5816088)"
       spreadMethod="reflect"
       x1="37.126305"
       y1="43.838791"
       x2="68.40992"
       y2="44.934666" />
  </defs>
  <sodipodi:namedview
     id="base"
     inkscape:zoom="5.2666667"
     inkscape:cx="45"
     inkscape:cy="45"
     inkscape:window-width="1014"
     inkscape:window-height="686"
     inkscape:window-x="0"
     inkscape:window-y="1"
     inkscape:current-layer="svg848"
     width="90px"
     height="90px" />
  <g
     id="g859"
     transform="matrix(0.829167,0,0,0.829167,14.986424,11.822999)">
    <path
       style="font-size:12px;fill:#000000;fill-opacity:0.3;fill-rule:evenodd;stroke-width:1pt"
       d="M 11.2695,13.5441 C 10.8576,13.5441 9.2958,56.3824 12.3893,59.6969 C 21.0436,69.8079 74.9091,82.708 76.235,80.7192 C 77.5608,78.7305 87.0025,39.5285 83.4669,36.8769 C 72.929,23.7217 12.5953,10.2295 11.2695,13.5441 z "
       id="path860"
       transform="matrix(1.124488,0,0,1.124488,-6.54284,-1.6541)"
       sodipodi:nodetypes="ccccc" />
    <path
       style="font-size:12px;fill:#3d4e67;fill-rule:evenodd;stroke-width:1pt"
       d="M 11.2695,13.5441 C 10.8576,13.5441 9.2958,56.3824 12.3893,59.6969 C 21.0436,69.8079 74.9091,82.708 76.235,80.7192 C 77.5608,78.7305 87.0025,39.5285 83.4669,36.8769 C 72.929,23.7217 12.5953,10.2295 11.2695,13.5441 z "
       id="path861"
       transform="matrix(1.124488,0,0,1.124488,-10.96226,-8.946139)"
       sodipodi:nodetypes="ccccc" />
    <path
       style="font-size:12px;fill:url(#linearGradient863);stroke-width:1pt"
       d="M 11.2695,13.5441 C 11.2695,13.5441 9.50175,55.9705 12.5953,59.285 C 15.6889,62.5996 74.9091,82.708 76.235,80.7192 C 77.5608,78.7305 86.1787,38.2928 82.6431,35.6412 C 79.1076,32.9895 12.5953,10.2295 11.2695,13.5441 z "
       id="path862"
       transform="translate(-5.082326,-3.093586)" />
    <path
       style="font-size:12px;fill:#3d4e67;fill-rule:evenodd;stroke-width:1pt"
       d="M 13.9212,59.948 C 13.2582,60.169 27.6213,56.4124 32.4828,53.0978 C 32.9247,52.8769 42.8684,53.5398 45.962,56.6334 C 49.0555,59.727 68.28,76.0789 74.4672,80.7192 C 64.3026,80.0563 21.4341,72.9852 13.9212,59.948 z "
       id="path863"
       sodipodi:nodetypes="ccccc"
       transform="translate(-5.082326,-3.093586)" />
    <path
       style="font-size:12px;fill:#ffffff;fill-rule:evenodd;stroke-width:1pt"
       d="M 13.9212,59.948 C 14.1421,59.948 28.2842,57.9592 33.1457,54.6446 C 33.5876,54.4237 42.8684,54.2027 45.962,57.2963 C 49.0555,60.3899 72.6994,80.4983 74.4672,80.7192 C 76.235,80.9402 19.4454,68.7868 13.9212,59.948 z "
       id="path864"
       sodipodi:nodetypes="ccccc"
       transform="matrix(0.83768,0,0,0.83768,0.105843,7.220649)" />
    <path
       style="font-size:12px;fill:#3d4e67;fill-rule:evenodd;stroke-width:1pt"
       d="M 81.7593,35.4202 C 81.7593,35.4202 39.7747,60.169 36.0182,56.8544 C 27.6213,48.8994 11.0485,13.1021 11.7115,12.4392 C 14.1422,10.4505 64.9654,20.1732 81.7593,35.4202 z "
       id="path866"
       sodipodi:nodetypes="cccc"
       transform="translate(-5.082326,-3.093586)" />
    <path
       style="font-size:12px;fill:#ffffff;fill-rule:evenodd;stroke-width:1pt"
       d="M 84.0393,35.6735 C 81.7593,36.6869 39.7747,60.169 36.0182,56.8544 C 27.6213,48.8994 10.2885,12.0888 10.9515,11.4259 C 13.3822,9.43718 65.9787,20.9332 84.0393,35.6735 z "
       id="path867"
       sodipodi:nodetypes="cccc"
       transform="matrix(0.872265,0,0,0.872265,0.223256,0.893154)" />
    <path
       style="font-size:12px;fill:url(#linearGradient866);fill-rule:evenodd;stroke-width:1pt"
       d="M 84.0393,35.6735 C 81.7593,36.6869 39.7747,60.169 36.0182,56.8544 C 27.6213,48.8994 10.2885,12.0888 10.9515,11.4259 C 13.3822,9.43718 65.9787,20.9332 84.0393,35.6735 z "
       id="path868"
       sodipodi:nodetypes="cccc"
       transform="matrix(0.872265,0,0,0.872265,0.223256,0.893154)" />
    <path
       style="font-size:12px;fill:url(#linearGradient871);fill-rule:evenodd;stroke-width:1pt"
       d="M 13.9212,59.948 C 14.1421,59.948 28.2842,57.9592 33.1457,54.6446 C 33.5876,54.4237 42.8684,54.2027 45.962,57.2963 C 49.0555,60.3899 72.6994,80.4983 74.4672,80.7192 C 76.235,80.9402 19.4454,68.7868 13.9212,59.948 z "
       id="path869"
       sodipodi:nodetypes="ccccc"
       transform="matrix(0.83768,0,0,0.83768,0.105843,7.220649)" />
  </g>
  <path
     style="font-size:12px;fill:#3d4e67;fill-rule:evenodd;stroke-width:1pt"
     d="M 4.817498,2.1940132 C 4.433447,2.1940132 2.977244,42.135965 5.861588,45.226367 C 13.93076,54.65375 64.154351,66.681659 65.390603,64.827323 C 66.626765,62.973083 75.4301,26.421578 72.133547,23.949254 C 62.308127,11.683493 6.05366,-0.89648181 4.817498,2.1940132 z "
     id="path859"
     sodipodi:nodetypes="ccccc" />
  <path
     style="font-size:12px;fill:url(#linearGradient1104);stroke-width:1pt"
     d="M 8.529695,5.6487172 C 8.529695,5.6487172 7.063934,40.827302 9.629003,43.575575 C 12.194117,46.323935 61.297571,62.997164 62.396963,61.348115 C 63.496274,59.69915 70.641956,26.16953 67.710353,23.970911 C 64.778831,21.772208 9.629003,2.9003572 8.529695,5.6487172 z "
     id="path856" />
  <path
     style="font-size:12px;fill:#3d4e67;fill-rule:evenodd;stroke-width:1pt"
     d="M 10.728398,44.125313 C 10.17866,44.308559 22.088072,41.19371 26.11907,38.445353 C 26.485478,38.262188 34.730471,38.811845 37.295582,41.376956 C 39.860612,43.942067 55.800938,57.500528 60.931163,61.348115 C 52.503008,60.798461 16.957847,54.935333 10.728398,44.125313 z "
     id="path855"
     sodipodi:nodetypes="ccccc" />
  <path
     style="font-size:12px;fill:#ffffff;fill-rule:evenodd;stroke-width:1pt"
     d="M 13.156595,44.609108 C 13.310027,44.609108 23.132801,43.227734 26.509487,40.925492 C 26.81642,40.77206 33.262649,40.618556 35.411393,42.7673 C 37.560065,44.916044 53.982569,58.882871 55.210442,59.036303 C 56.438315,59.189804 16.993577,50.748335 13.156595,44.609108 z "
     id="path858"
     sodipodi:nodetypes="ccccc" />
  <path
     style="font-size:12px;fill:#3d4e67;fill-rule:evenodd;stroke-width:1pt"
     d="M 66.977534,23.787665 C 66.977534,23.787665 32.165276,44.308559 29.050508,41.560202 C 22.088072,34.964177 8.346449,5.2822252 8.896187,4.7325682 C 10.911644,3.0836032 53.052581,11.14535 66.977534,23.787665 z "
     id="path854"
     sodipodi:nodetypes="cccc" />
  <path
     style="font-size:12px;fill:#ffffff;fill-rule:evenodd;stroke-width:1pt"
     d="M 64.36628,23.52503 C 62.717264,24.257975 32.351777,41.241473 29.634878,38.844179 C 23.561795,33.090701 11.025797,6.4673272 11.505314,5.9878822 C 13.263323,4.5495352 51.303899,12.864065 64.36628,23.52503 z "
     id="path857"
     sodipodi:nodetypes="cccc" />
  <path
     style="font-size:12px;fill:url(#linearGradient1103);fill-rule:evenodd;stroke-width:1pt"
     d="M 64.36628,23.52503 C 62.717264,24.257975 32.351777,41.241473 29.634878,38.844179 C 23.561795,33.090701 11.025797,6.4673272 11.505314,5.9878822 C 13.263323,4.5495352 51.303899,12.864065 64.36628,23.52503 z "
     id="path865"
     sodipodi:nodetypes="cccc" />
  <path
     style="font-size:12px;fill:url(#linearGradient1102);fill-rule:evenodd;stroke-width:1pt"
     d="M 13.156595,44.609108 C 13.310027,44.609108 23.132801,43.227734 26.509487,40.925492 C 26.81642,40.77206 33.262649,40.618556 35.411393,42.7673 C 37.560065,44.916044 53.982569,58.882871 55.210442,59.036303 C 56.438315,59.189804 16.993577,50.748335 13.156595,44.609108 z "
     id="path870"
     sodipodi:nodetypes="ccccc" />
  <path
     d="M 2.343644,67.03037 C 3.365645,71.7227 21.87824,89.63033 25.60253,87.69386 C 32.629301,85.619882 30.749435,78.728951 33.455663,77.355515 C 36.246701,76.48724 51.245747,78.918806 53.242169,75.95393 C 56.11229,69.517562 56.644802,57.479549 49.79831,54.256679 C 42.750455,52.314668 31.181009,56.014844 30.042515,52.572362 C 28.904018,49.12988 26.340089,47.219135 24.220142,47.598524 C 22.100192,47.977913 0.50501601,62.15657 2.343644,67.03037 z "
     style="fill:#ff933d;fill-opacity:1;fill-rule:evenodd;stroke-width:1pt"
     id="path582" />
  <path
     d="M 8.448266,67.021856 C 9.04088,70.55969 21.199037,82.967729 24.247289,81.314147 C 27.29567,79.660469 26.179379,74.235929 28.436438,73.442252 C 30.693629,72.648476 48.604895,73.493558 48.872186,70.746914 C 49.139699,68.000306 50.277881,58.664993 47.531369,58.397609 C 44.784632,58.130192 27.010976,60.587561 26.267492,58.01021 C 25.524008,55.432856 25.976615,52.551407 24.275231,52.940282 C 22.573847,53.329154 7.215554,63.383477 8.448266,67.021856 z "
     style="fill:#ffe6ba;fill-opacity:1;fill-rule:evenodd;stroke-width:1pt"
     id="path581" />
  <path
     d="M 49.073345,69.466271 C 49.073345,69.466271 49.311443,72.128267 46.143962,72.450881 C 42.976709,72.773531 27.896696,72.701348 27.5606,73.796768 C 27.377864,77.048666 25.057031,82.425404 23.001002,81.938534 C 19.344293,81.200123 8.551427,69.498629 8.212751,67.476953 C 7.874297,65.455313 19.137971,76.246577 22.421867,74.137802 C 25.705766,72.02903 24.573503,67.750424 27.235499,67.512326 C 29.897366,67.274321 48.210989,65.557889 48.650246,66.939242 C 49.089407,68.320466 48.467378,70.191236 49.073345,69.466271 z "
     style="fill:#ffd056;fill-opacity:1;fill-rule:evenodd;stroke-width:1pt"
     id="path583" />
  <path
     d="M 47.645852,61.149617 C 47.645852,61.149617 27.948584,60.18806 27.106982,61.368233 C 26.265512,62.54831 43.049405,65.348675 47.645852,61.149617 z "
     style="font-size:12px;fill:#ffffff;fill-rule:evenodd;stroke-width:1pt"
     id="path588" />
  <path
     d="M 11.524118,64.497728 C 11.524118,64.497728 19.100168,56.993885 20.986919,56.469995 C 22.873547,55.946213 21.815021,59.552693 21.815021,59.552693 C 21.815021,59.552693 12.230654,63.132425 11.524118,64.497728 z "
     style="font-size:12px;fill:#ffffff;fill-rule:evenodd;stroke-width:1pt"
     id="path589" />
</svg>
