<?xml version="1.0" encoding="UTF-8"?>
<svg xmlns="http://www.w3.org/2000/svg" xmlns:xlink="http://www.w3.org/1999/xlink" width="90pt" height="90pt" viewBox="0 0 90 90" version="1.1">
<defs>
<linearGradient id="linear0" gradientUnits="userSpaceOnUse" x1="68.311676" y1="71.296051" x2="52.578369" y2="39.579788" gradientTransform="matrix(1.003085,0,0,0.980286,0.536097,0.471447)">
<stop offset="0" style="stop-color: rgb(0%,0%,0%); stop-opacity: 1;"/>
<stop offset="1" style="stop-color: rgb(41.568627%,40.392157%,38.431373%); stop-opacity: 1;"/>
</linearGradient>
<linearGradient id="linear1" gradientUnits="userSpaceOnUse" x1="49.025772" y1="44.340195" x2="56.455322" y2="53.182755" gradientTransform="matrix(1.009021,0,0,0.97452,0.536097,0.471447)">
<stop offset="0" style="stop-color: rgb(100%,100%,100%); stop-opacity: 0.647059;"/>
<stop offset="1" style="stop-color: rgb(99.215686%,100%,100%); stop-opacity: 0;"/>
</linearGradient>
<linearGradient id="linear2" gradientUnits="userSpaceOnUse" x1="26.295914" y1="98.952942" x2="31.715988" y2="102.827576" gradientTransform="matrix(1.315855,0,0,0.747279,0.536097,0.471447)">
<stop offset="0" style="stop-color: rgb(100%,71.764706%,0%); stop-opacity: 1;"/>
<stop offset="1" style="stop-color: rgb(99.215686%,100%,100%); stop-opacity: 0;"/>
</linearGradient>
<linearGradient id="linear3" gradientUnits="userSpaceOnUse" x1="33.579437" y1="53.82196" x2="-14.069122" y2="26.552643" gradientTransform="matrix(0.774243,0,0,1.270028,0.536097,0.471447)">
<stop offset="0" style="stop-color: rgb(100%,71.764706%,0%); stop-opacity: 1;"/>
<stop offset="1" style="stop-color: rgb(99.215686%,100%,100%); stop-opacity: 0;"/>
</linearGradient>
<linearGradient id="linear4" gradientUnits="userSpaceOnUse" x1="32.051331" y1="14.657822" x2="32.051331" y2="75.934341" gradientTransform="matrix(0.529893,0,0,0.529905,50.93823,1.607355)">
<stop offset="0" style="stop-color: rgb(100%,78.823529%,24.705882%); stop-opacity: 1;"/>
<stop offset="1" style="stop-color: rgb(94.509804%,89.019608%,42.352941%); stop-opacity: 1;"/>
</linearGradient>
</defs>
<g id="surface0">
<path style="stroke: none; fill-rule: evenodd; fill: rgb(0%,0%,0%); opacity: 0.298039;" d="M 1.822098 50.35791 C 1.822098 50.35791 15.769104 68.452057 27.359543 83.353516 C 29.528351 84.946823 43.301712 90.586731 46.512619 89.22702 C 49.376038 87.717056 88.139923 61.881424 88.834656 58.816666 C 89.928452 55.361511 88.583557 53.121887 87.611816 51.394409 C 86.813812 49.66684 60.877335 14.943741 59.879807 14.079987 C 58.882263 13.216217 56.089096 12.006943 52.697433 13.043472 C 44.066803 17.35611 16.907486 32.068573 3.096634 44.423386 C 1.301041 46.150955 1.622589 48.630341 1.822098 50.35791 Z M 1.822098 50.35791 "/>
<path style="fill: none; stroke-width: 1.25; stroke-linecap: butt; stroke-linejoin: miter; stroke: rgb(0%,0%,0%); opacity: 1;stroke-miterlimit: 4;" d="M 8.794729 37.411104 C 8.794729 37.470901 8.794729 37.530698 8.794729 37.590602 " transform="matrix(0.99162,0,0,0.99162,0.536097,0.471447)"/>
<path style="stroke: none; fill-rule: evenodd; fill: rgb(14.901961%,11.372549%,7.843137%); opacity: 1;" d="M 1.95993 43.442413 C 1.95993 43.442413 14.401825 62.084167 24.74144 77.43663 C 26.676193 79.078156 38.96315 84.888748 41.827545 83.487885 C 44.381958 81.932236 78.962524 55.314682 79.582291 52.157166 C 80.558044 48.597443 79.358292 46.290039 78.491409 44.510284 C 77.779526 42.730423 54.642059 6.956421 53.752182 6.066528 C 52.862305 5.17662 50.37056 3.930756 47.344925 4.998642 C 39.645691 9.441803 15.417343 24.599548 3.096939 37.328278 C 1.495117 39.108139 1.781952 41.662552 1.95993 43.442413 Z M 1.95993 43.442413 "/>
<path style="stroke: none; fill-rule: evenodd; fill: rgb(94.509804%,89.019608%,42.352941%); opacity: 1;" d="M 9.079147 37.74704 C 9.079147 37.74704 27.589081 66.757767 28.300964 68.003647 C 29.012939 69.249512 30.614807 71.029373 33.818436 71.91925 C 38.623917 73.877014 43.251312 75.656769 43.607315 75.656769 C 43.963303 75.656769 46.277054 73.521011 46.277054 73.521011 L 35.776184 60.350525 L 59.803543 39.348801 L 69.94841 54.12117 L 75.465775 49.671661 C 75.465775 49.671661 50.548553 9.092178 50.192566 9.092178 C 49.83667 9.092178 43.963303 12.65181 43.963303 12.65181 L 56.421921 31.517685 C 56.421921 31.517685 32.038574 49.493774 29.902817 51.273529 C 27.945068 51.273529 13.884598 33.653427 13.884598 33.653427 L 9.079147 37.74704 Z M 9.079147 37.74704 "/>
<path style="stroke: none; fill-rule: evenodd; fill: rgb(100%,100%,100%); opacity: 1;" d="M 15.308456 32.76355 L 29.902817 49.315765 L 54.286163 30.983795 L 42.539429 13.185699 L 15.308456 32.76355 Z M 15.308456 32.76355 "/>
<path style="stroke: none; fill-rule: evenodd; fill: url(#linear0);" d="M 37.733948 60.528519 L 47.166931 72.275146 L 49.480682 70.495392 L 41.293564 60.350525 C 41.293564 60.350525 43.963303 57.324783 45.743057 57.146896 C 48.59079 59.816528 54.286163 66.935776 54.286163 66.935776 L 69.058533 55.723022 L 59.269547 41.662552 L 37.733948 60.528519 Z M 37.733948 60.528519 "/>
<path style="stroke: none; fill-rule: evenodd; fill: rgb(94.509804%,89.019608%,42.352941%); opacity: 1;" d="M 8.390259 38.683029 C 7.678345 38.505035 29.190933 71.741165 29.72493 71.741165 C 30.25882 71.741165 41.649551 76.546753 41.649551 76.546753 L 40.937668 78.860397 L 29.012939 75.478867 L 5.898544 41.375778 L 8.390259 38.683029 Z M 8.390259 38.683029 "/>
<path style="stroke: none; fill-rule: evenodd; fill: rgb(94.509804%,89.019608%,42.352941%); opacity: 1;" d="M 42.539429 60.172531 L 49.83667 69.605515 L 53.040298 66.935776 L 45.387161 57.680786 L 42.539429 60.172531 Z M 42.539429 60.172531 "/>
<path style="stroke: none; fill-rule: evenodd; fill: url(#linear1);" d="M 59.103653 42.615295 L 45.31398 54.700668 C 46.501846 58.212585 50.478638 60.94986 52.131378 62.912476 C 54.662094 43.906387 59.981735 45.507462 65.301376 52.376511 L 59.103653 42.615295 Z M 59.103653 42.615295 "/>
<path style="stroke: none; fill-rule: evenodd; fill: url(#linear2);" d="M 41.440414 76.547241 L 40.820663 78.871399 L 28.890274 75.772598 L 29.355057 71.744141 L 41.440414 76.547241 Z M 41.440414 76.547241 "/>
<path style="stroke: none; fill-rule: evenodd; fill: url(#linear3);" d="M 28.890274 75.617599 L 29.664932 72.054016 L 12.931351 46.643753 L 12.001709 50.052444 L 28.890274 75.617599 Z M 28.890274 75.617599 "/>
<path style="stroke: none; fill-rule: evenodd; fill: rgb(72.941176%,90.196078%,100%); opacity: 1;" d="M 15.255508 32.699097 L 21.453125 39.671371 L 47.948029 21.078506 L 42.525055 13.176575 L 15.255508 32.699097 Z M 15.255508 32.699097 "/>
<path style="stroke: none; fill-rule: nonzero; fill: rgb(0%,0%,0%); opacity: 0.345098;" d="M 75.324173 9.604401 C 73.794281 9.162827 72.213547 10.035461 71.771957 11.565353 L 71.114853 13.841995 C 70.472198 13.862106 69.840698 13.921814 69.217697 14.04097 L 68.079651 11.979431 C 67.310089 10.585388 65.560333 10.080353 64.16629 10.849915 L 62.656219 11.693878 C 61.262177 12.46344 60.760696 14.200882 61.530258 15.594925 L 62.659561 17.640625 C 62.220383 18.103165 61.821121 18.599731 61.455627 19.132858 L 59.228226 18.48996 C 57.698318 18.048386 56.10173 18.929764 55.660156 20.459671 L 55.180634 22.121002 C 54.739059 23.650909 55.623993 25.235184 57.1539 25.676758 L 59.332092 26.30545 C 59.349152 26.971527 59.41452 27.626053 59.537918 28.271255 L 57.555664 29.365524 C 56.161621 30.135086 55.660141 31.872543 56.429703 33.266586 L 57.273666 34.776642 C 58.043228 36.1707 59.78067 36.67218 61.174713 35.902618 L 63.125259 34.825836 C 63.611649 35.288101 64.128632 35.711121 64.692993 36.091537 L 64.078506 38.220505 C 63.636932 39.750412 64.509552 41.331146 66.039459 41.77272 L 67.70079 42.252228 C 69.230682 42.693802 70.811432 41.821182 71.253006 40.291275 L 71.871033 38.150009 C 72.545837 38.128098 73.203491 38.054062 73.856232 37.923111 L 74.933014 39.873657 C 75.702576 41.2677 77.440018 41.76918 78.834061 40.999619 L 80.35289 40.171509 C 81.746933 39.401947 82.251968 37.652191 81.482391 36.258163 L 80.396881 34.291748 C 80.845108 33.811554 81.249191 33.292526 81.618561 32.737976 L 83.796738 33.366669 C 85.326645 33.808243 86.907379 32.935623 87.348953 31.405716 L 87.828461 29.744385 C 88.270035 28.214493 87.40097 26.621445 85.871063 26.179871 L 83.643661 25.536972 C 83.618393 24.889023 83.533615 24.256516 83.407761 23.629166 L 85.453445 22.499863 C 86.847488 21.730301 87.348969 19.992844 86.579407 18.598801 L 85.751297 17.079987 C 84.981735 15.685944 83.244293 15.184464 81.85025 15.954025 L 79.772842 17.10083 C 79.310837 16.669144 78.820374 16.271622 78.289352 15.912766 L 78.946457 13.636124 C 79.388031 12.106232 78.515411 10.525482 76.985504 10.083923 L 75.324173 9.604401 Z M 73.118896 20.339539 C 76.243881 21.241501 78.047806 24.509293 77.145859 27.634262 C 76.243896 30.759232 72.976105 32.563171 69.851135 31.661209 C 66.726166 30.759262 64.922226 27.49147 65.824188 24.366501 C 66.726135 21.241516 69.993927 19.437576 73.118896 20.339539 Z M 73.118896 20.339539 "/>
<path style="stroke: none; fill-rule: nonzero; fill: url(#linear4);" d="M 72.959335 7.239578 C 71.429443 6.797989 69.848709 7.670624 69.407135 9.200516 L 68.750031 11.477158 C 68.107361 11.497269 67.475861 11.556976 66.852859 11.676147 L 65.714813 9.614594 C 64.945251 8.220551 63.195496 7.715515 61.801453 8.485077 L 60.291382 9.329041 C 58.897339 10.098602 58.395859 11.836044 59.165421 13.230087 L 60.294724 15.275787 C 59.85556 15.738342 59.456284 16.234894 59.090805 16.768021 L 56.863388 16.125122 C 55.333481 15.683563 53.736893 16.564926 53.295319 18.094833 L 52.815811 19.756165 C 52.374237 21.286072 53.259155 22.870361 54.789062 23.311935 L 56.967255 23.940613 C 56.984314 24.606705 57.049683 25.261215 57.17308 25.906418 L 55.190826 27.000687 C 53.796783 27.770248 53.295303 29.507706 54.064865 30.901749 L 54.908829 32.411819 C 55.678391 33.805862 57.415833 34.307343 58.809875 33.537781 L 60.760422 32.460999 C 61.246811 32.923264 61.763809 33.346283 62.328156 33.726715 L 61.713669 35.855682 C 61.272095 37.385574 62.144714 38.966309 63.674622 39.407883 L 65.335953 39.88739 C 66.86586 40.328964 68.446594 39.456345 68.888168 37.926437 L 69.506195 35.785172 C 70.181 35.76326 70.838654 35.68924 71.491394 35.558273 L 72.568176 37.50882 C 73.337738 38.902863 75.07518 39.404343 76.469223 38.634781 L 77.988052 37.806686 C 79.382095 37.037109 79.887131 35.287369 79.117569 33.893326 L 78.032043 31.92691 C 78.48027 31.446716 78.884354 30.927689 79.253723 30.373154 L 81.431915 31.001831 C 82.961807 31.443405 84.542542 30.570786 84.984116 29.040894 L 85.463638 27.379562 C 85.905197 25.849655 85.036133 24.256607 83.506226 23.815033 L 81.278824 23.17215 C 81.253555 22.524185 81.168777 21.891678 81.042923 21.264328 L 83.088608 20.135025 C 84.482651 19.365463 84.984131 17.628021 84.214569 16.233978 L 83.386475 14.715149 C 82.616913 13.321106 80.879456 12.819626 79.485413 13.589188 L 77.408005 14.735992 C 76.945999 14.304306 76.455551 13.906784 75.924515 13.547928 L 76.581635 11.271286 C 77.023193 9.741394 76.150574 8.16066 74.620682 7.719086 L 72.959335 7.239578 Z M 70.754074 17.974701 C 73.879044 18.876663 75.682983 22.144455 74.781021 25.269424 C 73.879059 28.394409 70.611267 30.198334 67.486298 29.296387 C 64.361328 28.394424 62.557388 25.126633 63.459351 22.001663 C 64.361313 18.876678 67.629089 17.072754 70.754074 17.974701 Z M 70.754074 17.974701 "/>
<path style="fill: none; stroke-width: 0.68312; stroke-linecap: round; stroke-linejoin: round; stroke: rgb(34.901961%,22.745098%,15.686275%); opacity: 1;stroke-miterlimit: 4;" d="M 24.319778 2.413193 C 23.809814 2.265996 23.282903 2.556875 23.135712 3.066839 L 22.916677 3.825719 C 22.702454 3.832423 22.491954 3.852325 22.284286 3.892049 L 21.904938 3.204865 C 21.648417 2.740184 21.065165 2.571838 20.600484 2.828359 L 20.097127 3.10968 C 19.632446 3.366201 19.465286 3.945348 19.721807 4.410029 L 20.098241 5.091929 C 19.951853 5.246114 19.818761 5.411631 19.696935 5.58934 L 18.954463 5.375041 C 18.444494 5.227854 17.912298 5.521642 17.765106 6.031611 L 17.60527 6.585388 C 17.458079 7.095357 17.753052 7.623454 18.263021 7.770645 L 18.989085 7.980204 C 18.994771 8.202235 19.016561 8.420405 19.057693 8.635473 L 18.396942 9.000229 C 17.932261 9.256749 17.765101 9.835902 18.021622 10.300583 L 18.302943 10.80394 C 18.559464 11.268621 19.138611 11.435781 19.603292 11.17926 L 20.253474 10.820333 C 20.415604 10.974421 20.587936 11.115428 20.776052 11.242238 L 20.571223 11.951894 C 20.424032 12.461858 20.714905 12.98877 21.224874 13.135961 L 21.778651 13.295797 C 22.28862 13.442988 22.815531 13.152115 22.962723 12.642146 L 23.168732 11.928391 C 23.393667 11.921087 23.612885 11.896413 23.830465 11.852758 L 24.189392 12.50294 C 24.445913 12.967621 25.02506 13.134781 25.489741 12.87826 L 25.996017 12.602229 C 26.460698 12.345703 26.629044 11.762456 26.372523 11.297775 L 26.010681 10.642303 C 26.16009 10.482239 26.294785 10.30923 26.417908 10.124385 L 27.143972 10.333944 C 27.653936 10.481135 28.180847 10.190262 28.328039 9.680298 L 28.487879 9.126521 C 28.635066 8.616552 28.345378 8.085536 27.835409 7.938344 L 27.092941 7.72405 C 27.084518 7.508062 27.056259 7.297226 27.014308 7.088109 L 27.696203 6.711675 C 28.160884 6.455154 28.328044 5.876007 28.071523 5.411326 L 27.795492 4.90505 C 27.538971 4.440369 26.959819 4.273209 26.495138 4.529729 L 25.802668 4.911997 C 25.648666 4.768102 25.485184 4.635595 25.308172 4.515976 L 25.527212 3.757095 C 25.674398 3.247131 25.383525 2.72022 24.873561 2.573029 L 24.319778 2.413193 Z M 23.584691 5.991567 C 24.626348 6.292221 25.227661 7.381485 24.927007 8.423141 C 24.626353 9.464803 23.537089 10.066111 22.495433 9.765462 C 21.453776 9.464808 20.852463 8.375544 21.153117 7.333888 C 21.453771 6.292226 22.54303 5.690918 23.584691 5.991567 Z M 23.584691 5.991567 " transform="matrix(3,0,0,3,0,0)"/>
</g>
</svg>
