<?xml version="1.0" encoding="UTF-8"?>
<svg xmlns="http://www.w3.org/2000/svg" xmlns:xlink="http://www.w3.org/1999/xlink" width="90pt" height="90pt" viewBox="0 0 90 90" version="1.1">
<defs>
<linearGradient id="linear0" gradientUnits="userSpaceOnUse" x1="85.637665" y1="17.443848" x2="73.91629" y2="54.628189" gradientTransform="matrix(1.130262,0,0,2.060319,1.295148,1.551759)">
<stop offset="0" style="stop-color: rgb(100%,71.764706%,0%); stop-opacity: 1;"/>
<stop offset="1" style="stop-color: rgb(100%,83.529412%,56.078431%); stop-opacity: 0;"/>
</linearGradient>
<linearGradient id="linear1" gradientUnits="userSpaceOnUse" x1="60.644623" y1="19.295685" x2="35.370575" y2="69.142807" gradientTransform="matrix(1.526007,0,0,1.526007,1.295148,1.551759)">
<stop offset="0" style="stop-color: rgb(100%,71.764706%,0%); stop-opacity: 1;"/>
<stop offset="1" style="stop-color: rgb(100%,83.529412%,56.078431%); stop-opacity: 0;"/>
</linearGradient>
<linearGradient id="linear2" gradientUnits="userSpaceOnUse" x1="32.051331" y1="14.657822" x2="32.051331" y2="75.934341" gradientTransform="matrix(0.580959,0,0,0.580971,47.3721,41.36862)">
<stop offset="0" style="stop-color: rgb(100%,78.823529%,24.705882%); stop-opacity: 1;"/>
<stop offset="1" style="stop-color: rgb(94.509804%,89.019608%,42.352941%); stop-opacity: 1;"/>
</linearGradient>
</defs>
<g id="surface0">
<path style="stroke: none; fill-rule: evenodd; fill: rgb(0%,0%,3.529412%); opacity: 0.301961;" d="M 72.905228 6.135284 C 73.559021 6.059387 83.151108 3.040558 82.964966 8.399094 C 82.778839 13.757645 79.622101 52.600769 75.627853 57.420944 C 73.766205 60.523239 69.386932 64.952316 62.217148 67.472351 C 56.392899 69.509445 22.399811 80.769104 19.842056 80.575653 C 17.284271 80.382309 11.842865 80.959091 11.43248 75.179626 C 11.021942 69.400055 8.972443 53.726227 9.184464 47.572983 C 10.024261 42.138626 7.480179 38.076797 14.21405 34.068024 C 18.673752 32.679306 64.222504 12.714828 66.683014 11.884857 C 69.143402 11.054779 71.149033 10.760681 72.905228 6.135284 Z M 72.905228 6.135284 "/>
<path style="stroke: none; fill-rule: evenodd; fill: rgb(34.901961%,22.745098%,15.686275%); opacity: 1;" d="M 72.157028 4.564957 C 72.810822 4.489136 82.402908 1.470276 82.216766 6.828827 C 82.03064 12.187347 74.507767 50.526062 70.513535 55.34613 C 68.651886 58.448425 64.272614 62.877487 57.102829 65.397537 C 51.27858 67.434616 13.705475 77.240982 11.14769 77.047623 C 8.589935 76.854172 3.148529 77.430954 2.738129 71.651505 C 2.327591 65.87204 3.264542 30.737625 3.609436 29.608505 C 4.449234 24.174057 9.945541 21.249268 12.424988 20.25354 C 16.884674 18.864838 59.177795 5.253769 61.63829 4.423813 C 64.098679 3.593765 70.519608 1.977539 72.157028 4.564957 Z M 72.157028 4.564957 "/>
<path style="stroke: none; fill-rule: evenodd; fill: rgb(94.509804%,89.019608%,42.352941%); opacity: 1;" d="M 68.07811 5.957123 C 68.07811 5.957123 70.509079 9.548492 70.739624 9.412888 C 74.084625 7.719971 78.702759 8.185699 77.687347 11.407669 C 77.037796 15.186234 71.514252 51.898834 62.962936 57.084183 C 54.394775 64.286469 11.585602 73.239105 10.470612 73.586334 C 9.355759 73.933472 7.047562 73.438873 7.081375 69.404999 C 7.115204 65.371124 6.861191 34.850296 7.705246 33.118546 C 8.029037 30.303665 9.46756 27.141556 13.542206 25.361832 C 17.616867 23.582123 66.808746 5.777634 68.07811 5.957123 Z M 68.07811 5.957123 "/>
<path style="stroke: none; fill-rule: evenodd; fill: url(#linear0);" d="M 57.362747 15.430313 C 57.362747 15.430313 14.946838 27.438156 12.930695 30.013718 C 10.91452 32.589401 10.73291 67.565445 10.637711 68.393326 C 10.542511 69.221298 21.55191 40.338928 26.03064 38.784576 C 30.509369 37.230331 49.293976 32.428391 51.557648 27.70018 C 53.82132 22.971954 54.479095 16.200546 59.169464 14.676132 "/>
<path style="stroke: none; fill-rule: evenodd; fill: rgb(34.901961%,22.745098%,15.686275%); opacity: 1;" d="M 11.934723 70.124985 C 18.880249 56.467056 20.692978 47.207031 24.014648 42.62851 C 27.048416 38.682175 27.932724 38.470779 31.969147 37.022324 C 38.813202 35.465897 52.444031 31.255875 52.864975 29.464294 C 55.846008 29.717499 54.21254 18.518738 61.51561 14.839661 C 66.301163 12.487366 78.6203 6.320236 78.6203 6.320236 L 70.870819 6.402435 C 68.084595 8.195999 55.803528 14.031937 54.574295 15.372559 C 52.13295 16.037125 53.300812 23.804504 50.899612 25.989182 C 48.519516 29.859512 28.831833 34.390945 27.236603 35.175034 C 25.64151 35.959137 22.298737 38.852005 20.879242 41.848602 C 14.475403 55.218689 12.907959 64.480331 11.934723 70.124985 Z M 11.934723 70.124985 "/>
<path style="stroke: none; fill-rule: evenodd; fill: url(#linear1);" d="M 77.139511 12.959595 C 74.609146 13.348785 64.8703 17.821259 61.685638 21.009506 C 60.058182 24.587112 60.929382 32.021667 54.460907 35.390656 C 47.992432 38.759552 33.015015 39.7733 30.489853 43.223892 C 27.964676 46.674576 17.35675 67.329956 16.515976 69.352844 C 15.675293 71.375854 63.237366 59.483643 65.352692 54.309265 C 68.246552 49.134781 72.681793 38.507034 77.139511 12.959595 Z M 77.139511 12.959595 "/>
<path style="stroke: none; fill-rule: nonzero; fill: rgb(0%,0%,0%); opacity: 0.345098;" d="M 74.108047 50.136276 C 72.430695 49.652145 70.697632 50.608856 70.213501 52.286209 L 69.493073 54.782242 C 68.788467 54.804291 68.096115 54.869751 67.413071 55.000397 L 66.165344 52.740173 C 65.321625 51.211792 63.403244 50.658081 61.874847 51.501816 L 60.219254 52.427109 C 58.690872 53.270828 58.141052 55.17572 58.984787 56.704117 L 60.222916 58.946945 C 59.741425 59.454071 59.303665 59.998489 58.902969 60.582993 L 56.460892 59.878143 C 54.783554 59.394012 53.033096 60.360336 52.548965 62.037674 L 52.023239 63.859116 C 51.539108 65.536453 52.509323 67.273422 54.186661 67.757538 L 56.574768 68.446823 C 56.593475 69.177094 56.665146 69.894699 56.800446 70.602066 L 54.627151 71.801804 C 53.098755 72.645523 52.54895 74.550415 53.39267 76.078812 L 54.317963 77.734406 C 55.161697 79.262802 57.066589 79.812607 58.594971 78.968872 L 60.73349 77.78833 C 61.266754 78.295151 61.833572 78.758926 62.452301 79.17601 L 61.77861 81.510147 C 61.294479 83.187485 62.25119 84.920563 63.928543 85.404694 L 65.749969 85.93042 C 67.427307 86.414551 69.160385 85.457825 69.644516 83.780487 L 70.322113 81.432861 C 71.061951 81.408829 71.78299 81.327667 72.498627 81.184097 L 73.679169 83.322617 C 74.522903 84.851013 76.42778 85.400818 77.956177 84.557083 L 79.621368 83.64917 C 81.149765 82.80545 81.703461 80.88707 80.859741 79.358688 L 79.669601 77.202774 C 80.161026 76.6763 80.60405 76.107254 81.009018 75.499268 L 83.397125 76.188553 C 85.074463 76.672668 86.807541 75.715958 87.291656 74.03862 L 87.817383 72.217178 C 88.301514 70.539841 87.348694 68.793274 85.671356 68.309143 L 83.229279 67.604279 C 83.201584 66.89389 83.108627 66.200424 82.970642 65.512619 L 85.213486 64.27449 C 86.741867 63.430756 87.291687 61.525864 86.447952 59.997482 L 85.540039 58.332291 C 84.69632 56.803894 82.791428 56.254089 81.263031 57.097809 L 78.985428 58.355133 C 78.478897 57.881851 77.941177 57.446014 77.358978 57.052582 L 78.079407 54.556534 C 78.563538 52.879196 77.606812 51.146118 75.929474 50.661987 L 74.108047 50.136276 Z M 71.690231 61.905975 C 75.116379 62.894852 77.094162 66.477554 76.10527 69.903687 C 75.116394 73.329834 71.533691 75.307617 68.107544 74.318726 C 64.681412 73.329849 62.703629 69.747147 63.69252 66.320999 C 64.681396 62.894867 68.264099 60.917084 71.690231 61.905975 Z M 71.690231 61.905975 "/>
<path style="stroke: none; fill-rule: nonzero; fill: url(#linear2);" d="M 71.515305 47.543533 C 69.837967 47.059402 68.104889 48.016129 67.620758 49.693466 L 66.90033 52.189514 C 66.195724 52.211563 65.503372 52.277023 64.820343 52.407669 L 63.572617 50.147446 C 62.728882 48.619049 60.810501 48.065353 59.28212 48.909073 L 57.626511 49.834366 C 56.098129 50.678101 55.548325 52.582977 56.392044 54.111374 L 57.630173 56.354218 C 57.148682 56.861343 56.710922 57.405762 56.310226 57.990265 L 53.868149 57.2854 C 52.190811 56.801285 50.440353 57.767593 49.956223 59.444931 L 49.430511 61.266373 C 48.946381 62.94371 49.91658 64.680679 51.593933 65.16481 L 53.98204 65.85408 C 54.000732 66.584351 54.072403 67.301956 54.207703 68.009323 L 52.034409 69.209061 C 50.506027 70.052795 49.956207 71.957672 50.799942 73.486069 L 51.725235 75.141663 C 52.568954 76.670059 54.473846 77.219864 56.002243 76.376129 L 58.140762 75.195587 C 58.674011 75.702408 59.240829 76.166183 59.859573 76.583282 L 59.185867 78.917419 C 58.701736 80.594757 59.658463 82.327835 61.3358 82.811951 L 63.157242 83.337677 C 64.834579 83.821808 66.567657 82.865082 67.051773 81.187744 L 67.72937 78.840118 C 68.469208 78.816086 69.190247 78.73494 69.905899 78.591354 L 71.086441 80.729874 C 71.930161 82.25827 73.835052 82.808075 75.363434 81.964355 L 77.028641 81.056442 C 78.557022 80.212708 79.110733 78.294342 78.266998 76.765945 L 77.076859 74.610046 C 77.568283 74.083557 78.011322 73.514511 78.416275 72.906525 L 80.804382 73.59581 C 82.48172 74.079941 84.214798 73.123215 84.698929 71.445877 L 85.22464 69.624435 C 85.708786 67.947098 84.755951 66.200531 83.078613 65.7164 L 80.636536 65.011551 C 80.608841 64.301163 80.5159 63.607681 80.377899 62.919876 L 82.620743 61.681747 C 84.149139 60.838028 84.698944 58.933136 83.855209 57.404739 L 82.947311 55.739548 C 82.103577 54.211151 80.1987 53.661346 78.670303 54.505081 L 76.392685 55.762405 C 75.886154 55.289124 75.348434 54.853271 74.766235 54.459839 L 75.486679 51.963806 C 75.970795 50.286453 75.014084 48.553391 73.336746 48.06926 L 71.515305 47.543533 Z M 69.097504 59.313232 C 72.523636 60.302109 74.501419 63.884827 73.512543 67.310959 C 72.523651 70.737091 68.940948 72.714874 65.514816 71.725998 C 62.088684 70.737106 60.110901 67.154404 61.099777 63.728271 C 62.088669 60.302139 65.671371 58.324356 69.097504 59.313232 Z M 69.097504 59.313232 "/>
<path style="fill: none; stroke-width: 0.748954; stroke-linecap: round; stroke-linejoin: round; stroke: rgb(34.901961%,22.745098%,15.686275%); opacity: 1;stroke-miterlimit: 4;" d="M 23.838435 15.847844 C 23.279322 15.686467 22.70163 16.005376 22.540253 16.564489 L 22.30011 17.396505 C 22.065241 17.403854 21.834457 17.425674 21.606781 17.469223 L 21.190872 16.715815 C 20.909627 16.20635 20.270167 16.021784 19.760707 16.303024 L 19.208837 16.611455 C 18.699376 16.8927 18.516108 17.527659 18.797348 18.037125 L 19.210058 18.784739 C 19.049561 18.953781 18.903641 19.135254 18.770075 19.330088 L 17.95605 19.095133 C 17.396937 18.933762 16.813451 19.255864 16.652074 19.814977 L 16.476837 20.422124 C 16.31546 20.981237 16.63886 21.560226 17.197978 21.721603 L 17.994013 21.95136 C 18.000244 22.194784 18.024134 22.433985 18.069234 22.669774 L 17.344803 23.069687 C 16.835342 23.350932 16.652069 23.985891 16.933314 24.495356 L 17.241745 25.047221 C 17.522985 25.556686 18.157949 25.739955 18.667414 25.45871 L 19.380254 25.065196 C 19.558004 25.234136 19.746943 25.388728 19.953191 25.527761 L 19.728622 26.305806 C 19.567245 26.864919 19.886154 27.442612 20.445267 27.603984 L 21.052414 27.779226 C 21.611526 27.940603 22.189219 27.621694 22.350591 27.062581 L 22.576457 26.280039 C 22.823069 26.272029 23.063416 26.24498 23.301966 26.197118 L 23.69548 26.909958 C 23.97672 27.419423 24.611684 27.602692 25.121145 27.321452 L 25.676214 27.018814 C 26.185674 26.737569 26.370244 26.098114 26.088999 25.588648 L 25.692286 24.870015 C 25.856094 24.694519 26.003774 24.504837 26.138758 24.302175 L 26.934794 24.531937 C 27.493907 24.693314 28.071599 24.374405 28.232976 23.815292 L 28.408213 23.208145 C 28.569595 22.649033 28.251984 22.066844 27.692871 21.905467 L 26.878845 21.670517 C 26.869614 21.433721 26.838633 21.20256 26.792633 20.973292 L 27.540248 20.560582 C 28.049713 20.279343 28.232981 19.644379 27.951736 19.134913 L 27.649104 18.579849 C 27.367859 18.070384 26.7329 17.887115 26.223434 18.16836 L 25.464228 18.587468 C 25.295385 18.429708 25.116145 18.284424 24.922078 18.15328 L 25.162226 17.321269 C 25.323598 16.762151 25.004695 16.184464 24.445582 16.023087 L 23.838435 15.847844 Z M 23.032501 19.771077 C 24.174545 20.100703 24.833806 21.294942 24.504181 22.436986 C 24.17455 23.57903 22.980316 24.238291 21.838272 23.908666 C 20.696228 23.579035 20.036967 22.384801 20.366592 21.242757 C 20.696223 20.100713 21.890457 19.441452 23.032501 19.771077 Z M 23.032501 19.771077 " transform="matrix(3,0,0,3,0,0)"/>
</g>
</svg>
