<?xml version="1.0" encoding="UTF-8" standalone="no"?>
<svg
   xmlns:dc="http://purl.org/dc/elements/1.1/"
   xmlns:cc="http://creativecommons.org/ns#"
   xmlns:rdf="http://www.w3.org/1999/02/22-rdf-syntax-ns#"
   xmlns:svg="http://www.w3.org/2000/svg"
   xmlns="http://www.w3.org/2000/svg"
   xmlns:xlink="http://www.w3.org/1999/xlink"
   xmlns:sodipodi="http://sodipodi.sourceforge.net/DTD/sodipodi-0.dtd"
   xmlns:inkscape="http://www.inkscape.org/namespaces/inkscape"
   width="90pt"
   height="90pt"
   viewBox="0 0 90 90"
   version="1.1"
   id="svg2"
   sodipodi:version="0.32"
   inkscape:version="0.46+devel"
   sodipodi:docname="vim-find-help.svg"
   inkscape:output_extension="org.inkscape.output.svg.inkscape">
  <metadata
     id="metadata48">
    <rdf:RDF>
      <cc:Work
         rdf:about="">
        <dc:format>image/svg+xml</dc:format>
        <dc:type
           rdf:resource="http://purl.org/dc/dcmitype/StillImage" />
      </cc:Work>
    </rdf:RDF>
  </metadata>
  <defs
     id="defs46" />
  <sodipodi:namedview
     inkscape:window-height="724"
     inkscape:window-width="640"
     inkscape:pageshadow="2"
     inkscape:pageopacity="0.0"
     guidetolerance="10.0"
     gridtolerance="10.0"
     objecttolerance="10.0"
     borderopacity="1.0"
     bordercolor="#666666"
     pagecolor="#ffffff"
     id="base"
     showgrid="false"
     inkscape:zoom="4.7111111"
     inkscape:cx="56.25"
     inkscape:cy="58.741295"
     inkscape:window-x="374"
     inkscape:window-y="9"
     inkscape:current-layer="svg2" />
  <g
     id="g2534"
     transform="matrix(0.9681233,0,0,0.9681233,-10.257237,1.8884586)">
    <path
       sodipodi:nodetypes="ccccccccccc"
       id="path577"
       d="m 26.669595,63.314414 13.251234,7.390731 c 3.312894,-0.692874 12.541464,-4.157244 16.327578,-6.69786 -1.419783,-1.847736 -1.893,-5.311998 -2.83956,-7.852611 3.786117,-0.92376 25.319472,-14.550468 19.403799,-34.181946 -16.327458,-36.953337 -57.028062,-11.77881 -57.264729,-9.700188 -0.236556,2.078601 5.679234,12.009915 7.335678,14.550417 l 10.411677,4.619127 6.862338,-3.926253 c -5.679117,10.393113 -13.961238,13.395498 -15.854349,15.705114 -0.946443,0.46188 2.603007,20.78634 2.366334,20.093469 z"
       style="fill:#000000;fill-opacity:0.3;fill-rule:evenodd;stroke:none" />
    <path
       transform="matrix(1.262487,0,0,1.288848,-3.3515343,-13.515508)"
       sodipodi:ry="10.997026"
       sodipodi:rx="11.939625"
       sodipodi:cy="68.73909"
       sodipodi:cx="40.008221"
       d="m 51.947845,68.73909 a 11.939625,10.997026 0 1 1 -23.879249,0 11.939625,10.997026 0 1 1 23.879249,0 z"
       id="path575"
       style="fill:#000000;fill-opacity:0.3;fill-rule:evenodd;stroke:none"
       sodipodi:type="arc" />
    <path
       transform="matrix(1.134807,0,0,1.205673,-0.2250363,-9.0177305)"
       sodipodi:ry="10.997026"
       sodipodi:rx="11.939625"
       sodipodi:cy="68.73909"
       sodipodi:cx="40.008221"
       d="m 51.947845,68.73909 a 11.939625,10.997026 0 1 1 -23.879249,0 11.939625,10.997026 0 1 1 23.879249,0 z"
       id="path558"
       style="fill:#042800;fill-opacity:1;fill-rule:evenodd;stroke:none"
       sodipodi:type="arc" />
    <path
       sodipodi:nodetypes="ccccccccccc"
       id="path556"
       d="m 25.375215,58.013243 12.073005,6.898947 c 3.01833,-0.646767 10.722705,-3.333348 14.172183,-5.704905 l -1.883448,-7.877364 c 3.449472,-0.862293 23.068197,-13.582272 17.678514,-31.907457 -14.87571,-34.494435 -51.957432,-10.9950385 -52.173057,-9.054729 -0.215517,1.940289 5.174268,11.210766 6.68343,13.582221 l 9.485928,4.311765 6.252174,-3.664995 c -5.174157,9.701553 -12.719877,12.50415 -14.444667,14.660088 -0.86229,0.431142 2.37156,19.403202 2.155938,18.756429 z"
       style="fill:#042800;fill-opacity:1;fill-rule:evenodd;stroke:none" />
    <path
       sodipodi:nodetypes="cccccccc"
       id="path553"
       d="M 49.0625,6.96875 C 59.410927,26.156309 43.261657,42.063235 37.65625,46.375 37.345416,48.861882 37.922035,51.024736 38.460684,51.968863 L 29.312387,55.828407 37.65625,60.375 46.65625,57.3125 45,49.375 C 81.140941,26.207304 52.528494,7.873753 49.0625,6.96875 z"
       style="fill:#208c11;fill-opacity:1;fill-rule:evenodd;stroke:none" />
    <path
       sodipodi:nodetypes="cccc"
       id="path557"
       d="m 25.311254,20.907909 c 2.549239,1.217861 7.17843,2.826422 7.17843,2.826422 3.723492,-2.557783 7.603346,-3.670605 11.326838,-4.352105 -2.58708,-4.506074 -9.881633,-3.390216 -18.505268,1.525683 z"
       style="fill:#208c11;fill-opacity:1;fill-rule:evenodd;stroke:none" />
    <path
       sodipodi:nodetypes="ccccc"
       id="path562"
       d="m 55.241532,74.536586 c 0,5.128533 -4.118889,9.290811 -9.193917,9.290811 -5.075238,0 -9.194127,-4.162278 -9.194127,-9.290811 0,-5.12853 11.474169,-1.999221 9.194127,-9.290808 5.075028,0 9.193917,4.162278 9.193917,9.290808 z"
       style="font-size:12px;fill:#208c11;fill-opacity:1;fill-rule:evenodd;stroke-width:1pt" />
    <path
       id="path561"
       d="m 51.757494,73.181693 c 0,4.807983 -3.772038,8.710161 -8.419755,8.710161 -4.647813,0 -8.419848,-3.902178 -8.419848,-8.710161 0,-4.807983 3.772035,-8.710161 8.419848,-8.710161 4.647717,0 8.419755,3.902178 8.419755,8.710161 z"
       style="font-size:12px;fill:#19db00;fill-opacity:1;fill-rule:evenodd;stroke-width:1pt" />
    <path
       sodipodi:nodetypes="ccccccccc"
       id="path552"
       d="m 26.884377,41.197226 2.371455,14.660085 9.701553,-3.449475 -1.077915,-6.036453 c 0,0 24.792882,-15.091332 18.10956,-32.554224 -6.683226,-10.7795 -18.756333,-12.504219 -35.356833,-1.077918 2.155938,3.449475 4.115164,7.567039 4.743018,8.19249 7.32999,-4.096245 18.109557,-6.683325 18.756429,0.431145 0.646773,3.23385 -12.935499,19.4031 -17.247267,19.83435 z"
       style="fill:#19db00;fill-opacity:1;fill-rule:evenodd;stroke:none" />
  </g>
  <g
     id="g1271"
     style="font-size:12px"
     transform="matrix(1.0595074,0,0,1.0595074,25.871318,24.965923)">
    <defs
       id="defs1272">
      <linearGradient
         id="linearGradient621">
        <stop
           id="stop623"
           offset="0"
           style="stop-color:#666565;stop-opacity:1;" />
        <stop
           id="stop622"
           offset="1"
           style="stop-color:#ffffff;stop-opacity:1;" />
      </linearGradient>
      <linearGradient
         id="linearGradient610">
        <stop
           id="stop612"
           offset="0"
           style="stop-color:#666565;stop-opacity:1;" />
        <stop
           id="stop611"
           offset="1"
           style="stop-color:#ffffff;stop-opacity:1;" />
      </linearGradient>
      <defs
         id="defs1283">
        <linearGradient
           spreadMethod="pad"
           gradientUnits="objectBoundingBox"
           xlink:href="#linearGradient610"
           id="linearGradient554"
           y2="0"
           x2="1"
           y1="0"
           x1="0" />
        <linearGradient
           spreadMethod="pad"
           gradientTransform="scale(1.122498,0.89087)"
           gradientUnits="userSpaceOnUse"
           xlink:href="#linearGradient554"
           id="linearGradient557"
           y2="72.29023"
           x2="8.3357515"
           y1="79.96035"
           x1="12.9236" />
        <linearGradient
           spreadMethod="pad"
           gradientTransform="scale(1.122498,0.89087)"
           gradientUnits="userSpaceOnUse"
           xlink:href="#linearGradient554"
           id="linearGradient559"
           y2="78.428917"
           x2="12.994576"
           y1="68.656029"
           x1="7.798367" />
        <linearGradient
           xlink:href="#linearGradient554"
           id="linearGradient563" />
      </defs>
      <defs
         id="defs573">
        <linearGradient
           spreadMethod="pad"
           gradientUnits="objectBoundingBox"
           xlink:href="#linearGradient621"
           id="linearGradient604"
           y2="0"
           x2="1"
           y1="0"
           x1="0" />
        <linearGradient
           id="linearGradient600">
          <stop
             id="stop601"
             offset="0"
             style="stop-color:#000000;stop-opacity:1;" />
          <stop
             id="stop602"
             offset="1"
             style="stop-color:#ffffff;stop-opacity:1;" />
        </linearGradient>
        <linearGradient
           spreadMethod="pad"
           gradientTransform="scale(0.994399,1.005632)"
           gradientUnits="userSpaceOnUse"
           xlink:href="#linearGradient604"
           id="linearGradient603"
           y2="14.15477"
           x2="79.628151"
           y1="28.657213"
           x1="61.04689" />
      </defs>
    </defs>
    <path
       id="path634"
       style="fill:none;stroke:#000000;stroke-width:4.30358124"
       d="M 48.81122,55.61913 39.40311,47.06217 C 39.31588,46.98283 30.45357,50.30231 26.40083,50.26261 16.98036,50.16918 3.817009,44.17875 2.741079,27.77976 1.890729,14.71088 10.51725,2.547793 26.23738,2.522773 39.15413,2.502398 51.08589,11.9679 49.8154,27.53133 49.2088,35.19649 45.52692,39.62464 46.16072,40.3028 L 56.47282,51.3366 C 58.14851,53.12956 56.23386,62.37024 48.81122,55.61913 z" />
    <path
       id="path620"
       style="fill:none;stroke:#efe16b;stroke-width:3.25"
       d="m 47.76238,26.53993 c 0,3.02175 -0.6131,5.90117 -1.72163,8.52057 -0.55426,1.3097 -1.70537,4.57037 -2.60027,5.65485 l 8.3026,11.08066 -0.78685,1.18252 -11.10871,-9.63797 c -1.08448,0.8949 -4.1516,2.82021 -5.4613,3.37447 -2.6194,1.10852 -5.49882,1.72163 -8.52057,1.72163 -12.08699,0 -21.89673,-9.80973 -21.89673,-21.89673 0,-12.08699 9.80974,-21.896733 21.89673,-21.896733 12.087,0 21.89673,9.809743 21.89673,21.896733 z" />
    <path
       id="path2600"
       style="fill:#ffc83d;fill-rule:evenodd"
       d="m 44.24797,38.76775 11.91834,13.30281 c 1.92841,2.74655 -1.1645,6.19535 -4.37187,4.52296 l -13.65055,-11.92449 c 0.2607,-2.76584 4.09625,-5.40882 6.10408,-5.90128 z" />
    <path
       id="path567"
       style="fill:#ff933d;fill-rule:evenodd"
       d="m 43.86792,39.16621 11.89502,13.11666 c 0.83409,2.11662 -0.53462,-1.44297 -2.29362,2.23907 l -12.17489,-13.01782 c 0.02179,-0.85513 0.48208,-1.9203 2.57349,-2.33791 z" />
    <path
       id="path568"
       style="fill:#ffffff;fill-rule:evenodd"
       d="M 40.04615,42.27535 52.69942,54.75552 C 53.21655,54.90327 52.09318,55.15765 52.27966,56.45686 51.83815,55.8353 38.85772,43.95679 38.85772,43.95679 z" />
    <ellipse
       id="path611"
       style="fill:#bae6ff;fill-opacity:0.431;fill-rule:evenodd;stroke-width:1"
       transform="matrix(1.106369,0,0,1.106369,-7.012474,-6.130595)"
       ry="18.451067"
       rx="18.451067"
       cy="28.953592"
       cx="29.499611"
       sodipodi:cx="29.499611"
       sodipodi:cy="28.953592"
       sodipodi:rx="18.451067"
       sodipodi:ry="18.451067" />
    <path
       id="path610"
       style="fill:#437caf;fill-opacity:0.34479998;fill-rule:evenodd;stroke-width:1"
       d="m 38.94959,11.01917 c 4.25334,3.03534 7.34957,7.69212 8.27822,13.24924 0.92864,5.55712 -0.48527,10.96758 -3.52061,15.22092 -3.03535,4.25335 -7.69213,7.34957 -13.24925,8.27821 -5.55711,0.92865 -9.21286,-0.19281 -15.22092,-3.5206 m 0,0 c 29.2168,-8.79323 22.0325,-15.93489 23.71256,-33.22777" />
    <path
       id="path651"
       style="fill:#ff0000;fill-rule:evenodd;stroke-width:1"
       d="m 44.19708,38.5588 c -2.0449,0.76964 -1.41633,0.65419 -3.29481,1.86762 -0.10454,0.17099 -1.23455,0.05918 -2.70765,4.31979 l 3.13238,2.80668 c 0.84957,-1.12667 2.09479,-3.17528 2.83341,-3.69175 1.07102,-0.79427 1.60107,-1.20024 3.17135,-1.82809 z" />
    <path
       id="path652"
       style="fill:#ffffff;fill-rule:evenodd;stroke-width:1"
       d="m 41.76381,44.43223 -0.98475,1.40744 -1.89339,-1.57431 0.88755,-1.38681 z" />
  </g>
</svg>
