<?xml version="1.0" encoding="UTF-8" standalone="no"?>
<!-- Created with Inkscape (http://www.inkscape.org/) -->
<svg
   xmlns:dc="http://purl.org/dc/elements/1.1/"
   xmlns:cc="http://web.resource.org/cc/"
   xmlns:rdf="http://www.w3.org/1999/02/22-rdf-syntax-ns#"
   xmlns:svg="http://www.w3.org/2000/svg"
   xmlns="http://www.w3.org/2000/svg"
   xmlns:xlink="http://www.w3.org/1999/xlink"
   xmlns:sodipodi="http://sodipodi.sourceforge.net/DTD/sodipodi-0.dtd"
   xmlns:inkscape="http://www.inkscape.org/namespaces/inkscape"
   width="72.000000pt"
   height="72.000000pt"
   id="svg1"
   sodipodi:version="0.32"
   inkscape:version="0.45.1"
   sodipodi:docbase="/home/tweenk/GNUtoon/status"
   sodipodi:docname="audio-volume-medium.svg"
   inkscape:output_extension="org.inkscape.output.svg.inkscape">
  <defs
     id="defs3">
    <radialGradient
       cx="28.736504"
       cy="55.133288"
       fx="28.736504"
       fy="55.133288"
       r="5.5634472"
       id="radialGradient627"
       xlink:href="#linearGradient619"
       gradientUnits="userSpaceOnUse"
       spreadMethod="pad"
       gradientTransform="scale(1.074784,0.9304195)" />
    <radialGradient
       inkscape:collect="always"
       xlink:href="#linearGradient619"
       id="radialGradient2438"
       gradientUnits="userSpaceOnUse"
       gradientTransform="matrix(1.074967,0,0,0.930261,-2.9706061e-7,-1.274941e-6)"
       spreadMethod="pad"
       cx="9.37104893"
       cy="60.7591972"
       fx="9.37104893"
       fy="60.7591972"
       r="3.43041444" />
    <linearGradient
       x1="0.00000000"
       y1="0.00000000"
       x2="1.00000000"
       y2="0.00000000"
       id="linearGradient619"
       gradientUnits="objectBoundingBox"
       spreadMethod="pad">
      <stop
         style="stop-color:#ffffff;stop-opacity:1;"
         offset="0.00000000"
         id="stop620" />
      <stop
         style="stop-color:#ffffff;stop-opacity:0;"
         offset="1.00000000"
         id="stop621" />
    </linearGradient>
    <radialGradient
       cx="9.37104893"
       cy="60.7591972"
       fx="9.37104893"
       fy="60.7591972"
       r="3.43041444"
       id="radialGradient622"
       xlink:href="#linearGradient619"
       gradientUnits="userSpaceOnUse"
       gradientTransform="matrix(1.074967,0,0,0.930261,-2.9706062e-7,-1.274941e-6)"
       spreadMethod="pad" />
    <linearGradient
       id="linearGradient1867">
      <stop
         style="stop-color:#558ada;stop-opacity:1.0000000;"
         offset="0.0000000"
         id="stop1868" />
      <stop
         style="stop-color:#ffffff;stop-opacity:1.0000000;"
         offset="1.0000000"
         id="stop1869" />
    </linearGradient>
    <linearGradient
       inkscape:collect="always"
       id="linearGradient1862">
      <stop
         style="stop-color:#7a889e;stop-opacity:1;"
         offset="0"
         id="stop1863" />
      <stop
         style="stop-color:#7a889e;stop-opacity:0;"
         offset="1"
         id="stop1864" />
    </linearGradient>
    <linearGradient
       id="linearGradient1776">
      <stop
         style="stop-color:#ff933d;stop-opacity:1.0000000;"
         offset="0.0000000"
         id="stop1777" />
      <stop
         style="stop-color:#ffc93f;stop-opacity:1.0000000;"
         offset="1.0000000"
         id="stop1778" />
    </linearGradient>
    <linearGradient
       id="linearGradient1773">
      <stop
         style="stop-color:#ffffff;stop-opacity:1.0000000;"
         offset="0.0000000"
         id="stop1774" />
      <stop
         style="stop-color:#c2c2c2;stop-opacity:0;"
         offset="1"
         id="stop1775" />
    </linearGradient>
    <linearGradient
       id="linearGradient1765">
      <stop
         style="stop-color:#b01911;stop-opacity:1.0000000"
         offset="0.0000000"
         id="stop1766" />
      <stop
         style="stop-color:#ffc93f;stop-opacity:1.0000000"
         offset="1.0000000"
         id="stop1767" />
    </linearGradient>
    <linearGradient
       id="linearGradient1755">
      <stop
         style="stop-color:#c2c2c2;stop-opacity:1.0000000;"
         offset="0.0000000"
         id="stop1756" />
      <stop
         style="stop-color:#7e7e7e;stop-opacity:1.0000000;"
         offset="1.0000000"
         id="stop1757" />
    </linearGradient>
    <linearGradient
       inkscape:collect="always"
       id="linearGradient1746">
      <stop
         style="stop-color:#9b9a9a;stop-opacity:1;"
         offset="0"
         id="stop1747" />
      <stop
         style="stop-color:#9b9a9a;stop-opacity:0;"
         offset="1"
         id="stop1748" />
    </linearGradient>
    <linearGradient
       id="linearGradient1742">
      <stop
         style="stop-color:#697689;stop-opacity:1.0000000;"
         offset="0.0000000"
         id="stop1743" />
      <stop
         style="stop-color:#323841;stop-opacity:1.0000000;"
         offset="1.0000000"
         id="stop1744" />
    </linearGradient>
    <radialGradient
       inkscape:collect="always"
       xlink:href="#linearGradient1742"
       id="radialGradient1745"
       gradientTransform="scale(0.784465,1.274755)"
       cx="63.274918"
       cy="45.159443"
       fx="63.274918"
       fy="45.159443"
       r="36.745846"
       gradientUnits="userSpaceOnUse" />
    <linearGradient
       inkscape:collect="always"
       xlink:href="#linearGradient1746"
       id="linearGradient1749"
       gradientTransform="matrix(0.826445,0.000000,0.000000,1.210002,-3.125000,-3.125000)"
       x1="69.968788"
       y1="46.796841"
       x2="69.304581"
       y2="26.938019"
       gradientUnits="userSpaceOnUse" />
    <linearGradient
       inkscape:collect="always"
       xlink:href="#linearGradient1755"
       id="linearGradient1754"
       gradientTransform="scale(0.769800,1.299038)"
       x1="85.628265"
       y1="28.431770"
       x2="84.307259"
       y2="34.954239"
       gradientUnits="userSpaceOnUse" />
    <radialGradient
       inkscape:collect="always"
       xlink:href="#linearGradient1755"
       id="radialGradient1760"
       gradientTransform="scale(0.769800,1.299038)"
       cx="74.074181"
       cy="33.478851"
       fx="73.597748"
       fy="33.670494"
       r="14.731020"
       gradientUnits="userSpaceOnUse" />
    <linearGradient
       inkscape:collect="always"
       xlink:href="#linearGradient1765"
       id="linearGradient1764"
       gradientTransform="matrix(0.980206,0.000000,0.000000,1.020194,-3.125000,-3.125000)"
       x1="47.365814"
       y1="68.037910"
       x2="46.654697"
       y2="36.945923"
       gradientUnits="userSpaceOnUse" />
    <linearGradient
       inkscape:collect="always"
       xlink:href="#linearGradient1773"
       id="linearGradient1772"
       gradientTransform="matrix(1.221261,0.000000,0.000000,0.818826,-3.125000,-3.125000)"
       x1="28.591198"
       y1="45.317245"
       x2="30.966982"
       y2="57.908516"
       gradientUnits="userSpaceOnUse" />
    <linearGradient
       inkscape:collect="always"
       xlink:href="#linearGradient1776"
       id="linearGradient1779"
       gradientTransform="matrix(1.037713,0.000000,0.000000,0.963658,-3.125000,-3.125000)"
       x1="20.357403"
       y1="64.732994"
       x2="19.238430"
       y2="55.011913"
       gradientUnits="userSpaceOnUse" />
    <defs
       id="defs1063">
      <sodipodi:namedview
         id="namedview909" />
      <defs
         id="defs550">
        <linearGradient
           x1="0.0000000"
           y1="0.0000000"
           x2="1.0000000"
           y2="0.0000000"
           id="linearGradient632"
           gradientUnits="objectBoundingBox"
           spreadMethod="pad">
          <stop
             style="stop-color:#ffb700;stop-opacity:1;"
             offset="0.000000"
             id="stop633" />
          <stop
             style="stop-color:#ffd58f;stop-opacity:0;"
             offset="1.000000"
             id="stop634" />
        </linearGradient>
        <linearGradient
           x1="0.0000000"
           y1="0.0000000"
           x2="1.0000000"
           y2="0.0000000"
           id="linearGradient556"
           gradientUnits="objectBoundingBox"
           spreadMethod="pad">
          <stop
             style="stop-color:#000000;stop-opacity:1;"
             offset="0.000000"
             id="stop557" />
          <stop
             style="stop-color:#bdf2ff;stop-opacity:0.384314;"
             offset="1.000000"
             id="stop558" />
        </linearGradient>
        <linearGradient
           id="linearGradient559"
           xlink:href="#linearGradient632"
           x1="60.644615"
           y1="19.295689"
           x2="35.370575"
           y2="69.142799"
           gradientUnits="userSpaceOnUse"
           spreadMethod="pad" />
        <linearGradient
           xlink:href="#linearGradient632"
           id="linearGradient631"
           x1="85.637657"
           y1="17.443844"
           x2="73.916298"
           y2="54.628181"
           gradientUnits="userSpaceOnUse"
           spreadMethod="pad"
           gradientTransform="scale(0.740666,1.350136)" />
      </defs>
    </defs>
    <radialGradient
       inkscape:collect="always"
       xlink:href="#linearGradient1862"
       id="radialGradient1866"
       gradientTransform="scale(0.791148,1.263986)"
       cx="103.42607"
       cy="32.260498"
       fx="103.42607"
       fy="32.260498"
       r="42.612907"
       gradientUnits="userSpaceOnUse" />
    <linearGradient
       inkscape:collect="always"
       xlink:href="#linearGradient1867"
       id="linearGradient1870"
       gradientTransform="matrix(0.874475,0.000000,0.000000,1.143544,-3.125000,-3.125000)"
       x1="33.838795"
       y1="55.787796"
       x2="33.206974"
       y2="61.570423"
       gradientUnits="userSpaceOnUse" />
    <linearGradient
       inkscape:collect="always"
       xlink:href="#linearGradient1867"
       id="linearGradient1874"
       gradientTransform="matrix(0.577350,0.000000,0.000000,1.732051,-3.125000,-3.125000)"
       x1="65.236572"
       y1="36.108150"
       x2="65.236572"
       y2="40.606052"
       gradientUnits="userSpaceOnUse" />
  </defs>
  <sodipodi:namedview
     id="base"
     pagecolor="#ffffff"
     bordercolor="#666666"
     borderopacity="1.0"
     inkscape:pageopacity="0.0"
     inkscape:pageshadow="2"
     inkscape:zoom="2"
     inkscape:cx="62.067369"
     inkscape:cy="49.782899"
     inkscape:current-layer="svg1"
     inkscape:window-width="795"
     inkscape:window-height="619"
     inkscape:window-x="197"
     inkscape:window-y="51" />
  <metadata
     id="metadata4">
    <rdf:RDF>
      <cc:Work
         rdf:about="">
        <dc:format>image/svg+xml</dc:format>
        <dc:type
           rdf:resource="http://purl.org/dc/dcmitype/StillImage" />
      </cc:Work>
    </rdf:RDF>
  </metadata>
  <path
     style="fill:#000000;fill-opacity:0.39215687;fill-rule:nonzero;stroke:none;stroke-width:7.5000000;stroke-linecap:round;stroke-linejoin:round;stroke-miterlimit:4.0000000;stroke-opacity:1.0000000"
     d="M 59.500000,8.9062500 C 48.782478,9.9554320 40.991937,20.498625 39.375000,34.218750 C 39.182687,34.393814 31.017609,39.317100 26.598192,40.200983 C 22.178774,41.084868 14.245401,41.522366 11.593750,42.406250 C 1.4290902,47.488578 6.0582161,63.857233 9.5937500,65.625000 C 13.792197,68.718593 16.886420,68.946384 21.968750,68.062500 L 25.718750,77.562500 C 27.265546,79.772209 31.906408,80.435279 35.000000,80.656250 C 39.419418,79.330429 42.968750,78.642767 42.968750,76.875000 C 42.968751,75.107232 43.845971,72.897209 43.625000,70.687500 C 47.423894,71.953800 51.401231,72.950352 54.843750,73.781250 C 59.073185,76.742980 63.790982,78.345162 68.593750,77.875000 C 82.188638,76.544141 91.166472,60.001535 88.656250,40.968750 C 86.146030,21.935967 73.094888,7.5753907 59.500000,8.9062500 z "
     id="path1875"
     sodipodi:nodetypes="cccccccccccccc" />
  <g
     inkscape:label="Layer 1"
     inkscape:groupmode="layer"
     id="layer1" />
  <path
     style="fill:#000000;fill-opacity:1.0000000;fill-rule:nonzero;stroke:none;stroke-width:7.5000000;stroke-linecap:round;stroke-linejoin:round;stroke-miterlimit:4.0000000;stroke-opacity:1.0000000"
     d="M 56.062500,4.5312500 C 45.344978,5.5804321 37.554437,16.123625 35.937500,29.843750 C 35.745187,30.018814 27.580109,34.942100 23.160692,35.825983 C 18.741274,36.709868 10.807901,37.147366 8.1562500,38.031250 C -2.0084098,43.113578 2.6207161,59.482233 6.1562500,61.250000 C 10.354697,64.343593 13.448920,64.571384 18.531250,63.687500 L 22.281250,73.187500 C 23.828046,75.397209 28.468908,76.060279 31.562500,76.281250 C 35.981918,74.955429 39.531250,74.267767 39.531250,72.500000 C 39.531251,70.732232 40.408471,68.522209 40.187500,66.312500 C 43.986394,67.578800 47.963731,68.575352 51.406250,69.406250 C 55.635685,72.367980 60.353482,73.970162 65.156250,73.500000 C 78.751138,72.169141 87.728972,55.626535 85.218750,36.593750 C 82.708530,17.560967 69.657388,3.2003907 56.062500,4.5312500 z "
     id="path1859"
     sodipodi:nodetypes="cccccccccccccc" />
  <path
     style="fill:url(#linearGradient1870);fill-opacity:1.0000000;fill-rule:evenodd;stroke:none;stroke-width:0.25000000pt;stroke-linecap:butt;stroke-linejoin:miter;stroke-opacity:1.0000000"
     d="M 30.535620,61.278903 L 30.886252,72.499110 L 24.574885,71.797847 L 21.769834,60.577640 L 30.535620,61.278903 z "
     id="path1119" />
  <path
     style="fill:url(#linearGradient1779);fill-opacity:1.0000000;fill-rule:evenodd;stroke:none;stroke-width:0.25000000pt;stroke-linecap:butt;stroke-linejoin:miter;stroke-opacity:1.0000000"
     d="M 25.295324,39.688589 C 25.295324,39.688589 15.458467,39.189121 13.705310,39.890384 C 9.6084030,40.044772 7.7445750,41.773202 6.5100605,44.578254 C 4.7231179,48.046218 6.2507392,57.311472 8.4458380,58.473852 C 9.8675400,59.967688 10.693897,59.876377 14.757205,60.227009 C 20.367308,60.577640 28.782463,60.928272 28.782463,60.928272 L 25.295324,39.688589 z "
     id="path1118"
     sodipodi:nodetypes="ccccccc" />
  <path
     style="fill:url(#linearGradient1874);fill-opacity:1.0000000;fill-rule:evenodd;stroke:none;stroke-width:0.25000000pt;stroke-linecap:butt;stroke-linejoin:miter;stroke-opacity:1.0000000"
     d="M 32.639409,60.227009 L 32.288778,71.447216 L 36.496355,70.745953 L 36.496355,58.824483 L 32.639409,60.227009 z "
     id="path1120" />
  <path
     style="fill:url(#linearGradient1764);fill-opacity:1.0000000;fill-rule:evenodd;stroke:none;stroke-width:0.25000000pt;stroke-linecap:butt;stroke-linejoin:miter;stroke-opacity:1.0000000"
     d="M 45.262142,23.761337 C 45.262142,23.761337 42.476265,29.193385 34.743198,34.616303 C 26.678674,38.823880 22.471097,39.539753 22.471097,39.539753 C 22.471097,39.539753 16.813512,50.677780 23.767702,60.760260 C 37.571990,62.998275 45.344321,61.365648 59.018948,68.378277 C 63.744255,64.010907 63.144346,60.227009 63.144346,60.227009 L 45.262142,23.761337 z "
     id="path1117"
     sodipodi:nodetypes="ccccccc" />
  <path
     style="fill:url(#linearGradient1772);fill-opacity:1.0000000;fill-rule:evenodd;stroke:none;stroke-width:0.25000000pt;stroke-linecap:butt;stroke-linejoin:miter;stroke-opacity:1.0000000"
     d="M 40.156250,33.281250 C 40.156250,33.281250 29.140625,40.312500 23.281250,40.468750 L 22.187500,46.093750 C 22.187500,46.093750 36.953125,37.421875 40.468750,42.500000 C 42.500000,40.937500 40.156250,33.281250 40.156250,33.281250 z "
     id="path1768"
     sodipodi:nodetypes="ccccc" />
  <path
     sodipodi:type="arc"
     style="fill:#383e49;fill-opacity:1.0000000;fill-rule:nonzero;stroke:none;stroke-width:7.5000000;stroke-linecap:round;stroke-linejoin:round;stroke-miterlimit:4.0000000;stroke-opacity:1.0000000"
     id="path1116"
     sodipodi:cx="65.918716"
     sodipodi:cy="42.138805"
     sodipodi:rx="15.427784"
     sodipodi:ry="25.070150"
     d="M 81.346500 42.138805 A 15.427784 25.070150 0 1 1  50.490932,42.138805 A 15.427784 25.070150 0 1 1  81.346500 42.138805 z"
     transform="matrix(1.328797,-0.138292,0.150988,1.217067,-32.91447,-3.155920)" />
  <path
     sodipodi:type="arc"
     style="fill:url(#radialGradient1745);fill-opacity:1.0000000;fill-rule:nonzero;stroke:none;stroke-width:7.5000000;stroke-linecap:round;stroke-linejoin:round;stroke-miterlimit:4.0000000;stroke-opacity:1.0000000"
     id="path1115"
     sodipodi:cx="65.918716"
     sodipodi:cy="42.138805"
     sodipodi:rx="15.427784"
     sodipodi:ry="25.070150"
     d="M 81.346500 42.138805 A 15.427784 25.070150 0 1 1  50.490932,42.138805 A 15.427784 25.070150 0 1 1  81.346500 42.138805 z"
     transform="matrix(0.993606,-0.112901,0.112901,0.993606,-7.461028,4.586680)" />
  <path
     style="fill:url(#linearGradient1749);fill-opacity:1.0000000;fill-rule:evenodd;stroke:none;stroke-width:0.25000000pt;stroke-linecap:butt;stroke-linejoin:miter;stroke-opacity:1.0000000"
     d="M 59.988663,32.264150 C 56.131717,32.965413 51.748824,38.663174 47.015299,35.332175 C 47.015299,37.523622 47.278273,49.620407 52.888376,56.107089 C 54.203244,52.074827 56.920638,51.899512 61.303532,50.584644 C 66.212372,49.532750 60.602268,34.017307 59.988663,32.264150 z "
     id="path1114"
     sodipodi:nodetypes="ccccc" />
  <path
     sodipodi:type="arc"
     style="fill:url(#linearGradient1754);fill-opacity:1.0000000;fill-rule:nonzero;stroke:none;stroke-width:7.5000000;stroke-linecap:round;stroke-linejoin:round;stroke-miterlimit:4.0000000;stroke-opacity:1.0000000"
     id="path1113"
     sodipodi:cx="64.866821"
     sodipodi:cy="44.067280"
     sodipodi:rx="5.6101036"
     sodipodi:ry="9.4670496"
     d="M 70.476925 44.067280 A 5.6101036 9.4670496 0 1 1  59.256718,44.067280 A 5.6101036 9.4670496 0 1 1  70.476925 44.067280 z"
     transform="matrix(0.897027,-0.128966,0.142307,0.989823,-2.891840,6.039703)" />
  <path
     sodipodi:type="arc"
     style="fill:url(#radialGradient1760);fill-opacity:1.0000000;fill-rule:nonzero;stroke:none;stroke-width:7.5000000;stroke-linecap:round;stroke-linejoin:round;stroke-miterlimit:4.0000000;stroke-opacity:1.0000000"
     id="path1758"
     sodipodi:cx="64.866821"
     sodipodi:cy="44.067280"
     sodipodi:rx="5.6101036"
     sodipodi:ry="9.4670496"
     d="M 70.476925 44.067280 A 5.6101036 9.4670496 0 1 1  59.256718,44.067280 A 5.6101036 9.4670496 0 1 1  70.476925 44.067280 z"
     transform="matrix(0.625400,-8.991402e-2,9.921525e-2,0.690096,16.62669,16.71466)" />
  <rect
     style="fill:#b01911;fill-opacity:1.0000000;fill-rule:nonzero;stroke:none;stroke-width:7.5000000;stroke-linecap:round;stroke-linejoin:round;stroke-miterlimit:4.0000000;stroke-opacity:1.0000000"
     id="rect1855"
     width="9.0625000"
     height="2.0312500"
     x="8.5937500"
     y="43.046875"
     ry="1.3281250"
     rx="1.3281250" />
  <rect
     style="fill:#b01911;fill-opacity:1.0000000;fill-rule:nonzero;stroke:none;stroke-width:7.5000000;stroke-linecap:round;stroke-linejoin:round;stroke-miterlimit:4.0000000;stroke-opacity:1.0000000"
     id="rect1856"
     width="9.0625000"
     height="2.0312500"
     x="7.9687500"
     y="46.796875"
     ry="1.3281250"
     rx="1.3281250" />
  <rect
     style="fill:#b01911;fill-opacity:1.0000000;fill-rule:nonzero;stroke:none;stroke-width:7.5000000;stroke-linecap:round;stroke-linejoin:round;stroke-miterlimit:4.0000000;stroke-opacity:1.0000000"
     id="rect1854"
     width="9.0625000"
     height="2.0312500"
     x="7.9687500"
     y="50.390625"
     ry="1.3281250"
     rx="1.3281250" />
  <path
     sodipodi:type="arc"
     style="fill:none;fill-opacity:1.0000000;fill-rule:nonzero;stroke:url(#radialGradient1866);stroke-width:1.4114648;stroke-linecap:round;stroke-linejoin:round;stroke-miterlimit:4.0000000;stroke-opacity:1.0000000"
     id="path1861"
     sodipodi:cx="65.918716"
     sodipodi:cy="42.138805"
     sodipodi:rx="15.427784"
     sodipodi:ry="25.070150"
     d="M 81.346500 42.138805 A 15.427784 25.070150 0 1 1  50.490932,42.138805 A 15.427784 25.070150 0 1 1  81.346500 42.138805 z"
     transform="matrix(1.174144,-0.128592,0.133415,1.131696,-21.04198,-0.510435)" />
  <path
     style="fill:#000000;fill-rule:evenodd;stroke:none;stroke-width:1px;stroke-linecap:butt;stroke-linejoin:miter;stroke-opacity:1"
     d="M 4.625,35.48453 C 16.771341,36.069895 22.625,34.167456 28.625,31.386969 C 21.60061,32.265017 16.478659,34.752822 4.625,35.48453 z "
     id="path2456"
     sodipodi:nodetypes="ccc" />
  <path
     style="fill:#000000;fill-opacity:1;fill-rule:evenodd;stroke:none;stroke-width:1px;stroke-linecap:butt;stroke-linejoin:miter;stroke-opacity:1"
     d="M 0.7585565,55.25 C 1.9639404,62.348372 6.1158184,65.160935 9.4641071,65.696661 C 12.812396,66.232387 13.482054,66.098455 17.5,65.696661 C 17.232137,66.634182 8.7944494,67.839566 5.4461607,65.428798 C 2.097872,63.01803 0.08889876,58.196494 0.7585565,55.25 z "
     id="path3427"
     sodipodi:nodetypes="ccccc" />
  <g
     transform="matrix(0.8258838,0,0,0.8258838,48.601154,-21.178144)"
     style="font-size:12px"
     id="g644">
    <path
       d="M 7.73398,34.2049 L 12.0429,51.3301 C 5.08232,51.2196 4.19844,55.9705 4.64039,59.1746 C 6.73961,68.2343 17.4567,65.6933 24.5277,62.7102 C 23.6438,59.506 20.3293,44.3696 19.8874,41.7178 C 23.7543,40.7235 31.8198,38.4033 31.8198,38.4033 C 31.8198,38.4033 34.6924,45.5849 35.1343,47.0212 C 26.0745,46.6897 25.4117,52.3244 26.1851,54.8656 C 27.6214,61.9367 34.0295,61.8262 37.5651,60.8318 C 40.8796,60.2795 45.52,58.2907 48.0612,57.1859 C 47.0668,53.3189 38.3384,29.233 37.2336,26.1394 C 32.9246,27.6862 7.62349,34.4258 7.73398,34.2049 z "
       transform="matrix(1.035546,0,0,1.035546,0.722309,-0.302267)"
       style="fill:#0d0000;fill-opacity:0.30147101;fill-rule:evenodd;stroke-width:1pt"
       id="path635" />
    <path
       d="M 7.73398,34.2049 L 12.0429,51.3301 C 5.08232,51.2196 4.19844,55.9705 4.64039,59.1746 C 6.73961,68.2343 17.4567,65.6933 24.5277,62.7102 C 23.6438,59.506 20.3293,44.3696 19.8874,41.7178 C 23.7543,40.7235 31.8198,38.4033 31.8198,38.4033 C 31.8198,38.4033 34.6924,45.5849 35.1343,47.0212 C 26.0745,46.6897 25.4117,52.3244 26.1851,54.8656 C 27.6214,61.9367 34.0295,61.8262 37.5651,60.8318 C 40.8796,60.2795 45.52,58.2907 48.0612,57.1859 C 47.0668,53.3189 38.3384,29.233 37.2336,26.1394 C 32.9246,27.6862 7.62349,34.4258 7.73398,34.2049 z "
       style="fill:#0d3c07;fill-rule:evenodd;stroke-width:1pt"
       id="path616" />
    <path
       d="M 15.7994,54.2027 L 11.159,35.9726 L 35.7973,29.1225 L 44.7466,54.9761 C 44.7466,54.9761 33.3666,59.506 31.7093,57.5173 C 28.9471,57.4067 26.7375,51.2197 33.4771,50.0043 C 37.1231,49.8938 38.5594,49.6728 39.5538,50.0042 L 33.3666,34.0944 L 15.247,39.3977 L 20.3293,60.0584 C 20.3293,60.0584 13.7002,64.9198 7.95495,60.1689 C 6.73961,59.0641 6.62912,56.0809 8.61786,54.9761 C 10.2751,52.8769 15.6889,54.4237 15.7994,54.2027 z "
       style="fill:#2aaf18;fill-rule:evenodd;stroke-width:1pt"
       id="path574" />
    <path
       d="M 14.4736,57.5725 C 12.6184,56.7928 11.9994,58.2032 11.601,60.0584 C 10.0153,60.0584 8.87676,59.2416 8.87676,57.8693 C 8.87676,56.4971 9.94109,55.5318 11.5268,55.5318 C 13.1125,55.5318 14.4736,56.2003 14.4736,57.5725 z "
       transform="matrix(1.488889,0,0,1.488889,-6.003039,-28.69898)"
       style="fill:url(#radialGradient2438);fill-rule:evenodd;stroke-width:1pt"
       id="path623" />
    <path
       d="M 37.3441,53.6503 C 33.3666,51.8834 34.4706,54.4237 33.6428,56.8544 C 31.5997,56.8544 29.9416,55.4189 29.9416,53.6503 C 29.9416,51.8816 31.5997,50.4462 33.6428,50.4462 C 35.6859,50.4462 37.3441,51.8816 37.3441,53.6503 z "
       style="fill:url(#radialGradient627);fill-rule:evenodd;stroke-width:1pt"
       id="path625" />
    <path
       d="M 15.3575,39.5082 L 33.3666,34.2049 L 33.8085,32.5476 L 15.7994,37.7404 L 15.3575,39.5082 z "
       style="fill:#34674b;fill-rule:evenodd;stroke-width:1pt"
       id="path630" />
    <path
       d="M 11.159,35.9726 L 13.3687,36.5251 L 36.1287,30.2274 L 35.6868,29.1225 L 11.159,35.9726 z "
       style="fill:#cbff87;fill-rule:evenodd;stroke-width:1pt"
       id="path631" />
    <path
       d="M 33.6981,32.879 L 39.6643,49.8938 L 33.2561,34.2049 L 33.6981,32.879 z "
       style="fill:#cbff87;fill-rule:evenodd;stroke-width:1pt"
       id="path633" />
    <path
       d="M 13.1478,36.1936 C 13.1478,36.1936 16.1309,54.3132 16.0204,54.3132 C 15.9099,54.3132 11.2695,36.0831 11.2695,36.0831 L 13.1478,36.1936 z "
       style="fill:#cbff87;fill-rule:evenodd;stroke-width:1pt"
       id="path634" />
  </g>
  <g
     transform="matrix(0.6350639,0.3284356,-0.3284356,0.6350639,36.849072,19.298826)"
     style="font-size:12px"
     id="g637">
    <path
       d="M 59.5517,32.3266 L 63.5291,56.8544 C 52.7015,54.3132 51.9282,59.948 52.1491,63.152 C 52.7016,75.8578 66.6227,75.416 71.926,72.6538 C 72.147,68.8973 71.926,40.7235 71.926,40.7235 C 76.3454,35.9727 84.4109,27.0233 86.7311,24.4821 C 80.8753,25.808 62.5347,31.6637 59.5517,32.3266 z "
       transform="translate(1.878252,1.988735)"
       style="fill:#0d0007;fill-opacity:0.3;fill-rule:evenodd;stroke-width:1pt"
       id="path636" />
    <path
       d="M 59.5517,32.3266 L 63.5291,56.8544 C 52.7015,54.3132 51.9282,59.948 52.1491,63.152 C 52.7016,75.8578 66.6227,75.416 71.926,72.6538 C 72.147,68.8973 71.926,40.7235 71.926,40.7235 C 76.3454,35.9727 84.4109,27.0233 86.7311,24.4821 C 80.8753,25.808 62.5347,31.6637 59.5517,32.3266 z "
       style="fill:#0d3c07;fill-rule:evenodd;stroke-width:1pt"
       id="path617" />
    <path
       d="M 67.5066,63.9254 L 63.1977,35.6412 L 80.4334,28.1282 L 67.9485,39.6186 C 67.838,41.3864 69.6058,67.3505 69.2744,69.3392 C 69.6059,70.9966 67.1751,70.665 64.8549,70.665 C 56.0162,69.2287 53.1435,62.5996 58.5573,60.0584 C 61.5404,59.5061 66.5122,61.2738 67.5066,63.9254 z "
       style="fill:#2aaf18;fill-rule:evenodd;stroke-width:1pt"
       id="path575" />
    <path
       d="M 14.4736,57.5725 C 12.6184,56.7928 11.9994,58.2032 11.601,60.0584 C 10.0153,60.0584 8.87676,59.2416 8.87676,57.8693 C 8.87676,56.4971 9.94109,55.5318 11.5268,55.5318 C 13.1125,55.5318 14.4736,56.2003 14.4736,57.5725 z "
       transform="matrix(1.488889,0,0,1.488889,42.83153,-22.62228)"
       style="fill:url(#radialGradient622);fill-rule:evenodd;stroke-width:1pt"
       id="path628" />
    <path
       d="M 67.9485,39.8396 L 67.3961,37.9614 L 80.2124,28.2386 L 67.9485,39.8396 z "
       style="fill:#34674b;fill-rule:evenodd;stroke-width:1pt"
       id="path629" />
    <path
       d="M 79.881,28.4596 L 64.634,36.5251 L 67.5066,63.4835 L 63.1977,35.5307 L 79.881,28.4596 z "
       style="fill:#cbff87;fill-rule:evenodd;stroke-width:1pt"
       id="path632" />
  </g>
</svg>
