<?xml version="1.0" encoding="UTF-8" standalone="no"?>
<!-- Created with Sodipodi ("http://www.sodipodi.com/") -->

<svg
   xmlns:dc="http://purl.org/dc/elements/1.1/"
   xmlns:cc="http://creativecommons.org/ns#"
   xmlns:rdf="http://www.w3.org/1999/02/22-rdf-syntax-ns#"
   xmlns:svg="http://www.w3.org/2000/svg"
   xmlns="http://www.w3.org/2000/svg"
   xmlns:sodipodi="http://sodipodi.sourceforge.net/DTD/sodipodi-0.dtd"
   xmlns:inkscape="http://www.inkscape.org/namespaces/inkscape"
   version="1.0"
   x="0"
   y="0"
   width="90"
   height="90"
   id="svg602"
   xml:space="preserve"
   sodipodi:version="0.32"
   sodipodi:docname="bluetooth-inactive.svg"
   inkscape:version="0.48+devel r12490"
   inkscape:output_extension="org.inkscape.output.svg.inkscape"><metadata
     id="metadata21"><rdf:RDF><cc:Work
         rdf:about=""><dc:format>image/svg+xml</dc:format><dc:type
           rdf:resource="http://purl.org/dc/dcmitype/StillImage" /><dc:title /></cc:Work></rdf:RDF></metadata><sodipodi:namedview
     id="base"
     inkscape:zoom="3.197694"
     inkscape:cx="44.521316"
     inkscape:cy="-7.4917678"
     inkscape:window-width="795"
     inkscape:window-height="623"
     inkscape:window-x="114"
     inkscape:window-y="72"
     inkscape:current-layer="svg602"
     showgrid="false"
     inkscape:window-maximized="0" /><defs
     id="defs604" /><path
     sodipodi:type="arc"
     style="opacity:1;fill:#000000;fill-opacity:0.29411765;fill-rule:nonzero;stroke:none;stroke-width:0.05;stroke-linecap:round;stroke-linejoin:miter;stroke-miterlimit:4;stroke-dasharray:none;stroke-opacity:1"
     id="path3134"
     sodipodi:cx="46.547913"
     sodipodi:cy="44.557739"
     sodipodi:rx="27.530712"
     sodipodi:ry="40.135136"
     d="M 74.078625 44.557739 A 27.530712 40.135136 0 1 1  19.0172,44.557739 A 27.530712 40.135136 0 1 1  74.078625 44.557739 z"
     transform="matrix(1.0703989,0.2201752,-0.194137,0.9279861,6.4816565,-3.0854244)" /><path
     transform="matrix(1.0703989,0.2201752,-0.194137,0.9279861,2.4816565,-7.0854244)"
     d="M 74.078625 44.557739 A 27.530712 40.135136 0 1 1  19.0172,44.557739 A 27.530712 40.135136 0 1 1  74.078625 44.557739 z"
     sodipodi:ry="40.135136"
     sodipodi:rx="27.530712"
     sodipodi:cy="44.557739"
     sodipodi:cx="46.547913"
     id="path2159"
     style="opacity:1;fill:#383e49;fill-opacity:1;fill-rule:nonzero;stroke:none;stroke-width:0.05000000000000000;stroke-linecap:round;stroke-linejoin:miter;stroke-miterlimit:4;stroke-dasharray:none;stroke-opacity:1"
     sodipodi:type="arc" /><path
     sodipodi:type="arc"
     style="opacity:1;fill:#9b9a9a;fill-opacity:1;fill-rule:nonzero;stroke:none;stroke-width:0.05000000000000000;stroke-linecap:round;stroke-linejoin:miter;stroke-miterlimit:4;stroke-dasharray:none;stroke-opacity:1"
     id="path2173"
     sodipodi:cx="46.547913"
     sodipodi:cy="44.557739"
     sodipodi:rx="27.530712"
     sodipodi:ry="40.135136"
     d="M 74.078625 44.557739 A 27.530712 40.135136 0 1 1  19.0172,44.557739 A 27.530712 40.135136 0 1 1  74.078625 44.557739 z"
     transform="matrix(0.9360468,8.5544862e-3,-1.0152661e-2,0.8120459,0.3130189,7.963501)" /><path
     style="fill:none;fill-rule:evenodd;stroke:#ffffff;stroke-width:5.69310188;stroke-linecap:round;stroke-linejoin:round;stroke-miterlimit:4;stroke-dasharray:none;stroke-opacity:1"
     d="M 29.706111,51.874873 L 57.292906,34.059293 L 41.021497,19.532639 L 40.974969,69.93697 L 58.322387,57.348022 L 29.99357,35.911704"
     id="path2177"
     sodipodi:nodetypes="cccccc" /><path
     style="fill:#ffffff;fill-rule:evenodd;stroke:none;stroke-width:1px;stroke-linecap:butt;stroke-linejoin:miter;stroke-opacity:1"
     d="M 19.90172,33.169533 C 22.84786,24.331114 28.525799,15.257984 36.265356,13.931203 C 41.496177,13.034491 38.880999,16.680205 34.938574,18.132678 C 30.7371,19.680589 28.376115,19.687379 19.90172,33.169533 z "
     id="path2161"
     sodipodi:nodetypes="cssc" /><g
     id="g2769"
     transform="matrix(0.6052258,0,0,0.6052258,39.341897,39.013821)"><path
       inkscape:connector-curvature="0"
       sodipodi:nodetypes="csscssscssscssscs"
       id="path584"
       d="M 25.358744,8.5675234 C 22.720108,5.8687424 16.265703,10.045995 13.560278,12.677816 10.854851,15.309638 6.4977402,21.649745 9.1261872,24.358449 L 29.336768,45.186135 7.8308842,66.208838 c -2.6990265,2.63838 1.9152229,8.66817 4.5470438,11.373599 2.631822,2.705425 8.549095,7.501669 11.243881,4.858956 L 45.172021,61.307625 64.783887,81.572751 c 2.624802,2.712232 10.22602,-0.313808 12.931448,-2.945629 2.705423,-2.631819 5.91175,-10.119429 3.301107,-12.845296 L 61.577221,45.484641 82.437525,25.225844 C 85.145155,22.596291 81.104638,15.991181 78.472816,13.285754 75.840994,10.580327 69.362967,6.3727596 66.6466,8.9932867 L 45.613651,29.284144 Z"
       style="font-size:12px;fill:#2c0000;fill-opacity:1;fill-rule:evenodd;stroke:none" /><path
       inkscape:connector-curvature="0"
       sodipodi:nodetypes="csscssscssscssscs"
       id="path589"
       d="m 24.045281,12.678782 c -1.749562,-1.792721 -6.140265,0.872856 -7.935795,2.619536 -1.795529,1.746678 -4.582633,6.063623 -2.837381,7.860538 l 21.05076,21.673923 -23.242339,22.677638 c -1.7929181,1.749357 1.01844,5.998642 2.76512,7.794172 1.746679,1.795527 5.92377,4.730135 7.714958,2.979003 L 44.832361,55.532241 66.522217,77.898238 c 1.743885,1.798247 6.565137,-0.436106 8.360664,-2.182784 1.79553,-1.746679 4.150772,-6.49361 2.41251,-8.29729 L 55.720114,45.030887 77.901397,23.475631 c 1.796446,-1.745743 -0.872856,-6.140269 -2.619535,-7.935798 -1.746681,-1.795529 -6.060469,-4.579377 -7.860538,-2.837381 L 45.125464,34.27899 Z"
       style="font-size:12px;fill:#ff1500;fill-opacity:1;fill-rule:evenodd;stroke:none" /><path
       inkscape:connector-curvature="0"
       sodipodi:nodetypes="cssscsssss"
       id="path592"
       d="M 41.477442,49.574167 18.55032,72.195386 c -0.909797,0.897659 -1.376868,1.788679 -0.48567,2.704805 0.8912,0.916124 3.365673,2.088639 4.275019,1.190523 L 45.281798,53.431881 67.391107,76.48628 c 0.884645,0.922459 3.531718,-0.03539 4.447844,-0.926598 0.91612,-0.891197 0.33068,-1.938913 -0.552519,-2.862747 L 49.235583,49.631678 c -2.514871,-2.630564 -5.167548,-2.613539 -7.758141,-0.05751 z"
       style="font-size:12px;fill:#cb0000;fill-opacity:1;fill-rule:evenodd;stroke:none" /><path
       inkscape:connector-curvature="0"
       sodipodi:nodetypes="cssscsssss"
       id="path594"
       d="m 49.128131,42.115422 22.04966,-21.484279 c 0.915407,-0.891936 1.235245,-1.934263 0.344046,-2.850386 -0.891197,-0.916123 -3.360085,-2.082948 -4.275014,-1.190524 L 45.182151,38.112124 24.347447,16.367974 c -0.884242,-0.92284 -3.531718,0.0354 -4.447843,0.926596 -0.916122,0.891198 -0.330195,1.938449 0.552521,2.862751 L 41.228363,41.91233 c 2.513484,2.631888 5.293198,2.742823 7.899768,0.203092 z"
       style="font-size:12px;fill:#ffffff;fill-opacity:1;fill-rule:evenodd;stroke:none" /></g></svg>