<?xml version="1.0" encoding="UTF-8" standalone="no"?>
<!-- Created with Sodipodi ("http://www.sodipodi.com/") -->

<svg
   xmlns:dc="http://purl.org/dc/elements/1.1/"
   xmlns:cc="http://creativecommons.org/ns#"
   xmlns:rdf="http://www.w3.org/1999/02/22-rdf-syntax-ns#"
   xmlns:svg="http://www.w3.org/2000/svg"
   xmlns="http://www.w3.org/2000/svg"
   xmlns:sodipodi="http://sodipodi.sourceforge.net/DTD/sodipodi-0.dtd"
   xmlns:inkscape="http://www.inkscape.org/namespaces/inkscape"
   version="1.0"
   x="0"
   y="0"
   width="90"
   height="90"
   id="svg602"
   xml:space="preserve"
   sodipodi:version="0.32"
   sodipodi:docname="bluetooth-paired.svg"
   inkscape:version="0.48+devel r12490"
   inkscape:output_extension="org.inkscape.output.svg.inkscape"><metadata
     id="metadata21"><rdf:RDF><cc:Work
         rdf:about=""><dc:format>image/svg+xml</dc:format><dc:type
           rdf:resource="http://purl.org/dc/dcmitype/StillImage" /><dc:title></dc:title></cc:Work></rdf:RDF></metadata><sodipodi:namedview
     id="base"
     inkscape:zoom="3.197694"
     inkscape:cx="49.040254"
     inkscape:cy="35.100625"
     inkscape:window-width="795"
     inkscape:window-height="623"
     inkscape:window-x="114"
     inkscape:window-y="72"
     inkscape:current-layer="svg602"
     showgrid="false"
     inkscape:window-maximized="0" /><defs
     id="defs604" /><path
     sodipodi:type="arc"
     style="opacity:1;fill:#000000;fill-opacity:0.29411765;fill-rule:nonzero;stroke:none;stroke-width:0.05;stroke-linecap:round;stroke-linejoin:miter;stroke-miterlimit:4;stroke-dasharray:none;stroke-opacity:1"
     id="path3134"
     sodipodi:cx="46.547913"
     sodipodi:cy="44.557739"
     sodipodi:rx="27.530712"
     sodipodi:ry="40.135136"
     d="M 74.078625 44.557739 A 27.530712 40.135136 0 1 1  19.0172,44.557739 A 27.530712 40.135136 0 1 1  74.078625 44.557739 z"
     transform="matrix(1.0703989,0.2201752,-0.194137,0.9279861,6.4816565,-3.0854244)" /><path
     transform="matrix(1.0703989,0.2201752,-0.194137,0.9279861,2.4816565,-7.0854244)"
     d="M 74.078625 44.557739 A 27.530712 40.135136 0 1 1  19.0172,44.557739 A 27.530712 40.135136 0 1 1  74.078625 44.557739 z"
     sodipodi:ry="40.135136"
     sodipodi:rx="27.530712"
     sodipodi:cy="44.557739"
     sodipodi:cx="46.547913"
     id="path2159"
     style="opacity:1;fill:#000000;fill-opacity:1;fill-rule:nonzero;stroke:none;stroke-width:0.05;stroke-linecap:round;stroke-linejoin:miter;stroke-miterlimit:4;stroke-dasharray:none;stroke-opacity:1"
     sodipodi:type="arc" /><path
     sodipodi:type="arc"
     style="opacity:1;fill:#558ada;fill-opacity:1;fill-rule:nonzero;stroke:none;stroke-width:0.05;stroke-linecap:round;stroke-linejoin:miter;stroke-miterlimit:4;stroke-dasharray:none;stroke-opacity:1"
     id="path2173"
     sodipodi:cx="46.547913"
     sodipodi:cy="44.557739"
     sodipodi:rx="27.530712"
     sodipodi:ry="40.135136"
     d="M 74.078625 44.557739 A 27.530712 40.135136 0 1 1  19.0172,44.557739 A 27.530712 40.135136 0 1 1  74.078625 44.557739 z"
     transform="matrix(0.9360468,8.5544862e-3,-1.0152661e-2,0.8120459,0.3130189,7.963501)" /><path
     style="fill:none;fill-rule:evenodd;stroke:#ffffff;stroke-width:5.69310188;stroke-linecap:round;stroke-linejoin:round;stroke-miterlimit:4;stroke-dasharray:none;stroke-opacity:1"
     d="M 29.706111,51.874873 L 57.292906,34.059293 L 41.021497,19.532639 L 40.974969,69.93697 L 58.322387,57.348022 L 29.99357,35.911704"
     id="path2177"
     sodipodi:nodetypes="cccccc" /><path
     style="fill:#ffffff;fill-rule:evenodd;stroke:none;stroke-width:1px;stroke-linecap:butt;stroke-linejoin:miter;stroke-opacity:1"
     d="M 19.90172,33.169533 C 22.84786,24.331114 28.525799,15.257984 36.265356,13.931203 C 41.496177,13.034491 38.880999,16.680205 34.938574,18.132678 C 30.7371,19.680589 28.376115,19.687379 19.90172,33.169533 z "
     id="path2161"
     sodipodi:nodetypes="cssc" /><g
     id="g2509"
     transform="matrix(0.59351684,0,0,0.59351684,43.780231,36.962719)"><path
       transform="matrix(3,0,0,3,0.21875,-0.5638767)"
       d="M 13.689453,1.0527344 C 11.817165,1.0512403 10.070023,1.5815262 8.7480469,2.6738281 7.4260706,3.76613 6.5968187,5.4490571 6.5839844,7.3652344 a 1.416195,1.416195 0 0 0 0,0.00977 l 0,3.484375 c -0.4001011,0.22387 -0.8509559,0.383133 -1.171875,0.705078 -0.4816404,0.48318 -0.8024692,1.150515 -0.9179688,1.878906 a 1.416195,1.416195 0 0 0 -0.1289062,0.591797 l 0.03125,9.75 a 1.416195,1.416195 0 0 0 0.00977,0.154297 c 0.1930842,1.711965 0.8793535,3.159531 2.0390625,4.091797 1.159709,0.932266 2.6255091,1.318562 4.2656255,1.472656 a 1.416195,1.416195 0 0 0 0.132812,0.0059 l 9.066406,0 c 1.686105,0.03291 3.15495,-0.566916 4.107422,-1.597657 0.95202,-1.030251 1.369294,-2.393785 1.367188,-3.755859 l 0,-0.002 0,-7.859375 c 0.01377,-0.08438 0.03125,-0.145219 0.03125,-0.326172 l 0,-2.09375 c 0,-1.330554 -0.898444,-2.238186 -1.96875,-2.90625 l 0,-3.46875 c 1e-6,-3.7566167 -3.402457,-6.4122306 -6.996094,-6.4472656 a 1.416195,1.416195 0 0 0 -0.01367,0 l -2.748047,0 z m -0.0332,6.1757812 2.71875,0 c 0.84878,1e-7 0.896484,0.7145399 0.896484,0.2714844 l 0,2.3027344 -4.511718,0 0,-2.4277344 c 0,0.4429961 -0.03187,-0.1464843 0.896484,-0.1464844 z"
       id="path3240"
       style="font-size:12px;fill:#593a28;fill-rule:evenodd"
       inkscape:original="M 13.6875 2.46875 C 10.481183 2.4661913 8.0206471 4.2923732 8 7.375 L 8 11.625 C 6.690965 12.088687 5.8125 12.91445 5.8125 13.875 L 5.8125 14.03125 L 5.78125 14.03125 L 5.8125 23.78125 C 6.1416031 26.699215 7.8611266 27.813523 10.84375 28.09375 L 19.9375 28.09375 C 22.663239 28.146948 23.972703 26.304865 23.96875 24.15625 L 23.96875 16.25 C 23.982136 16.159331 24 16.065706 24 15.96875 L 24 13.875 C 24 12.965512 23.22541 12.163533 22.03125 11.6875 L 22.03125 7.5 C 22.031251 4.6228379 19.350915 2.4971534 16.4375 2.46875 L 13.6875 2.46875 z M 13.65625 5.8125 L 16.375 5.8125 C 17.858289 5.8125001 18.6875 6.8094536 18.6875 7.5 L 18.6875 11.21875 L 11.34375 11.21875 L 11.34375 7.375 C 11.34375 6.6844342 12.172955 5.8125001 13.65625 5.8125 z "
       inkscape:radius="1.4160534"
       sodipodi:type="inkscape:offset" /><path
       inkscape:connector-curvature="0"
       style="font-size:12px;fill:#ff933d;fill-opacity:1;fill-rule:evenodd"
       d="m 17.584193,41.529873 0.07206,29.25 c 0.987309,8.753895 6.145881,12.096819 15.09375,12.9375 l 27.28125,0 c 8.177217,0.159594 12.148995,-5.366655 12.137136,-11.8125 l -0.02169,-24.659349 z"
       id="path3177"
       sodipodi:nodetypes="ccccccc" /><path
       inkscape:connector-curvature="0"
       id="path3179"
       style="font-size:12px;fill:#ffd056;fill-opacity:1;fill-rule:evenodd"
       d="m 31.309955,33.135144 c -7.559646,0 -13.64556,3.541173 -13.64556,7.939857 l -0.05125,5.014614 c 0,4.398663 4.201617,7.939833 11.761242,7.939833 l 30.663036,0 c 7.559625,0 12.209145,-2.245146 12.209145,-6.643812 l 0,-6.310635 c 0,-4.398684 -6.085914,-7.939857 -13.645539,-7.939857 z"
       sodipodi:nodetypes="ccccccccc" /><path
       inkscape:connector-curvature="0"
       sodipodi:nodetypes="ccsccccccsccccc"
       id="path3187"
       d="m 24.21875,21.561123 0,19.40625 c 0,2.770053 2.245572,5.015625 5.015625,5.015625 2.770053,0 5.015625,-2.245572 5.015625,-5.015625 l 0,-19.40625 c 0,-2.071698 2.487615,-4.6875 6.9375,-4.6875 l 8.15625,0.02789 c 4.449867,0 6.9375,2.962968 6.9375,5.034606 l 0,19.40625 c 0,2.770053 2.245572,5.015625 5.015625,5.015625 2.770053,0 5.015625,-2.245572 5.015625,-5.015625 l 0,-19.40625 c 3e-6,-8.631486 -8.041005,-14.980647 -16.78125,-15.065856 l -8.25,-0.027894 c -9.618951,-0.00768 -17.000559,5.470869 -17.0625,14.71875 z"
       style="font-size:12px;fill:#955801;fill-opacity:1;fill-rule:evenodd;stroke:none" /><path
       inkscape:connector-curvature="0"
       id="path3181"
       d="m 46.625,57.373623 c -4.186824,0 -7.59375,3.273657 -7.59375,7.3125 0,2.625261 1.502658,4.897587 3.65625,6.1875 -0.03559,0.198861 -0.09375,0.349971 -0.09375,0.5625 l 0,5.71875 c 0,1.562673 0.99006,2.8125 2.25,2.8125 l 4.5,0 c 1.25994,-3e-6 2.34375,-1.249827 2.34375,-2.8125 l 0,-5.71875 c 0,-0.437559 -0.139077,-0.756144 -0.28125,-1.125 1.684824,-1.341303 2.8125,-3.353142 2.8125,-5.625 0,-4.038843 -3.406944,-7.3125 -7.59375,-7.3125 z"
       style="font-size:12px;fill:#593a28;fill-rule:evenodd" /><path
       inkscape:connector-curvature="0"
       style="font-size:12px;fill:#b01911;fill-rule:evenodd"
       d="m 45.21875,57.842373 c -3.393558,0 -6.1875,3.109656 -6.1875,6.9375 0,2.511288 1.227288,4.690425 3,5.90625 -0.02938,0.190116 -0.09375,0.35916 -0.09375,0.5625 l 0,5.34375 c 0,1.481055 0.760062,2.625 1.78125,2.625 l 3.75,0 c 1.021209,0 1.78125,-1.143948 1.78125,-2.625 l 0,-5.34375 c 0,-0.41916 -0.06992,-0.772578 -0.1875,-1.125 1.365591,-1.271235 2.250003,-3.190566 2.25,-5.34375 0,-3.827844 -2.700234,-6.9375 -6.09375,-6.9375 z"
       id="path3185" /><path
       inkscape:connector-curvature="0"
       sodipodi:nodetypes="cccscccccccssccccc"
       id="path3189"
       d="m 39.78125,9.9361233 c -7.260519,0 -13.5,4.8185937 -13.5,11.1562497 l 0,19.5 c 0,0.802539 0.650586,1.453125 1.453125,1.453125 0.802539,0 1.453125,-0.650586 1.453125,-1.453125 l 0,-19.5 c 0,-4.402764 4.548105,-8.207319 10.5,-8.25 l 0.09375,0 8.0625,0.07206 c 6.001983,0 10.593753,4.219179 10.59375,8.646693 l 0,19.40625 c -0.136437,0.58056 0.09792,1.185285 0.589947,1.52229 0.492027,0.337005 1.140579,0.337005 1.632606,0 0.49203,-0.337005 0.726384,-0.94173 0.589947,-1.52229 l 0,-19.40625 c 3e-6,-6.309588 -6.094008,-11.510499 -13.3125,-11.552943 l -0.09375,0 z"
       style="font-size:12px;fill:#e9a93d;fill-opacity:1;fill-rule:evenodd;stroke:none" /></g></svg>