<?xml version="1.0" encoding="UTF-8" standalone="no"?>
<!-- Created with Sodipodi ("http://www.sodipodi.com/") -->
<svg
   xmlns:dc="http://purl.org/dc/elements/1.1/"
   xmlns:cc="http://web.resource.org/cc/"
   xmlns:rdf="http://www.w3.org/1999/02/22-rdf-syntax-ns#"
   xmlns:svg="http://www.w3.org/2000/svg"
   xmlns="http://www.w3.org/2000/svg"
   xmlns:xlink="http://www.w3.org/1999/xlink"
   xmlns:sodipodi="http://sodipodi.sourceforge.net/DTD/sodipodi-0.dtd"
   xmlns:inkscape="http://www.inkscape.org/namespaces/inkscape"
   id="svg548"
   sodipodi:version="0.32"
   width="72pt"
   height="72pt"
   sodipodi:docbase="/home/tweenk/dev/GartoonRedux/scalable/status"
   sodipodi:docname="printer-error.svg"
   inkscape:version="0.45.1"
   inkscape:output_extension="org.inkscape.output.svg.inkscape">
  <metadata
     id="metadata42">
    <rdf:RDF>
      <cc:Work
         rdf:about="">
        <dc:format>image/svg+xml</dc:format>
        <dc:type
           rdf:resource="http://purl.org/dc/dcmitype/StillImage" />
      </cc:Work>
    </rdf:RDF>
  </metadata>
  <defs
     id="defs550">
    <linearGradient
       id="linearGradient585">
      <stop
         style="stop-color:#5cb2ff;stop-opacity:1;"
         offset="0.000000"
         id="stop586" />
      <stop
         style="stop-color:#ffffff;stop-opacity:1;"
         offset="1.000000"
         id="stop587" />
    </linearGradient>
    <linearGradient
       id="linearGradient576">
      <stop
         style="stop-color:#ffffff;stop-opacity:1;"
         offset="0.000000"
         id="stop577" />
      <stop
         style="stop-color:#370000;stop-opacity:0;"
         offset="1.000000"
         id="stop578" />
    </linearGradient>
    <linearGradient
       id="linearGradient569">
      <stop
         style="stop-color:#ff3a00;stop-opacity:1;"
         offset="0.000000"
         id="stop570" />
      <stop
         style="stop-color:#370000;stop-opacity:1;"
         offset="1.000000"
         id="stop571" />
    </linearGradient>
    <linearGradient
       id="linearGradient562">
      <stop
         style="stop-color:#000;stop-opacity:1;"
         offset="0"
         id="stop563" />
      <stop
         style="stop-color:#fff;stop-opacity:1;"
         offset="1"
         id="stop564" />
    </linearGradient>
    <linearGradient
       xlink:href="#linearGradient562"
       id="linearGradient565"
       x1="30.5917225"
       y1="65.8304825"
       x2="18.4360981"
       y2="42.3886795"
       gradientUnits="userSpaceOnUse"
       spreadMethod="pad"
       gradientTransform="scale(1.323326,0.755672)" />
    <linearGradient
       xlink:href="#linearGradient562"
       id="linearGradient567"
       x1="24.9874783"
       y1="44.9967537"
       x2="33.7596359"
       y2="60.7528610"
       gradientUnits="userSpaceOnUse"
       spreadMethod="pad"
       gradientTransform="scale(1.587744,0.629824)" />
    <linearGradient
       xlink:href="#linearGradient576"
       id="linearGradient568"
       x1="0.82734060"
       y1="0.11727467"
       x2="0.57553899"
       y2="0.88281417"
       gradientUnits="objectBoundingBox"
       spreadMethod="pad" />
    <radialGradient
       xlink:href="#linearGradient569"
       id="radialGradient573"
       cx="39.9771919"
       cy="62.0348434"
       fx="39.9771919"
       fy="62.0348434"
       r="2.87974644"
       gradientUnits="userSpaceOnUse"
       spreadMethod="pad"
       gradientTransform="scale(1.181249,0.846561)" />
    <radialGradient
       xlink:href="#linearGradient576"
       id="radialGradient575" />
    <linearGradient
       xlink:href="#linearGradient562"
       id="linearGradient580"
       x1="0.48992321"
       y1="-0.04502178"
       x2="0.53917038"
       y2="1.25967419"
       gradientUnits="objectBoundingBox"
       spreadMethod="pad" />
    <linearGradient
       xlink:href="#linearGradient585"
       id="linearGradient584"
       x1="38.9676552"
       y1="112.427650"
       x2="34.3394775"
       y2="55.2668114"
       gradientUnits="userSpaceOnUse"
       spreadMethod="pad"
       gradientTransform="scale(1.107407,0.903010)" />
    <linearGradient
       xlink:href="#linearGradient585"
       id="linearGradient588"
       x1="18.5747337"
       y1="70.6098175"
       x2="21.0069866"
       y2="44.9572525"
       gradientUnits="userSpaceOnUse"
       spreadMethod="pad"
       gradientTransform="scale(0.777781,1.285709)" />
  </defs>
  <sodipodi:namedview
     id="base"
     inkscape:zoom="4.5222222"
     inkscape:cx="45"
     inkscape:cy="36.154791"
     inkscape:window-width="795"
     inkscape:window-height="619"
     inkscape:window-x="114"
     inkscape:window-y="74"
     inkscape:current-layer="svg548">
    <sodipodi:guide
       orientation="vertical"
       position="0.00000000"
       id="guide552" />
    <sodipodi:guide
       orientation="horizontal"
       position="72.0658264"
       id="guide553" />
    <sodipodi:guide
       orientation="vertical"
       position="72.0658264"
       id="guide554" />
    <sodipodi:guide
       orientation="horizontal"
       position="0.23474211"
       id="guide555" />
  </sodipodi:namedview>
  <path
     style="fill:#000000;fill-rule:evenodd;stroke:none;stroke-opacity:1;stroke-width:1pt;stroke-linejoin:miter;stroke-linecap:butt;fill-opacity:0.3;"
     d="M 5.2817 42.4647 C 3.66785 50.7295 1.90728 57.2338 0.880279 65.2053 C 4.10798 73.1279 13.0575 79.2899 22.3005 80.4636 C 27.2887 79.73 31.5435 79.5834 36.5318 77.0892 C 44.112 80.1702 51.5455 83.838 59.1257 86.919 C 69.2979 81.0016 83.1378 72.5899 93.31 66.6725 C 87.5392 64.0316 77.8072 61.9777 72.0364 59.3368 C 76.0956 45.1544 73.5525 34.64 59.4191 26.473 C 57.5119 25.0058 52.5236 23.9787 48.1222 25.5927 C 48.1222 25.5927 46.0682 18.8438 43.2806 14.4424 C 39.3193 13.8555 8.80283 22.2182 7.77583 24.2722 C 8.46049 28.8692 10.0254 34.0531 11.0035 38.21 C 8.21596 40.1661 7.62911 40.9486 5.2817 42.4647 z "
     id="path592"
     sodipodi:nodetypes="ccccccccccccc"
     transform="matrix(0.930685,0.000000,0.000000,0.930685,2.343350,-0.949020)" />
  <path
     style="fill:#000000;fill-rule:evenodd;stroke:none;stroke-opacity:1;stroke-width:1pt;stroke-linejoin:miter;stroke-linecap:butt;fill-opacity:1;"
     d="M 5.2817 42.4647 C 3.66785 50.7295 1.90728 57.2338 0.880279 65.2053 C 4.10798 73.1279 13.0575 79.2899 22.3005 80.4636 C 27.2887 79.73 31.5435 79.5834 36.5318 77.0892 C 44.112 80.1702 51.5455 83.838 59.1257 86.919 C 69.2979 81.0016 83.1378 72.5899 93.31 66.6725 C 87.5392 64.0316 77.8072 61.9777 72.0364 59.3368 C 76.0956 45.1544 73.5525 34.64 59.4191 26.473 C 57.5119 25.0058 52.5236 23.9787 48.1222 25.5927 C 48.1222 25.5927 46.0682 18.8438 43.2806 14.4424 C 39.3193 13.8555 8.80283 22.2182 7.77583 24.2722 C 8.46049 28.8692 10.0254 34.0531 11.0035 38.21 C 8.21596 40.1661 7.62911 40.9486 5.2817 42.4647 z "
     id="path561"
     sodipodi:nodetypes="ccccccccccccc"
     transform="matrix(0.930685,0.000000,0.000000,0.930685,0.268503,-5.513678)" />
  <path
     style="fill:#c7eeff;fill-rule:evenodd;stroke:none;stroke-opacity:1;stroke-width:1pt;stroke-linejoin:miter;stroke-linecap:butt;fill-opacity:1;"
     d="M 38.1456 72.8345 L 58.5388 80.757 L 83.7736 67.6995 C 83.7736 67.6995 63.8205 61.0974 63.6738 61.2441 C 63.5271 61.3908 38.2923 72.9812 38.1456 72.8345 z "
     id="path556"
     transform="matrix(0.930685,0.000000,0.000000,0.930685,0.268503,-5.513678)" />
  <path
     style="fill:url(#linearGradient588);fill-rule:evenodd;stroke:none;stroke-opacity:1;stroke-width:1pt;stroke-linejoin:miter;stroke-linecap:butt;fill-opacity:1;"
     d="M 9.68311 44.5187 C 7.23788 51.2186 5.81965 57.9186 4.98827 64.6185 C 9.34079 71.8564 17.0678 74.2527 22.594 75.9155 C 24.4035 71.6608 24.8925 58.75 21.2735 52.8814 C 17.7035 48.1866 13.6933 45.1056 9.68311 44.5187 z "
     id="path557"
     sodipodi:nodetypes="ccccc"
     transform="matrix(0.930685,0.000000,0.000000,0.930685,0.268503,-5.513678)" />
  <path
     style="fill:url(#linearGradient584);fill-rule:evenodd;stroke:black;stroke-opacity:1;stroke-width:1pt;stroke-linejoin:miter;stroke-linecap:butt;fill-opacity:1;"
     d="M 11.0036 42.7582 C 30.1742 52.1478 23.6698 71.514 24.5012 76.0621 C 41.4711 71.9052 53.7461 64.3739 68.2219 57.4295 C 70.227 49.507 71.7919 36.8896 56.6315 28.3802 C 41.2755 30.2386 24.3056 35.1779 11.0036 42.7582 z "
     id="path559"
     sodipodi:nodetypes="ccccc"
     transform="matrix(0.930685,0.000000,0.000000,0.930685,0.268503,-5.513678)" />
  <path
     style="fill:url(#linearGradient565);fill-rule:evenodd;stroke:none;stroke-opacity:1;stroke-width:1pt;stroke-linejoin:miter;stroke-linecap:butt;fill-opacity:1;"
     d="M 21.2735 38.21 C 27.9734 39.9706 28.8048 49.2136 31.6902 49.6537 C 40.493 51.8055 55.898 44.861 56.3381 41.5844 C 57.0717 38.1611 52.2301 30.7765 48.4156 29.994 C 39.0748 32.1458 30.1742 34.4443 21.2735 38.21 z "
     id="path558"
     sodipodi:nodetypes="ccccc"
     transform="matrix(0.930685,0.000000,0.000000,0.930685,0.268503,-5.513678)" />
  <path
     style="fill:#ffffff;fill-rule:evenodd;stroke:none;stroke-opacity:1;stroke-width:1pt;stroke-linejoin:miter;stroke-linecap:butt;fill-opacity:1;"
     d="M 15.8451 39.8239 L 12.6174 26.3262 L 41.0799 18.8438 L 44.1609 29.5539 L 40.0529 30.8743 L 37.5587 24.7123 L 19.6597 29.5539 L 21.5669 37.6232 "
     id="path560"
     sodipodi:nodetypes="cccccccc"
     transform="matrix(0.930685,0.000000,0.000000,0.930685,0.268503,-5.513678)" />
  <path
     style="fill:url(#linearGradient567);fill-rule:evenodd;stroke:none;stroke-opacity:1;stroke-width:1pt;stroke-linejoin:miter;stroke-linecap:butt;fill-opacity:1;"
     d="M 21.2735 38.21 C 23.4087 38.6738 23.6625 39.4178 26.779 42.318 C 39.6898 44.7633 44.8367 35.212 53.3461 33.8426 C 50.8118 30.9381 50.9097 31.0699 48.4156 29.994 C 39.0748 32.1458 30.1742 34.4443 21.2735 38.21 z "
     id="path566"
     sodipodi:nodetypes="ccccc"
     transform="matrix(0.930685,0.000000,0.000000,0.930685,0.268503,-5.513678)" />
  <path
     transform="matrix(0.968550,-0.304545,0.285609,1.032766,-13.70667,1.569653)"
     style="font-size:12;fill:url(#linearGradient580);fill-rule:evenodd;stroke-width:1pt;"
     d="M 50.763 53.5416 C 50.763 55.2828 48.7912 56.696 46.3616 56.696 C 43.932 56.696 41.9602 55.2828 41.9602 53.5416 C 41.9602 51.8004 43.932 50.3873 46.3616 50.3873 C 48.7912 50.3873 50.763 51.8004 50.763 53.5416 z "
     id="path581" />
  <path
     transform="matrix(0.892683,-0.263237,0.263237,0.892683,-9.332854,6.676979)"
     style="font-size:12;fill:url(#radialGradient573);fill-rule:evenodd;stroke-width:1pt;"
     d="M 50.763 53.5416 C 50.763 55.2828 48.7912 56.696 46.3616 56.696 C 43.932 56.696 41.9602 55.2828 41.9602 53.5416 C 41.9602 51.8004 43.932 50.3873 46.3616 50.3873 C 48.7912 50.3873 50.763 51.8004 50.763 53.5416 z "
     id="path583" />
  <path
     transform="matrix(0.930685,0.000000,0.000000,0.930685,-0.414221,-6.059856)"
     style="font-size:12;fill:url(#linearGradient568);fill-rule:evenodd;stroke-width:1pt;"
     d="M 52.5236 51.0475 C 52.5236 52.0598 51.6362 52.8814 50.5429 52.8814 C 49.4496 52.8814 48.5623 52.0598 48.5623 51.0475 C 48.5623 50.0351 49.4496 49.2135 50.5429 49.2135 C 51.6362 49.2135 52.5236 50.0351 52.5236 51.0475 z "
     id="path582" />
  <path
     style="fill:none;fill-rule:evenodd;stroke:black;stroke-opacity:1;stroke-width:1pt;stroke-linejoin:miter;stroke-linecap:butt;fill-opacity:1;"
     d="M 75.5245 67.7991 C 75.3462 67.7189 74.2254 66.8158 73.6571 67.3842 C 72.7977 68.0507 72.8272 68.2448 72.8272 69.459 C 72.5183 70.3857 71.9537 70.0912 71.1673 69.6665 C 70.5158 69.5688 70.2998 69.1942 70.1299 69.874 C 69.8532 70.1506 69.9915 70.8422 69.7149 71.1189 C 68.6386 71.1189 67.2746 70.8242 66.6026 71.1189 C 66.6026 72.2426 66.4557 72.232 65.3577 72.3638 C 64.132 72.3638 63.6824 72.2137 63.0754 72.9862 C 62.6134 73.66 62.4057 74.2395 61.8305 74.4386 C 60.8108 74.4071 59.6278 74.0876 58.9257 74.4386 C 58.6895 75.4425 58.6634 75.7828 57.4733 75.891 C 56.6379 75.891 56.6434 75.8855 56.6434 76.721 C 56.3345 76.8533 56.3297 77.0036 56.0209 77.1359 "
     id="path589"
     transform="matrix(0.930685,0.000000,0.000000,0.930685,0.268503,-5.513678)" />
  <path
     style="fill:none;fill-rule:evenodd;stroke:black;stroke-opacity:1;stroke-width:1pt;stroke-linejoin:miter;stroke-linecap:butt;fill-opacity:1;"
     d="M 69.7149 65.5168 C 69.4961 65.339 68.5475 64.8943 67.64 64.8943 C 67.0956 65.3969 67.1763 65.8585 66.8101 66.3467 C 65.7886 66.3467 64.8975 66.0745 64.3203 66.3467 C 63.6441 67.0229 63.4234 67.3815 63.2829 68.4216 C 62.9122 68.7249 62.9977 68.8365 62.2454 68.8365 C 61.1901 68.7584 60.6929 68.307 60.3781 69.2515 C 59.6124 69.857 59.3797 69.874 58.0957 69.874 C 57.473 69.874 56.7472 69.7701 56.4359 70.0815 C 56.1901 71.1261 56.0757 71.3442 54.9835 71.7413 C 54.1395 72.3177 53.7699 72.1295 53.7386 73.1937 C 53.1836 73.3968 52.3008 73.4012 51.4562 73.4012 "
     id="path590"
     transform="matrix(0.930685,0.000000,0.000000,0.930685,-1.855630,-6.092997)" />
  <g
     id="g2308"
     transform="matrix(0.5378619,0,0,0.5378619,1.7195455,33.451979)">
    <path
       transform="matrix(0.921411,0,0,0.921411,-2.476543,12.118052)"
       d="M 96.565838 51.645908 A 44.91993 44.91993 0 1 1  6.7259789,51.645908 A 44.91993 44.91993 0 1 1  96.565838 51.645908 z"
       sodipodi:ry="44.91993"
       sodipodi:rx="44.91993"
       sodipodi:cy="51.645908"
       sodipodi:cx="51.645908"
       id="path585"
       style="font-size:12px;fill:#000000;fill-opacity:1;fill-rule:evenodd;stroke:none;stroke-width:1pt;stroke-opacity:1"
       sodipodi:type="arc" />
    <path
       transform="matrix(0.806112,0,0,0.806112,3.732944,18.478322)"
       d="M 96.565838 51.645908 A 44.91993 44.91993 0 1 1  6.7259789,51.645908 A 44.91993 44.91993 0 1 1  96.565838 51.645908 z"
       sodipodi:ry="44.91993"
       sodipodi:rx="44.91993"
       sodipodi:cy="51.645908"
       sodipodi:cx="51.645908"
       id="path586"
       style="font-size:12px;fill:#ed0000;fill-opacity:1;fill-rule:evenodd;stroke:none;stroke-width:1pt;stroke-opacity:1"
       sodipodi:type="arc" />
    <path
       sodipodi:nodetypes="ccccc"
       id="path2302"
       d="M 18.238517,52.911403 L 18.176276,66.400666 L 72.133331,66.649633 L 72.195572,53.16037 L 18.238517,52.911403 z "
       style="font-size:12px;fill:#ffffff;fill-opacity:1;fill-rule:evenodd;stroke:none;stroke-width:0.91317396pt" />
    <path
       sodipodi:nodetypes="cssssssscssssssc"
       id="path2304"
       d="M 81.575939,60.110767 C 81.575939,62.609296 81.322466,65.04898 80.839847,67.405495 C 80.357228,69.76201 79.645463,72.035353 78.728885,74.201197 C 77.812307,76.367038 76.69091,78.425383 75.389027,80.351896 C 74.087147,82.278412 72.604775,84.073096 70.96625,85.711624 C 69.327722,87.350152 67.533035,88.832521 65.606522,90.134404 C 63.680009,91.436284 61.621664,92.557681 59.455823,93.474259 C 57.289979,94.39084 55.016633,95.102602 52.660121,95.585221 C 50.303606,96.06784 47.863919,96.321313 45.365393,96.321313 C 42.866864,96.321313 40.42718,96.06784 38.070665,95.585221 C 35.71415,95.102602 33.440807,94.39084 31.274963,93.474259 C 29.109119,92.557681 22.830314,89.754721 25.124261,90.134404 C 94.144583,101.52389 74.087147,37.943122 75.389027,39.869638 C 76.69091,41.796151 77.812307,43.854493 78.728885,46.020337 C 79.645463,48.186181 80.357228,50.459524 80.839847,52.816039 C 81.322466,55.172554 81.575939,57.612238 81.575939,60.110767 z "
       style="font-size:12px;fill:#b01911;fill-opacity:1;fill-rule:evenodd;stroke-width:1pt" />
    <path
       sodipodi:nodetypes="cssssssscssssc"
       id="path2306"
       d="M 8.528258,61.340446 C 8.374289,58.846666 8.476934,56.395999 8.813417,54.014221 C 9.149897,51.632443 9.720215,49.319557 10.501583,47.101345 C 11.282948,44.883136 12.275369,42.759598 13.456055,40.756519 C 14.636741,38.753437 16.005695,36.870811 17.540135,35.134426 C 19.074572,33.398038 20.774498,31.807888 22.617122,30.389758 C 24.459746,28.971628 26.445071,27.725521 28.550315,26.677213 C 30.655556,25.628908 32.880716,24.778403 35.20301,24.151481 C 37.525307,23.524559 39.944735,23.121221 42.438512,22.967249 C 44.932292,22.81328 47.382959,22.915925 49.764737,23.252408 C 52.146515,23.588888 54.459401,24.159206 56.67761,24.94057 C 58.895822,25.721938 65.466695,29.156212 63.230495,28.51921 C 7.371125,12.666422 10.339412,70.898242 9.71249,68.575948 C 9.085568,66.253651 8.68223,63.834223 8.528258,61.340446 z "
       style="font-size:12px;fill:#ffffff;fill-opacity:1;fill-rule:evenodd;stroke-width:1pt" />
  </g>
</svg>
