<?xml version="1.0" encoding="UTF-8" standalone="no"?>
<!-- Created with Sodipodi ("http://www.sodipodi.com/") -->
<svg
   xmlns:dc="http://purl.org/dc/elements/1.1/"
   xmlns:cc="http://web.resource.org/cc/"
   xmlns:rdf="http://www.w3.org/1999/02/22-rdf-syntax-ns#"
   xmlns:svg="http://www.w3.org/2000/svg"
   xmlns="http://www.w3.org/2000/svg"
   xmlns:xlink="http://www.w3.org/1999/xlink"
   xmlns:sodipodi="http://sodipodi.sourceforge.net/DTD/sodipodi-0.dtd"
   xmlns:inkscape="http://www.inkscape.org/namespaces/inkscape"
   version="1.0"
   x="0"
   y="0"
   width="90"
   height="90"
   id="svg704"
   sodipodi:version="0.32"
   sodipodi:docname="dialog-password.svg"
   sodipodi:docbase="/home/david/Desktop/config/icons/__ADD__/status"
   inkscape:version="0.45.1"
   inkscape:output_extension="org.inkscape.output.svg.inkscape">
  <metadata
     id="metadata32">
    <rdf:RDF>
      <cc:Work
         rdf:about="">
        <dc:format>image/svg+xml</dc:format>
        <dc:type
           rdf:resource="http://purl.org/dc/dcmitype/StillImage" />
      </cc:Work>
    </rdf:RDF>
  </metadata>
  <sodipodi:namedview
     id="base"
     inkscape:zoom="3.3593456"
     inkscape:cx="88.892966"
     inkscape:cy="42.065895"
     inkscape:window-width="1024"
     inkscape:window-height="695"
     inkscape:window-x="0"
     inkscape:window-y="24"
     inkscape:current-layer="svg704"
     width="90px"
     height="90px" />
  <defs
     id="defs706">
    <radialGradient
       r="26.049402"
       fy="296.21893"
       fx="23.581566"
       cy="296.21893"
       cx="23.581566"
       gradientTransform="scale(2.60494,0.383886)"
       gradientUnits="userSpaceOnUse"
       id="radialGradient2427"
       xlink:href="#linearGradient2485"
       inkscape:collect="always" />
    <linearGradient
       y2="32.270412"
       x2="29.25993"
       y1="32.270412"
       x1="13.518266"
       gradientTransform="matrix(3.6826286,0,0,2.7352827,-34.551232,9.7819731)"
       gradientUnits="userSpaceOnUse"
       id="linearGradient2413"
       xlink:href="#linearGradient3290"
       inkscape:collect="always" />
    <linearGradient
       id="linearGradient3290">
      <stop
         style="stop-color:#ffd800;stop-opacity:1;"
         offset="0"
         id="stop3291" />
      <stop
         style="stop-color:#e69200;stop-opacity:1;"
         offset="1"
         id="stop3292" />
    </linearGradient>
    <linearGradient
       id="linearGradient2485">
      <stop
         style="stop-color:#000000;stop-opacity:0.50196081;"
         offset="0"
         id="stop2487" />
      <stop
         style="stop-color:#000000;stop-opacity:0;"
         offset="1"
         id="stop2489" />
    </linearGradient>
    <inkscape:perspective
       id="perspective34"
       inkscape:persp3d-origin="45 : 45 : 1"
       inkscape:vp_z="90 : 45 : 1"
       inkscape:vp_y="0 : 1000 : 0"
       inkscape:vp_x="0 : 45 : 1"
       sodipodi:type="inkscape:persp3d" />
    <inkscape:perspective
       id="perspective37"
       inkscape:persp3d-origin="45 : 45 : 1"
       inkscape:vp_z="90 : 45 : 1"
       inkscape:vp_y="0 : 1000 : 0"
       inkscape:vp_x="0 : 45 : 1"
       sodipodi:type="inkscape:persp3d" />
    <linearGradient
       inkscape:collect="always"
       xlink:href="#linearGradient3290"
       id="linearGradient2537"
       gradientUnits="userSpaceOnUse"
       gradientTransform="matrix(3.6826286,0,0,2.7352827,-34.551232,9.7819731)"
       x1="13.518266"
       y1="32.270412"
       x2="29.25993"
       y2="32.270412" />
    <linearGradient
       inkscape:collect="always"
       xlink:href="#linearGradient3290"
       id="linearGradient2749"
       gradientUnits="userSpaceOnUse"
       gradientTransform="matrix(3.6826286,0,0,2.7352827,-34.551232,9.7819731)"
       x1="13.518266"
       y1="32.270412"
       x2="29.25993"
       y2="32.270412" />
    <linearGradient
       inkscape:collect="always"
       xlink:href="#linearGradient3290"
       id="linearGradient2757"
       gradientUnits="userSpaceOnUse"
       gradientTransform="matrix(3.6781376,0.2571995,-0.1910356,2.731947,-13.78815,93.046487)"
       x1="13.518266"
       y1="32.270412"
       x2="29.25993"
       y2="32.270412" />
    <radialGradient
       inkscape:collect="always"
       xlink:href="#linearGradient2485"
       id="radialGradient4011"
       gradientTransform="scale(2.604940,0.383886)"
       cx="23.581566"
       cy="296.21893"
       fx="23.581566"
       fy="296.21893"
       r="26.049402"
       gradientUnits="userSpaceOnUse" />
    <linearGradient
       inkscape:collect="always"
       xlink:href="#linearGradient3290"
       id="linearGradient4009"
       gradientUnits="userSpaceOnUse"
       gradientTransform="matrix(5.237492,0.000000,0.000000,3.890182,-50.70374,-43.86445)"
       x1="13.518266"
       y1="32.270412"
       x2="29.259930"
       y2="32.270412" />
    <linearGradient
       id="linearGradient4003">
      <stop
         style="stop-color:#ffea00;stop-opacity:1.0000000;"
         offset="0.0000000"
         id="stop4005" />
      <stop
         style="stop-color:#ea9a00;stop-opacity:1.0000000;"
         offset="1.0000000"
         id="stop4007" />
    </linearGradient>
    <linearGradient
       id="linearGradient3997">
      <stop
         style="stop-color:#000000;stop-opacity:0.41666666;"
         offset="0.0000000"
         id="stop3999" />
      <stop
         style="stop-color:#000000;stop-opacity:0;"
         offset="1"
         id="stop4001" />
    </linearGradient>
    <radialGradient
       inkscape:collect="always"
       xlink:href="#linearGradient2485"
       id="radialGradient4093"
       gradientUnits="userSpaceOnUse"
       gradientTransform="scale(2.60494,0.383886)"
       cx="23.581566"
       cy="296.21893"
       fx="23.581566"
       fy="296.21893"
       r="26.049402" />
  </defs>
  <g
     id="g4072"
     transform="matrix(1.0000039,0,0,0.9999982,-13.184842,-130.94775)">
    <path
       transform="matrix(0.6125838,4.5221712e-2,-4.6516284e-2,0.7022672,25.844034,128.64732)"
       d="M 129.28571 113.71429 A 67.85714 10 0 1 1  -6.4285698,113.71429 A 67.85714 10 0 1 1  129.28571 113.71429 z"
       sodipodi:ry="10"
       sodipodi:rx="67.85714"
       sodipodi:cy="113.71429"
       sodipodi:cx="61.42857"
       id="path1724"
       style="fill:url(#radialGradient4093);fill-opacity:1;stroke:none;stroke-width:2.32933998;stroke-linecap:round;stroke-linejoin:round;stroke-miterlimit:4;stroke-opacity:1"
       sodipodi:type="arc" />
    <g
       id="g4051">
      <path
         d="M 38.539256,156.32634 C 38.539256,156.32634 38.289809,159.8936 38.081937,162.86632 C 33.848998,162.86905 30.035423,166.18709 29.765189,170.05163 L 27.561746,201.56246 C 27.249937,206.02155 30.909418,209.56342 35.44558,209.88062 L 81.779244,213.12057 C 86.639414,213.46042 90.452991,210.14238 90.744012,205.98058 L 92.968243,174.17247 C 93.238476,170.30794 90.22702,166.81137 86.380458,165.94495 C 86.567542,163.2695 86.837776,159.40496 86.837776,159.40496 C 87.690052,147.21681 77.380416,136.33922 64.095943,135.41028 C 50.811466,134.48135 39.088306,143.81825 38.23603,156.00641 L 38.539256,156.32634 z M 53.767801,157.39122 C 54.079609,152.93214 58.237982,149.33948 63.422167,149.702 C 68.282342,150.04185 72.245046,153.90366 71.912451,158.66001 C 71.912451,158.66001 71.663005,162.22728 71.47592,164.90272 C 67.263769,164.60818 57.543421,163.92847 53.331269,163.63393 C 53.518354,160.95848 53.767801,157.39122 53.767801,157.39122 z "
         id="path2540"
         style="fill:#000000;fill-opacity:0.50224214" />
      <path
         d="M 36.698449,155.03166 C 36.698449,155.03166 36.449002,158.59893 36.24113,161.57165 C 32.008193,161.57438 28.194618,164.89241 27.924384,168.75695 L 25.720941,200.26778 C 25.409132,204.72687 29.068613,208.26874 33.604775,208.58594 L 79.938438,211.82589 C 84.798609,212.16575 88.612186,208.84771 88.903207,204.6859 L 91.127438,172.8778 C 91.397672,169.01326 88.386207,165.5167 84.53965,164.65027 C 84.726735,161.97482 84.996968,158.11028 84.996968,158.11028 C 85.849244,145.92213 75.539609,135.04454 62.255137,134.11561 C 48.97066,133.18667 37.582386,142.07706 36.730111,154.26521 L 36.698449,155.03166 z M 51.926995,156.09654 C 52.238803,151.63746 56.397175,148.04481 61.581361,148.40732 C 66.441536,148.74717 70.404241,152.60898 70.071645,157.36533 C 70.071645,157.36533 69.822199,160.9326 69.635114,163.60805 C 65.422963,163.31351 55.702615,162.6338 51.490463,162.33925 C 51.677548,159.66381 51.926995,156.09654 51.926995,156.09654 z "
         id="path897"
         sodipodi:nodetypes="ccccccccccscccscccc" />
      <path
         style="fill:#d2d2d2"
         d="M 39.916781,155.37107 L 38.457655,173.2533 L 47.616976,173.89378 L 48.927264,155.15573 C 49.378346,148.70492 55.304525,143.87171 62.174017,144.35207 C 69.043506,144.83243 74.239361,150.44337 73.788279,156.89417 L 72.477991,175.63223 L 81.637313,176.27271 L 82.9476,157.53465 C 83.720885,146.47613 74.857367,136.90452 63.081097,136.08105 C 51.304827,135.25757 40.823368,142.86991 40.050083,153.92844 L 39.916781,155.37107 z "
         id="path899"
         sodipodi:nodetypes="ccccsccccscc" />
      <g
         id="g901"
         transform="matrix(3.2711864,0.2287428,-0.2148012,3.071812,-13.78815,93.046487)">
        <path
           style="opacity:0.5;stroke:none"
           d="M 24.6,12.6 C 27.9,12.5 30.5,14.9 30.7,18.6 L 30.7,24.7 L 30.1,24.7 L 30.1,19 C 30.1,15.4 27.6,12.9 24.6,12.6 z "
           id="path903" />
      </g>
      <g
         id="g906"
         transform="matrix(3.2711864,0.2287428,-0.2148012,3.071812,-13.78815,93.046487)">
        <path
           style="opacity:0.5;fill:#ffffff;stroke:none"
           d="M 24.6,12.6 C 25.884267,12.576945 27.066777,12.876675 28.19157,13.658231 C 27.09157,12.758231 25.6,12.2 24,12.2 C 20.4,12.2 17.472612,15.02936 17.472612,18.62936 L 17.5,24.8 L 18.1,24.8 L 18.1,19.1 C 18.1,15.5 21,12.6 24.6,12.6 L 24.6,12.6 z "
           id="path908"
           sodipodi:nodetypes="ccscccccc" />
      </g>
      <g
         id="g911"
         transform="matrix(3.2711864,0.2287428,-0.2148012,3.071812,-13.78815,93.046487)">
        <path
           style="opacity:0.5;fill:#ffffff;stroke:none"
           d="M 28.4,24.7 L 28.4,18.9 C 28.4,17.4 27.5,16.1 26.3,15.5 C 27.3,16.2 27.9,17.3 27.9,18.6 L 27.9,24.7 L 28.4,24.7 L 28.4,24.7 z "
           id="path913" />
      </g>
      <g
         id="g916"
         transform="matrix(3.2711864,0.2287428,-0.2148012,3.071812,-13.78815,93.046487)">
        <path
           style="opacity:0.5;stroke:none"
           d="M 20,24.8 L 20,19 C 20,17.5 20.9,16.2 22.1,15.6 C 21.1,16.3 20.5,17.4 20.5,18.7 L 20.5,24.8 L 20,24.8 L 20,24.8 z "
           id="path918" />
      </g>
      <path
         style="fill:url(#linearGradient2757);fill-opacity:1"
         d="M 86.530631,205.01374 C 86.33731,207.77837 83.875641,210.0757 80.604454,209.84696 L 33.82649,206.57594 C 30.882423,206.37007 28.415835,204.03681 28.630636,200.96499 L 30.907529,168.40378 C 31.10085,165.63915 33.562521,163.34182 36.833707,163.57057 L 83.611671,166.84159 C 86.555738,167.04746 89.022325,169.38072 88.807524,172.45253 L 86.530631,205.01374 z "
         id="path950" />
      <path
         style="opacity:0.5;fill:#ffffff"
         d="M 68.027065,182.14343 C 68.002879,178.91328 64.975744,174.79894 61.377437,174.54732 C 57.779134,174.2957 55.58014,177.53745 55.343858,180.91645 C 55.172018,183.3739 56.76888,185.04319 58.994269,186.12485 L 53.416808,195.31692 L 67.226585,197.35522 L 63.462301,187.04044 C 65.816572,186.27902 67.664176,184.97983 67.984856,182.55959 L 68.027065,182.14343 z "
         id="path952"
         sodipodi:nodetypes="csscccccc" />
      <path
         style="opacity:0.5"
         d="M 66.878931,180.48832 C 67.115212,177.10933 64.101788,173.19441 59.522126,172.87417 C 55.923822,172.62255 53.113553,175.20419 52.898752,178.276 C 52.64099,181.96218 54.453341,184.24969 56.678731,185.33136 L 52.762707,195.15722 L 53.40495,195.30794 L 60.995713,184.70718 C 63.349983,183.94575 66.70709,182.94577 66.878931,180.48832 z "
         id="path954"
         sodipodi:nodetypes="cssccccc" />
      <path
         d="M 67.080709,180.16294 C 66.907684,177.11883 64.321506,174.75319 61.05032,174.52445 C 57.779134,174.2957 54.641744,176.85447 54.426943,179.92628 C 54.255102,182.38373 55.740335,184.64837 57.965724,185.73003 L 53.399449,195.30394 L 66.110564,196.17744 L 62.872503,186.07315 C 65.226774,185.31172 66.9011,183.31304 67.072941,180.85559 L 67.080709,180.16294 z "
         id="path956"
         sodipodi:nodetypes="csscccccc" />
      <path
         style="opacity:0.5"
         d="M 34.631135,207.80717 C 34.631135,207.80717 78.792151,210.8952 81.4091,211.07819 C 84.353165,211.28406 87.120473,209.31679 87.335274,206.24498 C 87.528596,203.48035 89.612166,173.68379 89.612166,173.68379 C 89.612166,173.68379 84.27889,202.94443 83.844373,204.45746 C 83.409851,205.97049 81.951016,208.02926 79.661189,207.86914 C 77.698477,207.73189 34.652616,207.49999 34.652616,207.49999 L 34.631135,207.80717 z "
         id="path958" />
      <path
         style="opacity:0.5;fill:#ffffff"
         d="M 81.688015,167.44021 C 81.688015,167.44021 40.263364,164.4048 37.646413,164.22181 C 34.702347,164.01594 31.935038,165.98321 31.720237,169.05502 C 31.505436,172.12683 29.182103,201.61622 29.182103,201.61622 C 29.182103,201.61622 34.776622,172.35558 35.21114,170.84254 C 35.624179,169.63669 37.104494,167.27074 39.394325,167.43086 C 41.357037,167.56811 81.666534,167.7737 81.666534,167.7737 L 81.688015,167.44021 z "
         id="path960"
         sodipodi:nodetypes="cssccscc" />
    </g>
  </g>
</svg>
