<?xml version="1.0" encoding="UTF-8" standalone="no"?>
<!-- Created with Sodipodi ("http://www.sodipodi.com/") -->
<svg
   xmlns:dc="http://purl.org/dc/elements/1.1/"
   xmlns:cc="http://creativecommons.org/ns#"
   xmlns:rdf="http://www.w3.org/1999/02/22-rdf-syntax-ns#"
   xmlns:svg="http://www.w3.org/2000/svg"
   xmlns="http://www.w3.org/2000/svg"
   xmlns:xlink="http://www.w3.org/1999/xlink"
   xmlns:sodipodi="http://sodipodi.sourceforge.net/DTD/sodipodi-0.dtd"
   xmlns:inkscape="http://www.inkscape.org/namespaces/inkscape"
   id="svg548"
   sodipodi:version="0.32"
   width="72pt"
   height="72pt"
   sodipodi:docbase="/home/zeus/images/icons/gartoon/svg"
   sodipodi:docname="preferences-desktop-default-applications.svg"
   inkscape:version="0.45+devel"
   inkscape:output_extension="org.inkscape.output.svg.inkscape">
  <metadata
     id="metadata3807">
    <rdf:RDF>
      <cc:Work
         rdf:about="">
        <dc:format>image/svg+xml</dc:format>
        <dc:type
           rdf:resource="http://purl.org/dc/dcmitype/StillImage" />
      </cc:Work>
    </rdf:RDF>
  </metadata>
  <defs
     id="defs550">
    <linearGradient
       inkscape:collect="always"
       xlink:href="#linearGradient558"
       id="linearGradient4204"
       gradientUnits="userSpaceOnUse"
       gradientTransform="scale(0.766548,1.30455)"
       spreadMethod="pad"
       x1="73.0144653"
       y1="38.8011742"
       x2="46.2984352"
       y2="43.8150940" />
    <linearGradient
       id="linearGradient558">
      <stop
         style="stop-color:#7fa8e3;stop-opacity:0.741176;"
         offset="0.000000"
         id="stop559" />
      <stop
         style="stop-color:#ffffff;stop-opacity:0;"
         offset="1.000000"
         id="stop560" />
    </linearGradient>
    <linearGradient
       xlink:href="#linearGradient558"
       id="linearGradient563"
       x1="23.9531670"
       y1="24.2094688"
       x2="45.7012291"
       y2="18.4172096"
       gradientUnits="userSpaceOnUse"
       gradientTransform="scale(0.986297,1.013893)"
       spreadMethod="pad" />
  </defs>
  <sodipodi:namedview
     id="base"
     showgrid="false"
     inkscape:zoom="2.7666667"
     inkscape:cx="59.777446"
     inkscape:cy="47.340529"
     inkscape:window-width="640"
     inkscape:window-height="708"
     inkscape:window-x="0"
     inkscape:window-y="1"
     inkscape:current-layer="svg548" />
  <g
     id="g3817">
    <path
       style="font-size:12px;fill:#000000;fill-opacity:0.29411765000000001;fill-rule:evenodd;stroke-width:1pt"
       d="M 50.147213,8.8878012 C 31.789583,8.9112875 13.972647,21.40043 8.1784639,39.481552 C 1.5565073,60.145794 13.133894,80.340435 34.022213,84.544052 C 54.910426,88.747648 77.244009,75.395796 83.865963,54.731552 C 90.487887,34.06741 78.910427,13.872648 58.022213,9.6690512 C 55.411173,9.1435989 52.769732,8.884446 50.147213,8.8878012 z M 44.084713,37.325302 C 44.643189,37.324609 45.216181,37.372966 45.772213,37.481552 C 50.220445,38.350237 52.682371,42.523759 51.272213,46.794052 C 49.862046,51.064365 45.095444,53.850237 40.647213,52.981552 C 36.19896,52.112862 33.737048,47.939366 35.147213,43.669052 C 36.381101,39.932544 40.175381,37.330154 44.084713,37.325302 z"
       id="path2421" />
    <path
       id="path613"
       d="M 44.90625 2.5625 C 26.54862 2.5859863 8.7316839 15.075128 2.9375 33.15625 C -3.6844565 53.820492 7.8929302 74.015133 28.78125 78.21875 C 49.669463 82.422346 72.003046 69.070494 78.625 48.40625 C 85.246924 27.742108 73.669464 7.5473465 52.78125 3.34375 C 50.17021 2.8182977 47.528769 2.5591448 44.90625 2.5625 z M 38.84375 31 C 39.402226 30.999307 39.975218 31.047664 40.53125 31.15625 C 44.979482 32.024935 47.441408 36.198457 46.03125 40.46875 C 44.621083 44.739063 39.854481 47.524935 35.40625 46.65625 C 30.957997 45.78756 28.496085 41.614064 29.90625 37.34375 C 31.140138 33.607242 34.934418 31.004852 38.84375 31 z "
       style="font-size:12;fill:#143c69;fill-rule:evenodd;stroke-width:1pt" />
    <path
       id="path612"
       d="M 44.0625 7.25 C 28.016595 7.2706008 12.470783 18.23085 7.40625 34.09375 C 1.6181836 52.222866 11.710836 69.937087 29.96875 73.625 C 48.226569 77.312896 67.743181 65.597864 73.53125 47.46875 C 79.319288 29.339722 69.226567 11.625396 50.96875 7.9375 C 48.686511 7.4765106 46.354772 7.247057 44.0625 7.25 z M 39.65625 26.3125 C 40.524333 26.311395 41.385716 26.38945 42.25 26.5625 C 49.164236 27.946895 53.004417 34.600822 50.8125 41.40625 C 48.620573 48.21171 41.226735 52.634396 34.3125 51.25 C 27.39823 49.865599 23.558073 43.211711 25.75 36.40625 C 27.667928 30.451502 33.579669 26.320232 39.65625 26.3125 z "
       style="font-size:12;fill:#ffffff;fill-rule:evenodd;stroke-width:1pt" />
    <path
       id="path562"
       d="M 41.28125,10.25 C 31.933144,10.039175 18.75,20.3125 18.75,20.3125 C 18.75,20.3125 24.672412,31.18788 26.59375,34.375 C 29.068156,29.526711 34.294055,26.319323 39.65625,26.3125 C 40.524333,26.311395 41.385716,26.38945 42.25,26.5625 C 42.499116,26.612379 42.727753,26.686679 42.96875,26.75 L 42.1875,10.3125 C 41.894531,10.283202 41.582802,10.256801 41.28125,10.25 z"
       style="fill:url(#linearGradient563);fill-rule:evenodd;stroke:none;stroke-opacity:1;stroke-width:1pt;stroke-linejoin:miter;stroke-linecap:butt;fill-opacity:1"
       sodipodi:nodetypes="cccssccc" />
    <path
       id="path557"
       d="M 48.65625 45.5 C 45.376117 49.863235 39.706935 52.330095 34.3125 51.25 C 33.999833 51.187397 33.706071 51.114931 33.40625 51.03125 L 28.875 73.375 C 29.238523 73.461224 29.598445 73.550202 29.96875 73.625 C 35.51274 74.74483 41.174739 74.437659 46.53125 72.96875 C 49.729672 71.925417 53.619215 70.15822 58.59375 67.3125 C 58.978585 67.046567 59.374361 66.779315 59.75 66.5 C 59.755263 66.492558 59.744855 66.476285 59.75 66.46875 C 61.920082 63.290708 53.691958 51.935458 48.65625 45.5 z "
       style="fill:url(#linearGradient4204);fill-rule:evenodd;stroke:none;stroke-opacity:1;stroke-width:1pt;stroke-linejoin:miter;stroke-linecap:butt;fill-opacity:1" />
  </g>
  <g
     id="g725"
     transform="matrix(0.740385,0,0,0.740385,22.677198,22.354197)">
    <defs
       id="defs668">
      <linearGradient
         id="linearGradient689">
        <stop
           style="stop-color:#ffb700;stop-opacity:1;"
           offset="0.000000"
           id="stop690" />
        <stop
           style="stop-color:#fdffff;stop-opacity:0;"
           offset="1.000000"
           id="stop691" />
      </linearGradient>
      <linearGradient
         id="linearGradient684">
        <stop
           style="stop-color:#ffffff;stop-opacity:0.647059;"
           offset="0.000000"
           id="stop685" />
        <stop
           style="stop-color:#fdffff;stop-opacity:0;"
           offset="1.000000"
           id="stop686" />
      </linearGradient>
      <linearGradient
         id="linearGradient677">
        <stop
           style="stop-color:#000000;stop-opacity:1;"
           offset="0.000000"
           id="stop678" />
        <stop
           style="stop-color:#6a6762;stop-opacity:1;"
           offset="1.000000"
           id="stop679" />
      </linearGradient>
      <linearGradient
         xlink:href="#linearGradient677"
         id="linearGradient680"
         x1="68.311676"
         y1="71.296051"
         x2="52.578365"
         y2="39.579781"
         gradientUnits="userSpaceOnUse"
         spreadMethod="pad"
         gradientTransform="scale(1.011562,0.98857)" />
      <linearGradient
         xlink:href="#linearGradient684"
         id="linearGradient683"
         x1="49.025764"
         y1="44.340187"
         x2="56.455326"
         y2="53.182751"
         gradientUnits="userSpaceOnUse"
         spreadMethod="pad"
         gradientTransform="scale(1.017548,0.982755)" />
      <linearGradient
         xlink:href="#linearGradient689"
         id="linearGradient688"
         x1="26.295921"
         y1="98.952934"
         x2="31.715986"
         y2="102.82758"
         gradientUnits="userSpaceOnUse"
         spreadMethod="pad"
         gradientTransform="scale(1.326975,0.753594)" />
      <linearGradient
         xlink:href="#linearGradient689"
         id="linearGradient693"
         x1="33.579441"
         y1="53.821957"
         x2="-14.069118"
         y2="26.552649"
         gradientUnits="userSpaceOnUse"
         spreadMethod="pad"
         gradientTransform="scale(0.780786,1.280761)" />
    </defs>
    <sodipodi:namedview
       id="namedview741" />
    <path
       style="fill:#000000;fill-opacity:0.29824602;fill-rule:evenodd;stroke:none;stroke-width:1pt;stroke-linecap:butt;stroke-linejoin:miter;stroke-opacity:1"
       d="M 1.43587,43.3341 C 1.43587,43.3341 13.9829,62.1334 24.4099,77.6156 C 26.361,79.271 38.7518,85.1307 41.6404,83.718 C 44.2164,82.1492 79.0892,55.3067 79.7142,52.1225 C 80.6982,48.5327 79.4883,46.2058 78.6141,44.411 C 77.8962,42.6161 54.5632,6.53978 53.6658,5.64236 C 52.7684,4.74493 50.2556,3.48854 47.2044,4.56545 C 39.4401,9.04617 15.007,24.332 2.58248,37.1683 C 0.96712,38.9632 1.25639,41.5392 1.43587,43.3341 z"
       id="path699"
       sodipodi:nodetypes="ccccccccc"
       transform="matrix(1.120973,0,0,0.970624,-0.312708,8.246927)" />
    <path
       style="fill:none;fill-opacity:1;fill-rule:evenodd;stroke:#000000;stroke-width:1pt;stroke-linecap:butt;stroke-linejoin:miter;stroke-opacity:1"
       d="M 8.79473,37.4111 C 8.79473,37.4709 8.79473,37.5307 8.79473,37.5906"
       id="path671" />
    <path
       style="fill:#261d14;fill-opacity:1;fill-rule:evenodd;stroke:none;stroke-width:1pt;stroke-linecap:butt;stroke-linejoin:miter;stroke-opacity:1"
       d="M 1.43587,43.3341 C 1.43587,43.3341 13.9829,62.1334 24.4099,77.6156 C 26.361,79.271 38.7518,85.1307 41.6404,83.718 C 44.2164,82.1492 79.0892,55.3067 79.7142,52.1225 C 80.6982,48.5327 79.4883,46.2058 78.6141,44.411 C 77.8962,42.6161 54.5632,6.53978 53.6658,5.64236 C 52.7684,4.74493 50.2556,3.48854 47.2044,4.56545 C 39.4401,9.04617 15.007,24.332 2.58248,37.1683 C 0.96712,38.9632 1.25639,41.5392 1.43587,43.3341 z"
       id="path676"
       sodipodi:nodetypes="ccccccccc" />
    <path
       style="fill:#f1e36c;fill-opacity:1;fill-rule:evenodd;stroke:none;stroke-width:1pt;stroke-linecap:butt;stroke-linejoin:miter;stroke-opacity:1"
       d="M 8.61525,37.5906 C 8.61525,37.5906 27.2816,66.8465 27.9995,68.1029 C 28.7175,69.3593 30.3329,71.1542 33.5636,72.0516 C 38.4097,74.0259 43.0762,75.8207 43.4352,75.8207 C 43.7942,75.8207 46.1275,73.6669 46.1275,73.6669 L 35.5379,60.3851 L 59.7683,39.2059 L 69.9989,54.1031 L 75.5629,49.616 C 75.5629,49.616 50.4351,8.69359 50.0761,8.69359 C 49.7172,8.69359 43.7942,12.2833 43.7942,12.2833 L 56.3581,31.3086 C 56.3581,31.3086 31.7687,49.4366 29.6149,51.2314 C 27.6406,51.2314 13.4613,33.4624 13.4613,33.4624 L 8.61525,37.5906 z"
       id="path672"
       sodipodi:nodetypes="ccccccccccccccc" />
    <path
       style="fill:#ffffff;fill-opacity:1;fill-rule:evenodd;stroke:none;stroke-width:1pt;stroke-linecap:butt;stroke-linejoin:miter;stroke-opacity:1"
       d="M 14.8972,32.565 L 29.6149,49.2571 L 54.2043,30.7702 L 42.3583,12.8217 L 14.8972,32.565 z"
       id="path673"
       sodipodi:nodetypes="ccccc" />
    <path
       style="fill:url(#linearGradient680);fill-opacity:1;fill-rule:evenodd;stroke:none;stroke-width:1pt;stroke-linecap:butt;stroke-linejoin:miter;stroke-opacity:1"
       d="M 37.5122,60.5646 L 47.0249,72.4105 L 49.3582,70.6157 L 41.1019,60.3851 C 41.1019,60.3851 43.7942,57.3338 45.589,57.1544 C 48.4608,59.8466 54.2043,67.026 54.2043,67.026 L 69.1015,55.7185 L 59.2298,41.5392 L 37.5122,60.5646 z"
       id="path674"
       sodipodi:nodetypes="ccccccccc" />
    <path
       style="fill:#f1e36c;fill-opacity:1;fill-rule:evenodd;stroke:none;stroke-width:1pt;stroke-linecap:butt;stroke-linejoin:miter;stroke-opacity:1"
       d="M 7.92054,38.5345 C 7.20261,38.355 28.897,71.872 29.4355,71.872 C 29.9739,71.872 41.4609,76.7182 41.4609,76.7182 L 40.743,79.0514 L 28.7175,75.6413 L 5.40776,41.25 L 7.92054,38.5345 z"
       id="path675"
       sodipodi:nodetypes="ccccccc" />
    <path
       style="fill:#f1e36c;fill-opacity:1;fill-rule:evenodd;stroke:none;stroke-width:1pt;stroke-linecap:butt;stroke-linejoin:miter;stroke-opacity:1"
       d="M 42.3583,60.2056 L 49.7172,69.7183 L 52.9479,67.026 L 45.2301,57.6928 L 42.3583,60.2056 z"
       id="path681" />
    <path
       style="fill:url(#linearGradient683);fill-opacity:1;fill-rule:evenodd;stroke:none;stroke-width:1pt;stroke-linecap:butt;stroke-linejoin:miter;stroke-opacity:1"
       d="M 59.0625,42.5 L 45.1563,54.6875 C 46.3542,58.2291 50.3646,60.9895 52.0313,62.9687 C 54.5834,43.802 59.948,45.4166 65.3126,52.3437 L 59.0625,42.5 z"
       id="path682"
       sodipodi:nodetypes="ccccc" />
    <path
       style="fill:url(#linearGradient688);fill-opacity:1;fill-rule:evenodd;stroke:none;stroke-width:1pt;stroke-linecap:butt;stroke-linejoin:miter;stroke-opacity:1"
       d="M 41.25,76.7187 L 40.625,79.0625 L 28.5938,75.9375 L 29.0625,71.875 L 41.25,76.7187 z"
       id="path687" />
    <path
       style="fill:url(#linearGradient693);fill-opacity:1;fill-rule:evenodd;stroke:none;stroke-width:1pt;stroke-linecap:butt;stroke-linejoin:miter;stroke-opacity:1"
       d="M 28.5938,75.7812 L 29.375,72.1875 L 12.5,46.5625 L 11.5625,50 L 28.5938,75.7812 z"
       id="path692" />
    <path
       style="fill:#bae6ff;fill-opacity:1;fill-rule:evenodd;stroke:none;stroke-width:1pt;stroke-linecap:butt;stroke-linejoin:miter;stroke-opacity:1"
       d="M 14.8438,32.5 L 21.0938,39.5312 L 47.8126,20.7812 L 42.3438,12.8125 L 14.8438,32.5 z"
       id="path697"
       sodipodi:nodetypes="ccccc" />
  </g>
</svg>
