<?xml version="1.0" encoding="UTF-8" standalone="no"?>
<!-- Created with Sodipodi ("http://www.sodipodi.com/") -->
<svg
   xmlns:dc="http://purl.org/dc/elements/1.1/"
   xmlns:cc="http://creativecommons.org/ns#"
   xmlns:rdf="http://www.w3.org/1999/02/22-rdf-syntax-ns#"
   xmlns:svg="http://www.w3.org/2000/svg"
   xmlns="http://www.w3.org/2000/svg"
   xmlns:xlink="http://www.w3.org/1999/xlink"
   xmlns:sodipodi="http://sodipodi.sourceforge.net/DTD/sodipodi-0.dtd"
   xmlns:inkscape="http://www.inkscape.org/namespaces/inkscape"
   id="svg548"
   sodipodi:version="0.32"
   width="72pt"
   height="72pt"
   sodipodi:docbase="/home/zeus/Desktop/icons/gartoon/svg"
   sodipodi:docname="gconf-editor.svg"
   inkscape:version="0.45+devel"
   inkscape:output_extension="org.inkscape.output.svg.inkscape">
  <metadata
     id="metadata51">
    <rdf:RDF>
      <cc:Work
         rdf:about="">
        <dc:format>image/svg+xml</dc:format>
        <dc:type
           rdf:resource="http://purl.org/dc/dcmitype/StillImage" />
      </cc:Work>
    </rdf:RDF>
  </metadata>
  <defs
     id="defs550">
    <linearGradient
       id="linearGradient604">
      <stop
         offset="0.000000"
         style="stop-color:#666565;stop-opacity:1;"
         id="stop606" />
      <stop
         offset="1.000000"
         style="stop-color:#ffffff;stop-opacity:1;"
         id="stop605" />
    </linearGradient>
    <linearGradient
       xlink:href="#linearGradient604"
       id="linearGradient603"
       x1="61.0468903"
       y1="28.6572132"
       x2="79.6281509"
       y2="14.1547699"
       gradientUnits="userSpaceOnUse"
       spreadMethod="pad"
       gradientTransform="scale(0.994399,1.005632)" />
    <linearGradient
       id="linearGradient589">
      <stop
         style="stop-color:#ffffff;stop-opacity:1;"
         offset="0.000000"
         id="stop590" />
      <stop
         style="stop-color:#ffffff;stop-opacity:0;"
         offset="1.000000"
         id="stop591" />
    </linearGradient>
    <linearGradient
       inkscape:collect="always"
       xlink:href="#linearGradient589"
       id="linearGradient2669"
       gradientUnits="userSpaceOnUse"
       gradientTransform="scale(0.608808,1.642555)"
       spreadMethod="pad"
       x1="38.4874878"
       y1="25.5889244"
       x2="50.0719948"
       y2="48.2551422" />
    <linearGradient
       inkscape:collect="always"
       xlink:href="#linearGradient589"
       id="linearGradient2671"
       gradientUnits="userSpaceOnUse"
       spreadMethod="pad"
       x1="64.919166"
       y1="8.8742821"
       x2="70.184024"
       y2="14.759434"
       gradientTransform="scale(0.846279,1.1816434)" />
    <linearGradient
       inkscape:collect="always"
       xlink:href="#linearGradient589"
       id="linearGradient2673"
       gradientTransform="scale(1.8688669,0.5350836)"
       x1="6.6054738"
       y1="73.182051"
       x2="11.704953"
       y2="73.182051"
       gradientUnits="userSpaceOnUse" />
    <linearGradient
       inkscape:collect="always"
       xlink:href="#linearGradient589"
       id="linearGradient2675"
       gradientTransform="scale(0.5513872,1.8136075)"
       x1="60.107236"
       y1="8.3432496"
       x2="64.043017"
       y2="8.3432496"
       gradientUnits="userSpaceOnUse" />
    <linearGradient
       inkscape:collect="always"
       xlink:href="#linearGradient589"
       id="linearGradient2677"
       gradientTransform="scale(0.6465412,1.5466918)"
       x1="26.155615"
       y1="15.758731"
       x2="30.599292"
       y2="15.758731"
       gradientUnits="userSpaceOnUse" />
  </defs>
  <sodipodi:namedview
     id="base"
     showgrid="false"
     inkscape:zoom="5.5333333"
     inkscape:cx="45"
     inkscape:cy="45"
     inkscape:window-width="640"
     inkscape:window-height="708"
     inkscape:window-x="0"
     inkscape:window-y="1"
     inkscape:current-layer="svg548" />
  <g
     id="g2629"
     transform="matrix(0.9724245,0.2332178,-0.2332178,0.9724245,25.10909,-11.5535)">
    <path
       transform="matrix(1.259307,0,0,1.259307,-11.09589,-14.04155)"
       sodipodi:nodetypes="cccccccc"
       id="path662"
       d="M 54.9883,81.4569 C 47.957,81.8163 36.4181,82.8514 28.7969,65.6132 C 26.3673,59.4294 25.0586,48.4961 33.1836,37.8711 C 37.5586,32.4024 43.8322,28.0508 53.0509,29.9258 C 60.5275,29.7071 69.4258,40.617 64.7383,48.2733 C 60.0508,55.9295 51.6441,57.6483 53.3356,60.1173 C 55.7264,62.2114 62.5624,60.0079 65.7616,64.0939 C 67.4804,67.3752 61.7071,79.2694 54.9883,81.4569 z"
       style="font-size:12px;fill:#000000;fill-opacity:0.3;fill-rule:evenodd;stroke-width:1pt" />
    <g
       transform="matrix(0.972002,0,0,0.972002,0.967511,1.255798)"
       id="g667">
      <path
         id="path666"
         d="M 28.5938,29.1406 C 28.5938,32.0299 27.1588,34.3749 25.3906,34.3749 C 23.6225,34.3749 22.1875,32.0299 22.1875,29.1406 C 22.1875,26.2512 23.6225,23.9062 25.3906,23.9062 C 27.1588,23.9062 28.5938,26.2512 28.5938,29.1406 z"
         style="font-size:12px;fill:#000000;fill-opacity:0.3;fill-rule:evenodd;stroke-width:1pt"
         transform="matrix(-2.447984e-2,1.881981,1.881981,2.447849e-2,-42.67223,-5.662441)" />
      <path
         id="path665"
         d="M 28.5938,29.1406 C 28.5938,32.0299 27.1588,34.3749 25.3906,34.3749 C 23.6225,34.3749 22.1875,32.0299 22.1875,29.1406 C 22.1875,26.2512 23.6225,23.9062 25.3906,23.9062 C 27.1588,23.9062 28.5938,26.2512 28.5938,29.1406 z"
         style="font-size:12px;fill:#000000;fill-opacity:0.3;fill-rule:evenodd;stroke-width:1pt"
         transform="matrix(1.364979,-0.8957,0.8957,1.364979,-38.54071,9.130011)" />
      <path
         id="path664"
         d="M 28.5938,29.1406 C 28.5938,32.0299 27.1588,34.3749 25.3906,34.3749 C 23.6225,34.3749 22.1875,32.0299 22.1875,29.1406 C 22.1875,26.2512 23.6225,23.9062 25.3906,23.9062 C 27.1588,23.9062 28.5938,26.2512 28.5938,29.1406 z"
         style="font-size:12px;fill:#000000;fill-opacity:0.3;fill-rule:evenodd;stroke-width:1pt"
         transform="matrix(1.710329,-8.44919e-2,8.449188e-2,1.710329,-8.95636,-30.89149)" />
      <path
         id="path663"
         d="M 28.5938,29.1406 C 28.5938,32.0299 27.1588,34.3749 25.3906,34.3749 C 23.6225,34.3749 22.1875,32.0299 22.1875,29.1406 C 22.1875,26.2512 23.6225,23.9062 25.3906,23.9062 C 27.1588,23.9062 28.5938,26.2512 28.5938,29.1406 z"
         style="font-size:12px;fill:#000000;fill-opacity:0.3;fill-rule:evenodd;stroke-width:1pt"
         transform="matrix(2.056255,0.991635,-0.991636,2.056254,34.69159,-72.58045)" />
      <path
         transform="matrix(1.766225,0,0,1.464769,-34.91358,-20.35575)"
         sodipodi:ry="7.2920418"
         sodipodi:rx="5.4137878"
         sodipodi:cy="44.479984"
         sodipodi:cx="41.432053"
         d="M 46.84584,44.479984 A 5.4137878,7.2920418 0 1 1 36.018265,44.479984 A 5.4137878,7.2920418 0 1 1 46.84584,44.479984 z"
         id="path559"
         style="font-size:12px;fill-rule:evenodd;stroke-width:1pt"
         sodipodi:type="arc" />
      <path
         id="path583"
         d="M 28.5938,29.1406 C 28.5938,32.0299 27.1588,34.3749 25.3906,34.3749 C 23.6225,34.3749 22.1875,32.0299 22.1875,29.1406 C 22.1875,26.2512 23.6225,23.9062 25.3906,23.9062 C 27.1588,23.9062 28.5938,26.2512 28.5938,29.1406 z"
         style="font-size:12px;fill-rule:evenodd;stroke-width:1pt"
         transform="matrix(1.364979,-0.8957,0.8957,1.364979,-41.04071,8.192511)" />
      <path
         transform="matrix(1.259307,0,0,1.259307,-15.1584,-13.41655)"
         sodipodi:nodetypes="cccccccc"
         id="path570"
         d="M 54.9883,81.4569 C 47.957,81.8163 36.4181,82.8514 28.7969,65.6132 C 26.3673,59.4294 25.0586,48.4961 33.1836,37.8711 C 37.5586,32.4024 43.8322,28.0508 53.0509,29.9258 C 60.5275,29.7071 69.4258,40.617 64.7383,48.2733 C 60.0508,55.9295 51.6441,57.6483 53.3356,60.1173 C 55.7264,62.2114 62.5624,60.0079 65.7616,64.0939 C 67.4804,67.3752 61.7071,79.2694 54.9883,81.4569 z"
         style="font-size:12px;fill-rule:evenodd;stroke-width:1pt" />
      <path
         transform="matrix(1.164757,0,0,1.164757,-10.7657,-8.169355)"
         sodipodi:nodetypes="cccccccc"
         id="path569"
         d="M 54.8438,80.1562 C 47.8125,81.0937 36.5626,81.4062 29.375,65.4687 C 27.5,60.7813 25.7812,49.2187 33.9062,38.5937 C 38.2812,33.125 44.8438,29.0624 54.0625,30.9374 C 61.2501,31.8749 68.1251,38.5937 63.4376,46.25 C 58.7501,53.9062 46.875,55.625 50.1562,61.5625 C 53.1251,68.2812 61.4063,62.0312 63.5938,66.4062 C 65.3126,69.6875 61.5626,77.9687 54.8438,80.1562 z"
         style="font-size:12px;fill:#2aaf18;fill-rule:evenodd;stroke-width:1pt" />
      <path
         transform="matrix(1.164757,0,0,1.164757,-10.7657,-8.169355)"
         id="path588"
         d="M 42.5,76.5625 C 42.5,76.7187 30.4688,63.125 32.5,55 C 34.5313,46.875 35.9375,42.0312 35.9375,42.0312 C 35.9375,42.0312 28.5938,48.75 29.8438,58.2812 C 31.0938,67.8125 35.3125,74.5312 42.5,76.5625 z"
         style="font-size:12px;fill:url(#linearGradient2669);fill-rule:evenodd;stroke-width:1pt" />
      <path
         transform="matrix(1.164757,0,0,1.164757,-10.7657,-8.169355)"
         sodipodi:nodetypes="cccccccc"
         id="path567"
         d="M 42.8125,68.2812 C 42.8125,68.2812 45.1562,69.8438 50.6251,71.2499 C 55.3126,71.875 61.7188,72.0312 63.5938,70.4687 C 65.4688,68.5937 67.1876,65.4687 67.1876,65.4687 C 67.1876,65.4687 64.2188,72.5 62.8126,74.5312 C 61.4063,76.5625 59.6876,78.75 57.0313,79.6875 C 55.3126,80.3125 52.1876,81.0938 48.7501,78.5937 C 45.9376,76.25 43.75,74.8437 42.8125,68.2812 z"
         style="font-size:12px;fill-rule:evenodd;stroke-width:1pt" />
      <path
         transform="matrix(1.411826,0,0,1.411826,-22.03179,-18.64424)"
         sodipodi:ry="7.2920418"
         sodipodi:rx="5.4137878"
         sodipodi:cy="44.479984"
         sodipodi:cx="41.432053"
         d="M 46.84584,44.479984 A 5.4137878,7.2920418 0 1 1 36.018265,44.479984 A 5.4137878,7.2920418 0 1 1 46.84584,44.479984 z"
         id="path560"
         style="font-size:12px;fill-rule:evenodd;stroke-width:1pt"
         sodipodi:type="arc" />
      <path
         transform="matrix(1.60199,0,0,1.601992,-15.49755,-29.67655)"
         sodipodi:ry="7.2920418"
         sodipodi:rx="5.4137878"
         sodipodi:cy="44.479984"
         sodipodi:cx="41.432053"
         d="M 46.84584,44.479984 A 5.4137878,7.2920418 0 1 1 36.018265,44.479984 A 5.4137878,7.2920418 0 1 1 46.84584,44.479984 z"
         id="path561"
         style="font-size:12px;fill-rule:evenodd;stroke-width:1pt"
         sodipodi:type="arc" />
      <path
         transform="matrix(1.321643,0,0,1.321643,-3.882174,-17.20666)"
         sodipodi:ry="7.2920418"
         sodipodi:rx="5.4137878"
         sodipodi:cy="44.479984"
         sodipodi:cx="41.432053"
         d="M 46.84584,44.479984 A 5.4137878,7.2920418 0 1 1 36.018265,44.479984 A 5.4137878,7.2920418 0 1 1 46.84584,44.479984 z"
         id="path562"
         style="font-size:12px;fill:#ffffff;fill-rule:evenodd;stroke-width:1pt"
         sodipodi:type="arc" />
      <path
         transform="matrix(1.164757,0,0,1.164757,-11.79521,-7.6546)"
         sodipodi:ry="7.2920418"
         sodipodi:rx="5.4137878"
         sodipodi:cy="44.479984"
         sodipodi:cx="41.432053"
         d="M 46.84584,44.479984 A 5.4137878,7.2920418 0 1 1 36.018265,44.479984 A 5.4137878,7.2920418 0 1 1 46.84584,44.479984 z"
         id="path558"
         style="font-size:12px;fill:#ffffff;fill-rule:evenodd;stroke-width:1pt"
         sodipodi:type="arc" />
      <path
         transform="matrix(1.164757,0,0,1.164757,-12.76038,-9.391901)"
         id="path555"
         d="M 44.6361,46.3582 C 44.6361,48.1269 43.5472,49.5623 42.2055,49.5623 C 40.8637,49.5623 39.7748,48.1269 39.7748,46.3582 C 39.7748,44.5896 40.8637,43.1542 42.2055,43.1542 C 43.5472,43.1542 44.6361,44.5896 44.6361,46.3582 z"
         style="font-size:12px;fill-rule:evenodd;stroke-width:1pt" />
      <path
         transform="matrix(1.164757,0,0,1.164757,-10.7657,-8.169355)"
         id="path554"
         d="M 56.3476,44.48 C 56.3476,46.5536 54.9617,48.2365 53.254,48.2365 C 51.5463,48.2365 50.1604,46.5536 50.1604,44.48 C 50.1604,42.4064 51.5463,40.7235 53.254,40.7235 C 54.9617,40.7235 56.3476,42.4064 56.3476,44.48 z"
         style="font-size:12px;fill-rule:evenodd;stroke-width:1pt" />
      <path
         transform="matrix(1.164757,0,0,1.164757,-12.76038,-9.391901)"
         sodipodi:ry="1.4363101"
         sodipodi:rx="1.215342"
         sodipodi:cy="45.03241"
         sodipodi:cx="42.315941"
         d="M 43.531283,45.03241 A 1.215342,1.4363101 0 1 1 41.100599,45.03241 A 1.215342,1.4363101 0 1 1 43.531283,45.03241 z"
         id="path556"
         style="font-size:12px;fill:#ffffff;fill-rule:evenodd;stroke-width:1pt"
         sodipodi:type="arc" />
      <path
         transform="matrix(1.076514,0,0,1.164757,-6.475862,-9.352312)"
         sodipodi:ry="1.5467989"
         sodipodi:rx="1.5467989"
         sodipodi:cy="43.5961"
         sodipodi:cx="53.253998"
         d="M 54.800797,43.5961 A 1.5467989,1.5467989 0 1 1 51.707199,43.5961 A 1.5467989,1.5467989 0 1 1 54.800797,43.5961 z"
         id="path557"
         style="font-size:12px;fill:#ffffff;fill-rule:evenodd;stroke-width:1pt"
         sodipodi:type="arc" />
      <path
         transform="matrix(1.164757,0,0,1.164757,-10.7657,-8.169355)"
         sodipodi:nodetypes="cccc"
         id="path563"
         d="M 47.1875,71.0937 L 46.4063,75.1562 C 46.4063,75.1562 44.0625,71.4062 44.0625,70.1562 C 44.5312,69.2188 44.8438,71.0937 47.1875,71.0937 z"
         style="font-size:12px;fill:#ffffff;fill-rule:evenodd;stroke-width:1pt" />
      <path
         transform="matrix(1.164757,0,0,1.164757,-10.7657,-8.169355)"
         sodipodi:nodetypes="ccccc"
         id="path564"
         d="M 48.2813,71.875 C 48.2813,71.875 47.8125,75.9374 47.9688,76.2499 C 48.125,76.5624 52.5,79.2187 53.125,78.2812 C 53.7501,77.3437 54.0626,72.9687 54.0626,72.9687 C 54.0626,72.9687 50.4688,73.2812 48.2813,71.875 z"
         style="font-size:12px;fill:#ffffff;fill-rule:evenodd;stroke-width:1pt" />
      <path
         transform="matrix(1.164757,0,0,1.164757,-10.7657,-8.169355)"
         sodipodi:nodetypes="ccccc"
         id="path565"
         d="M 55.4688,72.8125 L 54.8438,78.4375 C 54.8438,78.4375 56.5625,78.9062 58.1251,77.5 C 59.6876,76.0937 59.8438,72.8125 59.8438,72.8125 L 55.4688,72.8125 z"
         style="font-size:12px;fill:#ffffff;fill-rule:evenodd;stroke-width:1pt" />
      <path
         transform="matrix(1.164757,0,0,1.164757,-10.7657,-8.169355)"
         sodipodi:nodetypes="cccc"
         id="path566"
         d="M 60.7813,72.1875 C 60.7813,72.3437 60.3126,76.2499 60.3126,76.2499 C 60.3126,76.2499 63.4376,71.7187 63.5938,71.7187 C 63.7501,71.7187 60.9376,72.1875 60.7813,72.1875 z"
         style="font-size:12px;fill:#ffffff;fill-rule:evenodd;stroke-width:1pt" />
      <path
         transform="matrix(1.164757,0,0,1.164757,-10.7657,-8.169355)"
         id="path568"
         d="M 40.1563,71.7187 C 40.1563,71.25 40.9375,69.2187 43.125,68.2812 C 45.3125,67.3437 46.875,66.7187 46.875,66.7187 C 46.875,66.7187 39.2188,65.3125 40.1563,71.7187 z"
         style="font-size:12px;fill-rule:evenodd;stroke-width:1pt" />
      <path
         id="path582"
         d="M 28.5938,29.1406 C 28.5938,32.0299 27.1588,34.3749 25.3906,34.3749 C 23.6225,34.3749 22.1875,32.0299 22.1875,29.1406 C 22.1875,26.2512 23.6225,23.9062 25.3906,23.9062 C 27.1588,23.9062 28.5938,26.2512 28.5938,29.1406 z"
         style="font-size:12px;fill:#2aaf18;fill-rule:evenodd;stroke-width:1pt"
         transform="matrix(0.973815,-0.639018,0.639018,0.973815,-23.62893,13.07393)" />
      <path
         id="path581"
         d="M 28.5938,29.1406 C 28.5938,32.0299 27.1588,34.3749 25.3906,34.3749 C 23.6225,34.3749 22.1875,32.0299 22.1875,29.1406 C 22.1875,26.2512 23.6225,23.9062 25.3906,23.9062 C 27.1588,23.9062 28.5938,26.2512 28.5938,29.1406 z"
         style="font-size:12px;fill-rule:evenodd;stroke-width:1pt"
         transform="matrix(1.710329,-8.44919e-2,8.449188e-2,1.710329,-10.51886,-31.204)" />
      <path
         id="path580"
         d="M 28.5938,29.1406 C 28.5938,32.0299 27.1588,34.3749 25.3906,34.3749 C 23.6225,34.3749 22.1875,32.0299 22.1875,29.1406 C 22.1875,26.2512 23.6225,23.9062 25.3906,23.9062 C 27.1588,23.9062 28.5938,26.2512 28.5938,29.1406 z"
         style="font-size:12px;fill:#2aaf18;fill-rule:evenodd;stroke-width:1pt"
         transform="matrix(1.163338,-5.747005e-2,5.747005e-2,1.163338,4.157015,-15.95047)" />
      <path
         id="path579"
         d="M 28.5938,29.1406 C 28.5938,32.0299 27.1588,34.3749 25.3906,34.3749 C 23.6225,34.3749 22.1875,32.0299 22.1875,29.1406 C 22.1875,26.2512 23.6225,23.9062 25.3906,23.9062 C 27.1588,23.9062 28.5938,26.2512 28.5938,29.1406 z"
         style="font-size:12px;fill-rule:evenodd;stroke-width:1pt"
         transform="matrix(2.056255,0.991635,-0.991636,2.056254,33.12909,-73.51795)" />
      <path
         id="path578"
         d="M 28.5938,29.1406 C 28.5938,32.0299 27.1588,34.3749 25.3906,34.3749 C 23.6225,34.3749 22.1875,32.0299 22.1875,29.1406 C 22.1875,26.2512 23.6225,23.9062 25.3906,23.9062 C 27.1588,23.9062 28.5938,26.2512 28.5938,29.1406 z"
         style="font-size:12px;fill:#2aaf18;fill-rule:evenodd;stroke-width:1pt"
         transform="matrix(1.549889,0.747436,-0.747436,1.549887,38.87003,-52.56182)" />
      <path
         transform="matrix(1.164757,0,0,1.164757,-12.64071,-7.544346)"
         sodipodi:nodetypes="ccccc"
         id="path584"
         d="M 58.9063,24.2187 C 58.9063,24.2187 56.0938,19.9999 57.8126,17.6562 C 59.5313,15.3124 61.7188,15.9374 61.7188,15.9374 C 58.125,17.9687 57.9688,18.9062 59.6876,21.0938 C 60.1563,23.9062 58.9063,24.5312 58.9063,24.2187 z"
         style="font-size:12px;fill-rule:evenodd;stroke-width:1pt" />
      <path
         id="path585"
         d="M 28.5938,29.1406 C 28.5938,32.0299 27.1588,34.3749 25.3906,34.3749 C 23.6225,34.3749 22.1875,32.0299 22.1875,29.1406 C 22.1875,26.2512 23.6225,23.9062 25.3906,23.9062 C 27.1588,23.9062 28.5938,26.2512 28.5938,29.1406 z"
         style="font-size:12px;fill-rule:evenodd;stroke-width:1pt"
         transform="matrix(-2.447984e-2,1.881981,1.881981,2.447849e-2,-43.29723,-8.474951)" />
      <path
         id="path586"
         d="M 28.5938,29.1406 C 28.5938,32.0299 27.1588,34.3749 25.3906,34.3749 C 23.6225,34.3749 22.1875,32.0299 22.1875,29.1406 C 22.1875,26.2512 23.6225,23.9062 25.3906,23.9062 C 27.1588,23.9062 28.5938,26.2512 28.5938,29.1406 z"
         style="font-size:12px;fill:#2aaf18;fill-rule:evenodd;stroke-width:1pt"
         transform="matrix(-1.807543e-2,1.38947,1.389471,1.807398e-2,-29.10785,4.2169)" />
      <path
         transform="matrix(-0.419572,0.841862,0.841862,0.419572,21.98523,-16.79764)"
         sodipodi:nodetypes="ccccc"
         id="path587"
         d="M 58.9063,24.2187 C 58.9063,24.2187 56.0938,19.9999 57.8126,17.6562 C 59.5313,15.3124 61.7188,15.9374 61.7188,15.9374 C 58.125,17.9687 57.9688,18.9062 59.6876,21.0938 C 60.1563,23.9062 58.9063,24.5312 58.9063,24.2187 z"
         style="font-size:12px;fill-rule:evenodd;stroke-width:1pt" />
      <path
         transform="matrix(1.164757,0,0,1.164757,-12.64071,-7.544346)"
         id="path593"
         d="M 60.9376,10.3124 C 60.9376,10.3124 55.6251,12.6562 55.6251,16.5624 C 55.6251,20.4687 56.7188,13.5937 60.9376,10.3124 z"
         style="font-size:12px;fill:url(#linearGradient2671);fill-rule:evenodd;stroke-width:1pt" />
      <path
         transform="matrix(1.164757,0,0,1.164757,-9.203198,-7.856855)"
         id="path595"
         d="M 21.875,40.3125 C 21.875,40.3125 14.375,37.9687 12.8125,40.1562 C 11.25,42.3437 13.4375,33.7499 21.875,40.3125 z"
         style="font-size:12px;fill:url(#linearGradient2673);fill-rule:evenodd;stroke-width:1pt" />
      <path
         transform="translate(-0.3125,0)"
         id="path628"
         d="M 35.3125,11.5624 C 35.3125,11.5624 32.1875,14.3749 33.4375,17.8124 C 34.6875,21.2499 33.4375,13.7499 35.3125,11.5624 z"
         style="fill:url(#linearGradient2675);fill-opacity:1;fill-rule:evenodd;stroke:none;stroke-width:1pt;stroke-linecap:butt;stroke-linejoin:miter;stroke-opacity:1" />
      <path
         transform="translate(-0.3125,0)"
         id="path630"
         d="M 17.1875,20.9374 C 17.1875,20.9374 15.9375,24.6874 18.75,27.1874 C 21.5625,29.6874 17.8125,24.0624 17.1875,20.9374 z"
         style="fill:url(#linearGradient2677);fill-opacity:1;fill-rule:evenodd;stroke:none;stroke-width:1pt;stroke-linecap:butt;stroke-linejoin:miter;stroke-opacity:1" />
    </g>
  </g>
  <g
     id="g829"
     transform="matrix(0.4125796,-0.6471922,0.6471922,0.4125796,-21.785227,54.920258)">
    <defs
       id="defs573" />
    <sodipodi:namedview
       id="namedview838" />
    <path
       style="fill:#000000;fill-opacity:0.30275197;fill-rule:evenodd;stroke:none;stroke-width:1pt;stroke-linecap:butt;stroke-linejoin:miter;stroke-opacity:1"
       d="M 1.25,73.9062 L 31.7187,41.8749 C 35.3646,40.8853 38.2292,39.8957 39.6876,41.7187 L 53.5938,27.9686 L 54.0626,15.6249 L 73.5938,3.12489 L 86.4064,16.0937 C 85.7814,17.4999 75.0001,36.0936 74.2188,37.1874 C 73.2813,37.0312 64.8438,37.6562 63.2813,37.6562 C 62.0313,37.3437 51.2501,49.2187 50.6251,50.4687 C 52.0834,52.1354 51.9793,55.2083 51.0938,57.3437 L 20.1562,89.6875 C 10.3646,93.3333 -0.208344,88.2291 1.25,73.9062 z"
       id="path613"
       sodipodi:nodetypes="ccccccccccccc"
       transform="matrix(0.949606,0,0,0.949606,3.089142,0.15748)" />
    <path
       style="fill:#000000;fill-opacity:1;fill-rule:evenodd;stroke:none;stroke-width:1pt;stroke-linecap:butt;stroke-linejoin:miter;stroke-opacity:1"
       d="M 1.25,73.9062 L 31.7187,41.8749 C 35.3646,40.8853 38.2292,39.8957 39.6876,41.7187 L 53.5938,27.9686 L 54.0626,15.6249 L 73.5938,3.12489 L 86.4064,16.0937 C 85.7814,17.4999 75.0001,36.0936 74.2188,37.1874 C 73.2813,37.0312 64.8438,37.6562 63.2813,37.6562 C 62.0313,37.3437 51.2501,49.2187 50.6251,50.4687 C 52.0834,52.1354 51.9793,55.2083 51.0938,57.3437 L 20.1562,89.6875 C 10.3646,93.3333 -0.208344,88.2291 1.25,73.9062 z"
       id="path612"
       sodipodi:nodetypes="ccccccccccccc"
       transform="matrix(0.949606,0,0,0.949606,-4.456341e-3,-2.494173)" />
    <path
       sodipodi:type="arc"
       style="fill:#ff933d;fill-opacity:1;fill-rule:evenodd;stroke:none;stroke-width:1pt;stroke-linecap:butt;stroke-linejoin:miter;stroke-opacity:1"
       id="path596"
       d="M 22.980988,78.619995 A 7.1815591,6.2976718 0 1 1 8.6178699,78.619995 A 7.1815591,6.2976718 0 1 1 22.980988,78.619995 z"
       sodipodi:cx="15.799429"
       sodipodi:cy="78.619995"
       sodipodi:rx="7.1815591"
       sodipodi:ry="6.2976718"
       transform="matrix(0.877883,0.215653,2.038332e-2,0.922358,-3.265319,-3.362741)" />
    <path
       style="fill:#c2c2c2;fill-opacity:1;fill-rule:evenodd;stroke:none;stroke-width:1pt;stroke-linecap:butt;stroke-linejoin:miter;stroke-opacity:1"
       d="M 39.5538,47.3526 C 39.3329,47.3526 57.6735,29.4539 57.6735,29.4539 L 58.1154,18.6263 L 72.6995,8.46167 L 81.5384,17.0796 L 71.5946,33.2104 L 61.6509,32.7685 L 43.7523,51.772 L 39.5538,47.3526 z"
       id="path598"
       sodipodi:nodetypes="ccccccccc"
       transform="matrix(0.949606,0,0,0.949606,-4.456341e-3,-2.494173)" />
    <path
       style="fill:#ffffff;fill-opacity:0.98165134;fill-rule:evenodd;stroke:none;stroke-width:1pt;stroke-linecap:butt;stroke-linejoin:miter;stroke-opacity:1"
       d="M 41.7635,47.5735 C 42.4265,47.1316 58.3364,30.7797 58.3364,30.7797 L 59.4412,32.3265 L 43.3103,48.8994 L 41.7635,47.5735 z"
       id="path607"
       transform="matrix(0.949606,0,0,0.949606,-4.456341e-3,-2.494173)" />
    <path
       style="fill:#e32116;fill-opacity:1;fill-rule:evenodd;stroke:none;stroke-width:1pt;stroke-linecap:butt;stroke-linejoin:miter;stroke-opacity:1"
       d="M 29.6875,50.3125 C 29.6875,50.4687 33.75,46.25 35,45.4688 C 40,43.125 45.9375,49.8437 46.4063,54.375 C 45.4688,55.1562 41.4063,60.1562 41.4063,60.1562 C 38.9063,53.9062 35.625,51.25 29.6875,50.3125 z"
       id="path597"
       sodipodi:nodetypes="ccccc"
       transform="matrix(0.949606,0,0,0.949606,-4.456341e-3,-2.494173)" />
    <path
       style="fill:#ffc93f;fill-opacity:1;fill-rule:evenodd;stroke:none;stroke-width:1pt;stroke-linecap:butt;stroke-linejoin:miter;stroke-opacity:1"
       d="M 8.61787,72.7643 C 15.6889,72.5433 19.2245,79.3934 18.7825,83.8128 C 21.4342,80.7192 41.5426,59.9479 41.5426,59.9479 C 41.6899,53.0242 35.65,48.0892 29.3891,50.4462 L 8.61787,72.7643 z"
       id="path575"
       sodipodi:nodetypes="ccccc"
       transform="matrix(0.949606,0,0,0.949606,-4.456341e-3,-2.494173)" />
    <path
       style="fill:#b01911;fill-opacity:1;fill-rule:evenodd;stroke:none;stroke-width:1pt;stroke-linecap:butt;stroke-linejoin:miter;stroke-opacity:1"
       d="M 37.7529,51.3069 C 42.7248,48.701 40.0477,48.4597 41.2977,47.6785 C 41.5468,45.3347 45.9375,49.8437 46.4063,54.375 C 45.4688,55.1562 41.4063,60.1562 41.4063,60.1562 C 38.9063,53.9062 39.492,53.4597 37.7529,51.3069 z"
       id="path610"
       sodipodi:nodetypes="ccccc"
       transform="matrix(0.949606,0,0,0.949606,-4.456341e-3,-2.494173)" />
    <path
       style="fill:url(#linearGradient603);fill-opacity:1;fill-rule:evenodd;stroke:none;stroke-width:1pt;stroke-linecap:butt;stroke-linejoin:miter;stroke-opacity:1"
       d="M 60.1041,19.9522 L 70.0478,30.3378 C 70.0478,30.3378 79.5496,16.8586 79.3286,16.8586 C 79.1077,16.8586 72.6995,10.8923 72.6995,10.8923 L 60.1041,19.9522 z"
       id="path599"
       transform="matrix(0.949606,0,0,0.949606,-4.456341e-3,-2.494173)" />
    <path
       style="fill:#ff933d;fill-opacity:1;fill-rule:evenodd;stroke:none;stroke-width:1pt;stroke-linecap:butt;stroke-linejoin:miter;stroke-opacity:1"
       d="M 13.9212,76.0789 C 17.4567,77.6256 19.2245,79.3934 18.7825,83.8128 C 21.4342,80.7192 41.5426,59.9479 41.5426,59.9479 C 41.6899,55.2339 38.7436,52.0666 37.1231,52.4349 L 13.9212,76.0789 z"
       id="path608"
       sodipodi:nodetypes="ccccc"
       transform="matrix(0.949606,0,0,0.949606,-4.456341e-3,-2.494173)" />
    <path
       style="fill:#ffffff;fill-opacity:1;fill-rule:evenodd;stroke:none;stroke-width:1pt;stroke-linecap:butt;stroke-linejoin:miter;stroke-opacity:1"
       d="M 31.3779,50.8881 L 11.9324,70.7755 L 15.468,72.7643 L 15.6889,70.1126 L 32.9247,51.772 L 31.3779,50.8881 z"
       id="path609"
       transform="matrix(0.949606,0,0,0.949606,-4.456341e-3,-2.494173)" />
    <path
       style="fill:#ffffff;fill-opacity:1;fill-rule:evenodd;stroke:none;stroke-width:1pt;stroke-linecap:butt;stroke-linejoin:miter;stroke-opacity:1"
       d="M 36.5707,46.2477 L 32.8142,49.0099 C 32.8142,49.0099 34.9134,49.6728 35.0239,49.5623 C 35.1344,49.4518 38.5595,46.2477 38.5595,46.2477 C 38.5595,46.2477 36.3498,46.5792 36.5707,46.2477 z"
       id="path611"
       transform="matrix(0.949606,0,0,0.949606,-4.456341e-3,-2.494173)" />
  </g>
</svg>
