<?xml version="1.0" encoding="UTF-8" standalone="no"?>
<!-- Created with Sodipodi ("http://www.sodipodi.com/") -->
<svg
   xmlns:dc="http://purl.org/dc/elements/1.1/"
   xmlns:cc="http://web.resource.org/cc/"
   xmlns:rdf="http://www.w3.org/1999/02/22-rdf-syntax-ns#"
   xmlns:svg="http://www.w3.org/2000/svg"
   xmlns="http://www.w3.org/2000/svg"
   xmlns:xlink="http://www.w3.org/1999/xlink"
   xmlns:sodipodi="http://sodipodi.sourceforge.net/DTD/sodipodi-0.dtd"
   xmlns:inkscape="http://www.inkscape.org/namespaces/inkscape"
   id="svg704"
   sodipodi:version="0.32"
   width="72pt"
   height="72pt"
   sodipodi:docbase="/home/tweenk/GNUtoon/apps"
   sodipodi:docname="gksu-root-terminal.svg"
   inkscape:version="0.45.1"
   inkscape:output_extension="org.inkscape.output.svg.inkscape">
  <metadata
     id="metadata27">
    <rdf:RDF>
      <cc:Work
         rdf:about="">
        <dc:format>image/svg+xml</dc:format>
        <dc:type
           rdf:resource="http://purl.org/dc/dcmitype/StillImage" />
      </cc:Work>
    </rdf:RDF>
  </metadata>
  <defs
     id="defs706">
    <linearGradient
       id="linearGradient724">
      <stop
         style="stop-color:#ffffff;stop-opacity:0.490196;"
         offset="0.000000"
         id="stop725" />
      <stop
         style="stop-color:#ffffff;stop-opacity:0.176471;"
         offset="1.000000"
         id="stop726" />
    </linearGradient>
    <linearGradient
       id="linearGradient718">
      <stop
         style="stop-color:#e3e1cf;stop-opacity:1;"
         offset="0.000000"
         id="stop719" />
      <stop
         style="stop-color:#ffffff;stop-opacity:1;"
         offset="1.000000"
         id="stop720" />
    </linearGradient>
    <linearGradient
       xlink:href="#linearGradient718"
       id="linearGradient721"
       x1="45.4330635"
       y1="41.9262352"
       x2="24.0375099"
       y2="27.2048512"
       gradientUnits="userSpaceOnUse"
       spreadMethod="pad"
       gradientTransform="scale(1.033999,0.967119)" />
    <linearGradient
       xlink:href="#linearGradient724"
       id="linearGradient723"
       x1="40.2607956"
       y1="39.8445053"
       x2="37.3197212"
       y2="68.6665039"
       gradientUnits="userSpaceOnUse"
       spreadMethod="pad"
       gradientTransform="scale(1.185464,0.843551)" />
  </defs>
  <sodipodi:namedview
     id="base"
     inkscape:zoom="3.197694"
     inkscape:cx="100.27731"
     inkscape:cy="32.322083"
     inkscape:window-width="795"
     inkscape:window-height="623"
     inkscape:window-x="114"
     inkscape:window-y="72"
     inkscape:current-layer="svg704" />
  <path
     style="fill:#000000;fill-rule:evenodd;stroke:none;stroke-opacity:1;stroke-width:1pt;stroke-linejoin:miter;stroke-linecap:butt;fill-opacity:0.3;"
     d="M 12.54589 66.08518 C 10.53906 63.2203 0.804919 39.68818 9.149907 5.573048 C 43.46938 -1.468831 73.21238 11.65689 88.65365 21.52739 C 91.80462 28.06533 86.42437 77.18133 74.9013 81.99402 C 67.17384 84.51389 26.73851 83.81925 12.54589 66.08518 z "
     id="path743"
     sodipodi:nodetypes="ccccc" />
  <path
     style="fill:#211301;fill-rule:evenodd;stroke:none;stroke-opacity:1;stroke-width:1pt;stroke-linejoin:miter;stroke-linecap:butt;fill-opacity:1;"
     d="M 7.684535 66.32826 C 5.677707 63.46338 -4.056439 39.93127 4.288549 5.81613 C 38.60802 -1.225749 68.35102 11.89997 83.79229 21.77048 C 86.94326 28.30842 81.56302 77.42441 70.03994 82.2371 C 62.31248 84.75697 21.87715 84.06234 7.684535 66.32826 z "
     id="path715"
     sodipodi:nodetypes="ccccc" />
  <path
     style="fill:url(#linearGradient721);fill-rule:evenodd;stroke:none;stroke-opacity:1;stroke-width:1pt;stroke-linejoin:miter;stroke-linecap:butt;fill-opacity:1;"
     d="M 12.30597 64.44791 C 10.67139 61.34246 1.518372 43.85351 7.729434 10.18333 C 42.87063 3.808869 66.24359 17.37499 80.79048 25.54737 C 82.42495 31.43159 77.03113 75.56235 68.20496 78.17751 C 60.68637 80.62928 23.09341 79.1582 12.30597 64.44791 z "
     id="path713"
     sodipodi:nodetypes="ccccc" />
  <path
     style="fill:#b5a794;fill-rule:evenodd;stroke:none;stroke-opacity:1;stroke-width:1pt;stroke-linejoin:miter;stroke-linecap:butt;fill-opacity:1;"
     d="M 16.06521 20.80745 L 13.45005 21.62463 C 13.12316 24.0764 9.037015 44.01701 12.95976 52.84318 C 17.5363 60.52517 19.66106 61.99625 19.17077 61.17896 C 13.61345 51.8625 11.81557 37.6425 16.06521 20.80745 z "
     id="path717"
     sodipodi:nodetypes="ccccc" />
  <path
     style="fill:#000000;fill-rule:evenodd;stroke:none;stroke-opacity:1;stroke-width:1pt;stroke-linejoin:miter;stroke-linecap:butt;fill-opacity:1;"
     d="M 15.82546 20.41306 C 15.82546 20.41306 9.216381 44.47717 17.68962 59.05103 C 24.12929 68.03272 44.9734 75.15024 62.0894 70.0663 C 65.30929 65.99914 72.59611 43.96872 65.81763 31.76726 C 63.2756 27.53058 32.60253 14.48184 15.82546 20.41306 z "
     id="path711"
     sodipodi:nodetypes="ccccc" />
  <path
     style="fill:url(#linearGradient723);fill-rule:evenodd;stroke:none;stroke-opacity:1;stroke-width:1pt;stroke-linejoin:miter;stroke-linecap:butt;fill-opacity:1;"
     d="M 14.59424 44.6708 C 14.59424 44.6708 28.16034 26.20117 41.07265 37.96939 C 46.30308 55.45824 65.4264 59.54448 65.4264 59.54448 L 61.66716 68.86105 C 47.44716 73.92798 20.15146 63.46723 18.84388 59.54448 C 17.5363 55.62174 18.51698 61.66935 14.59424 44.6708 z "
     id="path722"
     sodipodi:nodetypes="cccccc" />
  <path
     style="fill:#b5a794;fill-rule:evenodd;stroke:none;stroke-opacity:1;stroke-width:1pt;stroke-linejoin:miter;stroke-linecap:butt;fill-opacity:1;"
     d="M 81.11737 25.87427 C 81.11737 25.87427 75.72365 26.03777 75.56026 26.03777 C 75.39665 26.03777 76.37744 39.93077 75.72365 44.9977 C 75.06986 50.06452 73.43539 61.99625 72.4547 65.1017 C 71.47401 68.20726 65.75329 78.17751 65.263 78.8313 C 64.77261 79.48509 66.57059 78.6678 69.34914 77.85062 C 76.86773 69.18784 80.62708 48.43015 81.11737 25.87427 z "
     id="path716"
     sodipodi:nodetypes="ccccccc" />
  <path
     style="fill:#211301;fill-rule:evenodd;stroke:none;stroke-opacity:1;stroke-width:1pt;stroke-linejoin:miter;stroke-linecap:butt;fill-opacity:1;"
     d="M 64.93611 78.50441 C 64.93611 78.50441 77.68502 68.53415 74.41607 26.69156 C 71.63741 23.9129 67.38777 20.80745 67.38777 20.80745 C 67.38777 20.80745 75.56015 24.73019 76.05055 26.03777 C 76.86773 27.83564 77.35802 71.14932 64.93611 78.50441 z "
     id="path712"
     sodipodi:nodetypes="ccccc" />
  <g
     id="g2414"
     transform="matrix(1.9017049,0,0,1.9017049,-42.352642,-77.840497)">
    <path
       transform="translate(42.02539,57.518165)"
       d="M 13.6875,1.0625 C 11.815211,1.0610059 10.071976,1.5951981 8.75,2.6875 C 7.4280237,3.7798019 6.6065843,5.4588227 6.59375,7.375 L 6.59375,10.84375 C 6.1890138,11.06895 5.7303381,11.237376 5.40625,11.5625 C 4.9406638,12.029574 4.6599583,12.676237 4.53125,13.375 C 4.5252509,13.407569 4.5049203,13.435845 4.5,13.46875 C 4.4890709,13.489323 4.478651,13.510163 4.46875,13.53125 C 4.4075765,13.690892 4.3758142,13.860291 4.375,14.03125 L 4.40625,23.78125 C 4.4033746,23.833294 4.4033746,23.885456 4.40625,23.9375 C 4.5993342,25.649465 5.277791,27.098984 6.4375,28.03125 C 7.597209,28.963516 9.0786341,29.345906 10.71875,29.5 C 10.760396,29.50184 10.802104,29.50184 10.84375,29.5 L 19.9375,29.5 C 21.623605,29.532908 23.078778,28.936991 24.03125,27.90625 C 24.983722,26.875509 25.377507,25.51897 25.375,24.15625 L 25.375,16.46875 L 25.375,16.25 C 25.387162,16.165603 25.40625,16.121589 25.40625,15.96875 L 25.40625,13.875 C 25.40625,12.537489 24.516057,11.636668 23.4375,10.96875 L 23.4375,7.5 C 23.437501,3.7433833 20.031138,1.097535 16.4375,1.0625 L 13.6875,1.0625 z M 13.65625,7.21875 L 16.375,7.21875 C 17.22378,7.2187501 17.28125,7.9430555 17.28125,7.5 L 17.28125,9.8125 L 12.75,9.8125 L 12.75,7.375 C 12.75,7.8179961 12.727893,7.2187501 13.65625,7.21875 z "
       id="path3240"
       style="font-size:12px;fill:#000000;fill-rule:evenodd"
       inkscape:original="M 13.6875 2.46875 C 10.481183 2.4661913 8.0206471 4.2923732 8 7.375 L 8 11.625 C 6.690965 12.088687 5.8125 12.91445 5.8125 13.875 L 5.8125 14.03125 L 5.78125 14.03125 L 5.8125 23.78125 C 6.1416031 26.699215 7.8611266 27.813523 10.84375 28.09375 L 19.9375 28.09375 C 22.663239 28.146948 23.972703 26.304865 23.96875 24.15625 L 23.96875 16.25 C 23.982136 16.159331 24 16.065706 24 15.96875 L 24 13.875 C 24 12.965512 23.22541 12.163533 22.03125 11.6875 L 22.03125 7.5 C 22.031251 4.6228379 19.350915 2.4971534 16.4375 2.46875 L 13.6875 2.46875 z M 13.65625 5.8125 L 16.375 5.8125 C 17.858289 5.8125001 18.6875 6.8094536 18.6875 7.5 L 18.6875 11.21875 L 11.34375 11.21875 L 11.34375 7.375 C 11.34375 6.6844342 12.172955 5.8125001 13.65625 5.8125 z "
       inkscape:radius="1.4160534"
       sodipodi:type="inkscape:offset" />
    <path
       style="font-size:12px;fill:#ff933d;fill-opacity:1;fill-rule:evenodd"
       d="M 47.813872,71.549415 L 47.83789,81.299415 C 48.166993,84.21738 49.886517,85.331688 52.86914,85.611915 L 61.96289,85.611915 C 64.688629,85.665113 66.012555,83.82303 66.008602,81.674415 L 66.001371,73.454632 L 47.813872,71.549415 z "
       id="path3177"
       sodipodi:nodetypes="ccccccc" />
    <path
       id="path3179"
       style="font-size:12px;fill:#ffd056;fill-opacity:1;fill-rule:evenodd"
       d="M 52.389125,68.751172 C 49.869244,68.751172 47.840605,69.931563 47.840605,71.397791 L 47.823522,73.069329 C 47.823522,74.53555 49.224061,75.71594 51.743936,75.71594 L 61.964948,75.71594 C 64.484823,75.71594 66.034663,74.967558 66.034663,73.501336 L 66.034663,71.397791 C 66.034663,69.931563 64.006025,68.751172 61.48615,68.751172 L 52.389125,68.751172 z "
       sodipodi:nodetypes="ccccccccc" />
    <path
       sodipodi:nodetypes="ccsccccccsccccc"
       id="path3187"
       d="M 50.02539,64.893165 L 50.02539,71.361915 C 50.02539,72.285266 50.773914,73.03379 51.697265,73.03379 C 52.620616,73.03379 53.36914,72.285266 53.36914,71.361915 L 53.36914,64.893165 C 53.36914,64.202599 54.198345,63.330665 55.68164,63.330665 L 58.40039,63.339962 C 59.883679,63.339962 60.71289,64.327618 60.71289,65.018165 L 60.71289,71.486915 C 60.71289,72.410266 61.461414,73.15879 62.384765,73.15879 C 63.308116,73.15879 64.05664,72.410266 64.05664,71.486915 L 64.05664,65.018165 C 64.056641,62.141003 61.376305,60.024616 58.46289,59.996212 L 55.71289,59.986915 C 52.506573,59.984356 50.046037,61.810538 50.02539,64.893165 z "
       style="font-size:12px;fill:#955801;fill-opacity:1;fill-rule:evenodd;stroke:none;stroke-width:3.33820772;stroke-linecap:round;stroke-opacity:1" />
    <path
       id="path3181"
       d="M 57.49414,76.830665 C 56.098532,76.830665 54.96289,77.921884 54.96289,79.268165 C 54.96289,80.143252 55.463776,80.900694 56.18164,81.330665 C 56.169777,81.396952 56.15039,81.447322 56.15039,81.518165 L 56.15039,83.424415 C 56.15039,83.945306 56.48041,84.361915 56.90039,84.361915 L 58.40039,84.361915 C 58.82037,84.361914 59.18164,83.945306 59.18164,83.424415 L 59.18164,81.518165 C 59.18164,81.372312 59.135281,81.266117 59.08789,81.143165 C 59.649498,80.696064 60.02539,80.025451 60.02539,79.268165 C 60.02539,77.921884 58.889742,76.830665 57.49414,76.830665 z "
       style="font-size:12px;fill:#593a28;fill-rule:evenodd" />
    <path
       style="font-size:12px;fill:#b01911;fill-rule:evenodd"
       d="M 57.02539,76.986915 C 55.894204,76.986915 54.96289,78.023467 54.96289,79.299415 C 54.96289,80.136511 55.371986,80.86289 55.96289,81.268165 C 55.953096,81.331537 55.93164,81.387885 55.93164,81.455665 L 55.93164,83.236915 C 55.93164,83.7306 56.184994,84.111915 56.52539,84.111915 L 57.77539,84.111915 C 58.115793,84.111915 58.36914,83.730599 58.36914,83.236915 L 58.36914,81.455665 C 58.36914,81.315945 58.345834,81.198139 58.30664,81.080665 C 58.761837,80.65692 59.056641,80.017143 59.05664,79.299415 C 59.05664,78.023467 58.156562,76.986915 57.02539,76.986915 z "
       id="path3185" />
    <path
       sodipodi:nodetypes="cccscccccccssccccc"
       id="path3189"
       d="M 55.21289,61.018165 C 52.792717,61.018165 50.71289,62.624362 50.71289,64.736915 L 50.71289,71.236915 C 50.71289,71.504428 50.929752,71.72129 51.197265,71.72129 C 51.464778,71.72129 51.68164,71.504428 51.68164,71.236915 L 51.68164,64.736915 C 51.68164,63.269327 53.197675,62.001142 55.18164,61.986915 L 55.21289,61.986915 L 57.90039,62.010933 C 59.901051,62.010933 61.431641,63.417327 61.43164,64.893165 L 61.43164,71.361915 C 61.386161,71.555435 61.464279,71.75701 61.628289,71.869345 C 61.792298,71.98168 62.008482,71.98168 62.172491,71.869345 C 62.336501,71.75701 62.414619,71.555435 62.36914,71.361915 L 62.36914,64.893165 C 62.369141,62.789969 60.337804,61.056332 57.93164,61.042183 L 57.90039,61.042183 L 55.21289,61.018165 z "
       style="font-size:12px;fill:#e9a93d;fill-opacity:1;fill-rule:evenodd;stroke:none;stroke-width:0.96294451;stroke-linecap:round;stroke-opacity:1" />
  </g>
</svg>
