<?xml version="1.0" encoding="UTF-8" standalone="no"?>
<!-- Created with Sodipodi ("http://www.sodipodi.com/") -->
<svg
   xmlns:dc="http://purl.org/dc/elements/1.1/"
   xmlns:cc="http://web.resource.org/cc/"
   xmlns:rdf="http://www.w3.org/1999/02/22-rdf-syntax-ns#"
   xmlns:svg="http://www.w3.org/2000/svg"
   xmlns="http://www.w3.org/2000/svg"
   xmlns:xlink="http://www.w3.org/1999/xlink"
   xmlns:sodipodi="http://sodipodi.sourceforge.net/DTD/sodipodi-0.dtd"
   xmlns:inkscape="http://www.inkscape.org/namespaces/inkscape"
   id="svg604"
   sodipodi:version="0.32"
   width="72pt"
   height="72pt"
   sodipodi:docbase="/home/tweenk/dev/GartoonRedux/scalable/apps"
   sodipodi:docname="mousepad.svg"
   inkscape:version="0.45.1"
   inkscape:output_extension="org.inkscape.output.svg.inkscape">
  <metadata
     id="metadata45">
    <rdf:RDF>
      <cc:Work
         rdf:about="">
        <dc:format>image/svg+xml</dc:format>
        <dc:type
           rdf:resource="http://purl.org/dc/dcmitype/StillImage" />
      </cc:Work>
    </rdf:RDF>
  </metadata>
  <defs
     id="defs606">
    <linearGradient
       id="linearGradient895">
      <stop
         style="stop-color:#437caf;stop-opacity:1;"
         offset="0"
         id="stop896" />
      <stop
         style="stop-color:#9bb9e3;stop-opacity:1;"
         offset="1"
         id="stop897" />
    </linearGradient>
    <linearGradient
       xlink:href="#linearGradient895"
       id="linearGradient898"
       x1="50.5546532"
       y1="68.4698563"
       x2="51.8096619"
       y2="18.5831013"
       gradientUnits="userSpaceOnUse"
       gradientTransform="matrix(0.902492,0,0,1.108043,30.213432,-15.334006)" />
    <linearGradient
       id="linearGradient612">
      <stop
         style="stop-color:#7fa8e3;stop-opacity:0.741176;"
         offset="0.000000"
         id="stop613" />
      <stop
         style="stop-color:#ffffff;stop-opacity:0;"
         offset="1.000000"
         id="stop614" />
    </linearGradient>
    <linearGradient
       xlink:href="#linearGradient612"
       id="linearGradient615"
       x1="50.6438866"
       y1="5.36792946"
       x2="35.7520943"
       y2="68.0443573"
       gradientUnits="userSpaceOnUse"
       spreadMethod="pad" />
    <linearGradient
       inkscape:collect="always"
       xlink:href="#linearGradient895"
       id="linearGradient2491"
       gradientUnits="userSpaceOnUse"
       gradientTransform="matrix(0.902492,0,0,1.108043,30.213432,-15.334006)"
       x1="50.5546532"
       y1="68.4698563"
       x2="51.8096619"
       y2="18.5831013" />
  </defs>
  <sodipodi:namedview
     id="base"
     inkscape:zoom="4.5222222"
     inkscape:cx="45"
     inkscape:cy="45"
     inkscape:window-width="795"
     inkscape:window-height="619"
     inkscape:window-x="0"
     inkscape:window-y="1"
     inkscape:current-layer="svg604" />
  <path
     style="fill:#000000;fill-rule:evenodd;stroke:none;stroke-opacity:1;stroke-width:1pt;stroke-linejoin:miter;stroke-linecap:butt;fill-opacity:0.301471;"
     d="M 12.8163 74.753 C 10.3856 73.6481 7.07107 70.1126 8.83884 65.2512 C 9.72267 59.948 25.6326 13.1021 29.1682 10.8924 C 31.3778 8.90368 34.582 8.13026 39.1119 9.34561 C 42.8684 10.2295 76.6769 19.0684 78.6656 20.8361 C 80.6544 22.6039 82.2012 24.0402 80.6544 27.9072 C 79.5496 29.8959 66.4017 74.532 66.1808 77.4047 C 65.2969 80.4983 62.7558 84.2548 58.5573 84.0338 C 54.3589 83.8128 15.9099 75.4159 12.8163 74.753 z "
     id="path794"
     sodipodi:nodetypes="ccccccccc"
     transform="matrix(1.114903,0.000000,0.000000,1.114903,-5.305332,-3.889256)" />
  <path
     style="fill:#3d4e67;fill-rule:evenodd;stroke:none;stroke-opacity:1;stroke-width:1pt;stroke-linejoin:miter;stroke-linecap:butt;fill-opacity:1;"
     d="M 12.8163 74.753 C 10.3856 73.6481 7.07107 70.1126 8.83884 65.2512 C 9.72267 59.948 25.6326 13.1021 29.1682 10.8924 C 31.3778 8.90368 34.582 8.13026 39.1119 9.34561 C 42.8684 10.2295 76.6769 19.0684 78.6656 20.8361 C 80.6544 22.6039 82.2012 24.0402 80.6544 27.9072 C 79.5496 29.8959 66.4017 74.532 66.1808 77.4047 C 65.2969 80.4983 62.7558 84.2548 58.5573 84.0338 C 54.3589 83.8128 15.9099 75.4159 12.8163 74.753 z "
     id="path609"
     sodipodi:nodetypes="ccccccccc"
     transform="matrix(1.114903,0.000000,0.000000,1.114903,-8.162471,-8.460684)" />
  <path
     style="fill:#ffffff;fill-rule:evenodd;stroke:none;stroke-opacity:1;stroke-width:1pt;stroke-linejoin:miter;stroke-linecap:butt;fill-opacity:1;"
     d="M 17.8987 70.9965 C 15.3576 70.3336 11.7114 69.6706 13.0373 65.6932 C 15.468 55.9705 27.8424 18.6264 33.1456 13.986 C 34.361 12.8811 38.4489 12.4392 46.1829 14.8699 C 55.0218 17.5215 72.9204 23.4877 74.6882 24.3716 C 76.4559 25.2555 77.1189 25.2555 75.793 29.233 C 73.8043 33.2105 64.9655 67.24 62.7557 72.9852 C 61.209 77.0732 60.8775 78.9514 58.2258 78.9514 "
     id="path608"
     sodipodi:nodetypes="cccccccs"
     transform="matrix(1.114903,0.000000,0.000000,1.114903,-8.162471,-8.460684)" />
  <path
     style="fill:url(#linearGradient615);fill-rule:evenodd;stroke:none;stroke-opacity:1;stroke-width:1pt;stroke-linejoin:miter;stroke-linecap:butt;fill-opacity:1;"
     d="M 28.75 13.75 C 28.75 13.75 31.875 7.49995 39.6875 9.37495 C 47.5 11.25 78.125 19.375 77.8125 21.875 C 77.5 24.375 71.875 39.0625 71.5625 40.3125 C 71.25 41.5625 42.5 40.9375 31.5625 47.5 C 20.625 54.0625 12.5 59.6875 12.5 59.6875 C 12.5 59.6875 23.75 24.6875 28.75 13.75 z "
     id="path636"
     transform="matrix(0.946780,0.000000,0.000000,0.946780,-0.480566,0.409517)" />
  <path
     style="fill:none;fill-rule:evenodd;stroke:#42667e;stroke-opacity:1;stroke-width:1pt;stroke-linejoin:miter;stroke-linecap:butt;fill-opacity:1;"
     d="M 29.2429 15.8991 L 69.8423 26.6877 "
     id="path671"
     transform="translate(1.135645,0.851736)" />
  <path
     style="fill:none;fill-rule:evenodd;stroke:#42667e;stroke-opacity:1;stroke-width:1pt;stroke-linejoin:miter;stroke-linecap:butt;fill-opacity:1;"
     d="M 27.8233 19.306 L 67.8549 30.9464 "
     id="path672"
     transform="matrix(0.999855,-1.703691e-2,1.703691e-2,0.999855,-0.705041,5.077353)" />
  <path
     style="fill:none;fill-rule:evenodd;stroke:#42667e;stroke-opacity:1;stroke-width:1pt;stroke-linejoin:miter;stroke-linecap:butt;fill-opacity:1;"
     d="M 29.2429 15.8991 L 69.8423 26.6877 "
     id="path673"
     transform="translate(-5.394323,17.03470)" />
  <path
     style="fill:none;fill-rule:evenodd;stroke:#42667e;stroke-opacity:1;stroke-width:1pt;stroke-linejoin:miter;stroke-linecap:butt;fill-opacity:1;"
     d="M 29.2429 15.8991 L 69.8423 26.6877 "
     id="path675"
     transform="translate(-11.35647,34.06940)" />
  <path
     style="fill:none;fill-rule:evenodd;stroke:#42667e;stroke-opacity:1;stroke-width:1pt;stroke-linejoin:miter;stroke-linecap:butt;fill-opacity:1;"
     d="M 27.8233 19.306 L 67.8549 30.9464 "
     id="path676"
     transform="matrix(0.999855,-1.703691e-2,1.703691e-2,0.999855,-13.19715,38.29502)" />
  <path
     style="fill:none;fill-rule:evenodd;stroke:#42667e;stroke-opacity:1;stroke-width:1pt;stroke-linejoin:miter;stroke-linecap:butt;fill-opacity:1;"
     d="M 27.8233 19.306 L 67.8549 30.9464 "
     id="path674"
     transform="matrix(0.999855,-1.703691e-2,1.703691e-2,0.999855,-7.235008,21.26032)" />
  <path
     style="font-size:12;fill:none;fill-rule:evenodd;stroke-width:2.875;stroke:#4f4f4f;stroke-opacity:1;stroke-dasharray:none;stroke-linecap:round;"
     d="M 44.8581 15.0473 C 41.4103 15.0473 39.7476 12.4989 39.7476 8.65931 C 39.7476 4.81969 42.5459 1.70347 45.9937 1.70347 C 49.4415 1.70347 50.5362 2.83231 50.5362 6.67192 "
     id="path667"
     sodipodi:nodetypes="cccc"
     transform="matrix(0.948718,0.000000,0.000000,1.000000,4.011168,0.567827)" />
  <path
     style="font-size:12;fill:none;fill-rule:evenodd;stroke-width:0.625;stroke:#c2c2c2;stroke-opacity:1;stroke-dasharray:none;stroke-linecap:round;"
     d="M 44.8581 14.7634 C 41.4103 14.7634 39.4637 12.4989 39.4637 8.65931 C 39.4637 4.81969 42.262 0.851736 45.7098 0.851736 C 49.1576 0.851736 50.5362 2.83231 50.5362 6.67192 "
     id="path668"
     sodipodi:nodetypes="cccc"
     transform="matrix(0.948718,0.000000,0.000000,1.000000,4.011168,0.567827)" />
  <path
     style="font-size:12;fill:none;fill-rule:evenodd;stroke-width:2.875;stroke:#4f4f4f;stroke-opacity:1;stroke-dasharray:none;stroke-linecap:round;"
     d="M 44.8581 15.0473 C 41.4103 15.0473 39.7476 12.4989 39.7476 8.65931 C 39.7476 4.81969 42.5459 1.70347 45.9937 1.70347 C 49.4415 1.70347 50.5362 2.83231 50.5362 6.67192 "
     id="path669"
     sodipodi:nodetypes="cccc"
     transform="matrix(0.948718,0.000000,0.000000,1.000000,14.79981,2.555208)" />
  <path
     style="font-size:12;fill:none;fill-rule:evenodd;stroke-width:0.625;stroke:#c2c2c2;stroke-opacity:1;stroke-dasharray:none;stroke-linecap:round;"
     d="M 44.8581 14.7634 C 41.4103 14.7634 39.4637 12.4989 39.4637 8.65931 C 39.4637 4.81969 42.262 0.851736 45.7098 0.851736 C 49.1576 0.851736 50.5362 2.83231 50.5362 6.67192 "
     id="path670"
     sodipodi:nodetypes="cccc"
     transform="matrix(0.948718,0.000000,0.000000,1.000000,14.79981,2.555208)" />
  <g
     id="g2471"
     transform="matrix(0.737233,0,0,0.737233,4.0097168,35.852766)">
    <path
       id="path894"
       d="M 113.72034,64.264784 C 113.72034,67.875564 96.290672,70.802684 74.790072,70.802684 C 53.289482,70.802684 35.85981,67.875564 35.85981,64.264784 C 35.85981,60.653994 53.289482,57.726874 74.790072,57.726874 C 96.290672,57.726874 113.72034,60.653994 113.72034,64.264784 z "
       style="font-size:12px;fill:#000000;fill-opacity:0.32289997;fill-rule:evenodd;stroke-width:1" />
    <path
       sodipodi:nodetypes="cccccccccccccccc"
       id="path923"
       d="M 43.440272,61.726694 C 40.852412,58.276214 37.68947,50.225094 39.989792,37.573344 C 42.290112,24.921574 46.890752,13.995074 46.890752,13.995074 C 46.890752,13.995074 38.264551,16.295384 35.676691,5.3688742 C 35.389151,1.0557742 33.951452,-5.8451848 39.989793,-10.445824 C 45.740582,-13.608771 52.929082,-13.608761 55.804482,-9.2956638 C 56.954642,-6.9953448 58.104802,-5.8451948 58.104802,-5.8451948 C 58.104802,-5.8451948 64.718222,-13.608771 72.481802,-12.746154 C 78.232602,-14.183846 83.983402,-10.733367 85.421102,-6.1327268 C 86.571262,-8.1454948 88.871572,-14.471398 95.484992,-14.183856 C 102.09841,-13.896313 106.12397,-10.158292 107.27413,-7.8579718 C 108.42429,-5.5576518 110.7246,2.7810142 106.69906,8.5318042 C 103.53612,11.694744 100.37318,13.132444 97.210242,12.844904 C 99.510562,16.007844 104.39874,30.672384 105.54889,37.285804 C 108.99936,53.100504 105.26135,61.439154 100.66071,64.889634 C 96.060062,68.340114 51.778922,73.803374 43.440272,61.726694 z "
       style="fill:#000000;fill-opacity:1;fill-rule:evenodd;stroke:none;stroke-width:1pt;stroke-linecap:butt;stroke-linejoin:miter;stroke-opacity:1" />
    <path
       id="path873"
       d="M 103.02195,48.217184 C 103.02195,65.122234 89.308952,64.561954 70.926772,64.561954 C 52.544582,64.561954 42.992072,63.339164 42.992072,46.434114 C 42.992072,29.529074 53.733292,-9.1380978 72.115482,-9.1380978 C 90.497662,-9.1380978 103.02195,31.312134 103.02195,48.217184 z "
       style="font-size:12px;fill:url(#linearGradient2491);fill-opacity:1;fill-rule:evenodd" />
    <path
       id="path874"
       d="M 56.662242,0.6687642 C 56.662242,6.4132042 52.471132,11.069984 47.301142,11.069984 C 42.131152,11.069984 37.940049,6.4132042 37.940049,0.6687642 C 37.940049,-5.0756658 42.131152,-9.7324478 47.301142,-9.7324478 C 52.471132,-9.7324478 56.662242,-5.0756658 56.662242,0.6687642 z "
       style="font-size:12px;fill:#9bb9e3;fill-opacity:1;fill-rule:evenodd;stroke-width:1" />
    <path
       id="path875"
       d="M 105.99373,-1.1143018 C 105.99373,4.6301382 101.80262,9.2869182 96.632632,9.2869182 C 91.462642,9.2869182 87.271539,4.6301382 87.271539,-1.1143018 C 87.271539,-6.8587318 91.462642,-11.515514 96.632632,-11.515514 C 101.80262,-11.515514 105.99373,-6.8587318 105.99373,-1.1143018 z "
       style="font-size:12px;fill:#9bb9e3;fill-opacity:1;fill-rule:evenodd;stroke-width:1" />
    <path
       id="path876"
       d="M 68.846517,13.150223 C 68.846517,17.089263 65.78634,20.282483 62.011435,20.282483 C 58.236518,20.282483 55.176352,17.089263 55.176352,13.150223 C 55.176352,9.2111832 58.236518,6.0179532 62.011435,6.0179532 C 65.78634,6.0179532 68.846517,9.2111832 68.846517,13.150223 z "
       style="font-size:12px;fill:#ffffff;fill-rule:evenodd;stroke-width:1" />
    <path
       id="path877"
       d="M 88.757418,12.853039 C 88.757418,16.792079 85.697241,19.985299 81.922336,19.985299 C 78.147419,19.985299 75.087253,16.792079 75.087253,12.853039 C 75.087253,8.9139992 78.147419,5.7207692 81.922336,5.7207692 C 85.697241,5.7207692 88.757418,8.9139992 88.757418,12.853039 z "
       style="font-size:12px;fill:#ffffff;fill-rule:evenodd;stroke-width:1" />
    <path
       id="path878"
       d="M 74.790082,21.916964 C 74.790082,23.312044 73.659142,24.442984 72.264072,24.442984 C 70.868992,24.442984 69.738062,23.312044 69.738062,21.916964 C 69.738062,20.521884 70.868992,19.390954 72.264072,19.390954 C 73.659142,19.390954 74.790082,20.521884 74.790082,21.916964 z "
       style="font-size:12px;fill:#f55959;fill-rule:evenodd;stroke-width:1" />
    <path
       id="path880"
       d="M 67.063452,12.853044 C 67.063452,14.658444 65.599892,16.122004 63.794502,16.122004 C 61.989112,16.122004 60.525552,14.658444 60.525552,12.853044 C 60.525552,11.047654 61.989112,9.5840942 63.794502,9.5840942 C 65.599892,9.5840942 67.063452,11.047654 67.063452,12.853044 z "
       style="font-size:12px;fill-rule:evenodd;stroke-width:1" />
    <path
       id="path881"
       d="M 83.705392,12.258694 C 83.705392,14.064094 82.241832,15.527654 80.436442,15.527654 C 78.631052,15.527654 77.167492,14.064094 77.167492,12.258694 C 77.167492,10.453304 78.631052,8.9897442 80.436442,8.9897442 C 82.241832,8.9897442 83.705392,10.453304 83.705392,12.258694 z "
       style="font-size:12px;fill-rule:evenodd;stroke-width:1" />
    <path
       id="path882"
       d="M 81.327982,22.957084 C 81.327982,22.957084 100.05017,14.338934 103.02195,15.230474"
       style="fill:none;fill-opacity:1;fill-rule:evenodd;stroke:#3d4e67;stroke-width:1pt;stroke-linecap:butt;stroke-linejoin:miter;stroke-opacity:1" />
    <path
       id="path883"
       d="M 82.445072,24.349874 C 82.445072,24.349874 102.87378,21.618464 105.45198,23.344504"
       style="font-size:12px;fill:none;fill-rule:evenodd;stroke:#3d4e67;stroke-width:1" />
    <path
       id="path884"
       d="M 60.875362,22.362734 C 60.875362,22.362734 42.153172,13.744584 39.181387,14.636124"
       style="fill:none;fill-opacity:1;fill-rule:evenodd;stroke:#3d4e67;stroke-width:1pt;stroke-linecap:butt;stroke-linejoin:miter;stroke-opacity:1" />
    <path
       id="path885"
       d="M 59.758272,23.755524 C 59.758272,23.755524 39.329557,21.024114 36.751357,22.750154"
       style="font-size:12px;fill:none;fill-rule:evenodd;stroke:#3d4e67;stroke-width:1" />
    <path
       id="path889"
       d="M 54.284818,2.600408 C 54.284818,6.4573946 51.424218,9.5840881 47.895498,9.5840881 C 44.366778,9.5840881 41.506178,6.4573946 41.506178,2.600408 C 41.506178,-1.2565676 44.366778,-4.3832721 47.895498,-4.3832721 C 51.424218,-4.3832721 54.284818,-1.2565676 54.284818,2.600408 z "
       style="font-size:12px;fill:#ff933d;fill-rule:evenodd;stroke-width:1" />
    <path
       id="path888"
       d="M 102.72477,0.222993 C 102.72477,4.0799796 99.864172,7.2066731 96.335452,7.2066731 C 92.806732,7.2066731 89.946132,4.0799796 89.946132,0.222993 C 89.946132,-3.6339826 92.806732,-6.7606871 96.335452,-6.7606871 C 99.864172,-6.7606871 102.72477,-3.6339826 102.72477,0.222993 z "
       style="font-size:12px;fill:#ff933d;fill-rule:evenodd;stroke-width:1" />
    <path
       sodipodi:nodetypes="ccccc"
       id="path891"
       d="M 92.026379,56.092424 C 92.026379,63.724307 81.213349,63.670456 73.007009,63.670456 C 64.800679,63.670456 54.581999,63.427127 54.581999,55.795253 C 54.581999,48.163354 64.206329,33.061159 72.412659,33.061159 C 80.618999,33.061159 92.026379,48.460534 92.026379,56.092424 z "
       style="font-size:12px;fill:#ffffff;fill-rule:evenodd;stroke-width:1" />
    <path
       sodipodi:nodetypes="cc"
       id="path892"
       d="M 64.686032,25.037334 C 66.171922,31.872414 75.978792,35.141374 79.247742,24.740154"
       style="fill:none;fill-opacity:1;fill-rule:evenodd;stroke:#652929;stroke-width:1pt;stroke-linecap:butt;stroke-linejoin:miter;stroke-opacity:1" />
  </g>
</svg>
