<?xml version="1.0" encoding="UTF-8" standalone="no"?>
<!-- Created with Inkscape (http://www.inkscape.org/) -->

<svg
   xmlns:dc="http://purl.org/dc/elements/1.1/"
   xmlns:cc="http://creativecommons.org/ns#"
   xmlns:rdf="http://www.w3.org/1999/02/22-rdf-syntax-ns#"
   xmlns:svg="http://www.w3.org/2000/svg"
   xmlns="http://www.w3.org/2000/svg"
   xmlns:xlink="http://www.w3.org/1999/xlink"
   xmlns:sodipodi="http://sodipodi.sourceforge.net/DTD/sodipodi-0.dtd"
   xmlns:inkscape="http://www.inkscape.org/namespaces/inkscape"
   width="90"
   height="90"
   id="svg3248"
   version="1.1"
   inkscape:version="0.48+devel r12490"
   sodipodi:docname="mouth.svg">
  <defs
     id="defs3250">
    <linearGradient
       inkscape:collect="always"
       id="linearGradient4079">
      <stop
         style="stop-color:#ff0000;stop-opacity:1"
         offset="0"
         id="stop4081" />
      <stop
         style="stop-color:#ed0000;stop-opacity:1"
         offset="1"
         id="stop4083" />
    </linearGradient>
    <linearGradient
       inkscape:collect="always"
       xlink:href="#linearGradient4079"
       id="linearGradient4085"
       x1="41.818184"
       y1="-4.363636"
       x2="41.81818"
       y2="3.2727273"
       gradientUnits="userSpaceOnUse" />
  </defs>
  <sodipodi:namedview
     id="base"
     pagecolor="#ffffff"
     bordercolor="#666666"
     borderopacity="1.0"
     inkscape:pageopacity="0.0"
     inkscape:pageshadow="2"
     inkscape:zoom="5.5"
     inkscape:cx="39.598002"
     inkscape:cy="28.514679"
     inkscape:current-layer="layer1"
     showgrid="true"
     inkscape:document-units="px"
     inkscape:grid-bbox="true"
     inkscape:window-width="960"
     inkscape:window-height="768"
     inkscape:window-x="59"
     inkscape:window-y="24"
     inkscape:window-maximized="0"
     inkscape:snap-global="false" />
  <metadata
     id="metadata3253">
    <rdf:RDF>
      <cc:Work
         rdf:about="">
        <dc:format>image/svg+xml</dc:format>
        <dc:type
           rdf:resource="http://purl.org/dc/dcmitype/StillImage" />
        <dc:title />
      </cc:Work>
    </rdf:RDF>
  </metadata>
  <g
     id="layer1"
     inkscape:label="Layer 1"
     inkscape:groupmode="layer"
     transform="translate(0,26)">
    <path
       d="m 69.517578,-15.472656 c -3.700541,0.04657 -8.692065,0.625521 -15.074219,4.132812 -3.141391,-2.06929 -7.236535,-3.925417 -13.882812,-3.558594 -8.28381,0.457203 -15.667007,6.3740467 -22.384766,12.2773442 C 11.458022,3.2822038 5.6607212,9.7131155 3.5214844,11.894531 a 4.5037653,4.5037653 0 0 0 -0.035156,6.269531 c -0.3722768,-0.388289 0.4048479,0.563119 1.1699219,1.707032 0.765074,1.143913 1.7880784,2.68947 3.0449219,4.472656 2.5136871,3.566372 5.9645541,8.095966 10.3828121,12.566406 8.836517,8.940881 21.824112,17.834508 38.669922,17.517578 13.692801,-0.25761 22.202064,-6.794345 25.591797,-15.144531 3.002827,-7.397089 2.656887,-15.518373 1.75,-22.568359 C 86.151011,14.765659 87.433142,12.154579 87.8125,9.6230469 88.349356,6.040499 87.674033,2.4925488 86.503906,-0.83789062 85.33378,-4.16833 83.630057,-7.2753017 81.564453,-9.8261719 79.498849,-12.377042 77.180946,-14.67854 73.462891,-15.185547 c -1.393036,-0.18996 -2.673762,-0.303112 -3.945313,-0.287109 z M 59.916016,4.9511719 c 4.669747,-0.185185 9.813965,1.7300138 12.474609,3.8261719 1.330322,1.048079 1.905022,2.0942192 1.957031,2.2910152 0.05201,0.196797 0.37687,-0.432513 -0.175781,0.05859 a 4.5037653,4.5037653 0 0 0 -1.498047,3.027344 c -0.527888,6.989849 -0.801459,10.3128 -1.126953,11.443359 -0.162747,0.56528 -0.198762,0.621678 -0.552734,1.064453 -0.353973,0.442776 -1.119993,1.208373 -2.316407,2.390625 -4.020138,3.972554 -10.607042,4.464033 -16.107422,4.169922 C 46.850959,32.916835 34.685176,27.947905 29.515625,22.46875 27.107012,19.915885 24.699047,18.088187 22.345703,16.523438 28.13587,14.617388 33.250858,12.319511 37.630859,10.306641 44.847094,6.9903534 50.117496,4.9852916 53.931641,5.6972656 A 4.5037653,4.5037653 0 0 0 56.064453,5.5800781 C 57.28501,5.2103136 58.581547,5.004092 59.916016,4.9511719 Z"
       id="path3269"
       style="color:#000000;fill:#000000;fill-opacity:0.39215686;stroke:none;stroke-width:0.5;marker:none;visibility:visible;display:inline;overflow:visible;enable-background:accumulate"
       inkscape:original="M 69.574219 -10.96875 C 65.422747 -10.91651 61.331035 -10.750763 54.148438 -6.0449219 C 50.490456 -8.788408 48.417807 -10.822314 40.808594 -10.402344 C 29.092378 -9.7556991 11.453018 10.237187 6.7363281 15.046875 C 9.4021329 17.827345 26.230074 50.498462 56.669922 49.925781 C 81.626367 49.456262 81.509844 29.254907 79.304688 14.65625 C 89.069366 10.240676 79.559817 -9.8081609 72.853516 -10.722656 C 71.596085 -10.894125 70.53225 -10.980807 69.574219 -10.96875 z M 59.738281 0.45117188 C 71.495159 -0.015062603 83.342067 9.0041251 77.164062 14.494141 C 76.114326 28.393853 76.547162 27.608119 71.84375 32.255859 C 66.319171 37.715046 58.212473 38.033288 52.330078 37.71875 C 44.871056 37.319906 32.623584 32.324242 26.240234 25.558594 C 20.207229 19.164271 14.311862 17.002132 9.5410156 15.046875 C 30.574405 11.998559 43.326622 -0.86429195 54.757812 1.2695312 C 56.38089 0.77782375 58.058727 0.5177768 59.738281 0.45117188 z "
       inkscape:radius="4.503315"
       sodipodi:type="inkscape:offset"
       transform="translate(-1.4545454,5.0909091)" />
    <path
       sodipodi:type="inkscape:offset"
       inkscape:radius="4.503315"
       inkscape:original="M 69.574219 -10.96875 C 65.422747 -10.91651 61.331035 -10.750763 54.148438 -6.0449219 C 50.490456 -8.788408 48.417807 -10.822314 40.808594 -10.402344 C 29.092378 -9.7556991 11.453018 10.237187 6.7363281 15.046875 C 9.4021329 17.827345 26.230074 50.498462 56.669922 49.925781 C 81.626367 49.456262 81.509844 29.254907 79.304688 14.65625 C 89.069366 10.240676 79.559817 -9.8081609 72.853516 -10.722656 C 71.596085 -10.894125 70.53225 -10.980807 69.574219 -10.96875 z M 59.738281 0.45117188 C 71.495159 -0.015062603 83.342067 9.0041251 77.164062 14.494141 C 76.114326 28.393853 76.547162 27.608119 71.84375 32.255859 C 66.319171 37.715046 58.212473 38.033288 52.330078 37.71875 C 44.871056 37.319906 32.623584 32.324242 26.240234 25.558594 C 20.207229 19.164271 14.311862 17.002132 9.5410156 15.046875 C 30.574405 11.998559 43.326622 -0.86429195 54.757812 1.2695312 C 56.38089 0.77782375 58.058727 0.5177768 59.738281 0.45117188 z "
       style="color:#000000;fill:#681009;stroke:none;stroke-width:0.5;marker:none;visibility:visible;display:inline;overflow:visible;enable-background:accumulate;fill-opacity:1"
       id="path3267"
       d="m 69.517578,-15.472656 c -3.700541,0.04657 -8.692065,0.625521 -15.074219,4.132812 -3.141391,-2.06929 -7.236535,-3.925417 -13.882812,-3.558594 -8.28381,0.457203 -15.667007,6.3740467 -22.384766,12.2773442 C 11.458022,3.2822038 5.6607212,9.7131155 3.5214844,11.894531 a 4.5037653,4.5037653 0 0 0 -0.035156,6.269531 c -0.3722768,-0.388289 0.4048479,0.563119 1.1699219,1.707032 0.765074,1.143913 1.7880784,2.68947 3.0449219,4.472656 2.5136871,3.566372 5.9645541,8.095966 10.3828121,12.566406 8.836517,8.940881 21.824112,17.834508 38.669922,17.517578 13.692801,-0.25761 22.202064,-6.794345 25.591797,-15.144531 3.002827,-7.397089 2.656887,-15.518373 1.75,-22.568359 C 86.151011,14.765659 87.433142,12.154579 87.8125,9.6230469 88.349356,6.040499 87.674033,2.4925488 86.503906,-0.83789062 85.33378,-4.16833 83.630057,-7.2753017 81.564453,-9.8261719 79.498849,-12.377042 77.180946,-14.67854 73.462891,-15.185547 c -1.393036,-0.18996 -2.673762,-0.303112 -3.945313,-0.287109 z M 59.916016,4.9511719 c 4.669747,-0.185185 9.813965,1.7300138 12.474609,3.8261719 1.330322,1.048079 1.905022,2.0942192 1.957031,2.2910152 0.05201,0.196797 0.37687,-0.432513 -0.175781,0.05859 a 4.5037653,4.5037653 0 0 0 -1.498047,3.027344 c -0.527888,6.989849 -0.801459,10.3128 -1.126953,11.443359 -0.162747,0.56528 -0.198762,0.621678 -0.552734,1.064453 -0.353973,0.442776 -1.119993,1.208373 -2.316407,2.390625 -4.020138,3.972554 -10.607042,4.464033 -16.107422,4.169922 C 46.850959,32.916835 34.685176,27.947905 29.515625,22.46875 27.107012,19.915885 24.699047,18.088187 22.345703,16.523438 28.13587,14.617388 33.250858,12.319511 37.630859,10.306641 44.847094,6.9903534 50.117496,4.9852916 53.931641,5.6972656 A 4.5037653,4.5037653 0 0 0 56.064453,5.5800781 C 57.28501,5.2103136 58.581547,5.004092 59.916016,4.9511719 Z" />
    <path
       style="color:#000000;fill:#372419;stroke:none;stroke-width:0.5;marker:none;visibility:visible;display:inline;overflow:visible;enable-background:accumulate;fill-opacity:1"
       d="m 7.4101917,15.059582 c 4.3109713,4.957617 16.2031253,13.934449 19.4363553,20.185361 3.233228,6.250909 49.360627,5.819811 50.869466,1.939936 1.024832,-2.63528 1.037397,-24.251485 1.037397,-24.251485 0,0 1.764735,-6.7589485 1.764735,-7.8652554 0,-3.4487775 -35.34997,-12.5018172 -43.540814,-7.9752973 C 28.786484,1.6193611 7.4101917,15.059582 7.4101917,15.059582 Z"
       id="path3239"
       inkscape:connector-curvature="0"
       sodipodi:nodetypes="csscssc" />
    <path
       style="color:#000000;fill:#ff7068;stroke:none;stroke-width:0.5;marker:none;visibility:visible;display:inline;overflow:visible;enable-background:accumulate"
       d="m 64.872801,47.645063 c -4.342652,0.06187 -8.884442,1.4626 -11.892332,4.122515 -0.354443,0.313439 3.591337,1.915139 5.544922,3.839844 -8.810155,-5.740027 -19.784483,-8.421538 -27.921875,-3.855469 9.777562,5.14049 19.884369,5.070313 24.685546,5.070313 2.616169,0 7.309928,-0.845292 11.517579,-2.390625 2.848691,-1.046232 5.43147,-2.465716 7.146484,-3.957032 -2.468834,-0.835655 -6.043797,-2.87281 -9.080324,-2.829546 z m 12.804933,4.755328 c -1.800826,5.715845 -5.049218,10.496072 -8.636718,14.011718 -0.135557,0.132842 -0.273864,0.249473 -0.410157,0.378907 5.77521,-3.465674 10.538772,-8.322664 10.328125,-13.173828 -0.373523,-0.44356 -0.805843,-0.846275 -1.28125,-1.216797 z m -51.357422,3.734375 c 1.755939,13.862426 13.60835,12.876562 20.998047,14.029296 -3.156631,-1.464493 -6.668485,-3.367523 -10.074218,-5.529296 -3.709917,-2.354853 -7.268756,-4.980911 -10.03711,-7.626954 -0.305375,-0.291882 -0.599648,-0.581744 -0.886719,-0.873046 z"
       transform="translate(0,-26)"
       id="path3268"
       inkscape:connector-curvature="0"
       sodipodi:nodetypes="ssccsscscscccccssc" />
    <path
       style="color:#000000;fill:#ffffff;stroke:none;stroke-width:0.5;marker:none;visibility:visible;display:inline;overflow:visible;enable-background:accumulate"
       d="m 10.703924,16.422738 c 11.639624,-1.72439 38.775224,-9.7041745 44.595036,-9.7041745 5.819813,0 21.554859,1.7983527 24.57254,4.3849355 C 80.087049,6.1458816 70.387362,-2.0449648 65.429744,-1.3983186 60.472126,-0.75167347 34.821845,1.4038127 29.648678,4.8525902 26.772664,6.7699332 13.546232,10.824263 8.8642228,13.640779 c -3.7396522,2.24963 1.8397012,2.781959 1.8397012,2.781959 z"
       id="path3241"
       inkscape:connector-curvature="0"
       sodipodi:nodetypes="cscsssc" />
    <path
       style="color:#000000;fill:#ffffff;stroke:none;stroke-width:0.5;marker:none;visibility:visible;display:inline;overflow:visible;enable-background:accumulate"
       d="m 23.39777,22.288578 c 11.855172,9.699687 26.070547,9.542783 31.89036,9.542783 5.819811,0 18.979106,-3.507421 21.781239,-9.327235 -2.802133,13.579563 -14.441755,22.632602 -20.692666,22.632602 -6.250909,0 -31.685642,-14.226206 -32.978933,-22.84815 z"
       id="path3243"
       inkscape:connector-curvature="0"
       sodipodi:nodetypes="cscsc" />
    <path
       style="color:#000000;fill:#372419;stroke:none;stroke-width:0.5;marker:none;visibility:visible;display:inline;overflow:visible;enable-background:accumulate;fill-opacity:1"
       d="m 68.80283,16.445464 c -4.151472,0.05224 -7.34323,0.08942 -14.525827,4.795263 C 50.619021,18.497241 48.417807,16.463335 40.808594,16.883305 29.092378,17.52995 12.995796,36.237187 8.2791065,41.046875 10.944911,43.827345 26.358639,75.212813 56.798487,74.640132 81.754932,74.170613 80.224195,55.383472 78.019039,40.784815 87.783717,36.369241 78.788428,17.606053 72.082127,16.691558 70.824696,16.520089 69.760861,16.433407 68.80283,16.445464 Z m -7.974705,11.130708 c 5.231056,0.05632 10.449342,2.042838 13.642578,4.558594 1.70306,1.341736 2.796032,2.822048 3.126953,4.074218 0.330922,1.252171 0.101798,2.282449 -1.191406,3.431641 -0.219101,0.194234 -0.358718,0.475616 -0.380859,0.767578 -0.525634,6.959989 -0.709432,10.250289 -1.248047,12.121094 -0.269308,0.935402 -0.590779,1.525087 -1.15625,2.232422 -0.565472,0.707334 -1.399016,1.514558 -2.580078,2.68164 -5.143412,5.082531 -12.864784,5.446082 -18.650391,5.136719 -7.018256,-0.375276 -19.244492,-5.364987 -25.320313,-11.804687 -4.956843,-5.253711 -9.689081,-7.532412 -13.888671,-9.31836 9.070861,-1.8414 16.629318,-5.256728 23.044921,-8.205078 7.238554,-3.326544 13.088426,-5.838312 18.322266,-4.861328 0.178591,0.03333 0.365137,0.0232 0.539063,-0.0293 1.521094,-0.460812 3.10319,-0.706393 4.695312,-0.769531 0.348263,-0.01381 0.696185,-0.01938 1.044922,-0.01563 z"
       transform="translate(0,-26)"
       id="path3253"
       inkscape:connector-curvature="0"
       sodipodi:nodetypes="scscscsssssccssssscsccss" />
    <path
       style="color:#000000;fill:url(#linearGradient4085);stroke:none;stroke-width:0.5;marker:none;visibility:visible;display:inline;overflow:visible;enable-background:accumulate;fill-opacity:1"
       d="m 69.574004,-10.96897 c -4.151472,0.05224 -8.2426,0.217465 -15.425197,4.9233063 C 50.490826,-8.7891498 48.417582,-10.823125 40.808369,-10.403155 29.092153,-9.7565103 11.453016,10.236624 6.7363257,15.046312 9.4021305,17.826782 26.230174,50.498078 56.670022,49.925397 81.626467,49.455878 81.51021,29.25513 79.305053,14.656473 89.069731,10.240899 79.559001,-9.8090356 72.8527,-10.723531 71.595269,-10.895 70.532035,-10.981027 69.574004,-10.96897 Z m 7.589668,25.462307 C 76.113936,28.393049 76.546665,27.608566 71.843253,32.256306 66.318674,37.715493 58.211979,38.033442 52.329584,37.718904 44.870562,37.32006 32.62334,32.325213 26.23999,25.559565 20.206985,19.165242 14.312252,17.001569 9.5414058,15.046312 30.574795,11.997996 43.326584,-0.8649378 54.757774,1.2688854 67.74239,-2.6647746 84.224249,8.2190336 77.163672,14.493337 Z"
       id="path3264"
       inkscape:connector-curvature="0"
       sodipodi:nodetypes="scscscsscsssccc" />
    <path
       style="color:#000000;fill:#ffffff;stroke:none;stroke-width:0.5;marker:none;visibility:visible;display:inline;overflow:visible;enable-background:accumulate"
       d="M 34,19.818182 C 38.545455,18 44,17.818182 46.363636,18.181818 48.727273,18.545455 42.727273,19.636363 34,19.818182 Z"
       id="path4087"
       inkscape:connector-curvature="0"
       transform="translate(0,-26)"
       sodipodi:nodetypes="csc" />
    <path
       style="color:#000000;fill:#ffffff;stroke:none;stroke-width:0.5;marker:none;visibility:visible;display:inline;overflow:visible;enable-background:accumulate"
       d="m 33.818182,59.818182 c 5.636363,2.545454 15.818182,5.636363 19.636363,6 -4.181818,0.909091 -17.272727,-2 -19.636363,-6 z"
       id="path4089"
       inkscape:connector-curvature="0"
       transform="translate(0,-26)"
       sodipodi:nodetypes="ccc" />
  </g>
</svg>
