<?xml version="1.0" encoding="UTF-8" standalone="no"?>
<!-- Created with Inkscape (http://www.inkscape.org/) -->

<svg
   xmlns:dc="http://purl.org/dc/elements/1.1/"
   xmlns:cc="http://creativecommons.org/ns#"
   xmlns:rdf="http://www.w3.org/1999/02/22-rdf-syntax-ns#"
   xmlns:svg="http://www.w3.org/2000/svg"
   xmlns="http://www.w3.org/2000/svg"
   xmlns:xlink="http://www.w3.org/1999/xlink"
   xmlns:sodipodi="http://sodipodi.sourceforge.net/DTD/sodipodi-0.dtd"
   xmlns:inkscape="http://www.inkscape.org/namespaces/inkscape"
   width="90"
   height="90"
   id="svg2"
   sodipodi:version="0.32"
   inkscape:version="0.47pre1 r21720"
   version="1.0"
   sodipodi:docname="preferences-desktop-default-applications.svg"
   inkscape:output_extension="org.inkscape.output.svg.inkscape">
  <defs
     id="defs4">
    <linearGradient
       y2="48.034405"
       x2="25.697926"
       y1="22.390924"
       x1="31.135588"
       gradientTransform="matrix(1.3814226,0,0,1.3814226,-0.2397271,1.6176089)"
       gradientUnits="userSpaceOnUse"
       id="linearGradient2180"
       xlink:href="#linearGradient11160"
       inkscape:collect="always" />
    <linearGradient
       y2="8.9076576"
       x2="9.8321218"
       y1="17.663967"
       x1="53.999454"
       gradientTransform="matrix(1.3814226,0,0,1.3814226,-0.2397271,1.6176089)"
       gradientUnits="userSpaceOnUse"
       id="linearGradient2177"
       xlink:href="#linearGradient12147"
       inkscape:collect="always" />
    <linearGradient
       id="linearGradient11160">
      <stop
         id="stop11162"
         offset="0"
         style="stop-color:#ffffff;stop-opacity:1;" />
      <stop
         id="stop11164"
         offset="1"
         style="stop-color:#c2c2c2;stop-opacity:1;" />
    </linearGradient>
    <linearGradient
       id="linearGradient12147">
      <stop
         id="stop12149"
         offset="0"
         style="stop-color:#ff933d;stop-opacity:1;" />
      <stop
         id="stop12151"
         offset="1"
         style="stop-color:#ffc93f;stop-opacity:1;" />
    </linearGradient>
    <defs
       id="defs1800">
      <linearGradient
         xlink:href="#linearGradient1895"
         spreadMethod="pad"
         gradientUnits="objectBoundingBox"
         y2="0.5"
         x2="1"
         y1="0.5"
         x1="0"
         id="linearGradient1828-7" />
      <linearGradient
         id="linearGradient1825">
        <stop
           id="stop1827"
           style="stop-color:#ffd800;stop-opacity:1.0000000;"
           offset="0.0000000" />
        <stop
           id="stop1826"
           style="stop-color:#ffd58f;stop-opacity:0.0000000;"
           offset="1.0000000" />
      </linearGradient>
      <linearGradient
         spreadMethod="pad"
         gradientUnits="objectBoundingBox"
         id="linearGradient1807"
         y2="0"
         x2="1"
         y1="0"
         x1="0">
        <stop
           id="stop1808"
           offset="0.00000000"
           style="stop-color:#ffb700;stop-opacity:1;" />
        <stop
           id="stop1809"
           offset="1.00000000"
           style="stop-color:#ffd58f;stop-opacity:0;" />
      </linearGradient>
      <linearGradient
         spreadMethod="pad"
         gradientUnits="objectBoundingBox"
         id="linearGradient1810"
         y2="0"
         x2="1"
         y1="0"
         x1="0">
        <stop
           id="stop1811"
           offset="0.00000000"
           style="stop-color:#000000;stop-opacity:1;" />
        <stop
           id="stop1812"
           offset="1.00000000"
           style="stop-color:#bdf2ff;stop-opacity:0.384314;" />
      </linearGradient>
      <linearGradient
         gradientTransform="matrix(1.418885,-0.200635,0.127692,1.110535,-136.7997,-1.332303)"
         spreadMethod="pad"
         gradientUnits="userSpaceOnUse"
         xlink:href="#linearGradient632"
         id="linearGradient1813"
         y2="69.142799"
         x2="35.370575"
         y1="19.295689"
         x1="60.644615" />
      <linearGradient
         spreadMethod="pad"
         gradientTransform="matrix(1.05092,-0.148604,0.172402,1.499373,-123.6994,-3.008376)"
         gradientUnits="userSpaceOnUse"
         xlink:href="#linearGradient632"
         id="linearGradient1814"
         y2="54.628181"
         x2="73.916298"
         y1="17.443844"
         x1="85.637657" />
      <defs
         id="defs1815">
        <sodipodi:namedview
           id="namedview1816" />
        <defs
           id="defs1721">
          <linearGradient
             xlink:href="#linearGradient1825"
             spreadMethod="pad"
             gradientUnits="objectBoundingBox"
             id="linearGradient1722"
             y2="0"
             x2="1"
             y1="0"
             x1="0" />
          <linearGradient
             spreadMethod="pad"
             gradientUnits="objectBoundingBox"
             id="linearGradient1725"
             y2="0"
             x2="1"
             y1="0"
             x1="0">
            <stop
               id="stop1726"
               offset="0.000000"
               style="stop-color:#000000;stop-opacity:1;" />
            <stop
               id="stop1727"
               offset="1.000000"
               style="stop-color:#bdf2ff;stop-opacity:0.384314;" />
          </linearGradient>
          <linearGradient
             spreadMethod="pad"
             gradientUnits="userSpaceOnUse"
             y2="69.142799"
             x2="35.370575"
             y1="19.295689"
             x1="60.644615"
             xlink:href="#linearGradient632"
             id="linearGradient1728" />
          <linearGradient
             gradientTransform="scale(0.740666,1.350136)"
             spreadMethod="pad"
             gradientUnits="userSpaceOnUse"
             y2="54.628181"
             x2="73.916298"
             y1="17.443844"
             x1="85.637657"
             id="linearGradient1729"
             xlink:href="#linearGradient632" />
        </defs>
      </defs>
      <sodipodi:namedview
         inkscape:window-y="56"
         inkscape:window-x="103"
         inkscape:window-height="560"
         inkscape:window-width="812"
         inkscape:cy="73.007956"
         inkscape:cx="113.94414"
         inkscape:zoom="2.4559706"
         inkscape:pageshadow="2"
         inkscape:pageopacity="0.0"
         borderopacity="1.0"
         bordercolor="#666666"
         pagecolor="#ffffff"
         id="namedview1730" />
      <metadata
         id="metadata1825">
        <rdf:RDF>
          <cc:Work
             rdf:about="">
            <dc:format>image/svg+xml</dc:format>
            <dc:type
               rdf:resource="http://purl.org/dc/dcmitype/StillImage" />
            <dc:title></dc:title>
          </cc:Work>
        </rdf:RDF>
      </metadata>
      <linearGradient
         gradientUnits="userSpaceOnUse"
         y2="75.934349"
         x2="32.051327"
         y1="14.657825"
         x1="32.051327"
         gradientTransform="matrix(0.563776,0,0,0.563788,50.39821,45.07308)"
         id="linearGradient1831"
         xlink:href="#linearGradient1828-7"
         inkscape:collect="always" />
    </defs>
    <defs
       id="defs3">
      <sodipodi:namedview
         id="namedview909" />
      <defs
         id="defs1201">
        <linearGradient
           spreadMethod="pad"
           gradientUnits="objectBoundingBox"
           id="linearGradient632"
           y2="0"
           x2="1"
           y1="0"
           x1="0">
          <stop
             id="stop633"
             offset="0.000000"
             style="stop-color:#ffb700;stop-opacity:1;" />
          <stop
             id="stop634"
             offset="1.000000"
             style="stop-color:#ffd58f;stop-opacity:0;" />
        </linearGradient>
        <linearGradient
           spreadMethod="pad"
           gradientUnits="objectBoundingBox"
           id="linearGradient1205"
           y2="0"
           x2="1"
           y1="0"
           x1="0">
          <stop
             id="stop1206"
             offset="0.000000"
             style="stop-color:#000000;stop-opacity:1;" />
          <stop
             id="stop1207"
             offset="1.000000"
             style="stop-color:#bdf2ff;stop-opacity:0.384314;" />
        </linearGradient>
        <linearGradient
           spreadMethod="pad"
           gradientUnits="userSpaceOnUse"
           y2="69.142799"
           x2="35.370575"
           y1="19.295689"
           x1="60.644615"
           xlink:href="#linearGradient632"
           id="linearGradient1208" />
        <linearGradient
           gradientTransform="scale(0.740666,1.350136)"
           spreadMethod="pad"
           gradientUnits="userSpaceOnUse"
           y2="54.628181"
           x2="73.916298"
           y1="17.443844"
           x1="85.637657"
           id="linearGradient631"
           xlink:href="#linearGradient632" />
      </defs>
    </defs>
    <defs
       id="defs606">
      <linearGradient
         id="linearGradient612">
        <stop
           id="stop613"
           offset="0.000000"
           style="stop-color:#7fa8e3;stop-opacity:0.741176;" />
        <stop
           id="stop614"
           offset="1.000000"
           style="stop-color:#ffffff;stop-opacity:0;" />
      </linearGradient>
      <linearGradient
         spreadMethod="pad"
         gradientUnits="userSpaceOnUse"
         y2="68.044357"
         x2="35.752094"
         y1="5.3679295"
         x1="50.643887"
         id="linearGradient615"
         xlink:href="#linearGradient612" />
    </defs>
    <linearGradient
       id="linearGradient1895">
      <stop
         id="stop1897"
         style="stop-color:#ffc93f;stop-opacity:1.0000000;"
         offset="0.0000000" />
      <stop
         id="stop1896"
         style="stop-color:#f1e36c;stop-opacity:1.0000000;"
         offset="1.0000000" />
    </linearGradient>
    <linearGradient
       y2="83.034393"
       x2="75.038589"
       y1="62.207943"
       x1="51.095966"
       gradientTransform="matrix(0.9894501,-0.1448744,0.1448744,0.9894501,-7.8893174,6.0717053)"
       gradientUnits="userSpaceOnUse"
       id="linearGradient3745"
       xlink:href="#linearGradient1787"
       inkscape:collect="always" />
    <linearGradient
       y2="83.034393"
       x2="75.038589"
       y1="62.207943"
       x1="51.095966"
       gradientTransform="matrix(0.9894501,-0.1448744,0.1448744,0.9894501,-7.8893174,6.0717053)"
       gradientUnits="userSpaceOnUse"
       id="linearGradient3743"
       xlink:href="#linearGradient1787"
       inkscape:collect="always" />
    <radialGradient
       r="8.0222836"
       fy="67.684441"
       fx="55.988865"
       cy="67.852768"
       cx="55.821728"
       spreadMethod="reflect"
       gradientUnits="userSpaceOnUse"
       id="radialGradient2925"
       xlink:href="#linearGradient1787"
       inkscape:collect="always" />
    <linearGradient
       y2="86.700996"
       x2="65.530708"
       y1="41.439709"
       x1="32.572178"
       gradientTransform="matrix(-1.2412691,-1.1980956,-1.1058296,1.1456781,183.07589,25.127027)"
       gradientUnits="userSpaceOnUse"
       id="linearGradient2919"
       xlink:href="#linearGradient1787"
       inkscape:collect="always" />
    <linearGradient
       id="linearGradient618">
      <stop
         id="stop620"
         style="stop-color:#7fa8e3;stop-opacity:0.741176;"
         offset="0.000000" />
      <stop
         id="stop619"
         style="stop-color:#ffffff;stop-opacity:0;"
         offset="1.000000" />
    </linearGradient>
    <defs
       id="defs598">
      <linearGradient
         id="linearGradient697">
        <stop
           id="stop698"
           offset="0.000000"
           style="stop-color:#7fa8e3;stop-opacity:0.741176;" />
        <stop
           id="stop699"
           offset="1.000000"
           style="stop-color:#ffffff;stop-opacity:0;" />
      </linearGradient>
      <linearGradient
         xlink:href="#linearGradient1787"
         spreadMethod="pad"
         gradientUnits="objectBoundingBox"
         y2="0.50000000"
         x2="1.0000000"
         y1="0.50000000"
         x1="0.0000000"
         id="linearGradient626" />
      <linearGradient
         id="linearGradient3801">
        <stop
           id="stop3803"
           offset="0.000000"
           style="stop-color:#956d47;stop-opacity:1;" />
        <stop
           id="stop3805"
           offset="1.000000"
           style="stop-color:#ab322d;stop-opacity:0;" />
      </linearGradient>
      <linearGradient
         id="linearGradient706">
        <stop
           id="stop707"
           offset="0"
           style="stop-color:#000;stop-opacity:1;" />
        <stop
           id="stop708"
           offset="1"
           style="stop-color:#fff;stop-opacity:1;" />
      </linearGradient>
      <linearGradient
         spreadMethod="pad"
         gradientUnits="objectBoundingBox"
         y2="0.52343726"
         x2="1.07843077"
         y1="0.57031226"
         x1="-0.19608469"
         id="linearGradient3810"
         xlink:href="#linearGradient618" />
      <linearGradient
         gradientTransform="matrix(0.934001,0.000000,0.000000,1.070663,-1.516226e-6,-1.716230e-7)"
         spreadMethod="pad"
         gradientUnits="userSpaceOnUse"
         y2="63.0152588"
         x2="28.5382881"
         y1="77.3980103"
         x1="42.9995728"
         id="linearGradient625"
         xlink:href="#linearGradient626" />
      <linearGradient
         spreadMethod="pad"
         gradientUnits="userSpaceOnUse"
         y2="61.6665344"
         x2="24.6243172"
         y1="10.6072874"
         x1="16.4110699"
         id="linearGradient636"
         xlink:href="#linearGradient612-0" />
    </defs>
    <linearGradient
       id="linearGradient1787">
      <stop
         id="stop1789"
         style="stop-color:#ffcbcb;stop-opacity:1.0000000;"
         offset="0.0000000" />
      <stop
         id="stop1788"
         style="stop-color:#ea0800;stop-opacity:1.0000000;"
         offset="1.0000000" />
    </linearGradient>
    <linearGradient
       id="linearGradient612-0">
      <stop
         id="stop613-3"
         offset="0"
         style="stop-color:#955801;stop-opacity:0.4471;" />
      <stop
         id="stop614-2"
         offset="1"
         style="stop-color:#000500;stop-opacity:0;" />
    </linearGradient>
  </defs>
  <sodipodi:namedview
     id="base"
     pagecolor="#ffffff"
     bordercolor="#666666"
     borderopacity="1.0"
     gridtolerance="10000"
     guidetolerance="10"
     objecttolerance="10"
     inkscape:pageopacity="0.0"
     inkscape:pageshadow="2"
     inkscape:zoom="5.6"
     inkscape:cx="39.638031"
     inkscape:cy="46.731618"
     inkscape:document-units="px"
     inkscape:current-layer="layer1"
     showgrid="false"
     inkscape:window-width="1014"
     inkscape:window-height="733"
     inkscape:window-x="0"
     inkscape:window-y="1"
     inkscape:window-maximized="0" />
  <metadata
     id="metadata7">
    <rdf:RDF>
      <cc:Work
         rdf:about="">
        <dc:format>image/svg+xml</dc:format>
        <dc:type
           rdf:resource="http://purl.org/dc/dcmitype/StillImage" />
      </cc:Work>
    </rdf:RDF>
  </metadata>
  <g
     inkscape:label="Layer 1"
     inkscape:groupmode="layer"
     id="layer1">
    <g
       id="g149"
       transform="matrix(0.97767509,0,0,0.97767509,4.1204569,-2.0568658)">
      <path
         sodipodi:nodetypes="ccccc"
         id="path12155"
         d="M 12.017553,69.829253 C 10.227421,65.53162 3.9997009,38.990626 9.9348077,11.013445 41.469254,8.7741789 71.946399,17.384329 86.893325,26.457035 88.498001,32.785668 83.530909,71.897638 73.581243,84.98789 66.101668,86.007379 30.854996,82.531698 12.017553,69.829253 z"
         style="fill:#211301;fill-opacity:0.31372549;fill-rule:evenodd;stroke:none" />
      <path
         sodipodi:nodetypes="ccccc"
         id="path12157"
         d="M 8.0523706,64.066269 C 6.2622345,59.76862 0.03451439,33.227629 5.9696241,5.2504518 37.504071,3.0111818 67.981215,11.621332 82.928141,20.694037 84.53282,27.022674 79.565716,66.134637 69.616064,79.22489 62.136484,80.244382 26.889808,76.768697 8.0523706,64.066269 z"
         style="fill:#283d53;fill-opacity:1;fill-rule:evenodd;stroke:none" />
      <path
         sodipodi:nodetypes="ccccc"
         id="path12159"
         d="M 10.072903,19.734672 C 27.559308,17.248553 54.43452,22.743114 76.300518,32.172008 75.289484,44.655496 71.949729,62.435233 65.812249,73.608703 47.069383,73.209153 23.991888,67.653335 12.760342,60.271232 9.8275959,50.379214 8.1316031,28.843898 10.072903,19.734672 z"
         style="fill:url(#linearGradient2180);fill-opacity:1;fill-rule:evenodd;stroke:none" />
      <path
         sodipodi:nodetypes="ccccc"
         id="path12161"
         d="m 10.419468,17.212393 c 0.155657,-1.317376 0.527951,-4.475619 0.960666,-5.914033 16.601232,-1.6222378 36.049605,0.488284 65.894217,11.885503 0.06902,1.212802 -0.585404,6.046768 -0.616058,6.805974 C 54.373793,21.052076 33.919957,15.83747 10.419468,17.212393 z"
         style="fill:url(#linearGradient2177);fill-opacity:1;fill-rule:evenodd;stroke:none" />
    </g>
    <g
       id="g368"
       transform="matrix(0.64450844,-0.03459212,0.03459212,0.64450844,-0.64101922,33.329926)">
      <path
         id="path3740"
         d="m 39.179977,4.2454423 c -0.352426,0.052732 -0.69612,0.1111499 -1.046764,0.1848493 -8.837133,1.9299068 -16.380684,7.7352914 -22.312312,14.3526514 -2.027879,2.419087 -4.695783,6.434706 -1.956346,9.287659 1.00019,2.825659 -0.01764,6.381762 -0.616946,9.375794 -1.140958,3.939602 -3.3721637,7.800267 -2.499133,12.051705 0.726243,6.116774 6.422684,9.972382 11.875926,11.652415 5.372377,1.70595 9.071152,6.251948 13.675178,9.272895 3.215743,2.542434 7.643478,5.126769 11.753098,3.048186 3.880265,-1.891727 5.616445,-6.760977 10.124804,-7.641189 2.088811,-0.621965 4.350408,-1.225029 6.453963,-2.081979 0.191552,0.892072 0.339023,2.076894 0.379623,3.671234 -0.0058,-0.228969 -0.250489,1.087014 -0.923656,2.535564 -0.673171,1.448553 -1.640631,3.251851 -2.704798,5.038765 -2.128332,3.573828 -4.577641,7.157341 -5.714369,8.858826 l -4.352531,6.511769 7.514309,-2.174068 c 5.110367,-1.480501 10.397759,-4.650156 15.196408,-9.457597 0.797925,1.463143 2.167867,3.719672 4.845927,5.701854 l 2.69402,2.005867 1.518655,-3.001682 C 87.393001,75.038518 88.269006,69.434091 86.64835,62.26181 85.247017,56.060163 82.592333,52.239835 79.714376,49.633134 78.994885,48.981459 78.293136,48.399692 77.591274,47.859505 77.240227,40.417947 76.995013,32.899056 75.414582,25.659392 73.504463,19.239134 66.920832,16.318708 61.279931,13.895533 55.924396,11.576579 50.447968,8.9469538 46.622816,4.3874134 44.159844,3.9995592 41.646959,3.8763214 39.179977,4.2454423 z"
         style="color:#000000;fill:#000000;fill-opacity:0.29411765;fill-rule:evenodd;stroke:none;stroke-width:5.70000029;marker:none;visibility:visible;display:inline;overflow:visible;enable-background:accumulate" />
      <path
         style="color:#000000;fill:url(#linearGradient3745);fill-opacity:1;fill-rule:evenodd;stroke:#593a28;stroke-width:5.70000029;stroke-linecap:butt;stroke-linejoin:miter;stroke-miterlimit:4;stroke-opacity:1;stroke-dasharray:none;stroke-dashoffset:0;marker:none;visibility:visible;display:inline;overflow:visible;enable-background:accumulate"
         d="m 52.082389,53.024118 c 5.604858,4.741679 9.652973,2.488847 9.920098,12.978452 0.08798,3.45497 -7.580498,14.734926 -9.825161,18.094796 5.320434,-1.541363 11.064619,-5.057297 16.068776,-10.857348 2.383862,0.707063 1.945874,4.208115 6.467243,7.554633 4.173786,-8.138789 4.833881,-12.528126 3.310874,-19.268259 C 75.43499,50.067651 69.095364,49.176879 63.920797,43.900939 c -4.430098,6.149223 -11.007911,6.40743 -11.838408,9.123179 z"
         id="path3726"
         sodipodi:nodetypes="cscccscc" />
      <path
         sodipodi:nodetypes="cscccscc"
         id="path3714"
         d="m 52.082389,53.024118 c 5.604858,4.741679 9.652973,2.488847 9.920098,12.978452 0.08798,3.45497 -7.580498,14.734926 -9.825161,18.094796 5.320434,-1.541363 11.064619,-5.057297 16.068776,-10.857348 2.383862,0.707063 1.945874,4.208115 6.467243,7.554633 4.173786,-8.138789 4.833881,-12.528126 3.310874,-19.268259 C 75.43499,50.067651 69.095364,49.176879 63.920797,43.900939 c -4.430098,6.149223 -11.007911,6.40743 -11.838408,9.123179 z"
         style="color:#000000;fill:url(#linearGradient3743);fill-opacity:1;fill-rule:evenodd;stroke:#593a28;stroke-width:0;stroke-linecap:butt;stroke-linejoin:miter;stroke-miterlimit:4;stroke-opacity:1;stroke-dasharray:none;stroke-dashoffset:0;marker:none;visibility:visible;display:inline;overflow:visible;enable-background:accumulate" />
      <path
         sodipodi:nodetypes="cccccccccc"
         id="path1797"
         d="m 67.270409,44.237078 c 0,0 -9.248705,3.431465 -4.892768,8.759392 -2.192319,3.501423 -1.577651,4.094711 -11.441025,6.932888 C 41.073248,62.767533 42.675469,72.178506 34.176674,66.22231 25.677879,60.266112 23.780607,57.311342 18.408415,55.496501 13.036221,53.681658 5.8200392,50.086947 9.5367433,41.315894 13.253449,32.544843 12.265891,23.727159 12.265891,23.727159 5.3160518,26.00702 23.735618,4.463499 38.516337,6.3716061 49.018935,17.632409 65.991963,16.039105 65.963258,28.369883 c 0.827743,5.292945 1.307151,15.867195 1.307151,15.867195 z"
         style="fill:none;stroke:#593a28;stroke-width:8.28701305;stroke-linecap:butt;stroke-linejoin:miter;stroke-miterlimit:4;stroke-opacity:1" />
      <path
         id="path2939"
         d="M 32.040944,2.5114113 C 23.203812,4.4413177 15.672866,10.24481 9.741238,16.862171 c -2.0278783,2.419086 -4.718184,6.435282 -1.9787473,9.288236 1.0001907,2.825659 -0.020644,6.380442 -0.6199534,9.374473 -1.1409588,3.939602 -3.36573,7.814039 -2.4926987,12.065477 0.7262428,6.116775 6.4350154,9.970759 11.8882584,11.650791 5.372376,1.705951 9.078856,6.246947 13.682882,9.267895 3.215742,2.542432 7.635735,5.128706 11.745355,3.050122 3.880263,-1.891729 5.61052,-6.767425 10.118879,-7.647637 4.808898,-1.431896 10.571922,-2.638957 13.075767,-7.523775 0.531866,-1.2986 1.962552,-2.598481 2.181366,-3.848876 -0.778679,-1.177049 -3.041277,-2.582011 -0.581149,-3.397538 1.465855,-0.961911 3.157634,-1.444112 4.77711,-2.069473 C 71.153372,39.263863 70.97651,31.33961 69.31609,23.733527 67.405968,17.31327 60.821989,14.406586 55.181088,11.983411 49.825553,9.6644578 44.355698,7.0280729 40.530547,2.468533 37.715722,2.0252709 34.846099,1.9218154 32.040944,2.5114113 z"
         style="fill:#593a28;fill-opacity:1;stroke:none" />
      <path
         sodipodi:nodetypes="cccccccccc"
         id="path1790"
         d="m 67.270409,44.237078 c 0,0 -9.248705,3.431465 -4.892768,8.759392 -2.192319,3.501423 -1.577651,4.094711 -11.441025,6.932888 C 41.073248,62.767533 42.675469,72.178506 34.176674,66.22231 25.677879,60.266112 23.780607,57.311342 18.408415,55.496501 13.036221,53.681658 5.8200392,50.086947 9.5367433,41.315894 13.253449,32.544843 12.265891,23.727159 12.265891,23.727159 5.3160518,26.00702 23.735618,4.463499 38.516337,6.3716061 49.018935,17.632409 61.742567,13.061009 65.963258,28.369883 c 0.827743,5.292945 1.307151,15.867195 1.307151,15.867195 z"
         style="fill:url(#linearGradient2919);fill-opacity:1;fill-rule:evenodd;stroke:none" />
      <path
         transform="matrix(-1.2259183,-1.1832788,-1.1196756,1.1600232,183.07589,25.127027)"
         d="m 68.189415,68.189415 c 0,6.507422 -5.275308,11.78273 -11.78273,11.78273 -6.507422,0 -11.78273,-5.275308 -11.78273,-11.78273 0,-6.507422 5.275308,-11.78273 11.78273,-11.78273 6.507422,0 11.78273,5.275308 11.78273,11.78273 z"
         sodipodi:ry="11.78273"
         sodipodi:rx="11.78273"
         sodipodi:cy="68.189415"
         sodipodi:cx="56.406685"
         id="path1161"
         style="fill:url(#radialGradient2925);fill-opacity:1;fill-rule:nonzero;stroke:none"
         sodipodi:type="arc" />
      <path
         id="path2937"
         d="M 32.040944,2.5114113"
         style="fill:#593a28;fill-opacity:1;stroke:none" />
      <path
         id="path2935"
         d="M 32.040944,2.5114113"
         style="fill:#593a28;fill-opacity:1;stroke:none" />
      <path
         id="path3738"
         d="M 63.57453,39.489368"
         style="color:#000000;fill:#593a28;fill-opacity:1;fill-rule:evenodd;stroke:none;stroke-width:5.70000029;marker:none;visibility:visible;display:inline;overflow:visible;enable-background:accumulate" />
      <path
         id="path3736"
         d="M 63.57453,39.489368"
         style="color:#000000;fill:#593a28;fill-opacity:1;fill-rule:evenodd;stroke:none;stroke-width:5.70000029;marker:none;visibility:visible;display:inline;overflow:visible;enable-background:accumulate" />
    </g>
  </g>
</svg>
