<?xml version="1.0" encoding="UTF-8" standalone="no"?>
<!-- Created with Sodipodi ("http://www.sodipodi.com/") -->
<svg
   xmlns:dc="http://purl.org/dc/elements/1.1/"
   xmlns:cc="http://web.resource.org/cc/"
   xmlns:rdf="http://www.w3.org/1999/02/22-rdf-syntax-ns#"
   xmlns:svg="http://www.w3.org/2000/svg"
   xmlns="http://www.w3.org/2000/svg"
   xmlns:xlink="http://www.w3.org/1999/xlink"
   xmlns:sodipodi="http://sodipodi.sourceforge.net/DTD/sodipodi-0.dtd"
   xmlns:inkscape="http://www.inkscape.org/namespaces/inkscape"
   id="svg548"
   sodipodi:version="0.32"
   width="72pt"
   height="72pt"
   sodipodi:docbase="/home/tweenk/GNUtoon/apps"
   sodipodi:docname="sound-juicer.svg"
   inkscape:version="0.45.1"
   inkscape:output_extension="org.inkscape.output.svg.inkscape">
  <metadata
     id="metadata42">
    <rdf:RDF>
      <cc:Work
         rdf:about="">
        <dc:format>image/svg+xml</dc:format>
        <dc:type
           rdf:resource="http://purl.org/dc/dcmitype/StillImage" />
      </cc:Work>
    </rdf:RDF>
  </metadata>
  <defs
     id="defs550">
    <linearGradient
       inkscape:collect="always"
       id="linearGradient4216">
      <stop
         style="stop-color:#ff933d;stop-opacity:1;"
         offset="0"
         id="stop4218" />
      <stop
         style="stop-color:#ff933d;stop-opacity:0;"
         offset="1"
         id="stop4220" />
    </linearGradient>
    <linearGradient
       inkscape:collect="always"
       id="linearGradient4208">
      <stop
         style="stop-color:#ff933d;stop-opacity:1;"
         offset="0"
         id="stop4210" />
      <stop
         style="stop-color:#ff933d;stop-opacity:0;"
         offset="1"
         id="stop4212" />
    </linearGradient>
    <linearGradient
       inkscape:collect="always"
       id="linearGradient4200">
      <stop
         style="stop-color:#ff933d;stop-opacity:1;"
         offset="0"
         id="stop4202" />
      <stop
         style="stop-color:#ff933d;stop-opacity:0;"
         offset="1"
         id="stop4204" />
    </linearGradient>
    <linearGradient
       inkscape:collect="always"
       id="linearGradient4192">
      <stop
         style="stop-color:#ff933d;stop-opacity:1;"
         offset="0"
         id="stop4194" />
      <stop
         style="stop-color:#ff933d;stop-opacity:0;"
         offset="1"
         id="stop4196" />
    </linearGradient>
    <linearGradient
       inkscape:collect="always"
       id="linearGradient4184">
      <stop
         style="stop-color:#ff933d;stop-opacity:1;"
         offset="0"
         id="stop4186" />
      <stop
         style="stop-color:#ff933d;stop-opacity:0;"
         offset="1"
         id="stop4188" />
    </linearGradient>
    <linearGradient
       id="linearGradient4168">
      <stop
         style="stop-color:#ff933d;stop-opacity:1;"
         offset="0"
         id="stop4170" />
      <stop
         style="stop-color:#f1e36c;stop-opacity:1;"
         offset="1"
         id="stop4172" />
    </linearGradient>
    <linearGradient
       id="linearGradient4152">
      <stop
         style="stop-color:#ffe6ba;stop-opacity:1;"
         offset="0"
         id="stop4154" />
      <stop
         style="stop-color:#ffffff;stop-opacity:1;"
         offset="1"
         id="stop4156" />
    </linearGradient>
    <linearGradient
       id="linearGradient566">
      <stop
         style="stop-color:#ffffff;stop-opacity:1;"
         offset="0.000000"
         id="stop567" />
      <stop
         style="stop-color:#ffffff;stop-opacity:0;"
         offset="1.000000"
         id="stop568" />
    </linearGradient>
    <linearGradient
       id="linearGradient558">
      <stop
         style="stop-color:#7fa8e3;stop-opacity:0.741176;"
         offset="0.000000"
         id="stop559" />
      <stop
         style="stop-color:#ffffff;stop-opacity:0;"
         offset="1.000000"
         id="stop560" />
    </linearGradient>
    <linearGradient
       xlink:href="#linearGradient558"
       id="linearGradient561"
       x1="73.0144653"
       y1="38.8011742"
       x2="46.2984352"
       y2="43.8150940"
       gradientUnits="userSpaceOnUse"
       gradientTransform="scale(0.766548,1.304550)"
       spreadMethod="pad" />
    <linearGradient
       xlink:href="#linearGradient558"
       id="linearGradient563"
       x1="23.9531670"
       y1="24.2094688"
       x2="45.7012291"
       y2="18.4172096"
       gradientUnits="userSpaceOnUse"
       gradientTransform="scale(0.986297,1.013893)"
       spreadMethod="pad" />
    <linearGradient
       xlink:href="#linearGradient566"
       id="linearGradient565"
       x1="23.8109703"
       y1="38.8476372"
       x2="46.7923088"
       y2="38.8476372"
       gradientUnits="userSpaceOnUse"
       spreadMethod="pad"
       gradientTransform="scale(0.839949,1.190549)" />
    <linearGradient
       xlink:href="#linearGradient566"
       id="linearGradient570"
       x1="37.2327957"
       y1="15.7551279"
       x2="53.1239204"
       y2="17.6949825"
       gradientUnits="userSpaceOnUse"
       spreadMethod="pad"
       gradientTransform="scale(0.982487,1.017825)" />
    <radialGradient
       xlink:href="#linearGradient566"
       id="radialGradient787"
       cx="0.00626487"
       cy="0.02344454"
       fx="0.00626487"
       fy="0.02344454"
       r="1.01254535"
       gradientUnits="objectBoundingBox"
       spreadMethod="pad" />
    <radialGradient
       xlink:href="#linearGradient566"
       id="radialGradient799"
       cx="0.01886867"
       cy="0.03124458"
       fx="0.01886867"
       fy="0.03124458"
       r="1.09541798"
       gradientUnits="objectBoundingBox"
       spreadMethod="pad" />
    <radialGradient
       xlink:href="#linearGradient566"
       id="radialGradient800"
       cx="-0.00001126"
       cy="0.04684180"
       fx="-0.00001126"
       fy="0.04684180"
       r="1.04108524"
       gradientUnits="objectBoundingBox"
       spreadMethod="pad" />
    <linearGradient
       inkscape:collect="always"
       xlink:href="#linearGradient4152"
       id="linearGradient4158"
       x1="13.511364"
       y1="27.816328"
       x2="49.653019"
       y2="48.77766"
       gradientUnits="userSpaceOnUse" />
    <linearGradient
       inkscape:collect="always"
       xlink:href="#linearGradient4168"
       id="linearGradient4174"
       x1="11.617563"
       y1="78.390663"
       x2="15.865355"
       y2="56.277641"
       gradientUnits="userSpaceOnUse"
       gradientTransform="matrix(1.1002107,0,0,1.1002107,-1.5681501,-8.4677243)" />
    <linearGradient
       inkscape:collect="always"
       xlink:href="#linearGradient4184"
       id="linearGradient4190"
       x1="11.67354"
       y1="23.131874"
       x2="18.370438"
       y2="51.704552"
       gradientUnits="userSpaceOnUse" />
    <linearGradient
       inkscape:collect="always"
       xlink:href="#linearGradient4192"
       id="linearGradient4198"
       x1="11.67354"
       y1="23.131874"
       x2="18.370438"
       y2="51.704552"
       gradientUnits="userSpaceOnUse" />
    <linearGradient
       inkscape:collect="always"
       xlink:href="#linearGradient4200"
       id="linearGradient4206"
       x1="11.67354"
       y1="23.131874"
       x2="18.370438"
       y2="51.704552"
       gradientUnits="userSpaceOnUse" />
    <linearGradient
       inkscape:collect="always"
       xlink:href="#linearGradient4208"
       id="linearGradient4214"
       x1="11.67354"
       y1="23.131874"
       x2="18.370438"
       y2="51.704552"
       gradientUnits="userSpaceOnUse" />
    <linearGradient
       inkscape:collect="always"
       xlink:href="#linearGradient4216"
       id="linearGradient4222"
       x1="11.67354"
       y1="23.131874"
       x2="18.370438"
       y2="51.704552"
       gradientUnits="userSpaceOnUse" />
  </defs>
  <sodipodi:namedview
     id="base"
     inkscape:zoom="0.56527778"
     inkscape:cx="114.06738"
     inkscape:cy="167.38108"
     inkscape:window-width="795"
     inkscape:window-height="619"
     inkscape:window-x="44"
     inkscape:window-y="39"
     inkscape:current-layer="svg548" />
  <path
     transform="matrix(0.340965,0.853908,-0.974660,0.385714,75.14535,-7.185087)"
     style="font-size:12;fill-opacity:0.298246;fill-rule:evenodd;stroke-width:1pt;"
     d="M 85 46.7187 C 85 68.195 66.73 85.625 44.2188 85.625 C 21.7075 85.625 3.4375 68.195 3.4375 46.7187 C 3.4375 25.2425 21.7075 7.81246 44.2188 7.81246 C 66.73 7.81246 85 25.2425 85 46.7187 z "
     id="path616" />
  <path
     transform="matrix(1.076368,0.216611,-0.321239,1.002447,10.48794,-10.49991)"
     style="font-size:12;fill:#143c69;fill-rule:evenodd;stroke-width:1pt;"
     d="M 75.9375,42.3437 C 75.9375,62.9575 60.1875,79.6875 40.7813,79.6875 C 39.792844,79.6875 37.949125,79.500067 36.981239,79.414958 C 36.182698,87.216656 29.24731,88.979148 23.935057,88.35576 C 17.583669,87.61043 15.814426,81.531102 16.56112,69.403933 C 9.8256218,62.599284 5.625,52.989408 5.625,42.3437 C 5.625,21.73 21.375,4.99996 40.7813,4.99996 C 60.1875,4.99996 75.9375,21.73 75.9375,42.3437 z "
     id="path613"
     sodipodi:nodetypes="cscscssc" />
  <path
     transform="matrix(0.940824,0.190037,-0.280786,0.879465,13.99018,-4.208603)"
     style="font-size:12;fill:url(#linearGradient4158);fill-rule:evenodd;stroke-width:1pt;stroke:none;fill-opacity:1.0"
     d="M 75.9375,42.3437 C 75.9375,62.9575 60.1875,79.6875 40.7813,79.6875 C 38.550118,79.6875 36.367266,79.466353 34.251125,79.043583 C 31.870232,71.777391 22.171512,56.209 16.997901,54.316509 C 16.791102,59.167675 17.620843,64.961137 16.288179,69.125223 C 9.7123313,62.338143 5.625,52.84487 5.625,42.3437 C 5.625,21.73 21.375,4.99996 40.7813,4.99996 C 60.1875,4.99996 75.9375,21.73 75.9375,42.3437 z "
     id="path612"
     sodipodi:nodetypes="cscccssc" />
  <path
     transform="matrix(0.356290,7.133780e-2,-0.106333,0.330141,28.25376,22.01754)"
     style="font-size:12;fill:#143c69;fill-rule:evenodd;stroke-width:1pt;"
     d="M 75.9375 42.3437 C 75.9375 62.9575 60.1875 79.6875 40.7813 79.6875 C 21.375 79.6875 5.625 62.9575 5.625 42.3437 C 5.625 21.73 21.375 4.99996 40.7813 4.99996 C 60.1875 4.99996 75.9375 21.73 75.9375 42.3437 z "
     id="path614" />
  <path
     transform="matrix(0.229217,4.476326e-2,-6.840878e-2,0.207158,31.51759,28.30885)"
     style="font-size:12;fill:#bebebe;fill-rule:evenodd;stroke-width:1pt;"
     d="M 75.9375 42.3437 C 75.9375 62.9575 60.1875 79.6875 40.7813 79.6875 C 21.375 79.6875 5.625 62.9575 5.625 42.3437 C 5.625 21.73 21.375 4.99996 40.7813 4.99996 C 60.1875 4.99996 75.9375 21.73 75.9375 42.3437 z "
     id="path615" />
  <g
     id="g852"
     transform="matrix(0.903269,0.000000,0.000000,0.903269,14.69641,-15.09424)">
    <path
       d="M 7.73398 34.2049 L 12.0429 51.3301 C 5.08232 51.2196 4.19844 55.9705 4.64039 59.1746 C 6.73961 68.2343 17.4567 65.6933 24.5277 62.7102 C 23.6438 59.506 20.3293 44.3696 19.8874 41.7178 C 23.7543 40.7235 31.8198 38.4033 31.8198 38.4033 C 31.8198 38.4033 34.6924 45.5849 35.1343 47.0212 C 26.0745 46.6897 25.4117 52.3244 26.1851 54.8656 C 27.6214 61.9367 34.0295 61.8262 37.5651 60.8318 C 40.8796 60.2795 45.52 58.2907 48.0612 57.1859 C 47.0668 53.3189 38.3384 29.233 37.2336 26.1394 C 32.9246 27.6862 7.62349 34.4258 7.73398 34.2049 z "
       transform="matrix(1.035546,0.000000,0.000000,1.035546,15.84731,24.27362)"
       style="font-size:12;fill:#0d0000;fill-opacity:0.301471;fill-rule:evenodd;stroke-width:1pt;"
       id="path635" />
    <g
       id="g843">
      <path
         d="M 7.73398 34.2049 L 12.0429 51.3301 C 5.08232 51.2196 4.19844 55.9705 4.64039 59.1746 C 6.73961 68.2343 17.4567 65.6933 24.5277 62.7102 C 23.6438 59.506 20.3293 44.3696 19.8874 41.7178 C 23.7543 40.7235 31.8198 38.4033 31.8198 38.4033 C 31.8198 38.4033 34.6924 45.5849 35.1343 47.0212 C 26.0745 46.6897 25.4117 52.3244 26.1851 54.8656 C 27.6214 61.9367 34.0295 61.8262 37.5651 60.8318 C 40.8796 60.2795 45.52 58.2907 48.0612 57.1859 C 47.0668 53.3189 38.3384 29.233 37.2336 26.1394 C 32.9246 27.6862 7.62349 34.4258 7.73398 34.2049 z "
         style="font-size:12;fill:#0d3c07;fill-rule:evenodd;stroke-width:1pt;"
         id="path773"
         transform="translate(15.12500,24.57589)" />
      <path
         d="M 15.7994 54.2027 L 11.159 35.9726 L 35.7973 29.1225 L 44.7466 54.9761 C 44.7466 54.9761 33.3666 59.506 31.7093 57.5173 C 28.9471 57.4067 26.7375 51.2197 33.4771 50.0043 C 37.1231 49.8938 38.5594 49.6728 39.5538 50.0042 L 33.3666 34.0944 L 15.247 39.3977 L 20.3293 60.0584 C 20.3293 60.0584 13.7002 64.9198 7.95495 60.1689 C 6.73961 59.0641 6.62912 56.0809 8.61786 54.9761 C 10.2751 52.8769 15.6889 54.4237 15.7994 54.2027 z "
         style="font-size:12;fill:#2aaf18;fill-rule:evenodd;stroke-width:1pt;"
         id="path574"
         transform="translate(15.12500,24.57589)" />
      <path
         d="M 14.4736 57.5725 C 12.6184 56.7928 11.9994 58.2032 11.601 60.0584 C 10.0153 60.0584 8.87676 59.2416 8.87676 57.8693 C 8.87676 56.4971 9.94109 55.5318 11.5268 55.5318 C 13.1125 55.5318 14.4736 56.2003 14.4736 57.5725 z "
         transform="matrix(1.488889,0.000000,0.000000,1.488889,9.121962,-4.123091)"
         style="font-size:12;fill:url(#radialGradient799);fill-rule:evenodd;stroke-width:1pt;"
         id="path623" />
      <path
         d="M 37.3441 53.6503 C 33.3666 51.8834 34.4706 54.4237 33.6428 56.8544 C 31.5997 56.8544 29.9416 55.4189 29.9416 53.6503 C 29.9416 51.8816 31.5997 50.4462 33.6428 50.4462 C 35.6859 50.4462 37.3441 51.8816 37.3441 53.6503 z "
         style="font-size:12;fill:url(#radialGradient800);fill-rule:evenodd;stroke-width:1pt;"
         id="path625"
         transform="translate(15.12500,24.57589)" />
      <path
         d="M 15.3575 39.5082 L 33.3666 34.2049 L 33.8085 32.5476 L 15.7994 37.7404 L 15.3575 39.5082 z "
         style="font-size:12;fill:#34674b;fill-rule:evenodd;stroke-width:1pt;"
         id="path630"
         transform="translate(15.12500,24.57589)" />
      <path
         d="M 11.159 35.9726 L 13.3687 36.5251 L 36.1287 30.2274 L 35.6868 29.1225 L 11.159 35.9726 z "
         style="font-size:12;fill:#cbff87;fill-rule:evenodd;stroke-width:1pt;"
         id="path631"
         transform="translate(15.12500,24.57589)" />
      <path
         d="M 33.6981 32.879 L 39.6643 49.8938 L 33.2561 34.2049 L 33.6981 32.879 z "
         style="font-size:12;fill:#cbff87;fill-rule:evenodd;stroke-width:1pt;"
         id="path633"
         transform="translate(15.12500,24.57589)" />
      <path
         d="M 13.1478 36.1936 C 13.1478 36.1936 16.1309 54.3132 16.0204 54.3132 C 15.9099 54.3132 11.2695 36.0831 11.2695 36.0831 L 13.1478 36.1936 z "
         style="font-size:12;fill:#cbff87;fill-rule:evenodd;stroke-width:1pt;"
         id="path634"
         transform="translate(15.12500,24.57589)" />
    </g>
  </g>
  <g
     id="g836"
     transform="matrix(0.764900,0.000000,0.000000,0.764900,19.82537,-14.33973)">
    <path
       d="M 59.5517 32.3266 L 63.5291 56.8544 C 52.7015 54.3132 51.9282 59.948 52.1491 63.152 C 52.7016 75.8578 66.6227 75.416 71.926 72.6538 C 72.147 68.8973 71.926 40.7235 71.926 40.7235 C 76.3454 35.9727 84.4109 27.0233 86.7311 24.4821 C 80.8753 25.808 62.5347 31.6637 59.5517 32.3266 z "
       transform="translate(1.257715,1.229801)"
       style="font-size:12;fill:#0d0007;fill-opacity:0.3;fill-rule:evenodd;stroke-width:1pt;"
       id="path636" />
    <path
       d="M 59.5517 32.3266 L 63.5291 56.8544 C 52.7015 54.3132 51.9282 59.948 52.1491 63.152 C 52.7016 75.8578 66.6227 75.416 71.926 72.6538 C 72.147 68.8973 71.926 40.7235 71.926 40.7235 C 76.3454 35.9727 84.4109 27.0233 86.7311 24.4821 C 80.8753 25.808 62.5347 31.6637 59.5517 32.3266 z "
       style="font-size:12;fill:#0d3c07;fill-rule:evenodd;stroke-width:1pt;"
       id="path617"
       transform="translate(-0.620537,-0.758934)" />
    <path
       d="M 67.5066 63.9254 L 63.1977 35.6412 L 80.4334 28.1282 L 67.9485 39.6186 C 67.838 41.3864 69.6058 67.3505 69.2744 69.3392 C 69.6059 70.9966 67.1751 70.665 64.8549 70.665 C 56.0162 69.2287 53.1435 62.5996 58.5573 60.0584 C 61.5404 59.5061 66.5122 61.2738 67.5066 63.9254 z "
       style="font-size:12;fill:#2aaf18;fill-rule:evenodd;stroke-width:1pt;"
       id="path575"
       transform="translate(-0.620537,-0.758934)" />
    <path
       d="M 14.4736 57.5725 C 12.6184 56.7928 11.9994 58.2032 11.601 60.0584 C 10.0153 60.0584 8.87676 59.2416 8.87676 57.8693 C 8.87676 56.4971 9.94109 55.5318 11.5268 55.5318 C 13.1125 55.5318 14.4736 56.2003 14.4736 57.5725 z "
       transform="matrix(1.488889,0.000000,0.000000,1.488889,42.21099,-23.38121)"
       style="font-size:12;fill:url(#radialGradient787);fill-rule:evenodd;stroke-width:1pt;"
       id="path628" />
    <path
       d="M 67.9485 39.8396 L 67.3961 37.9614 L 80.2124 28.2386 L 67.9485 39.8396 z "
       style="font-size:12;fill:#34674b;fill-rule:evenodd;stroke-width:1pt;"
       id="path629"
       transform="translate(-0.620537,-0.758934)" />
    <path
       d="M 79.881 28.4596 L 64.634 36.5251 L 67.5066 63.4835 L 63.1977 35.5307 L 79.881 28.4596 z "
       style="font-size:12;fill:#cbff87;fill-rule:evenodd;stroke-width:1pt;"
       id="path632"
       transform="translate(-0.620537,-0.758934)" />
  </g>
  <path
     style="fill:url(#linearGradient4198);fill-opacity:1.0;fill-rule:evenodd;stroke:none;stroke-width:1px;stroke-linecap:butt;stroke-linejoin:miter;stroke-opacity:1"
     d="M 8.575894,38.546239 C 9.6567885,40.414176 22.641437,41.961847 23.471426,38.264773 C 24.301416,34.567699 14.779719,27.698125 12.433247,28.370376 C 10.086776,29.042627 7.4949994,36.678302 8.575894,38.546239 z "
     id="path3171"
     sodipodi:nodetypes="czzz" />
  <path
     style="fill:url(#linearGradient4174);fill-opacity:1;fill-rule:evenodd;stroke:none;stroke-width:2;stroke-linecap:butt;stroke-linejoin:miter;stroke-miterlimit:4;stroke-dasharray:none;stroke-opacity:1"
     d="M 15.462139,49.678548 C 14.48898,61.84304 -3.0278891,80.333068 14.0024,80.576358 C 31.03269,80.819648 15.462139,49.435259 15.462139,49.678548 z "
     id="path3173" />
  <path
     sodipodi:nodetypes="czzz"
     id="path4176"
     d="M 14.250059,25.274773 C 14.518731,27.319259 25.407655,33.446534 27.49576,30.488943 C 29.583864,27.531352 23.701993,17.978446 21.385149,17.711079 C 19.068305,17.443712 13.981388,23.230286 14.250059,25.274773 z "
     style="fill:url(#linearGradient4222);fill-opacity:1.0;fill-rule:evenodd;stroke:none;stroke-width:1px;stroke-linecap:butt;stroke-linejoin:miter;stroke-opacity:1" />
  <path
     style="fill:url(#linearGradient4214);fill-opacity:1.0;fill-rule:evenodd;stroke:none;stroke-width:1px;stroke-linecap:butt;stroke-linejoin:miter;stroke-opacity:1"
     d="M 24.209787,15.853067 C 23.661311,17.890018 31.544089,27.951797 34.677442,25.977045 C 37.810796,24.002295 36.002705,12.66905 33.918797,11.507273 C 31.834891,10.345496 24.758265,13.816112 24.209787,15.853067 z "
     id="path4178"
     sodipodi:nodetypes="czzz" />
  <path
     sodipodi:nodetypes="czzz"
     id="path4180"
     d="M 37.986759,10.855101 C 36.650406,12.487326 39.707657,24.89824 43.375489,24.383896 C 47.043322,23.869555 50.047235,12.793087 48.62397,10.87822 C 47.200707,8.9633542 39.323115,9.2228732 37.986759,10.855101 z "
     style="fill:url(#linearGradient4206);fill-opacity:1.0;fill-rule:evenodd;stroke:none;stroke-width:1px;stroke-linecap:butt;stroke-linejoin:miter;stroke-opacity:1" />
  <path
     sodipodi:nodetypes="czzz"
     id="path4182"
     d="M 9.8489652,53.526463 C 11.634469,54.738691 24.000598,50.487195 23.14069,46.796965 C 22.280783,43.106735 10.719431,41.060056 8.898597,42.685607 C 7.0777645,44.311158 8.0634614,52.314234 9.8489652,53.526463 z "
     style="fill:url(#linearGradient4190);fill-opacity:1.0;fill-rule:evenodd;stroke:none;stroke-width:1px;stroke-linecap:butt;stroke-linejoin:miter;stroke-opacity:1" />
</svg>
