<?xml version="1.0" encoding="UTF-8" standalone="no"?>
<!-- Created with Sodipodi ("http://www.sodipodi.com/") -->

<svg
   xmlns:dc="http://purl.org/dc/elements/1.1/"
   xmlns:cc="http://creativecommons.org/ns#"
   xmlns:rdf="http://www.w3.org/1999/02/22-rdf-syntax-ns#"
   xmlns:svg="http://www.w3.org/2000/svg"
   xmlns="http://www.w3.org/2000/svg"
   xmlns:xlink="http://www.w3.org/1999/xlink"
   xmlns:sodipodi="http://sodipodi.sourceforge.net/DTD/sodipodi-0.dtd"
   xmlns:inkscape="http://www.inkscape.org/namespaces/inkscape"
   version="1"
   x="0.00000000"
   y="0.00000000"
   width="90.0000000"
   height="90.0000000"
   id="folder_svg_svg548"
   sodipodi:version="0.32"
   sodipodi:docname="folder-documents.svg"
   inkscape:version="0.47+devel r9192 custom"
   inkscape:output_extension="org.inkscape.output.svg.inkscape">
  <metadata
     id="metadata19">
    <rdf:RDF>
      <cc:Work
         rdf:about="">
        <dc:format>image/svg+xml</dc:format>
        <dc:type
           rdf:resource="http://purl.org/dc/dcmitype/StillImage" />
        <dc:title></dc:title>
      </cc:Work>
    </rdf:RDF>
  </metadata>
  <sodipodi:namedview
     id="base"
     inkscape:zoom="2.2611111"
     inkscape:cx="28.200759"
     inkscape:cy="12.341278"
     inkscape:window-width="795"
     inkscape:window-height="724"
     inkscape:window-x="114"
     inkscape:window-y="9"
     inkscape:current-layer="folder_svg_svg548"
     showgrid="false"
     showguides="true"
     inkscape:guide-bbox="true"
     inkscape:window-maximized="0" />
  <defs
     id="defs550">
    <linearGradient
       spreadMethod="pad"
       gradientUnits="objectBoundingBox"
       id="linearGradient3340"
       y2="0.00000000"
       x2="1.00000000"
       y1="0.00000000"
       x1="0.00000000">
      <stop
         id="stop3342"
         offset="0.000000"
         style="stop-color:#ffb700;stop-opacity:1" />
      <stop
         id="stop3344"
         offset="1.000000"
         style="stop-color:#ffd58f;stop-opacity:0;" />
    </linearGradient>
    <linearGradient
       inkscape:collect="always"
       xlink:href="#linearGradient3340"
       id="linearGradient3387"
       gradientUnits="userSpaceOnUse"
       gradientTransform="matrix(1.0509199,-0.1486035,0.1724016,1.4993733,-28.78467,5.713269)"
       spreadMethod="pad"
       x1="85.637657"
       y1="17.443844"
       x2="73.916298"
       y2="54.628181" />
    <linearGradient
       inkscape:collect="always"
       xlink:href="#linearGradient3340"
       id="linearGradient3296"
       gradientUnits="userSpaceOnUse"
       spreadMethod="pad"
       x1="60.644615"
       y1="19.295689"
       x2="35.370575"
       y2="69.142799" />
    <linearGradient
       spreadMethod="pad"
       gradientUnits="userSpaceOnUse"
       y2="68.0443573"
       x2="35.7520943"
       y1="5.36792946"
       x1="50.6438866"
       id="linearGradient615"
       xlink:href="#linearGradient612-5" />
    <linearGradient
       id="linearGradient612-5">
      <stop
         id="stop613-8"
         offset="0.000000"
         style="stop-color:#7fa8e3;stop-opacity:0.741176;" />
      <stop
         id="stop614-7"
         offset="1.000000"
         style="stop-color:#ffffff;stop-opacity:0;" />
    </linearGradient>
  </defs>
  <path
     d="M 32.5076 12.1608 C 32.0388 12.0045 25.3201 7.94201 25.0076 12.942 C 24.6951 17.942 23.7434 54.4234 26.2434 59.4235 C 27.3371 62.5485 30.1496 67.236 35.1496 70.5173 C 39.2121 73.1735 62.9754 88.0916 64.8504 88.2478 C 66.7254 88.4041 70.6317 89.6541 71.4129 84.3416 C 72.1942 79.029 74.9934 64.7445 75.3535 59.0032 C 75.1973 53.847 77.3856 50.4095 72.8268 45.8031 C 69.7018 43.9281 38.2679 19.4101 36.5491 18.3164 C 34.8304 17.2226 33.3974 16.6862 32.5076 12.1608 z "
     transform="matrix(1.418885,-0.200635,0.127692,1.110535,-25.22021,4.335069)"
     style="font-size:12;fill:#000009;fill-opacity:0.301471;fill-rule:evenodd;stroke-width:1pt;"
     id="folder_svg_path783"
     sodipodi:nodetypes="cccccccccc" />
  <path
     d="M 27.3438 9.06248 C 26.875 8.90623 20.1563 4.84373 19.8438 9.84373 C 19.5313 14.8437 21.7948 51.43 24.2948 56.43 C 25.3885 59.555 28.201 64.2425 33.201 67.5238 C 37.2635 70.18 63.75 84.2187 65.625 84.375 C 67.5 84.5312 71.4063 85.7812 72.1875 80.4687 C 72.9688 75.1562 75.2238 42.4099 75.0675 41.3162 C 74.9113 36.1599 71.1613 32.7225 69.4426 31.4724 C 66.3176 29.5974 36.7188 11.4062 35 10.3125 C 33.2813 9.21873 28.75 6.87498 27.3438 9.06248 z "
     transform="matrix(1.418885,-0.200635,0.127692,1.110535,-28.78467,5.713269)"
     style="font-size:12;fill:#593a28;fill-rule:evenodd;stroke-width:1pt"
     id="folder_svg_path554"
     sodipodi:nodetypes="cccccccccc" />
  <path
     style="font-size:12;fill:#f1e36c;fill-rule:evenodd;stroke-width:1pt;fill-opacity:1"
     d="M 15.4375 11.75 C 15.4375 11.75 14.955374 12.509219 14.5 13.15625 C 24.460667 17.797822 26.706214 19.210219 29.59375 21.625 C 32.431177 23.997877 31.349472 30.105742 33.4375 32.75 C 36.359933 36.450939 55.605226 41.487504 57.34375 42.15625 C 60.342094 43.309601 63.40772 46.240022 64.90625 49.375 C 71.606012 63.391132 73.261382 73.084807 74.28125 79 C 67.318619 67.833612 67.182803 49.379952 53.28125 44.3125 C 46.109171 42.681463 33.827697 37.555273 32.0625 36.9375 C 25.890899 34.777601 31.05433 25.5056 22.3125 21.0625 C 18.92126 19.338878 13.112841 16.443136 8.9375 14.375 C 6.5587755 14.254418 4.6687876 15.227876 5.375 17.46875 C 6.0556711 21.428432 11.851329 59.87863 20.8125 65.3125 C 29.791321 72.85998 74.644063 82.261137 75.8125 82.625 C 76.980781 82.98877 79.410443 82.477205 79.375 78.25 C 79.339554 74.022796 79.603258 42.0335 78.71875 40.21875 C 78.379429 37.268965 76.86369 33.958759 72.59375 32.09375 C 68.323808 30.22874 16.767705 11.561905 15.4375 11.75 z "
     id="folder_svg_path552" />
  <path
     style="font-size:12;fill:url(#linearGradient3387);fill-rule:evenodd;stroke-width:1pt;fill-opacity:1.0"
     d="M 30.5625 22.8125 C 32.195807 25.627614 31.636576 30.469327 33.4375 32.75 C 36.359933 36.450939 55.605226 41.487504 57.34375 42.15625 C 60.342094 43.309601 63.40772 46.240022 64.90625 49.375 C 68.719633 57.352729 70.860825 63.87889 72.21875 69.15625 C 74.238011 73.907829 75.659871 77.490767 75.625 77.1875 C 75.525247 76.31995 75.362792 39.667871 73.25 36.96875 C 71.431182 34.64527 39.764118 25.45247 30.5625 22.8125 z "
     id="folder_svg_path562" />
  <path
     style="font-size:12;fill:url(#linearGradient3296);fill-rule:evenodd;stroke-width:1pt;fill-opacity:1"
     d="M 32.2401 16.3592 C 34.0465 17.0528 40.7504 22.4843 42.7984 25.8628 C 43.6822 29.3984 42.4278 36.1872 46.8472 40.1647 C 51.2666 44.1421 62.0666 47.0499 63.6134 50.5854 C 65.1602 54.121 71.1434 74.6929 71.5854 76.6816 C 72.0273 78.6704 38.4557 61.3834 37.3508 56.3011 C 35.6801 51.1165 33.3449 40.666 32.2401 16.3592 z "
     id="folder_svg_path635"
     transform="matrix(1.418885,-0.200635,0.127692,1.110535,-41.88497,7.389349)"
     sodipodi:nodetypes="ccccccc" />
  <g
     id="g3481"
     transform="matrix(0.59693242,-0.05799555,0.05799555,0.59693242,-2.3640159,40.308411)">
    <path
       sodipodi:nodetypes="ccccccccc"
       id="path794"
       d="m 14.47588,78.82306 c -2.4243,-1.10199 -5.730097,-4.62818 -3.96699,-9.47678 0.8815,-5.28924 16.74954,-52.01178 20.27583,-54.21566 2.20378,-1.98348 5.39954,-2.75487 9.91751,-1.54272 3.74662,0.88157 37.46609,9.6972 39.44956,11.46024 1.98356,1.76315 3.52629,3.19566 1.98356,7.05248 -1.10189,1.98346 -14.21517,46.50202 -14.43549,49.36716 -0.88157,3.08545 -3.41598,6.83206 -7.60342,6.61164 C 55.90909,87.859 17.56133,79.48421 14.47588,78.82306 z"
       style="fill:#000000;fill-opacity:0.30147143;fill-rule:evenodd;stroke:none"
       inkscape:connector-curvature="0" />
    <path
       style="fill:#3d4e67;fill-opacity:1;fill-rule:evenodd;stroke:none"
       d="m 11.919944,74.733555 c -2.4242992,-1.10199 -5.7301008,-4.62818 -3.966986,-9.476778 0.8815025,-5.289234 16.749535,-52.01177 20.275825,-54.215651 2.203781,-1.9834833 5.399543,-2.7548665 9.917514,-1.542717 3.746608,0.881562 37.466076,9.697186 39.449539,11.460231 1.983563,1.763145 3.52629,3.195662 1.983563,7.052479 -1.101891,1.983463 -14.215167,46.502018 -14.435485,49.367153 -0.881573,3.085453 -3.415981,6.832061 -7.603425,6.611643 -4.187344,-0.220418 -42.535092,-8.595206 -45.620545,-9.25636 z"
       id="path609"
       sodipodi:nodetypes="ccccccccc"
       inkscape:connector-curvature="0" />
    <path
       style="fill:#ffffff;fill-opacity:1;fill-rule:evenodd;stroke:none"
       d="m 16.98896,70.986948 c -2.534409,-0.661155 -6.171007,-1.322409 -4.848598,-5.289335 2.424299,-9.697096 14.766112,-46.942854 20.055347,-51.571034 1.212199,-1.10199 5.289334,-1.542727 13.002967,0.881572 8.815624,2.644618 26.66709,8.595106 28.430234,9.476679 1.763045,0.881572 2.424299,0.881572 1.101891,4.848598 -1.983463,3.967025 -10.798987,37.906912 -13.002968,43.636982 -1.542627,4.077235 -1.873254,5.950489 -4.517971,5.950489"
       id="path608"
       sodipodi:nodetypes="cccccccs"
       inkscape:connector-curvature="0" />
    <g
       transform="matrix(0.894577,0,0,0.894577,-0.164145,-0.127258)"
       id="g629">
      <path
         transform="matrix(1.114903,0,0,1.114903,-8.162471,-8.460684)"
         sodipodi:nodetypes="ccccccccc"
         id="path630"
         d="M 12.8163,74.753 C 10.3856,73.6481 7.07107,70.1126 8.83884,65.2512 9.72267,59.948 25.6326,13.1021 29.1682,10.8924 31.3778,8.90368 34.582,8.13026 39.1119,9.34561 c 3.7565,0.88389 37.565,9.72279 39.5537,11.49049 1.9888,1.7678 3.5356,3.2041 1.9888,7.0711 -1.1048,1.9887 -14.2527,46.6248 -14.4736,49.4975 -0.8839,3.0936 -3.425,6.8501 -7.6235,6.6291 -4.1984,-0.221 -42.6474,-8.6179 -45.741,-9.2808 z"
         style="fill:#3d4e67;fill-opacity:1;fill-rule:evenodd;stroke:none"
         inkscape:connector-curvature="0" />
      <path
         transform="matrix(1.114903,0,0,1.114903,-8.162471,-8.460684)"
         sodipodi:nodetypes="cccccccs"
         id="path631"
         d="M 17.8987,70.9965 C 15.3576,70.3336 11.7114,69.6706 13.0373,65.6932 15.468,55.9705 27.8424,18.6264 33.1456,13.986 c 1.2154,-1.1049 5.3033,-1.5468 13.0373,0.8839 8.8389,2.6516 26.7375,8.6178 28.5053,9.5017 1.7677,0.8839 2.4307,0.8839 1.1048,4.8614 -1.9887,3.9775 -10.8275,38.007 -13.0373,43.7522 -1.5467,4.088 -1.8782,5.9662 -4.5299,5.9662"
         style="fill:#ffffff;fill-opacity:1;fill-rule:evenodd;stroke:none"
         inkscape:connector-curvature="0" />
      <path
         transform="matrix(0.94678,0,0,0.94678,-0.480566,0.409517)"
         id="path632"
         d="m 28.75,13.75 c 0,0 3.125,-6.25005 10.9375,-4.37505 C 47.5,11.25 78.125,19.375 77.8125,21.875 77.5,24.375 71.875,39.0625 71.5625,40.3125 71.25,41.5625 42.5,40.9375 31.5625,47.5 20.625,54.0625 12.5,59.6875 12.5,59.6875 c 0,0 11.25,-35 16.25,-45.9375 z"
         style="fill:url(#linearGradient615);fill-opacity:1;fill-rule:evenodd;stroke:none"
         inkscape:connector-curvature="0" />
      <path
         transform="translate(1.135645,0.851736)"
         id="path633"
         d="M 29.2429,15.8991 69.8423,26.6877"
         style="fill:none;stroke:#42667e;stroke-width:1pt;stroke-linecap:butt;stroke-linejoin:miter;stroke-opacity:1"
         inkscape:connector-curvature="0" />
      <path
         transform="matrix(0.999855,-0.01703691,0.01703691,0.999855,-0.705041,5.077353)"
         id="path634"
         d="M 27.8233,19.306 67.8549,30.9464"
         style="fill:none;stroke:#42667e;stroke-width:1pt;stroke-linecap:butt;stroke-linejoin:miter;stroke-opacity:1"
         inkscape:connector-curvature="0" />
      <path
         transform="translate(-5.394323,17.0347)"
         id="path635"
         d="M 29.2429,15.8991 69.8423,26.6877"
         style="fill:none;stroke:#42667e;stroke-width:1pt;stroke-linecap:butt;stroke-linejoin:miter;stroke-opacity:1"
         inkscape:connector-curvature="0" />
      <path
         transform="translate(-11.35647,34.0694)"
         id="path637"
         d="M 29.2429,15.8991 69.8423,26.6877"
         style="fill:none;stroke:#42667e;stroke-width:1pt;stroke-linecap:butt;stroke-linejoin:miter;stroke-opacity:1"
         inkscape:connector-curvature="0" />
      <path
         transform="matrix(0.999855,-0.01703691,0.01703691,0.999855,-13.19715,38.29502)"
         id="path638"
         d="M 27.8233,19.306 67.8549,30.9464"
         style="fill:none;stroke:#42667e;stroke-width:1pt;stroke-linecap:butt;stroke-linejoin:miter;stroke-opacity:1"
         inkscape:connector-curvature="0" />
      <path
         transform="matrix(0.999855,-0.01703691,0.01703691,0.999855,-7.235008,21.26032)"
         id="path639"
         d="M 27.8233,19.306 67.8549,30.9464"
         style="fill:none;stroke:#42667e;stroke-width:1pt;stroke-linecap:butt;stroke-linejoin:miter;stroke-opacity:1"
         inkscape:connector-curvature="0" />
      <path
         sodipodi:nodetypes="csc"
         id="path640"
         d="M 6.52997,44.858 C 1.51419,41.593 2.73854,34.2968 8.51734,34.1048 14.1459,33.634 18.9274,41.1672 15.6151,45.4258"
         style="fill:none;stroke:#414141;stroke-width:3.125;stroke-linecap:round;stroke-linejoin:round;stroke-opacity:1;stroke-dasharray:none"
         inkscape:connector-curvature="0" />
      <path
         transform="translate(3.690853,-9.369087)"
         sodipodi:nodetypes="csc"
         id="path641"
         d="M 6.52997,44.858 C 1.51419,41.593 2.73854,34.2968 8.51734,34.1048 14.1459,33.634 18.9274,41.1672 15.6151,45.4258"
         style="fill:none;stroke:#414141;stroke-width:3.125;stroke-linecap:round;stroke-linejoin:round;stroke-opacity:1;stroke-dasharray:none"
         inkscape:connector-curvature="0" />
      <path
         transform="translate(7.097792,-18.73817)"
         sodipodi:nodetypes="csc"
         id="path642"
         d="M 6.52997,44.858 C 1.51419,41.593 2.73854,34.2968 8.51734,34.1048 14.1459,33.634 18.9274,41.1672 15.6151,45.4258"
         style="fill:none;stroke:#414141;stroke-width:3.125;stroke-linecap:round;stroke-linejoin:round;stroke-opacity:1;stroke-dasharray:none"
         inkscape:connector-curvature="0" />
      <path
         transform="translate(7.097792,-19.30599)"
         sodipodi:nodetypes="csc"
         id="path643"
         d="M 5.67823,43.8643 C 2.08201,42.1608 2.73854,34.2968 8.51734,34.1048 14.1459,33.634 18.7854,40.4574 16.6088,45.4258"
         style="fill:none;stroke:#b9b9b9;stroke-width:0.75;stroke-linecap:round;stroke-linejoin:round;stroke-opacity:1;stroke-dasharray:none"
         inkscape:connector-curvature="0" />
      <path
         transform="translate(3.690853,-9.936905)"
         sodipodi:nodetypes="csc"
         id="path644"
         d="M 5.67823,43.8643 C 2.08201,42.1608 2.73854,34.2968 8.51734,34.1048 14.1459,33.634 18.7854,40.4574 16.6088,45.4258"
         style="fill:none;stroke:#b9b9b9;stroke-width:0.75;stroke-linecap:round;stroke-linejoin:round;stroke-opacity:1;stroke-dasharray:none"
         inkscape:connector-curvature="0" />
      <path
         transform="translate(0,-0.567818)"
         sodipodi:nodetypes="csc"
         id="path645"
         d="M 5.67823,43.8643 C 2.08201,42.1608 2.73854,34.2968 8.51734,34.1048 14.1459,33.634 18.7854,40.4574 16.6088,45.4258"
         style="fill:none;stroke:#b9b9b9;stroke-width:0.75;stroke-linecap:round;stroke-linejoin:round;stroke-opacity:1;stroke-dasharray:none"
         inkscape:connector-curvature="0" />
    </g>
  </g>
</svg>
