<?xml version="1.0" encoding="UTF-8" standalone="no"?>
<!-- Created with Sodipodi ("http://www.sodipodi.com/") -->

<svg
   xmlns:dc="http://purl.org/dc/elements/1.1/"
   xmlns:cc="http://creativecommons.org/ns#"
   xmlns:rdf="http://www.w3.org/1999/02/22-rdf-syntax-ns#"
   xmlns:svg="http://www.w3.org/2000/svg"
   xmlns="http://www.w3.org/2000/svg"
   xmlns:xlink="http://www.w3.org/1999/xlink"
   xmlns:sodipodi="http://sodipodi.sourceforge.net/DTD/sodipodi-0.dtd"
   xmlns:inkscape="http://www.inkscape.org/namespaces/inkscape"
   version="1"
   x="0.00000000"
   y="0.00000000"
   width="90.0000000"
   height="90.0000000"
   id="folder_svg_svg548"
   sodipodi:version="0.32"
   sodipodi:docname="folder-video.svg"
   inkscape:version="0.47+devel r9192 custom"
   inkscape:output_extension="org.inkscape.output.svg.inkscape">
  <metadata
     id="metadata19">
    <rdf:RDF>
      <cc:Work
         rdf:about="">
        <dc:format>image/svg+xml</dc:format>
        <dc:type
           rdf:resource="http://purl.org/dc/dcmitype/StillImage" />
        <dc:title></dc:title>
      </cc:Work>
    </rdf:RDF>
  </metadata>
  <sodipodi:namedview
     id="base"
     inkscape:zoom="2.2611111"
     inkscape:cx="10.510341"
     inkscape:cy="47.722113"
     inkscape:window-width="795"
     inkscape:window-height="724"
     inkscape:window-x="114"
     inkscape:window-y="9"
     inkscape:current-layer="folder_svg_svg548"
     showgrid="false"
     showguides="true"
     inkscape:guide-bbox="true"
     inkscape:window-maximized="0" />
  <defs
     id="defs550">
    <linearGradient
       spreadMethod="pad"
       gradientUnits="objectBoundingBox"
       id="linearGradient3340"
       y2="0.00000000"
       x2="1.00000000"
       y1="0.00000000"
       x1="0.00000000">
      <stop
         id="stop3342"
         offset="0.000000"
         style="stop-color:#ffb700;stop-opacity:1" />
      <stop
         id="stop3344"
         offset="1.000000"
         style="stop-color:#ffd58f;stop-opacity:0;" />
    </linearGradient>
    <linearGradient
       inkscape:collect="always"
       xlink:href="#linearGradient3340"
       id="linearGradient3387"
       gradientUnits="userSpaceOnUse"
       gradientTransform="matrix(1.0509199,-0.1486035,0.1724016,1.4993733,-28.78467,5.713269)"
       spreadMethod="pad"
       x1="85.637657"
       y1="17.443844"
       x2="73.916298"
       y2="54.628181" />
    <linearGradient
       inkscape:collect="always"
       xlink:href="#linearGradient3340"
       id="linearGradient3296"
       gradientUnits="userSpaceOnUse"
       spreadMethod="pad"
       x1="60.644615"
       y1="19.295689"
       x2="35.370575"
       y2="69.142799" />
    <radialGradient
       spreadMethod="pad"
       gradientUnits="objectBoundingBox"
       xlink:href="#linearGradient612"
       id="radialGradient708"
       r="0.75628221"
       fy="0.10153580"
       fx="0.05366803"
       cy="0.10153580"
       cx="0.05366803" />
    <radialGradient
       spreadMethod="pad"
       gradientTransform="matrix(1.111950,0.000000,0.000000,0.899321,3.428790e-7,-1.512959e-6)"
       gradientUnits="userSpaceOnUse"
       xlink:href="#linearGradient612"
       id="radialGradient704"
       r="4.03522396"
       fy="62.0631676"
       fx="8.17300129"
       cy="62.0631676"
       cx="8.17300129" />
    <linearGradient
       spreadMethod="pad"
       gradientUnits="userSpaceOnUse"
       xlink:href="#linearGradient705"
       id="linearGradient615"
       y2="68.0443573"
       x2="35.7520943"
       y1="5.36792946"
       x1="50.6438866" />
    <linearGradient
       spreadMethod="pad"
       gradientUnits="objectBoundingBox"
       id="linearGradient612"
       y2="0.00000000"
       x2="1.00000000"
       y1="0.00000000"
       x1="0.00000000">
      <stop
         id="stop613"
         offset="0.00000000"
         style="stop-color:#ffffff;stop-opacity:1;" />
      <stop
         id="stop614"
         offset="1.00000000"
         style="stop-color:#ffffff;stop-opacity:0;" />
    </linearGradient>
    <linearGradient
       spreadMethod="pad"
       gradientUnits="objectBoundingBox"
       id="linearGradient705"
       y2="0.00000000"
       x2="1.00000000"
       y1="0.00000000"
       x1="0.00000000">
      <stop
         id="stop706"
         offset="0.00000000"
         style="stop-color:#7fa8e3;stop-opacity:0.741176;" />
      <stop
         id="stop707"
         offset="1.00000000"
         style="stop-color:#ffffff;stop-opacity:0;" />
    </linearGradient>
    <linearGradient
       inkscape:collect="always"
       xlink:href="#linearGradient705"
       id="linearGradient3263"
       gradientUnits="userSpaceOnUse"
       spreadMethod="pad"
       x1="50.6438866"
       y1="5.36792946"
       x2="35.7520943"
       y2="68.0443573" />
    <radialGradient
       inkscape:collect="always"
       xlink:href="#linearGradient612"
       id="radialGradient3265"
       gradientUnits="userSpaceOnUse"
       gradientTransform="matrix(1.11195,0,0,0.899321,3.42879e-7,-1.512959e-6)"
       spreadMethod="pad"
       cx="8.17300129"
       cy="62.0631676"
       fx="8.17300129"
       fy="62.0631676"
       r="4.03522396" />
    <radialGradient
       inkscape:collect="always"
       xlink:href="#linearGradient612"
       id="radialGradient3267"
       gradientUnits="userSpaceOnUse"
       spreadMethod="pad"
       cx="28.227884"
       cy="54.918088"
       fx="28.227884"
       fy="54.918088"
       r="5.2088413"
       gradientTransform="scale(1.074784,0.93041954)" />
    <linearGradient
       inkscape:collect="always"
       xlink:href="#linearGradient705"
       id="linearGradient3280"
       gradientUnits="userSpaceOnUse"
       spreadMethod="pad"
       x1="50.6438866"
       y1="5.36792946"
       x2="35.7520943"
       y2="68.0443573"
       gradientTransform="matrix(0.94678,0,0,0.94678,-74.224033,69.615455)" />
    <radialGradient
       inkscape:collect="always"
       xlink:href="#linearGradient612"
       id="radialGradient3285"
       gradientUnits="userSpaceOnUse"
       gradientTransform="matrix(1.11195,0,0,0.899321,3.42879e-7,-1.512959e-6)"
       spreadMethod="pad"
       cx="8.17300129"
       cy="62.0631676"
       fx="8.17300129"
       fy="62.0631676"
       r="4.03522396" />
    <radialGradient
       inkscape:collect="always"
       xlink:href="#linearGradient612"
       id="radialGradient3287"
       gradientUnits="userSpaceOnUse"
       gradientTransform="scale(1.074784,0.93041954)"
       spreadMethod="pad"
       cx="28.227884"
       cy="54.918088"
       fx="28.227884"
       fy="54.918088"
       r="5.2088413" />
  </defs>
  <path
     d="M 32.5076 12.1608 C 32.0388 12.0045 25.3201 7.94201 25.0076 12.942 C 24.6951 17.942 23.7434 54.4234 26.2434 59.4235 C 27.3371 62.5485 30.1496 67.236 35.1496 70.5173 C 39.2121 73.1735 62.9754 88.0916 64.8504 88.2478 C 66.7254 88.4041 70.6317 89.6541 71.4129 84.3416 C 72.1942 79.029 74.9934 64.7445 75.3535 59.0032 C 75.1973 53.847 77.3856 50.4095 72.8268 45.8031 C 69.7018 43.9281 38.2679 19.4101 36.5491 18.3164 C 34.8304 17.2226 33.3974 16.6862 32.5076 12.1608 z "
     transform="matrix(1.418885,-0.200635,0.127692,1.110535,-25.22021,4.335069)"
     style="font-size:12;fill:#000009;fill-opacity:0.301471;fill-rule:evenodd;stroke-width:1pt;"
     id="folder_svg_path783"
     sodipodi:nodetypes="cccccccccc" />
  <path
     d="M 27.3438 9.06248 C 26.875 8.90623 20.1563 4.84373 19.8438 9.84373 C 19.5313 14.8437 21.7948 51.43 24.2948 56.43 C 25.3885 59.555 28.201 64.2425 33.201 67.5238 C 37.2635 70.18 63.75 84.2187 65.625 84.375 C 67.5 84.5312 71.4063 85.7812 72.1875 80.4687 C 72.9688 75.1562 75.2238 42.4099 75.0675 41.3162 C 74.9113 36.1599 71.1613 32.7225 69.4426 31.4724 C 66.3176 29.5974 36.7188 11.4062 35 10.3125 C 33.2813 9.21873 28.75 6.87498 27.3438 9.06248 z "
     transform="matrix(1.418885,-0.200635,0.127692,1.110535,-28.78467,5.713269)"
     style="font-size:12;fill:#593a28;fill-rule:evenodd;stroke-width:1pt"
     id="folder_svg_path554"
     sodipodi:nodetypes="cccccccccc" />
  <path
     style="font-size:12;fill:#f1e36c;fill-rule:evenodd;stroke-width:1pt;fill-opacity:1"
     d="M 15.4375 11.75 C 15.4375 11.75 14.955374 12.509219 14.5 13.15625 C 24.460667 17.797822 26.706214 19.210219 29.59375 21.625 C 32.431177 23.997877 31.349472 30.105742 33.4375 32.75 C 36.359933 36.450939 55.605226 41.487504 57.34375 42.15625 C 60.342094 43.309601 63.40772 46.240022 64.90625 49.375 C 71.606012 63.391132 73.261382 73.084807 74.28125 79 C 67.318619 67.833612 67.182803 49.379952 53.28125 44.3125 C 46.109171 42.681463 33.827697 37.555273 32.0625 36.9375 C 25.890899 34.777601 31.05433 25.5056 22.3125 21.0625 C 18.92126 19.338878 13.112841 16.443136 8.9375 14.375 C 6.5587755 14.254418 4.6687876 15.227876 5.375 17.46875 C 6.0556711 21.428432 11.851329 59.87863 20.8125 65.3125 C 29.791321 72.85998 74.644063 82.261137 75.8125 82.625 C 76.980781 82.98877 79.410443 82.477205 79.375 78.25 C 79.339554 74.022796 79.603258 42.0335 78.71875 40.21875 C 78.379429 37.268965 76.86369 33.958759 72.59375 32.09375 C 68.323808 30.22874 16.767705 11.561905 15.4375 11.75 z "
     id="folder_svg_path552" />
  <path
     style="font-size:12;fill:url(#linearGradient3387);fill-rule:evenodd;stroke-width:1pt;fill-opacity:1.0"
     d="M 30.5625 22.8125 C 32.195807 25.627614 31.636576 30.469327 33.4375 32.75 C 36.359933 36.450939 55.605226 41.487504 57.34375 42.15625 C 60.342094 43.309601 63.40772 46.240022 64.90625 49.375 C 68.719633 57.352729 70.860825 63.87889 72.21875 69.15625 C 74.238011 73.907829 75.659871 77.490767 75.625 77.1875 C 75.525247 76.31995 75.362792 39.667871 73.25 36.96875 C 71.431182 34.64527 39.764118 25.45247 30.5625 22.8125 z "
     id="folder_svg_path562" />
  <path
     style="font-size:12;fill:url(#linearGradient3296);fill-rule:evenodd;stroke-width:1pt;fill-opacity:1"
     d="M 32.2401 16.3592 C 34.0465 17.0528 40.7504 22.4843 42.7984 25.8628 C 43.6822 29.3984 42.4278 36.1872 46.8472 40.1647 C 51.2666 44.1421 62.0666 47.0499 63.6134 50.5854 C 65.1602 54.121 71.1434 74.6929 71.5854 76.6816 C 72.0273 78.6704 38.4557 61.3834 37.3508 56.3011 C 35.6801 51.1165 33.3449 40.666 32.2401 16.3592 z "
     id="folder_svg_path635"
     transform="matrix(1.418885,-0.200635,0.127692,1.110535,-41.88497,7.389349)"
     sodipodi:nodetypes="ccccccc" />
  <g
     id="g5729"
     transform="matrix(1.3305695,0.13167017,-0.13167017,1.3305695,-18.886289,10.834654)">
    <path
       inkscape:connector-curvature="0"
       id="path635"
       style="font-size:12px;fill:#0d0000;fill-opacity:0.30147161;fill-rule:evenodd;stroke-width:1pt"
       transform="matrix(1.035546,0,0,1.035546,15.5616,-11.72637)"
       d="M 7.73398,34.2049 12.0429,51.3301 C 5.08232,51.2196 4.19844,55.9705 4.64039,59.1746 6.73961,68.2343 17.4567,65.6933 24.5277,62.7102 23.6438,59.506 20.3293,44.3696 19.8874,41.7178 c 3.8669,-0.9943 11.9324,-3.3145 11.9324,-3.3145 0,0 2.8726,7.1816 3.3145,8.6179 -9.0598,-0.3315 -9.7226,5.3032 -8.9492,7.8444 1.4363,7.0711 7.8444,6.9606 11.38,5.9662 C 40.8796,60.2795 45.52,58.2907 48.0612,57.1859 47.0668,53.3189 38.3384,29.233 37.2336,26.1394 32.9246,27.6862 7.62349,34.4258 7.73398,34.2049 z" />
    <path
       inkscape:connector-curvature="0"
       id="path616"
       style="font-size:12px;fill:#0d3c07;fill-rule:evenodd;stroke-width:1pt"
       transform="translate(14.83929,-11.4241)"
       d="M 7.73398,34.2049 12.0429,51.3301 C 5.08232,51.2196 4.19844,55.9705 4.64039,59.1746 6.73961,68.2343 17.4567,65.6933 24.5277,62.7102 23.6438,59.506 20.3293,44.3696 19.8874,41.7178 c 3.8669,-0.9943 11.9324,-3.3145 11.9324,-3.3145 0,0 2.8726,7.1816 3.3145,8.6179 -9.0598,-0.3315 -9.7226,5.3032 -8.9492,7.8444 1.4363,7.0711 7.8444,6.9606 11.38,5.9662 C 40.8796,60.2795 45.52,58.2907 48.0612,57.1859 47.0668,53.3189 38.3384,29.233 37.2336,26.1394 32.9246,27.6862 7.62349,34.4258 7.73398,34.2049 z" />
    <path
       inkscape:connector-curvature="0"
       id="path574"
       style="font-size:12px;fill:#2aaf18;fill-rule:evenodd;stroke-width:1pt"
       transform="translate(14.83929,-11.4241)"
       d="M 15.7994,54.2027 11.159,35.9726 35.7973,29.1225 44.7466,54.9761 c 0,0 -11.38,4.5299 -13.0373,2.5412 -2.7622,-0.1106 -4.9718,-6.2976 1.7678,-7.513 3.646,-0.1105 5.0823,-0.3315 6.0767,-1e-4 L 33.3666,34.0944 15.247,39.3977 20.3293,60.0584 c 0,0 -6.6291,4.8614 -12.37435,0.1105 -1.21534,-1.1048 -1.32583,-4.088 0.66291,-5.1928 1.65724,-2.0992 7.07104,-0.5524 7.18154,-0.7734 z" />
    <path
       inkscape:connector-curvature="0"
       id="path623"
       style="font-size:12px;fill:url(#radialGradient3285);fill-rule:evenodd;stroke-width:1pt"
       transform="matrix(1.488889,0,0,1.488889,8.83625,-40.12308)"
       d="m 14.4736,57.5725 c -1.8552,-0.7797 -2.4742,0.6307 -2.8726,2.4859 -1.5857,0 -2.72424,-0.8168 -2.72424,-2.1891 0,-1.3722 1.06433,-2.3375 2.65004,-2.3375 1.5857,0 2.9468,0.6685 2.9468,2.0407 z" />
    <path
       inkscape:connector-curvature="0"
       transform="translate(14.83929,-11.4241)"
       id="path625"
       style="font-size:12px;fill:url(#radialGradient3287);fill-rule:evenodd;stroke-width:1pt"
       d="m 37.3441,53.6503 c -3.9775,-1.7669 -2.8735,0.7734 -3.7013,3.2041 -2.0431,0 -3.7012,-1.4355 -3.7012,-3.2041 0,-1.7687 1.6581,-3.2041 3.7012,-3.2041 2.0431,0 3.7013,1.4354 3.7013,3.2041 z" />
    <path
       inkscape:connector-curvature="0"
       id="path630"
       style="font-size:12px;fill:#34674b;fill-rule:evenodd;stroke-width:1pt"
       transform="translate(14.83929,-11.4241)"
       d="m 15.3575,39.5082 18.0091,-5.3033 0.4419,-1.6573 -18.0091,5.1928 -0.4419,1.7678 z" />
    <path
       inkscape:connector-curvature="0"
       id="path631"
       style="font-size:12px;fill:#cbff87;fill-rule:evenodd;stroke-width:1pt"
       transform="translate(14.83929,-11.4241)"
       d="m 11.159,35.9726 2.2097,0.5525 22.76,-6.2977 -0.4419,-1.1049 -24.5278,6.8501 z" />
    <path
       inkscape:connector-curvature="0"
       id="path633"
       style="font-size:12px;fill:#cbff87;fill-rule:evenodd;stroke-width:1pt"
       transform="translate(14.83929,-11.4241)"
       d="m 33.6981,32.879 5.9662,17.0148 -6.4082,-15.6889 0.442,-1.3259 z" />
    <path
       inkscape:connector-curvature="0"
       id="path634"
       style="font-size:12px;fill:#cbff87;fill-rule:evenodd;stroke-width:1pt"
       transform="translate(14.83929,-11.4241)"
       d="m 13.1478,36.1936 c 0,0 2.9831,18.1196 2.8726,18.1196 -0.1105,0 -4.7509,-18.2301 -4.7509,-18.2301 l 1.8783,0.1105 z" />
  </g>
</svg>
