<?xml version="1.0" encoding="UTF-8" standalone="no"?>
<!-- Created with Sodipodi ("http://www.sodipodi.com/") -->

<svg
   xmlns:dc="http://purl.org/dc/elements/1.1/"
   xmlns:cc="http://creativecommons.org/ns#"
   xmlns:rdf="http://www.w3.org/1999/02/22-rdf-syntax-ns#"
   xmlns:svg="http://www.w3.org/2000/svg"
   xmlns="http://www.w3.org/2000/svg"
   xmlns:xlink="http://www.w3.org/1999/xlink"
   xmlns:sodipodi="http://sodipodi.sourceforge.net/DTD/sodipodi-0.dtd"
   xmlns:inkscape="http://www.inkscape.org/namespaces/inkscape"
   id="svg548"
   sodipodi:version="0.32"
   width="72pt"
   height="72pt"
   sodipodi:docname="computer.svg"
   inkscape:version="0.47+devel r9232"
   inkscape:output_extension="org.inkscape.output.svg.inkscape"
   version="1.1">
  <metadata
     id="metadata24">
    <rdf:RDF>
      <cc:Work
         rdf:about="">
        <dc:format>image/svg+xml</dc:format>
        <dc:type
           rdf:resource="http://purl.org/dc/dcmitype/StillImage" />
        <dc:title></dc:title>
      </cc:Work>
    </rdf:RDF>
  </metadata>
  <defs
     id="defs550">
    <linearGradient
       id="linearGradient565">
      <stop
         style="stop-color:#7fa8e3;stop-opacity:0.741176;"
         offset="0.000000"
         id="stop566" />
      <stop
         style="stop-color:#ffffff;stop-opacity:0;"
         offset="1.000000"
         id="stop567" />
    </linearGradient>
    <linearGradient
       inkscape:collect="always"
       xlink:href="#linearGradient565"
       id="linearGradient2511"
       gradientUnits="userSpaceOnUse"
       spreadMethod="pad"
       x1="17.4567051"
       y1="66.1161575"
       x2="85.5157166"
       y2="39.7912674" />
    <radialGradient
       gradientTransform="scale(1.559286,0.641319)"
       spreadMethod="pad"
       gradientUnits="userSpaceOnUse"
       r="14.8945398"
       fy="118.190964"
       fx="33.2134209"
       cy="118.190964"
       cx="33.2134209"
       id="radialGradient733"
       xlink:href="#linearGradient734" />
    <linearGradient
       gradientTransform="scale(1.185464,0.843551)"
       spreadMethod="pad"
       gradientUnits="userSpaceOnUse"
       y2="68.6665039"
       x2="37.3197212"
       y1="39.8445053"
       x1="40.2607956"
       id="linearGradient723"
       xlink:href="#linearGradient724" />
    <linearGradient
       gradientTransform="scale(1.033999,0.967119)"
       spreadMethod="pad"
       gradientUnits="userSpaceOnUse"
       y2="27.2048512"
       x2="24.0375099"
       y1="41.9262352"
       x1="45.4330635"
       id="linearGradient721"
       xlink:href="#linearGradient718" />
    <linearGradient
       id="linearGradient718">
      <stop
         id="stop719"
         offset="0.000000"
         style="stop-color:#e3e1cf;stop-opacity:1;" />
      <stop
         id="stop720"
         offset="1.000000"
         style="stop-color:#ffffff;stop-opacity:1;" />
    </linearGradient>
    <linearGradient
       id="linearGradient724">
      <stop
         id="stop725"
         offset="0.000000"
         style="stop-color:#ffffff;stop-opacity:0.490196;" />
      <stop
         id="stop726"
         offset="1.000000"
         style="stop-color:#ffffff;stop-opacity:0.176471;" />
    </linearGradient>
    <linearGradient
       id="linearGradient734">
      <stop
         id="stop735"
         offset="0.000000"
         style="stop-color:#2a2535;stop-opacity:1;" />
      <stop
         id="stop736"
         offset="1.000000"
         style="stop-color:#e3e1cf;stop-opacity:1;" />
    </linearGradient>
  </defs>
  <sodipodi:namedview
     id="base"
     showgrid="false"
     inkscape:zoom="2.8444444"
     inkscape:cx="34.484908"
     inkscape:cy="46.031694"
     inkscape:window-width="1023"
     inkscape:window-height="736"
     inkscape:window-x="0"
     inkscape:window-y="1"
     inkscape:current-layer="svg548"
     inkscape:window-maximized="0" />
  <g
     id="g2495"
     transform="matrix(-1.0087209,0,0,1.0087209,82.642861,-1.4151686)">
    <path
       sodipodi:nodetypes="cccccccc"
       id="path571"
       d="m -4.1926969,17.696413 8.83884,58.9992 c 0,0 34.0294999,12.3744 38.2279999,12.8163 5.7452,1.1049 17.8986,0.6629 26.5165,-7.292 4.4194,-7.734 7.9549,-41.9844 7.0711,-55.9057 0.4419,-5.7452 -2.8727,-9.7227 -6.6292,-11.7114 -3.7565,-1.9888 -12.3743,-6.62914 -48.3926,-8.17594 z"
       style="fill:#000000;fill-opacity:0.3;fill-rule:evenodd;stroke:none"
       inkscape:connector-curvature="0" />
    <path
       transform="translate(-2.872629,-1.767769)"
       sodipodi:nodetypes="cccccccc"
       id="path558"
       d="M 3.31456,15.5328 12.1534,74.532 c 0,0 34.0295,12.3744 38.228,12.8163 5.7452,1.1049 17.8986,0.6629 26.5165,-7.292 4.4194,-7.734 7.9549,-41.9844 7.0711,-55.9057 C 84.4109,18.4054 81.0963,14.4279 77.3398,12.4392 73.5833,10.4504 64.9655,5.81006 28.9472,4.26326 z"
       style="fill:#3d4e67;fill-opacity:1;fill-rule:evenodd;stroke:none"
       inkscape:connector-curvature="0" />
    <path
       transform="translate(-2.872629,-1.767769)"
       sodipodi:nodetypes="ccccc"
       id="path737"
       d="M 8.17593,17.0796 56.1266,29.675 51.7072,83.1499 C 39.0382,79.7617 27.695,75.9315 15.6889,70.3336 z"
       style="fill:#ffffff;fill-opacity:1;fill-rule:evenodd;stroke:none"
       inkscape:connector-curvature="0" />
    <path
       transform="translate(-2.872629,-1.767769)"
       sodipodi:nodetypes="ccccc"
       id="path552"
       d="M 8.17593,17.0796 56.1266,29.675 51.7072,83.1499 C 39.0382,79.7617 27.695,75.9315 15.6889,70.3336 z"
       style="fill:url(#linearGradient2511);fill-opacity:0.74117599;fill-rule:evenodd;stroke:none"
       inkscape:connector-curvature="0" />
    <path
       transform="translate(-2.872629,-1.767769)"
       sodipodi:nodetypes="cccccc"
       id="path553"
       d="M 8.17593,17.3005 30.273,7.7988 c 6.4082,0.66291 14.3632,0.22096 27.6214,3.3146 14.5841,3.3145 20.9922,6.1872 21.2132,9.5017 0.221,3.3146 -11.0485,10.3857 -22.76,9.2808 C 44.6361,28.791 10.4503,17.3676 8.07215,17.1956"
       style="fill:#ffffff;fill-opacity:1;fill-rule:evenodd;stroke:none"
       inkscape:connector-curvature="0" />
    <path
       transform="translate(-2.872629,-1.767769)"
       sodipodi:nodetypes="cccccc"
       id="path554"
       d="m 55.6066,29.7665 -5.0042,53.3834 c 0,0 20.5503,0 23.2019,-5.9662 2.6517,-5.9662 7.0711,-47.2878 6.8501,-50.3814 -0.221,-3.0936 -1.5602,-6.7329 -1.5602,-6.7329 0,0 -4.9529,10.5017 -23.4876,9.6971 z"
       style="fill:#fcffff;fill-opacity:1;fill-rule:evenodd;stroke:none"
       inkscape:connector-curvature="0" />
    <path
       transform="translate(-2.872629,-1.767769)"
       sodipodi:nodetypes="ccccc"
       id="path559"
       d="m 58.2582,32.6647 c -0.221,6.7765 -0.3638,13.4357 -0.5848,20.2122 9.2808,1.1048 15.1054,0.6908 22.2266,-3.8615 0.5892,-7.292 1.491,-14.7001 2.0802,-21.9921 -8.7652,5.3769 -12.9681,6.2307 -23.722,5.6414 z"
       style="fill:#3d4e67;fill-opacity:1;fill-rule:evenodd;stroke:none"
       inkscape:connector-curvature="0" />
    <path
       transform="translate(-2.872629,-1.767769)"
       sodipodi:nodetypes="ccccc"
       id="path555"
       d="m 59.2202,33.4314 c 12.3085,1.6506 20.3171,-3.4061 21.422,-4.7319 0.1282,1.5648 -1.2355,9.4738 -1.3917,10.4894 -1.25,0.625 -12.9669,5.4986 -20.2513,3.0813 10e-5,-3.9774 0.2198,-7.6412 0.221,-8.8388 z"
       style="fill:#e0f3f9;fill-opacity:1;fill-rule:evenodd;stroke:none"
       inkscape:connector-curvature="0" />
    <path
       transform="translate(-2.872629,-1.767769)"
       sodipodi:nodetypes="ccccc"
       id="path556"
       d="m 59.0249,43.1541 -0.3247,8.5398 c 0.4297,0.1172 15.1909,1.51 19.8862,-3.6639 0.3772,-4.1984 0.6239,-6.3055 0.7422,-7.9695 -5.0823,1.9888 -13.0116,4.8614 -20.3037,3.0936 z"
       style="fill:#e0f3f9;fill-opacity:1;fill-rule:evenodd;stroke:none"
       inkscape:connector-curvature="0" />
    <path
       transform="translate(-2.091379,-5.674019)"
       sodipodi:nodetypes="ccccc"
       id="path557"
       d="m 58.9992,62.8206 c 0,1.0312 0,2.0624 0,3.0936 5.5979,0.4419 10.9749,-0.442 16.1309,-1.9888 0.1473,-1.1785 0.2947,-2.357 0.442,-3.5355 -5.5243,2.1361 -10.6067,2.7253 -16.5729,2.4307 z"
       style="fill:#004086;fill-opacity:1;fill-rule:evenodd;stroke:none"
       inkscape:connector-curvature="0" />
    <path
       transform="translate(-2.872629,-1.767769)"
       id="path560"
       d="m 9.06251,16.7187 29.99999,8.75 16.4063,4.2187 c 0,0 -17.5,-3.5937 -20,-4.0625 -2.5,-0.4687 -27.96879,-7.8125 -27.96879,-7.8125 l 0.46875,-1.25 z"
       style="fill:#3d4e67;fill-opacity:1;fill-rule:evenodd;stroke:none"
       inkscape:connector-curvature="0" />
    <path
       transform="translate(-2.872629,-1.767769)"
       sodipodi:nodetypes="ccccccc"
       id="path561"
       d="m 78.7501,18.2811 c -0.1563,0 -3.125,6.4064 -8.5938,8.2814 -5.4687,1.875 -13.5937,2.8124 -13.5937,2.8124 0,0 7.9687,0.1563 10.7812,-0.7812 2.8125,-0.9375 7.6563,-2.9687 9.0625,-5.3125 1.4063,-2.3437 2.9688,-3.75 2.9688,-3.75 z"
       style="fill:#3d4e67;fill-opacity:1;fill-rule:evenodd;stroke:none"
       inkscape:connector-curvature="0" />
    <path
       transform="translate(-2.872629,-1.767769)"
       sodipodi:nodetypes="cccc"
       id="path562"
       d="m 51.2501,83.5937 c -0.1042,-18.6979 3.6979,-30.6771 4.375,-52.8125 -3.125,17.1354 -3.75,34.5833 -5.625,51.875 0.4167,0.3125 0.8333,0.625 1.25,0.9375 z"
       style="fill:#3d4e67;fill-opacity:1;fill-rule:evenodd;stroke:none"
       inkscape:connector-curvature="0" />
    <path
       transform="translate(-2.872629,-1.767769)"
       id="path563"
       d="m 75.6251,60.1562 -2.5,-1.7187 c 0,0 -7.3438,1.875 -9.8438,1.875 -2.5,0 -3.5937,-0.3125 -3.5937,-0.3125 l 0.1562,1.7187 c 0,0 7.0313,1.5625 15.7813,-1.5625 z"
       style="fill:#398096;fill-opacity:1;fill-rule:evenodd;stroke:none"
       inkscape:connector-curvature="0" />
  </g>
</svg>
